<!DOCTYPE svg PUBLIC "-//W3C//DTD SVG 1.1//EN" "http://www.w3.org/Graphics/SVG/1.1/DTD/svg11.dtd">
<svg xmlns="http://www.w3.org/2000/svg" version="1.1" width="4.15mm" height="4.61425mm" viewBox="-2.075 -1.9 4.15 4.61425">
            <title>Picture generated by PcbDraw </title>
            <desc>Picture generated by PcbDraw</desc>
        <g transform="" id="boardContainer"><g id="KiCAD footprint top"><g id="substrate-copper" style="fill:#666666; stroke:#666666;"><g style="fill-opacity: 1.00000;stroke-opacity: 1.00000;stroke-linecap: round;stroke-linejoin: round" transform="translate(0 0) scale(1 1)">
<path style="fill-opacity: 1.00000;fill-rule: evenodd" d="M -1.80000,-1.10000 -1.78858,-1.15740 -1.75607,-1.20607 -1.70740,-1.23858 -1.65000,-1.25000 -0.62500,-1.25000 -0.56760,-1.23858 -0.51893,-1.20607 -0.48642,-1.15740 -0.47500,-1.10000 -0.47500,-0.80000 -0.48642,-0.74260 -0.51893,-0.69393 -0.56760,-0.66142 -0.62500,-0.65000 -1.65000,-0.65000 -1.70740,-0.66142 -1.75607,-0.69393 -1.78858,-0.74260 -1.80000,-0.80000 Z"/> 
<path style="fill-opacity: 1.00000;fill-rule: evenodd" d="M -1.80000,-0.15000 -1.78858,-0.20740 -1.75607,-0.25607 -1.70740,-0.28858 -1.65000,-0.30000 -0.62500,-0.30000 -0.56760,-0.28858 -0.51893,-0.25607 -0.48642,-0.20740 -0.47500,-0.15000 -0.47500,0.15000 -0.48642,0.20740 -0.51893,0.25607 -0.56760,0.28858 -0.62500,0.30000 -1.65000,0.30000 -1.70740,0.28858 -1.75607,0.25607 -1.78858,0.20740 -1.80000,0.15000 Z"/> 
<path style="fill-opacity: 1.00000;fill-rule: evenodd" d="M -1.80000,0.80000 -1.78858,0.74260 -1.75607,0.69393 -1.70740,0.66142 -1.65000,0.65000 -0.62500,0.65000 -0.56760,0.66142 -0.51893,0.69393 -0.48642,0.74260 -0.47500,0.80000 -0.47500,1.10000 -0.48642,1.15740 -0.51893,1.20607 -0.56760,1.23858 -0.62500,1.25000 -1.65000,1.25000 -1.70740,1.23858 -1.75607,1.20607 -1.78858,1.15740 -1.80000,1.10000 Z"/> 
<path style="fill-opacity: 1.00000;fill-rule: evenodd" d="M 0.47500,0.80000 0.48642,0.74260 0.51893,0.69393 0.56760,0.66142 0.62500,0.65000 1.65000,0.65000 1.70740,0.66142 1.75607,0.69393 1.78858,0.74260 1.80000,0.80000 1.80000,1.10000 1.78858,1.15740 1.75607,1.20607 1.70740,1.23858 1.65000,1.25000 0.62500,1.25000 0.56760,1.23858 0.51893,1.20607 0.48642,1.15740 0.47500,1.10000 Z"/> 
<path style="fill-opacity: 1.00000;fill-rule: evenodd" d="M 0.47500,-0.15000 0.48642,-0.20740 0.51893,-0.25607 0.56760,-0.28858 0.62500,-0.30000 1.65000,-0.30000 1.70740,-0.28858 1.75607,-0.25607 1.78858,-0.20740 1.80000,-0.15000 1.80000,0.15000 1.78858,0.20740 1.75607,0.25607 1.70740,0.28858 1.65000,0.30000 0.62500,0.30000 0.56760,0.28858 0.51893,0.25607 0.48642,0.20740 0.47500,0.15000 Z"/> 
<path style="fill-opacity: 1.00000;fill-rule: evenodd" d="M 0.47500,-1.10000 0.48642,-1.15740 0.51893,-1.20607 0.56760,-1.23858 0.62500,-1.25000 1.65000,-1.25000 1.70740,-1.23858 1.75607,-1.20607 1.78858,-1.15740 1.80000,-1.10000 1.80000,-0.80000 1.78858,-0.74260 1.75607,-0.69393 1.70740,-0.66142 1.65000,-0.65000 0.62500,-0.65000 0.56760,-0.66142 0.51893,-0.69393 0.48642,-0.74260 0.47500,-0.80000 Z"/> 
</g> 
</g><g id="substrate-crt" style="fill:#000000; stroke:#000000;"><g style="stroke-width: 0.05000;stroke-opacity: 1;stroke-linecap: round;stroke-linejoin: round">
<path d="M2.05000 1.70000 L2.05000 -1.70000 "/>
<path d="M2.05000 -1.70000 L-2.05000 -1.70000 "/>
<path d="M-2.05000 1.70000 L2.05000 1.70000 "/>
<path d="M-2.05000 -1.70000 L-2.05000 1.70000 "/>
</g> 
</g><g id="substrate-fab" style="fill:#000000; stroke:#000000;"><g style="stroke-width: 0.06000;stroke-opacity: 1;stroke-linecap: round;stroke-linejoin: round">
<text x="0.00000" y="0.20000" textLength="0.90000" font-size="0.53333" lengthAdjust="spacingAndGlyphs" text-anchor="middle" opacity="0" stroke-opacity="0">U3</text>
<g class="stroked-text"><desc>U3</desc>
<path d="M-0.30476 -0.21807 L-0.30476 0.10574 "/>
<path d="M-0.30476 0.10574 L-0.28571 0.14383 "/>
<path d="M-0.28571 0.14383 L-0.26667 0.16288 "/>
<path d="M-0.26667 0.16288 L-0.22857 0.18193 "/>
<path d="M-0.22857 0.18193 L-0.15238 0.18193 "/>
<path d="M-0.15238 0.18193 L-0.11428 0.16288 "/>
<path d="M-0.11428 0.16288 L-0.09524 0.14383 "/>
<path d="M-0.09524 0.14383 L-0.07619 0.10574 "/>
<path d="M-0.07619 0.10574 L-0.07619 -0.21807 "/>
<path d="M0.07619 -0.21807 L0.32381 -0.21807 "/>
<path d="M0.32381 -0.21807 L0.19048 -0.06569 "/>
<path d="M0.19048 -0.06569 L0.24762 -0.06569 "/>
<path d="M0.24762 -0.06569 L0.28571 -0.04664 "/>
<path d="M0.28571 -0.04664 L0.30476 -0.02760 "/>
<path d="M0.30476 -0.02760 L0.32381 0.01050 "/>
<path d="M0.32381 0.01050 L0.32381 0.10574 "/>
<path d="M0.32381 0.10574 L0.30476 0.14383 "/>
<path d="M0.30476 0.14383 L0.28571 0.16288 "/>
<path d="M0.28571 0.16288 L0.24762 0.18193 "/>
<path d="M0.24762 0.18193 L0.13333 0.18193 "/>
<path d="M0.13333 0.18193 L0.09524 0.16288 "/>
<path d="M0.09524 0.16288 L0.07619 0.14383 "/>
</g></g>
<g style="stroke-width: 0.10000;stroke-opacity: 1;stroke-linecap: round;stroke-linejoin: round">
<path d="M0.80000 1.45000 L-0.80000 1.45000 "/>
<path d="M0.80000 -1.45000 L0.80000 1.45000 "/>
<path d="M-0.40000 -1.45000 L0.80000 -1.45000 "/>
<path d="M-0.80000 1.45000 L-0.80000 -1.05000 "/>
<path d="M-0.80000 -1.05000 L-0.40000 -1.45000 "/>
</g> 
</g><g id="substrate-silk" style="fill:#61caff; stroke:#61caff;" mask="url(#pads-mask-silkscreen)"><g style="stroke-width: 0.15000;stroke-opacity: 1;stroke-linecap: round;stroke-linejoin: round">
<text x="-0.10000" y="2.40000" textLength="1.53000" font-size="0.80000" lengthAdjust="spacingAndGlyphs" text-anchor="middle" opacity="0" stroke-opacity="0">U3</text>
<g class="stroked-text"><desc>U3</desc>
<path d="M-0.55714 1.76977 L-0.55714 2.25548 "/>
<path d="M-0.55714 2.25548 L-0.52857 2.31263 "/>
<path d="M-0.52857 2.31263 L-0.50000 2.34120 "/>
<path d="M-0.50000 2.34120 L-0.44286 2.36977 "/>
<path d="M-0.44286 2.36977 L-0.32857 2.36977 "/>
<path d="M-0.32857 2.36977 L-0.27143 2.34120 "/>
<path d="M-0.27143 2.34120 L-0.24286 2.31263 "/>
<path d="M-0.24286 2.31263 L-0.21429 2.25548 "/>
<path d="M-0.21429 2.25548 L-0.21429 1.76977 "/>
<path d="M0.01428 1.76977 L0.38571 1.76977 "/>
<path d="M0.38571 1.76977 L0.18571 1.99834 "/>
<path d="M0.18571 1.99834 L0.27143 1.99834 "/>
<path d="M0.27143 1.99834 L0.32857 2.02691 "/>
<path d="M0.32857 2.02691 L0.35714 2.05549 "/>
<path d="M0.35714 2.05549 L0.38571 2.11263 "/>
<path d="M0.38571 2.11263 L0.38571 2.25548 "/>
<path d="M0.38571 2.25548 L0.35714 2.31263 "/>
<path d="M0.35714 2.31263 L0.32857 2.34120 "/>
<path d="M0.32857 2.34120 L0.27143 2.36977 "/>
<path d="M0.27143 2.36977 L0.10000 2.36977 "/>
<path d="M0.10000 2.36977 L0.04286 2.34120 "/>
<path d="M0.04286 2.34120 L0.01428 2.31263 "/>
</g></g>
<g style="stroke-width: 0.12000;stroke-opacity: 1;stroke-linecap: round;stroke-linejoin: round">
<path d="M0.00000 1.56000 L0.80000 1.56000 "/>
<path d="M0.00000 1.56000 L-0.80000 1.56000 "/>
<path d="M0.00000 -1.56000 L0.80000 -1.56000 "/>
<path d="M0.00000 -1.56000 L-0.80000 -1.56000 "/>
<path style="fill-opacity: 1.00000;stroke-width: 0.12000;stroke-opacity: 1;stroke-linecap: round;stroke-linejoin: round;fill-rule: evenodd" d="M -1.30000,-1.51000 -1.54000,-1.84000 -1.06000,-1.84000 Z"/> 
</g> 
</g></g></g><rect id="origin" fill="red" width="1.0" height="1.0" x="0" y="0"/></svg>