<!DOCTYPE svg PUBLIC "-//W3C//DTD SVG 1.1//EN" "http://www.w3.org/Graphics/SVG/1.1/DTD/svg11.dtd">
<svg xmlns="http://www.w3.org/2000/svg" version="1.1" width="8.88925mm" height="8.65mm" viewBox="-2.275 -3.625 8.88925 8.65">
            <title>Picture generated by PcbDraw </title>
            <desc>Picture generated by PcbDraw</desc>
        <g transform="" id="boardContainer"><g id="KiCAD footprint top"><g id="substrate-copper" style="fill:#666666; stroke:#666666;"><g style="fill-opacity: 1.00000;stroke-opacity: 1.00000;stroke-linecap: round;stroke-linejoin: round" transform="translate(0 0) scale(1 1)">
<path style="fill-opacity: 1.00000;fill-rule: evenodd" d="M -1.20000,1.20000 -1.20000,-1.20000 1.20000,-1.20000 1.20000,1.20000 Z"/> 
</g>
<g style="fill-opacity: 1.00000">
<circle cx="3.50000" cy="0.00000" r="1.20000"/> 
</g> 
</g><g id="substrate-crt" style="fill:#000000; stroke:#000000;"><g style="stroke-width: 0.05000;stroke-opacity: 1;stroke-linecap: round;stroke-linejoin: round">
<path d="M-2.25000 5.00000 L5.75000 5.00000 "/>
<path d="M5.75000 5.00000 L5.75000 -3.60000 "/>
<path d="M-2.25000 -3.60000 L-2.25000 5.00000 "/>
<path d="M5.75000 -3.60000 L-2.25000 -3.60000 "/>
</g> 
</g><g id="substrate-fab" style="fill:#000000; stroke:#000000;"><g style="stroke-width: 0.10000;stroke-opacity: 1;stroke-linecap: round;stroke-linejoin: round">
<path d="M-1.35000 4.50000 L-1.75000 4.10000 "/>
<path d="M5.25000 4.50000 L-1.35000 4.50000 "/>
<path d="M-1.75000 4.10000 L5.25000 4.10000 "/>
<path d="M-1.75000 4.10000 L-1.75000 -3.10000 "/>
<path d="M-1.75000 3.00000 L5.25000 3.00000 "/>
<path d="M1.13800 -0.95500 L-0.95500 1.13800 "/>
<path d="M4.63800 -0.95500 L2.54600 1.13800 "/>
<path d="M0.95500 -1.13800 L-1.13800 0.95500 "/>
<path d="M4.45500 -1.13800 L2.36300 0.95500 "/>
<path d="M-1.75000 -3.10000 L5.25000 -3.10000 "/>
<path d="M5.25000 -3.10000 L5.25000 4.50000 "/>
<circle cx="0.00000" cy="0.00000" r="1.50000"/> 
<circle cx="3.50000" cy="0.00000" r="1.50000"/> 
</g> 
</g><g id="substrate-silk" style="fill:#61caff; stroke:#61caff;" mask="url(#pads-mask-silkscreen)"><g style="stroke-width: 0.15000;stroke-opacity: 1;stroke-linecap: round;stroke-linejoin: round">
<g transform="rotate(-90.000000 6.00000 0.00000)">
<text x="6.00000" y="0.30000" textLength="1.35857" font-size="0.80000" lengthAdjust="spacingAndGlyphs" text-anchor="middle" opacity="0" stroke-opacity="0">J7</text>
</g>
<g class="stroked-text"><desc>J7</desc>
<path d="M5.66977 0.20000 L6.09834 0.20000 "/>
<path d="M6.09834 0.20000 L6.18406 0.22857 "/>
<path d="M6.18406 0.22857 L6.24120 0.28571 "/>
<path d="M6.24120 0.28571 L6.26977 0.37143 "/>
<path d="M6.26977 0.37143 L6.26977 0.42857 "/>
<path d="M5.66977 -0.02857 L5.66977 -0.42857 "/>
<path d="M5.66977 -0.42857 L6.26977 -0.17143 "/>
</g></g>
<g style="stroke-width: 0.12000;stroke-opacity: 1;stroke-linecap: round;stroke-linejoin: round">
<path d="M-2.05000 4.80000 L-1.65000 4.80000 "/>
<path d="M-1.81000 4.56000 L5.31000 4.56000 "/>
<path d="M-2.05000 4.16000 L-2.05000 4.80000 "/>
<path d="M-1.81000 4.10000 L5.31000 4.10000 "/>
<path d="M-1.81000 3.00000 L5.31000 3.00000 "/>
<path d="M2.52500 1.18100 L2.43100 1.27400 "/>
<path d="M2.35500 0.94100 L2.22600 1.06900 "/>
<path d="M4.77500 -1.06900 L4.64600 -0.94100 "/>
<path d="M4.57000 -1.27500 L4.47600 -1.18100 "/>
<path d="M-1.81000 -3.16000 L-1.81000 4.56000 "/>
<path d="M-1.81000 -3.16000 L5.31000 -3.16000 "/>
<path d="M5.31000 -3.16000 L5.31000 4.56000 "/>
<path d="M-0.86600 1.44000 A1.68036 1.68036 0.0 0 0 0.02867 1.68010"/>
<path d="M0.00000 1.68000 A1.67999 1.67999 0.0 0 0 0.89026 1.42472"/>
<path d="M-1.44000 -0.86600 A1.68034 1.68034 0.0 0 0 -1.42536 0.88989"/>
<path d="M1.42500 0.89100 A1.68063 1.68063 0.0 0 0 1.42550 -0.89019"/>
<path d="M0.86600 -1.44000 A1.68034 1.68034 0.0 0 0 -0.88989 -1.42536"/>
<circle cx="3.50000" cy="0.00000" r="1.68000"/> 
</g> 
</g></g></g><rect id="origin" fill="red" width="1.0" height="1.0" x="0" y="0"/></svg>