<!DOCTYPE svg PUBLIC "-//W3C//DTD SVG 1.1//EN" "http://www.w3.org/Graphics/SVG/1.1/DTD/svg11.dtd">
<svg xmlns="http://www.w3.org/2000/svg" version="1.1" width="49.88925mm" height="29.05mm" viewBox="-4.61425 -10.625 49.88925 29.05">
            <title>Picture generated by PcbDraw </title>
            <desc>Picture generated by PcbDraw</desc>
        <g transform="" id="boardContainer"><g id="KiCAD footprint top"><g id="substrate-copper" style="fill:#666666; stroke:#666666;"><g style="fill-opacity: 1.00000;stroke-opacity: 1.00000;stroke-linecap: round;stroke-linejoin: round" transform="translate(0 0) scale(1 1)">
<path style="fill-opacity: 1.00000;fill-rule: evenodd" d="M -1.30000,1.00000 -1.30000,-1.00000 1.30000,-1.00000 1.30000,1.00000 Z"/> 
</g>
<g style="fill-opacity: 1.00000">
<circle cx="0.00000" cy="7.80000" r="1.30000"/> 
</g>
<g style="fill-opacity: 1.00000">
<circle cx="42.50000" cy="-7.40000" r="1.30000"/> 
</g>
<g style="fill-opacity: 1.00000">
<circle cx="42.50000" cy="15.20000" r="1.30000"/> 
</g> 
</g><g id="substrate-crt" style="fill:#000000; stroke:#000000;"><g style="stroke-width: 0.05000;stroke-opacity: 1;stroke-linecap: round;stroke-linejoin: round">
<path d="M45.25000 18.40000 L45.25000 -10.60000 "/>
<path d="M45.25000 -10.60000 L-2.75000 -10.60000 "/>
<path d="M-2.75000 18.40000 L45.25000 18.40000 "/>
<path d="M-2.75000 -10.60000 L-2.75000 18.40000 "/>
</g> 
</g><g id="substrate-fab" style="fill:#000000; stroke:#000000;"><g style="stroke-width: 0.15000;stroke-opacity: 1;stroke-linecap: round;stroke-linejoin: round">
<text x="22.35000" y="1.50000" textLength="3.15476" font-size="1.33333" lengthAdjust="spacingAndGlyphs" text-anchor="middle" opacity="0" stroke-opacity="0">PS1</text>
<g class="stroked-text"><desc>PS1</desc>
<path d="M21.13571 1.45482 L21.13571 0.45482 "/>
<path d="M21.13571 0.45482 L21.51667 0.45482 "/>
<path d="M21.51667 0.45482 L21.61190 0.50244 "/>
<path d="M21.61190 0.50244 L21.65952 0.55006 "/>
<path d="M21.65952 0.55006 L21.70714 0.64529 "/>
<path d="M21.70714 0.64529 L21.70714 0.78815 "/>
<path d="M21.70714 0.78815 L21.65952 0.88339 "/>
<path d="M21.65952 0.88339 L21.61190 0.93101 "/>
<path d="M21.61190 0.93101 L21.51667 0.97863 "/>
<path d="M21.51667 0.97863 L21.13571 0.97863 "/>
<path d="M22.08809 1.40720 L22.23095 1.45482 "/>
<path d="M22.23095 1.45482 L22.46905 1.45482 "/>
<path d="M22.46905 1.45482 L22.56428 1.40720 "/>
<path d="M22.56428 1.40720 L22.61190 1.35958 "/>
<path d="M22.61190 1.35958 L22.65952 1.26434 "/>
<path d="M22.65952 1.26434 L22.65952 1.16910 "/>
<path d="M22.65952 1.16910 L22.61190 1.07387 "/>
<path d="M22.61190 1.07387 L22.56428 1.02625 "/>
<path d="M22.56428 1.02625 L22.46905 0.97863 "/>
<path d="M22.46905 0.97863 L22.27857 0.93101 "/>
<path d="M22.27857 0.93101 L22.18333 0.88339 "/>
<path d="M22.18333 0.88339 L22.13571 0.83577 "/>
<path d="M22.13571 0.83577 L22.08809 0.74053 "/>
<path d="M22.08809 0.74053 L22.08809 0.64529 "/>
<path d="M22.08809 0.64529 L22.13571 0.55006 "/>
<path d="M22.13571 0.55006 L22.18333 0.50244 "/>
<path d="M22.18333 0.50244 L22.27857 0.45482 "/>
<path d="M22.27857 0.45482 L22.51667 0.45482 "/>
<path d="M22.51667 0.45482 L22.65952 0.50244 "/>
<path d="M23.61190 1.45482 L23.04048 1.45482 "/>
<path d="M23.32619 1.45482 L23.32619 0.45482 "/>
<path d="M23.32619 0.45482 L23.23095 0.59768 "/>
<path d="M23.23095 0.59768 L23.13571 0.69291 "/>
<path d="M23.13571 0.69291 L23.04048 0.74053 "/>
</g></g>
<g style="stroke-width: 0.10000;stroke-opacity: 1;stroke-linecap: round;stroke-linejoin: round">
<path d="M45.00000 18.15000 L45.00000 -10.35000 "/>
<path d="M-1.50000 0.00000 L-2.50000 1.00000 "/>
<path d="M-2.50000 18.15000 L45.00000 18.15000 "/>
<path d="M-2.50000 18.15000 L-2.50000 1.00000 "/>
<path d="M-2.50000 -1.00000 L-1.50000 0.00000 "/>
<path d="M-2.50000 -1.00000 L-2.50000 -10.35000 "/>
<path d="M-2.50000 -10.35000 L45.00000 -10.35000 "/>
</g> 
</g><g id="substrate-silk" style="fill:#61caff; stroke:#61caff;" mask="url(#pads-mask-silkscreen)"><g style="stroke-width: 0.15000;stroke-opacity: 1;stroke-linecap: round;stroke-linejoin: round">
<g transform="rotate(-90.000000 -4.00000 17.00000)">
<text x="-4.00000" y="17.30000" textLength="2.07286" font-size="0.80000" lengthAdjust="spacingAndGlyphs" text-anchor="middle" opacity="0" stroke-opacity="0">PS1</text>
</g>
<g class="stroked-text"><desc>PS1</desc>
<path d="M-3.73023 17.72857 L-4.33023 17.72857 "/>
<path d="M-4.33023 17.72857 L-4.33023 17.50000 "/>
<path d="M-4.33023 17.50000 L-4.30166 17.44286 "/>
<path d="M-4.30166 17.44286 L-4.27309 17.41429 "/>
<path d="M-4.27309 17.41429 L-4.21594 17.38571 "/>
<path d="M-4.21594 17.38571 L-4.13023 17.38571 "/>
<path d="M-4.13023 17.38571 L-4.07308 17.41429 "/>
<path d="M-4.07308 17.41429 L-4.04451 17.44286 "/>
<path d="M-4.04451 17.44286 L-4.01594 17.50000 "/>
<path d="M-4.01594 17.50000 L-4.01594 17.72857 "/>
<path d="M-3.75880 17.15714 L-3.73023 17.07143 "/>
<path d="M-3.73023 17.07143 L-3.73023 16.92857 "/>
<path d="M-3.73023 16.92857 L-3.75880 16.87143 "/>
<path d="M-3.75880 16.87143 L-3.78737 16.84286 "/>
<path d="M-3.78737 16.84286 L-3.84451 16.81429 "/>
<path d="M-3.84451 16.81429 L-3.90166 16.81429 "/>
<path d="M-3.90166 16.81429 L-3.95880 16.84286 "/>
<path d="M-3.95880 16.84286 L-3.98737 16.87143 "/>
<path d="M-3.98737 16.87143 L-4.01594 16.92857 "/>
<path d="M-4.01594 16.92857 L-4.04451 17.04286 "/>
<path d="M-4.04451 17.04286 L-4.07308 17.10000 "/>
<path d="M-4.07308 17.10000 L-4.10166 17.12857 "/>
<path d="M-4.10166 17.12857 L-4.15880 17.15714 "/>
<path d="M-4.15880 17.15714 L-4.21594 17.15714 "/>
<path d="M-4.21594 17.15714 L-4.27309 17.12857 "/>
<path d="M-4.27309 17.12857 L-4.30166 17.10000 "/>
<path d="M-4.30166 17.10000 L-4.33023 17.04286 "/>
<path d="M-4.33023 17.04286 L-4.33023 16.90000 "/>
<path d="M-4.33023 16.90000 L-4.30166 16.81429 "/>
<path d="M-3.73023 16.24286 L-3.73023 16.58571 "/>
<path d="M-3.73023 16.41428 L-4.33023 16.41428 "/>
<path d="M-4.33023 16.41428 L-4.24451 16.47143 "/>
<path d="M-4.24451 16.47143 L-4.18737 16.52857 "/>
<path d="M-4.18737 16.52857 L-4.15880 16.58571 "/>
</g></g>
<g style="stroke-width: 0.12000;stroke-opacity: 1;stroke-linecap: round;stroke-linejoin: round">
<path d="M45.11000 18.26000 L45.11000 -10.46000 "/>
<path d="M45.11000 -10.46000 L-2.60000 -10.46000 "/>
<path d="M-2.60000 18.26000 L45.11000 18.26000 "/>
<path d="M-2.61000 -10.46000 L-2.61000 18.26000 "/>
<path d="M-2.99000 -1.00000 L-2.99000 1.01000 "/>
</g> 
</g></g></g><rect id="origin" fill="red" width="1.0" height="1.0" x="0" y="0"/></svg>