%TF.GenerationSoftware,KiCad,Pcbnew,8.0.6*%
%TF.CreationDate,2024-11-24T17:48:57+01:00*%
%TF.ProjectId,Gaggimate,47616767-696d-4617-9465-2e6b69636164,1.0*%
%TF.SameCoordinates,Original*%
%TF.FileFunction,Copper,L2,Bot*%
%TF.FilePolarity,Positive*%
%FSLAX46Y46*%
G04 Gerber Fmt 4.6, Leading zero omitted, Abs format (unit mm)*
G04 Created by KiCad (PCBNEW 8.0.6) date 2024-11-24 17:48:57*
%MOMM*%
%LPD*%
G01*
G04 APERTURE LIST*
G04 Aperture macros list*
%AMRoundRect*
0 Rectangle with rounded corners*
0 $1 Rounding radius*
0 $2 $3 $4 $5 $6 $7 $8 $9 X,Y pos of 4 corners*
0 Add a 4 corners polygon primitive as box body*
4,1,4,$2,$3,$4,$5,$6,$7,$8,$9,$2,$3,0*
0 Add four circle primitives for the rounded corners*
1,1,$1+$1,$2,$3*
1,1,$1+$1,$4,$5*
1,1,$1+$1,$6,$7*
1,1,$1+$1,$8,$9*
0 Add four rect primitives between the rounded corners*
20,1,$1+$1,$2,$3,$4,$5,0*
20,1,$1+$1,$4,$5,$6,$7,0*
20,1,$1+$1,$6,$7,$8,$9,0*
20,1,$1+$1,$8,$9,$2,$3,0*%
G04 Aperture macros list end*
%TA.AperFunction,ComponentPad*%
%ADD10RoundRect,0.250000X-0.750000X0.600000X-0.750000X-0.600000X0.750000X-0.600000X0.750000X0.600000X0*%
%TD*%
%TA.AperFunction,ComponentPad*%
%ADD11O,2.000000X1.700000*%
%TD*%
%TA.AperFunction,ComponentPad*%
%ADD12C,3.000000*%
%TD*%
%TA.AperFunction,ComponentPad*%
%ADD13RoundRect,0.250000X-0.600000X-0.725000X0.600000X-0.725000X0.600000X0.725000X-0.600000X0.725000X0*%
%TD*%
%TA.AperFunction,ComponentPad*%
%ADD14O,1.700000X1.950000*%
%TD*%
%TA.AperFunction,ComponentPad*%
%ADD15R,3.000000X3.000000*%
%TD*%
%TA.AperFunction,ComponentPad*%
%ADD16C,3.600000*%
%TD*%
%TA.AperFunction,ConnectorPad*%
%ADD17C,5.600000*%
%TD*%
%TA.AperFunction,ComponentPad*%
%ADD18R,2.400000X2.400000*%
%TD*%
%TA.AperFunction,ComponentPad*%
%ADD19C,2.400000*%
%TD*%
%TA.AperFunction,ComponentPad*%
%ADD20O,1.000000X2.100000*%
%TD*%
%TA.AperFunction,ComponentPad*%
%ADD21O,1.000000X1.600000*%
%TD*%
%TA.AperFunction,ComponentPad*%
%ADD22R,2.600000X2.000000*%
%TD*%
%TA.AperFunction,ComponentPad*%
%ADD23C,2.600000*%
%TD*%
%TA.AperFunction,ComponentPad*%
%ADD24R,1.700000X1.700000*%
%TD*%
%TA.AperFunction,ComponentPad*%
%ADD25O,1.700000X1.700000*%
%TD*%
%TA.AperFunction,ViaPad*%
%ADD26C,0.800000*%
%TD*%
%TA.AperFunction,Conductor*%
%ADD27C,0.500000*%
%TD*%
%TA.AperFunction,Conductor*%
%ADD28C,0.300000*%
%TD*%
%TA.AperFunction,Conductor*%
%ADD29C,0.250000*%
%TD*%
%TA.AperFunction,Conductor*%
%ADD30C,2.000000*%
%TD*%
G04 APERTURE END LIST*
D10*
%TO.P,J10,1,Pin_1*%
%TO.N,GND*%
X193400000Y-67650000D03*
D11*
%TO.P,J10,2,Pin_2*%
%TO.N,+3.3V*%
X193400000Y-70150000D03*
%TD*%
D12*
%TO.P,K1,11*%
%TO.N,LINE*%
X238800000Y-74050000D03*
%TO.P,K1,12*%
%TO.N,unconnected-(K1-Pad12)*%
X232800000Y-59850000D03*
%TO.P,K1,14*%
%TO.N,/LINE_PUMP*%
X244800000Y-59850000D03*
%TO.P,K1,A1*%
%TO.N,+5V*%
X244800000Y-72050000D03*
%TO.P,K1,A2*%
%TO.N,Net-(D5-K)*%
X232800000Y-72050000D03*
%TD*%
D13*
%TO.P,J9,1,Pin_1*%
%TO.N,/BTN_BREW*%
X165200000Y-59000000D03*
D14*
%TO.P,J9,2,Pin_2*%
%TO.N,/BTN_STEAM*%
X167700000Y-59000000D03*
%TO.P,J9,3,Pin_3*%
%TO.N,GND*%
X170200000Y-59000000D03*
%TO.P,J9,4,Pin_4*%
X172700000Y-59000000D03*
%TD*%
D15*
%TO.P,J3,1,Pin_1*%
%TO.N,/LINE_PUMP*%
X241700000Y-52540000D03*
D12*
%TO.P,J3,2,Pin_2*%
%TO.N,/LINE_VALVE*%
X241700000Y-47460000D03*
%TO.P,J3,3,Pin_3*%
%TO.N,/LINE_GRINDER*%
X241700000Y-42380000D03*
%TD*%
%TO.P,K3,11*%
%TO.N,LINE*%
X205300000Y-74050000D03*
%TO.P,K3,12*%
%TO.N,unconnected-(K3-Pad12)*%
X199300000Y-59850000D03*
%TO.P,K3,14*%
%TO.N,/LINE_GRINDER*%
X211300000Y-59850000D03*
%TO.P,K3,A1*%
%TO.N,+5V*%
X211300000Y-72050000D03*
%TO.P,K3,A2*%
%TO.N,Net-(D10-A)*%
X199300000Y-72050000D03*
%TD*%
D13*
%TO.P,J5,1,Pin_1*%
%TO.N,+5V*%
X165200000Y-51700000D03*
D14*
%TO.P,J5,2,Pin_2*%
%TO.N,/SCL*%
X167700000Y-51700000D03*
%TO.P,J5,3,Pin_3*%
%TO.N,/SDA*%
X170200000Y-51700000D03*
%TO.P,J5,4,Pin_4*%
%TO.N,/SDA2*%
X172700000Y-51700000D03*
%TO.P,J5,5,Pin_5*%
%TO.N,GND*%
X175200000Y-51700000D03*
%TD*%
D16*
%TO.P,H1,1,1*%
%TO.N,GND*%
X165200000Y-29600000D03*
D17*
X165200000Y-29600000D03*
%TD*%
D18*
%TO.P,J7,1,Pin_1*%
%TO.N,Net-(J7-Pin_1)*%
X166900000Y-41700000D03*
D19*
%TO.P,J7,2,Pin_2*%
%TO.N,Net-(J7-Pin_2)*%
X166900000Y-45200000D03*
%TD*%
D13*
%TO.P,J4,1,Pin_1*%
%TO.N,+5V*%
X178970000Y-59000000D03*
D14*
%TO.P,J4,2,Pin_2*%
%TO.N,/UART_TX0*%
X181470000Y-59000000D03*
%TO.P,J4,3,Pin_3*%
%TO.N,/UART_RX0*%
X183970000Y-59000000D03*
%TO.P,J4,4,Pin_4*%
%TO.N,GND*%
X186470000Y-59000000D03*
%TD*%
D16*
%TO.P,H1,1,1*%
%TO.N,GND*%
X243200000Y-89600000D03*
D17*
X243200000Y-89600000D03*
%TD*%
D20*
%TO.P,J1,S1,SHIELD*%
%TO.N,GND*%
X186080000Y-86370000D03*
D21*
X186080000Y-90550000D03*
D20*
X194720000Y-86370000D03*
D21*
X194720000Y-90550000D03*
%TD*%
D22*
%TO.P,PS1,1,AC/L*%
%TO.N,LINE*%
X230200000Y-45100000D03*
D23*
%TO.P,PS1,2,AC/N*%
%TO.N,NEUT*%
X230200000Y-37300000D03*
%TO.P,PS1,3,-Vout*%
%TO.N,GND*%
X187700000Y-52500000D03*
%TO.P,PS1,4,+Vout*%
%TO.N,+5V*%
X187700000Y-29900000D03*
%TD*%
D10*
%TO.P,J8,1,Pin_1*%
%TO.N,GND*%
X193400000Y-59100000D03*
D11*
%TO.P,J8,2,Pin_2*%
%TO.N,/SSR*%
X193400000Y-61600000D03*
%TD*%
D24*
%TO.P,J6,1,Pin_1*%
%TO.N,+5V*%
X186860000Y-65100000D03*
D25*
%TO.P,J6,2,Pin_2*%
X184320000Y-65100000D03*
%TO.P,J6,3,Pin_3*%
%TO.N,+3.3V*%
X181780000Y-65100000D03*
%TO.P,J6,4,Pin_4*%
%TO.N,/GPIO13*%
X179240000Y-65100000D03*
%TO.P,J6,5,Pin_5*%
%TO.N,/GPIO12*%
X176700000Y-65100000D03*
%TO.P,J6,6,Pin_6*%
%TO.N,/GPIO8*%
X174160000Y-65100000D03*
%TO.P,J6,7,Pin_7*%
%TO.N,/GPIO2*%
X171620000Y-65100000D03*
%TO.P,J6,8,Pin_8*%
%TO.N,/GPIO1*%
X169080000Y-65100000D03*
%TO.P,J6,9,Pin_9*%
%TO.N,GND*%
X166540000Y-65100000D03*
%TO.P,J6,10,Pin_10*%
X164000000Y-65100000D03*
%TD*%
D15*
%TO.P,J2,1,Pin_1*%
%TO.N,LINE*%
X241700000Y-35680000D03*
D12*
%TO.P,J2,2,Pin_2*%
%TO.N,NEUT*%
X241700000Y-30600000D03*
%TD*%
%TO.P,K2,11*%
%TO.N,LINE*%
X222100000Y-74050000D03*
%TO.P,K2,12*%
%TO.N,unconnected-(K2-Pad12)*%
X216100000Y-59850000D03*
%TO.P,K2,14*%
%TO.N,/LINE_VALVE*%
X228100000Y-59850000D03*
%TO.P,K2,A1*%
%TO.N,+5V*%
X228100000Y-72050000D03*
%TO.P,K2,A2*%
%TO.N,Net-(D7-K)*%
X216100000Y-72050000D03*
%TD*%
D26*
%TO.N,+5V*%
X225000000Y-79500000D03*
X208600000Y-79500000D03*
X191000000Y-74000000D03*
X240900000Y-79500000D03*
X189000000Y-68000000D03*
%TO.N,Net-(D1-A)*%
X191800000Y-82200000D03*
X188300000Y-88000000D03*
X186362500Y-82500000D03*
%TO.N,GND*%
X187100000Y-55100000D03*
X194100000Y-65800000D03*
X187700000Y-61200000D03*
X212500000Y-77500000D03*
X192400000Y-40600000D03*
X186400000Y-49000000D03*
X192500000Y-35200000D03*
X229200000Y-77400000D03*
X171700000Y-47000000D03*
X193000000Y-68100000D03*
X168500000Y-80700000D03*
X171300000Y-27200000D03*
X162700000Y-35900000D03*
X179800000Y-81400000D03*
X217400000Y-92200000D03*
X180000000Y-50900000D03*
X165600000Y-55800000D03*
X180900000Y-53900000D03*
X175000000Y-32100000D03*
X164700000Y-83900000D03*
X194400000Y-76800000D03*
X175637347Y-60737347D03*
X170100000Y-87700000D03*
X180100000Y-34900000D03*
X169100000Y-73400000D03*
X190000000Y-78500000D03*
X184500000Y-72500000D03*
X214100000Y-85800000D03*
X200900000Y-76500000D03*
X244200000Y-79200000D03*
X190300000Y-91600000D03*
X188637500Y-82500000D03*
X176600000Y-41200000D03*
X202285192Y-81181049D03*
X180600000Y-63100000D03*
X234572714Y-76768037D03*
X239400000Y-92100000D03*
X168500000Y-32100000D03*
X212300000Y-81400000D03*
X218700000Y-81600000D03*
X188200000Y-73200000D03*
X178700000Y-32300000D03*
X230100000Y-85800000D03*
X164000000Y-82200000D03*
X169900000Y-36200000D03*
X192300000Y-46500000D03*
X228700000Y-81200000D03*
X193200000Y-52200000D03*
X194900000Y-84600000D03*
X192600000Y-28800000D03*
X175000000Y-34200000D03*
X217800000Y-76200000D03*
X167600000Y-76900000D03*
X172100000Y-73400000D03*
%TO.N,+3.3V*%
X176700000Y-89087500D03*
X167900000Y-89087500D03*
X178900000Y-89087500D03*
X185900000Y-36100000D03*
%TO.N,/CHIP_PU*%
X172300000Y-90950000D03*
X166800000Y-87700000D03*
X197500000Y-89900000D03*
%TO.N,/SPI_MISO*%
X168400000Y-84600000D03*
X164825000Y-37013299D03*
%TO.N,/SPI_CLK*%
X170900000Y-82600000D03*
X164825000Y-34513299D03*
X180193750Y-92206250D03*
%TO.N,/MAX_CS*%
X164825000Y-35713299D03*
X171655000Y-84400000D03*
%TO.N,/SCL*%
X176000000Y-84400000D03*
%TO.N,/SDA*%
X177200000Y-84400000D03*
%TO.N,/RELAY_PUMP*%
X230700000Y-81900000D03*
X183700000Y-81800000D03*
%TO.N,/RELAY_VALVE*%
X183700000Y-80600000D03*
X214400000Y-81900000D03*
%TO.N,/RELAY_GRINDER*%
X183700000Y-79300000D03*
X198000000Y-81900000D03*
%TO.N,/GPIO12*%
X179800000Y-78000000D03*
%TO.N,/GPIO13*%
X179800000Y-76700000D03*
%TO.N,/SSR*%
X184200000Y-74100000D03*
X188000000Y-68900000D03*
%TO.N,/BOOT*%
X203500000Y-88800000D03*
X180900000Y-70100000D03*
X177800165Y-89937000D03*
%TO.N,/SDA2*%
X178400000Y-63100000D03*
%TO.N,/GPIO8*%
X178500000Y-84400000D03*
%TO.N,/BTN_BREW*%
X176263359Y-87975000D03*
X176042653Y-70000000D03*
X175100000Y-82300000D03*
X172600000Y-63200000D03*
%TO.N,/BTN_STEAM*%
X177700000Y-74000000D03*
X174350000Y-87750000D03*
X170800000Y-62500000D03*
X175812653Y-73287347D03*
X174100000Y-82400000D03*
%TD*%
D27*
%TO.N,+5V*%
X189000000Y-68000000D02*
X189000000Y-67089950D01*
X187700000Y-45900000D02*
X187700000Y-29900000D01*
X178970000Y-59750000D02*
X178970000Y-59075000D01*
X191000000Y-74000000D02*
X189000000Y-72000000D01*
X191000000Y-74000000D02*
X192500000Y-75500000D01*
X225000000Y-79500000D02*
X208600000Y-79500000D01*
X190749500Y-65100000D02*
X190749500Y-48949500D01*
X189000000Y-67089950D02*
X190749500Y-65340450D01*
X189000000Y-72000000D02*
X189000000Y-68000000D01*
X190749500Y-48949500D02*
X187700000Y-45900000D01*
X190749500Y-65340450D02*
X190749500Y-65100000D01*
X192500000Y-75500000D02*
X196200000Y-75500000D01*
X184320000Y-65100000D02*
X178970000Y-59750000D01*
X196200000Y-75500000D02*
X200200000Y-79500000D01*
X225000000Y-79500000D02*
X240900000Y-79500000D01*
X200200000Y-79500000D02*
X208600000Y-79500000D01*
D28*
%TO.N,Net-(D1-A)*%
X192900000Y-86060661D02*
X190935661Y-88025000D01*
D29*
X187862500Y-81000000D02*
X186362500Y-82500000D01*
X191800000Y-82200000D02*
X190600000Y-81000000D01*
D28*
X191800000Y-82200000D02*
X192900000Y-83300000D01*
X188325000Y-88025000D02*
X188300000Y-88000000D01*
X192900000Y-83300000D02*
X192900000Y-86060661D01*
X190935661Y-88025000D02*
X188325000Y-88025000D01*
D29*
X190600000Y-81000000D02*
X187862500Y-81000000D01*
D30*
%TO.N,/LINE_PUMP*%
X244800000Y-55600000D02*
X241740000Y-52540000D01*
X244800000Y-59850000D02*
X244800000Y-55600000D01*
X241740000Y-52540000D02*
X241700000Y-52540000D01*
%TO.N,/LINE_VALVE*%
X228100000Y-59850000D02*
X228100000Y-57855123D01*
X228100000Y-57855123D02*
X238495123Y-47460000D01*
X238495123Y-47460000D02*
X241700000Y-47460000D01*
%TO.N,/LINE_GRINDER*%
X226500000Y-30900000D02*
X233000000Y-30900000D01*
X235600000Y-38600000D02*
X239380000Y-42380000D01*
X211300000Y-46100000D02*
X226500000Y-30900000D01*
X235600000Y-33500000D02*
X235600000Y-38600000D01*
X211300000Y-59850000D02*
X211300000Y-46100000D01*
X239380000Y-42380000D02*
X241700000Y-42380000D01*
X233000000Y-30900000D02*
X235600000Y-33500000D01*
D27*
%TO.N,+3.3V*%
X189900000Y-65200000D02*
X189900000Y-49089950D01*
X183580000Y-66900000D02*
X188200000Y-66900000D01*
X186700000Y-45889950D02*
X186700000Y-36900000D01*
X182400000Y-85100000D02*
X182400000Y-72700000D01*
X178900000Y-88600000D02*
X182400000Y-85100000D01*
X188200000Y-66900000D02*
X189900000Y-65200000D01*
X186700000Y-36900000D02*
X185900000Y-36100000D01*
X182400000Y-72700000D02*
X188200000Y-66900000D01*
X168012500Y-89087500D02*
X168000000Y-89100000D01*
X176700000Y-89087500D02*
X168012500Y-89087500D01*
X189900000Y-49089950D02*
X186700000Y-45889950D01*
X181780000Y-65100000D02*
X183580000Y-66900000D01*
X178900000Y-89087500D02*
X178900000Y-88600000D01*
D29*
%TO.N,/CHIP_PU*%
X172350000Y-90900000D02*
X172300000Y-90950000D01*
X167750000Y-90950000D02*
X172300000Y-90950000D01*
X196900000Y-89300000D02*
X183700000Y-89300000D01*
X183700000Y-89300000D02*
X182100000Y-90900000D01*
X166800000Y-90000000D02*
X167750000Y-90950000D01*
X172300000Y-90950000D02*
X172250000Y-90900000D01*
X166800000Y-87700000D02*
X166800000Y-90000000D01*
X197500000Y-89900000D02*
X196900000Y-89300000D01*
X182100000Y-90900000D02*
X172350000Y-90900000D01*
%TO.N,/SPI_MISO*%
X168300000Y-84600000D02*
X168400000Y-84600000D01*
X164300000Y-67736396D02*
X162375000Y-65811396D01*
X168300000Y-84600000D02*
X164300000Y-80600000D01*
X163050000Y-63751903D02*
X163050000Y-38788299D01*
X162375000Y-64426903D02*
X163050000Y-63751903D01*
X168400000Y-84700000D02*
X168300000Y-84600000D01*
X163050000Y-38788299D02*
X164825000Y-37013299D01*
X164300000Y-80600000D02*
X164300000Y-67736396D01*
X162375000Y-65811396D02*
X162375000Y-64426903D01*
X168400000Y-84600000D02*
X168400000Y-84700000D01*
%TO.N,/SPI_CLK*%
X180193750Y-92206250D02*
X167306250Y-92206250D01*
X165700000Y-90600000D02*
X165700000Y-87400000D01*
X166000000Y-35688299D02*
X164825000Y-34513299D01*
X172380000Y-85245305D02*
X172380000Y-84080000D01*
X167572792Y-82600000D02*
X165200000Y-80227208D01*
X165200000Y-80227208D02*
X165200000Y-61300000D01*
X165200000Y-61300000D02*
X164000000Y-60100000D01*
X164000000Y-39500000D02*
X166000000Y-37500000D01*
X172380000Y-84080000D02*
X170900000Y-82600000D01*
X170900000Y-82600000D02*
X167572792Y-82600000D01*
X164000000Y-60100000D02*
X164000000Y-39500000D01*
X172225305Y-85400000D02*
X172380000Y-85245305D01*
X167306250Y-92206250D02*
X165700000Y-90600000D01*
X167700000Y-85400000D02*
X172225305Y-85400000D01*
X166000000Y-37500000D02*
X166000000Y-35688299D01*
X165700000Y-87400000D02*
X167700000Y-85400000D01*
%TO.N,/MAX_CS*%
X164750000Y-67550000D02*
X162825000Y-65625000D01*
X164750000Y-80413604D02*
X164750000Y-67550000D01*
X163500000Y-63938299D02*
X163500000Y-39363604D01*
X165550000Y-37313604D02*
X165550000Y-36438299D01*
X170855000Y-83600000D02*
X167936396Y-83600000D01*
X165550000Y-36438299D02*
X164825000Y-35713299D01*
X162825000Y-64613299D02*
X163500000Y-63938299D01*
X163500000Y-39363604D02*
X165550000Y-37313604D01*
X171655000Y-84400000D02*
X170855000Y-83600000D01*
X162825000Y-65625000D02*
X162825000Y-64613299D01*
X167936396Y-83600000D02*
X164750000Y-80413604D01*
%TO.N,/SCL*%
X167700000Y-51700000D02*
X166525000Y-52875000D01*
X176000000Y-75500000D02*
X176000000Y-84300000D01*
X166525000Y-52875000D02*
X166525000Y-63423299D01*
X176100000Y-84400000D02*
X176000000Y-84300000D01*
X167715000Y-64613299D02*
X167715000Y-67215000D01*
X176000000Y-84400000D02*
X176100000Y-84400000D01*
X166525000Y-63423299D02*
X167715000Y-64613299D01*
X167715000Y-67215000D02*
X176000000Y-75500000D01*
X176000000Y-84300000D02*
X176000000Y-84400000D01*
%TO.N,/SDA*%
X170255000Y-68755000D02*
X177200000Y-75700000D01*
X170200000Y-51700000D02*
X168875000Y-53025000D01*
X177400000Y-84400000D02*
X177300000Y-84300000D01*
X177200000Y-84400000D02*
X177400000Y-84400000D01*
X168875000Y-53025000D02*
X168875000Y-63233299D01*
X168875000Y-63233299D02*
X170255000Y-64613299D01*
X170255000Y-64613299D02*
X170255000Y-68755000D01*
X177200000Y-75700000D02*
X177200000Y-84400000D01*
%TO.N,/RELAY_PUMP*%
X228775000Y-83825000D02*
X230700000Y-81900000D01*
X183700000Y-81800000D02*
X184700000Y-81800000D01*
X184700000Y-81800000D02*
X185950000Y-80550000D01*
X198263299Y-83825000D02*
X228775000Y-83825000D01*
X191575305Y-80550000D02*
X193325305Y-82300000D01*
X196738299Y-82300000D02*
X198263299Y-83825000D01*
X185950000Y-80550000D02*
X191575305Y-80550000D01*
X193325305Y-82300000D02*
X196738299Y-82300000D01*
%TO.N,/RELAY_VALVE*%
X197699695Y-82625000D02*
X213675000Y-82625000D01*
X193511701Y-81850000D02*
X196924695Y-81850000D01*
X191761701Y-80100000D02*
X193511701Y-81850000D01*
X185263604Y-80600000D02*
X185763604Y-80100000D01*
X185763604Y-80100000D02*
X191761701Y-80100000D01*
X183700000Y-80600000D02*
X185263604Y-80600000D01*
X213675000Y-82625000D02*
X214400000Y-81900000D01*
X196924695Y-81850000D02*
X197699695Y-82625000D01*
%TO.N,/RELAY_GRINDER*%
X191948097Y-79650000D02*
X193698097Y-81400000D01*
X193698097Y-81400000D02*
X197500000Y-81400000D01*
X197500000Y-81400000D02*
X198000000Y-81900000D01*
X183700000Y-79300000D02*
X185100000Y-79300000D01*
X185450000Y-79650000D02*
X191948097Y-79650000D01*
X185100000Y-79300000D02*
X185450000Y-79650000D01*
%TO.N,/GPIO12*%
X178950000Y-67350000D02*
X178950000Y-77150000D01*
X178950000Y-77150000D02*
X179800000Y-78000000D01*
X176700000Y-65100000D02*
X178950000Y-67350000D01*
%TO.N,/GPIO13*%
X179800000Y-76700000D02*
X179900000Y-76700000D01*
X179800000Y-76600000D02*
X179800000Y-76700000D01*
X179838568Y-65698568D02*
X179838568Y-76638568D01*
X179240000Y-65100000D02*
X179838568Y-65698568D01*
X179900000Y-76700000D02*
X179900000Y-76700000D01*
X179838568Y-76638568D02*
X179800000Y-76600000D01*
D28*
%TO.N,/SSR*%
X184250000Y-74100000D02*
X184200000Y-74100000D01*
X188000000Y-70350000D02*
X184250000Y-74100000D01*
X188000000Y-68900000D02*
X188000000Y-70350000D01*
D29*
%TO.N,/BOOT*%
X203300000Y-88850000D02*
X203250000Y-88850000D01*
X177800165Y-89937000D02*
X177500000Y-89636835D01*
X177500000Y-87700000D02*
X180900000Y-84300000D01*
X182319922Y-90043682D02*
X183513604Y-88850000D01*
X177500000Y-89636835D02*
X177500000Y-87700000D01*
X180900000Y-70100000D02*
X181100000Y-70100000D01*
X183513604Y-88850000D02*
X203200000Y-88850000D01*
X177906847Y-90043682D02*
X182319922Y-90043682D01*
X180900000Y-84300000D02*
X180900000Y-70100000D01*
X203500000Y-88800000D02*
X203300000Y-88850000D01*
X177800165Y-89937000D02*
X177906847Y-90043682D01*
X203200000Y-88850000D02*
X203500000Y-88800000D01*
%TO.N,/SDA2*%
X178400000Y-61300000D02*
X172700000Y-55600000D01*
X178400000Y-63100000D02*
X178400000Y-61300000D01*
X172700000Y-55600000D02*
X172700000Y-51700000D01*
%TO.N,/GPIO8*%
X178500000Y-73774695D02*
X178500000Y-84400000D01*
X178500000Y-84400000D02*
X178500000Y-84300000D01*
X174160000Y-71023604D02*
X175698743Y-72562347D01*
X177287652Y-72562347D02*
X178500000Y-73774695D01*
X174160000Y-65100000D02*
X174160000Y-71023604D01*
X175698743Y-72562347D02*
X177287652Y-72562347D01*
%TO.N,/BTN_BREW*%
X175500000Y-64778299D02*
X175500000Y-68500000D01*
X175275000Y-86986641D02*
X175275000Y-82475000D01*
X173921701Y-63200000D02*
X175500000Y-64778299D01*
X176042653Y-69042653D02*
X176042653Y-70000000D01*
X172870000Y-63200000D02*
X172985000Y-63315000D01*
X175500000Y-68500000D02*
X176042653Y-69042653D01*
X172600000Y-63200000D02*
X173921701Y-63200000D01*
X176263359Y-87975000D02*
X175275000Y-86986641D01*
X175275000Y-82475000D02*
X175100000Y-82300000D01*
X172600000Y-63200000D02*
X172870000Y-63200000D01*
%TO.N,/BTN_STEAM*%
X174100000Y-87500000D02*
X174100000Y-82400000D01*
X172800000Y-64500000D02*
X172800000Y-70300000D01*
X176987347Y-73287347D02*
X177700000Y-74000000D01*
X170800000Y-62500000D02*
X172800000Y-64500000D01*
X174350000Y-87750000D02*
X174100000Y-87500000D01*
X175812653Y-73287347D02*
X176987347Y-73287347D01*
X175787347Y-73287347D02*
X175812653Y-73287347D01*
X172800000Y-70300000D02*
X175787347Y-73287347D01*
%TD*%
%TA.AperFunction,Conductor*%
%TO.N,GND*%
G36*
X161905203Y-66226637D02*
G01*
X161911681Y-66232669D01*
X161980586Y-66301574D01*
X161980608Y-66301594D01*
X163638181Y-67959167D01*
X163671666Y-68020490D01*
X163674500Y-68046848D01*
X163674500Y-80661609D01*
X163682875Y-80703711D01*
X163682875Y-80703715D01*
X163682876Y-80703715D01*
X163698344Y-80781484D01*
X163698537Y-80782451D01*
X163698537Y-80782452D01*
X163745685Y-80896281D01*
X163745688Y-80896286D01*
X163773823Y-80938391D01*
X163773824Y-80938394D01*
X163814138Y-80998728D01*
X163814144Y-80998736D01*
X163905586Y-81090178D01*
X163905608Y-81090198D01*
X167454487Y-84639077D01*
X167487972Y-84700400D01*
X167482988Y-84770092D01*
X167441116Y-84826025D01*
X167414264Y-84841317D01*
X167403719Y-84845685D01*
X167403705Y-84845692D01*
X167301272Y-84914138D01*
X167301264Y-84914144D01*
X165214143Y-87001265D01*
X165214142Y-87001267D01*
X165205542Y-87014139D01*
X165205539Y-87014143D01*
X165145690Y-87103710D01*
X165145685Y-87103719D01*
X165128302Y-87145688D01*
X165128302Y-87145689D01*
X165098538Y-87217545D01*
X165098535Y-87217555D01*
X165074500Y-87338389D01*
X165074500Y-90661611D01*
X165098535Y-90782444D01*
X165098540Y-90782461D01*
X165145685Y-90896280D01*
X165145687Y-90896283D01*
X165145688Y-90896286D01*
X165173377Y-90937725D01*
X165179914Y-90947507D01*
X165179915Y-90947509D01*
X165214140Y-90998731D01*
X165214141Y-90998732D01*
X165214142Y-90998733D01*
X165301267Y-91085858D01*
X165301268Y-91085858D01*
X165308335Y-91092925D01*
X165308334Y-91092925D01*
X165308338Y-91092928D01*
X166907513Y-92692105D01*
X166907517Y-92692108D01*
X167009958Y-92760558D01*
X167009965Y-92760562D01*
X167073754Y-92786984D01*
X167123798Y-92807713D01*
X167143847Y-92811701D01*
X167177446Y-92818384D01*
X167244642Y-92831751D01*
X167244644Y-92831751D01*
X167373971Y-92831751D01*
X167373991Y-92831750D01*
X179490002Y-92831750D01*
X179557041Y-92851435D01*
X179582150Y-92872776D01*
X179587876Y-92879135D01*
X179592708Y-92883486D01*
X179590786Y-92885620D01*
X179625788Y-92931012D01*
X179631767Y-93000626D01*
X179599161Y-93062421D01*
X179538322Y-93096778D01*
X179510237Y-93100000D01*
X164700882Y-93100000D01*
X164699144Y-93099988D01*
X164537743Y-93097725D01*
X164525597Y-93096957D01*
X164204007Y-93060722D01*
X164190299Y-93058393D01*
X163875633Y-92986573D01*
X163862270Y-92982724D01*
X163557613Y-92876120D01*
X163544766Y-92870798D01*
X163253974Y-92730760D01*
X163241804Y-92724034D01*
X162968513Y-92552314D01*
X162957172Y-92544267D01*
X162704826Y-92343028D01*
X162694458Y-92333762D01*
X162466237Y-92105541D01*
X162456971Y-92095173D01*
X162255732Y-91842827D01*
X162247685Y-91831486D01*
X162235170Y-91811569D01*
X162075964Y-91558193D01*
X162069239Y-91546025D01*
X162047778Y-91501460D01*
X161929199Y-91255228D01*
X161923879Y-91242386D01*
X161905568Y-91190057D01*
X161817273Y-90937725D01*
X161813426Y-90924366D01*
X161741606Y-90609700D01*
X161739277Y-90595992D01*
X161729192Y-90506488D01*
X161703041Y-90274390D01*
X161702274Y-90262269D01*
X161700012Y-90100855D01*
X161700000Y-90099117D01*
X161700000Y-86524000D01*
X161719685Y-86456961D01*
X161772489Y-86411206D01*
X161824000Y-86400000D01*
X163040000Y-86400000D01*
X163040000Y-68400000D01*
X161824000Y-68400000D01*
X161756961Y-68380315D01*
X161711206Y-68327511D01*
X161700000Y-68276000D01*
X161700000Y-66320350D01*
X161719685Y-66253311D01*
X161772489Y-66207556D01*
X161841647Y-66197612D01*
X161905203Y-66226637D01*
G37*
%TD.AperFunction*%
%TA.AperFunction,Conductor*%
G36*
X194543039Y-26119685D02*
G01*
X194588794Y-26172489D01*
X194600000Y-26224000D01*
X194600000Y-57687290D01*
X194580315Y-57754329D01*
X194527511Y-57800084D01*
X194458353Y-57810028D01*
X194436997Y-57804996D01*
X194302700Y-57760495D01*
X194302690Y-57760493D01*
X194199986Y-57750000D01*
X193650000Y-57750000D01*
X193650000Y-58666988D01*
X193592993Y-58634075D01*
X193465826Y-58600000D01*
X193334174Y-58600000D01*
X193207007Y-58634075D01*
X193150000Y-58666988D01*
X193150000Y-57750000D01*
X192600028Y-57750000D01*
X192600012Y-57750001D01*
X192497302Y-57760494D01*
X192330880Y-57815641D01*
X192330875Y-57815643D01*
X192181654Y-57907684D01*
X192057684Y-58031654D01*
X191965643Y-58180875D01*
X191965641Y-58180880D01*
X191910494Y-58347302D01*
X191910493Y-58347309D01*
X191900000Y-58450013D01*
X191900000Y-58850000D01*
X192966988Y-58850000D01*
X192934075Y-58907007D01*
X192900000Y-59034174D01*
X192900000Y-59165826D01*
X192934075Y-59292993D01*
X192966988Y-59350000D01*
X191900001Y-59350000D01*
X191900001Y-59749986D01*
X191910494Y-59852697D01*
X191965641Y-60019119D01*
X191965643Y-60019124D01*
X192057684Y-60168345D01*
X192181654Y-60292315D01*
X192336484Y-60387815D01*
X192383208Y-60439763D01*
X192394431Y-60508726D01*
X192366587Y-60572808D01*
X192359069Y-60581035D01*
X192219889Y-60720215D01*
X192094951Y-60892179D01*
X191998444Y-61081585D01*
X191932753Y-61283760D01*
X191899500Y-61493713D01*
X191899500Y-61706287D01*
X191901015Y-61715851D01*
X191932167Y-61912542D01*
X191932754Y-61916243D01*
X191998229Y-62117754D01*
X191998444Y-62118414D01*
X192094951Y-62307820D01*
X192219890Y-62479786D01*
X192370213Y-62630109D01*
X192542179Y-62755048D01*
X192542181Y-62755049D01*
X192542184Y-62755051D01*
X192731588Y-62851557D01*
X192933757Y-62917246D01*
X193143713Y-62950500D01*
X193143714Y-62950500D01*
X193656286Y-62950500D01*
X193656287Y-62950500D01*
X193866243Y-62917246D01*
X194068412Y-62851557D01*
X194257816Y-62755051D01*
X194403115Y-62649486D01*
X194468921Y-62626006D01*
X194536975Y-62641832D01*
X194585670Y-62691937D01*
X194600000Y-62749804D01*
X194600000Y-66237290D01*
X194580315Y-66304329D01*
X194527511Y-66350084D01*
X194458353Y-66360028D01*
X194436997Y-66354996D01*
X194302700Y-66310495D01*
X194302690Y-66310493D01*
X194199986Y-66300000D01*
X193650000Y-66300000D01*
X193650000Y-67216988D01*
X193592993Y-67184075D01*
X193465826Y-67150000D01*
X193334174Y-67150000D01*
X193207007Y-67184075D01*
X193150000Y-67216988D01*
X193150000Y-66300000D01*
X192600028Y-66300000D01*
X192600012Y-66300001D01*
X192497302Y-66310494D01*
X192330880Y-66365641D01*
X192330875Y-66365643D01*
X192181654Y-66457684D01*
X192057684Y-66581654D01*
X191965643Y-66730875D01*
X191965641Y-66730880D01*
X191910494Y-66897302D01*
X191910493Y-66897309D01*
X191900000Y-67000013D01*
X191900000Y-67400000D01*
X192966988Y-67400000D01*
X192934075Y-67457007D01*
X192900000Y-67584174D01*
X192900000Y-67715826D01*
X192934075Y-67842993D01*
X192966988Y-67900000D01*
X191900001Y-67900000D01*
X191900001Y-68299986D01*
X191910494Y-68402697D01*
X191965641Y-68569119D01*
X191965643Y-68569124D01*
X192057684Y-68718345D01*
X192181654Y-68842315D01*
X192336484Y-68937815D01*
X192383208Y-68989763D01*
X192394431Y-69058726D01*
X192366587Y-69122808D01*
X192359069Y-69131035D01*
X192219889Y-69270215D01*
X192094951Y-69442179D01*
X191998444Y-69631585D01*
X191932753Y-69833760D01*
X191905185Y-70007818D01*
X191899500Y-70043713D01*
X191899500Y-70256287D01*
X191904564Y-70288259D01*
X191917237Y-70368277D01*
X191932754Y-70466243D01*
X191954857Y-70534270D01*
X191998444Y-70668414D01*
X192094951Y-70857820D01*
X192219890Y-71029786D01*
X192370213Y-71180109D01*
X192542179Y-71305048D01*
X192542181Y-71305049D01*
X192542184Y-71305051D01*
X192731588Y-71401557D01*
X192933757Y-71467246D01*
X193143713Y-71500500D01*
X193143714Y-71500500D01*
X193656286Y-71500500D01*
X193656287Y-71500500D01*
X193866243Y-71467246D01*
X194068412Y-71401557D01*
X194257816Y-71305051D01*
X194339786Y-71245497D01*
X194429786Y-71180109D01*
X194429788Y-71180106D01*
X194429792Y-71180104D01*
X194580104Y-71029792D01*
X194580106Y-71029788D01*
X194580109Y-71029786D01*
X194702633Y-70861144D01*
X194705051Y-70857816D01*
X194801557Y-70668412D01*
X194867246Y-70466243D01*
X194900500Y-70256287D01*
X194900500Y-70124000D01*
X194920185Y-70056961D01*
X194972989Y-70011206D01*
X195024500Y-70000000D01*
X198394227Y-70000000D01*
X198461266Y-70019685D01*
X198507021Y-70072489D01*
X198516965Y-70141647D01*
X198487940Y-70205203D01*
X198453654Y-70232832D01*
X198215690Y-70362770D01*
X198215682Y-70362775D01*
X197986612Y-70534254D01*
X197986594Y-70534270D01*
X197784270Y-70736594D01*
X197784254Y-70736612D01*
X197612775Y-70965682D01*
X197612770Y-70965690D01*
X197475635Y-71216833D01*
X197375628Y-71484962D01*
X197314804Y-71764566D01*
X197294390Y-72049998D01*
X197294390Y-72050001D01*
X197314804Y-72335433D01*
X197375628Y-72615037D01*
X197375630Y-72615043D01*
X197375631Y-72615046D01*
X197412765Y-72714605D01*
X197475635Y-72883166D01*
X197612770Y-73134309D01*
X197612775Y-73134317D01*
X197784254Y-73363387D01*
X197784270Y-73363405D01*
X197986594Y-73565729D01*
X197986612Y-73565745D01*
X198215682Y-73737224D01*
X198215690Y-73737229D01*
X198466833Y-73874364D01*
X198466832Y-73874364D01*
X198466836Y-73874365D01*
X198466839Y-73874367D01*
X198734954Y-73974369D01*
X198734960Y-73974370D01*
X198734962Y-73974371D01*
X199014566Y-74035195D01*
X199014568Y-74035195D01*
X199014572Y-74035196D01*
X199268220Y-74053337D01*
X199299999Y-74055610D01*
X199300000Y-74055610D01*
X199300001Y-74055610D01*
X199328595Y-74053564D01*
X199585428Y-74035196D01*
X199787455Y-73991248D01*
X199865037Y-73974371D01*
X199865037Y-73974370D01*
X199865046Y-73974369D01*
X200133161Y-73874367D01*
X200384315Y-73737226D01*
X200613395Y-73565739D01*
X200815739Y-73363395D01*
X200987226Y-73134315D01*
X201067168Y-72987913D01*
X201116573Y-72938508D01*
X201184846Y-72923656D01*
X201250310Y-72948073D01*
X201292182Y-73004006D01*
X201300000Y-73047340D01*
X201300000Y-73999972D01*
X201302409Y-74196391D01*
X201340907Y-74587275D01*
X201417529Y-74972486D01*
X201417532Y-74972497D01*
X201531553Y-75348373D01*
X201681863Y-75711254D01*
X201681865Y-75711259D01*
X201867010Y-76057639D01*
X201867021Y-76057657D01*
X202085236Y-76384239D01*
X202334412Y-76687861D01*
X202612138Y-76965587D01*
X202915760Y-77214763D01*
X202915766Y-77214767D01*
X203242349Y-77432983D01*
X203242358Y-77432988D01*
X203242360Y-77432989D01*
X203588740Y-77618134D01*
X203588742Y-77618134D01*
X203588748Y-77618138D01*
X203951628Y-77768447D01*
X204327493Y-77882465D01*
X204327499Y-77882466D01*
X204327502Y-77882467D01*
X204327513Y-77882470D01*
X204712724Y-77959092D01*
X205103611Y-77997591D01*
X205300000Y-78000000D01*
X205496389Y-77997591D01*
X205887276Y-77959092D01*
X205962265Y-77944175D01*
X206272486Y-77882470D01*
X206272497Y-77882467D01*
X206272497Y-77882466D01*
X206272507Y-77882465D01*
X206648372Y-77768447D01*
X207011252Y-77618138D01*
X207357651Y-77432983D01*
X207684234Y-77214767D01*
X207987856Y-76965592D01*
X208265592Y-76687856D01*
X208514767Y-76384234D01*
X208732983Y-76057651D01*
X208918138Y-75711252D01*
X209068447Y-75348372D01*
X209182465Y-74972507D01*
X209182467Y-74972497D01*
X209182470Y-74972486D01*
X209259092Y-74587275D01*
X209269761Y-74478947D01*
X209297591Y-74196389D01*
X209300000Y-74000000D01*
X209300000Y-73047340D01*
X209319685Y-72980301D01*
X209372489Y-72934546D01*
X209441647Y-72924602D01*
X209505203Y-72953627D01*
X209532832Y-72987913D01*
X209612770Y-73134309D01*
X209612775Y-73134317D01*
X209784254Y-73363387D01*
X209784270Y-73363405D01*
X209986594Y-73565729D01*
X209986612Y-73565745D01*
X210215682Y-73737224D01*
X210215690Y-73737229D01*
X210466833Y-73874364D01*
X210466832Y-73874364D01*
X210466836Y-73874365D01*
X210466839Y-73874367D01*
X210734954Y-73974369D01*
X210734960Y-73974370D01*
X210734962Y-73974371D01*
X211014566Y-74035195D01*
X211014568Y-74035195D01*
X211014572Y-74035196D01*
X211268220Y-74053337D01*
X211299999Y-74055610D01*
X211300000Y-74055610D01*
X211300001Y-74055610D01*
X211328595Y-74053564D01*
X211585428Y-74035196D01*
X211787455Y-73991248D01*
X211865037Y-73974371D01*
X211865037Y-73974370D01*
X211865046Y-73974369D01*
X212133161Y-73874367D01*
X212384315Y-73737226D01*
X212613395Y-73565739D01*
X212815739Y-73363395D01*
X212987226Y-73134315D01*
X213124367Y-72883161D01*
X213224369Y-72615046D01*
X213280832Y-72355490D01*
X213285195Y-72335433D01*
X213285195Y-72335432D01*
X213285196Y-72335428D01*
X213305610Y-72050000D01*
X213285196Y-71764572D01*
X213224369Y-71484954D01*
X213124367Y-71216839D01*
X213102254Y-71176343D01*
X212987229Y-70965690D01*
X212987224Y-70965682D01*
X212815745Y-70736612D01*
X212815729Y-70736594D01*
X212613405Y-70534270D01*
X212613387Y-70534254D01*
X212384317Y-70362775D01*
X212384309Y-70362770D01*
X212146346Y-70232832D01*
X212096941Y-70183427D01*
X212082089Y-70115154D01*
X212106506Y-70049689D01*
X212162440Y-70007818D01*
X212205773Y-70000000D01*
X215194227Y-70000000D01*
X215261266Y-70019685D01*
X215307021Y-70072489D01*
X215316965Y-70141647D01*
X215287940Y-70205203D01*
X215253654Y-70232832D01*
X215015690Y-70362770D01*
X215015682Y-70362775D01*
X214786612Y-70534254D01*
X214786594Y-70534270D01*
X214584270Y-70736594D01*
X214584254Y-70736612D01*
X214412775Y-70965682D01*
X214412770Y-70965690D01*
X214275635Y-71216833D01*
X214175628Y-71484962D01*
X214114804Y-71764566D01*
X214094390Y-72049998D01*
X214094390Y-72050001D01*
X214114804Y-72335433D01*
X214175628Y-72615037D01*
X214175630Y-72615043D01*
X214175631Y-72615046D01*
X214212765Y-72714605D01*
X214275635Y-72883166D01*
X214412770Y-73134309D01*
X214412775Y-73134317D01*
X214584254Y-73363387D01*
X214584270Y-73363405D01*
X214786594Y-73565729D01*
X214786612Y-73565745D01*
X215015682Y-73737224D01*
X215015690Y-73737229D01*
X215266833Y-73874364D01*
X215266832Y-73874364D01*
X215266836Y-73874365D01*
X215266839Y-73874367D01*
X215534954Y-73974369D01*
X215534960Y-73974370D01*
X215534962Y-73974371D01*
X215814566Y-74035195D01*
X215814568Y-74035195D01*
X215814572Y-74035196D01*
X216068220Y-74053337D01*
X216099999Y-74055610D01*
X216100000Y-74055610D01*
X216100001Y-74055610D01*
X216128595Y-74053564D01*
X216385428Y-74035196D01*
X216587455Y-73991248D01*
X216665037Y-73974371D01*
X216665037Y-73974370D01*
X216665046Y-73974369D01*
X216933161Y-73874367D01*
X217184315Y-73737226D01*
X217413395Y-73565739D01*
X217615739Y-73363395D01*
X217787226Y-73134315D01*
X217867168Y-72987913D01*
X217916573Y-72938508D01*
X217984846Y-72923656D01*
X218050310Y-72948073D01*
X218092182Y-73004006D01*
X218100000Y-73047340D01*
X218100000Y-73999972D01*
X218102409Y-74196391D01*
X218140907Y-74587275D01*
X218217529Y-74972486D01*
X218217532Y-74972497D01*
X218331553Y-75348373D01*
X218481863Y-75711254D01*
X218481865Y-75711259D01*
X218667010Y-76057639D01*
X218667021Y-76057657D01*
X218885236Y-76384239D01*
X219134412Y-76687861D01*
X219412138Y-76965587D01*
X219715760Y-77214763D01*
X219715766Y-77214767D01*
X220042349Y-77432983D01*
X220042358Y-77432988D01*
X220042360Y-77432989D01*
X220388740Y-77618134D01*
X220388742Y-77618134D01*
X220388748Y-77618138D01*
X220751628Y-77768447D01*
X221127493Y-77882465D01*
X221127499Y-77882466D01*
X221127502Y-77882467D01*
X221127513Y-77882470D01*
X221512724Y-77959092D01*
X221903611Y-77997591D01*
X222100000Y-78000000D01*
X222296389Y-77997591D01*
X222687276Y-77959092D01*
X222762265Y-77944175D01*
X223072486Y-77882470D01*
X223072497Y-77882467D01*
X223072497Y-77882466D01*
X223072507Y-77882465D01*
X223448372Y-77768447D01*
X223811252Y-77618138D01*
X224157651Y-77432983D01*
X224484234Y-77214767D01*
X224787856Y-76965592D01*
X225065592Y-76687856D01*
X225314767Y-76384234D01*
X225532983Y-76057651D01*
X225718138Y-75711252D01*
X225868447Y-75348372D01*
X225982465Y-74972507D01*
X225982467Y-74972497D01*
X225982470Y-74972486D01*
X226059092Y-74587275D01*
X226069761Y-74478947D01*
X226097591Y-74196389D01*
X226100000Y-74000000D01*
X226100000Y-73047340D01*
X226119685Y-72980301D01*
X226172489Y-72934546D01*
X226241647Y-72924602D01*
X226305203Y-72953627D01*
X226332832Y-72987913D01*
X226412770Y-73134309D01*
X226412775Y-73134317D01*
X226584254Y-73363387D01*
X226584270Y-73363405D01*
X226786594Y-73565729D01*
X226786612Y-73565745D01*
X227015682Y-73737224D01*
X227015690Y-73737229D01*
X227266833Y-73874364D01*
X227266832Y-73874364D01*
X227266836Y-73874365D01*
X227266839Y-73874367D01*
X227534954Y-73974369D01*
X227534960Y-73974370D01*
X227534962Y-73974371D01*
X227814566Y-74035195D01*
X227814568Y-74035195D01*
X227814572Y-74035196D01*
X228068220Y-74053337D01*
X228099999Y-74055610D01*
X228100000Y-74055610D01*
X228100001Y-74055610D01*
X228128595Y-74053564D01*
X228385428Y-74035196D01*
X228587455Y-73991248D01*
X228665037Y-73974371D01*
X228665037Y-73974370D01*
X228665046Y-73974369D01*
X228933161Y-73874367D01*
X229184315Y-73737226D01*
X229413395Y-73565739D01*
X229615739Y-73363395D01*
X229787226Y-73134315D01*
X229924367Y-72883161D01*
X230024369Y-72615046D01*
X230080832Y-72355490D01*
X230085195Y-72335433D01*
X230085195Y-72335432D01*
X230085196Y-72335428D01*
X230105610Y-72050000D01*
X230085196Y-71764572D01*
X230024369Y-71484954D01*
X229924367Y-71216839D01*
X229902254Y-71176343D01*
X229787229Y-70965690D01*
X229787224Y-70965682D01*
X229615745Y-70736612D01*
X229615729Y-70736594D01*
X229413405Y-70534270D01*
X229413387Y-70534254D01*
X229184317Y-70362775D01*
X229184309Y-70362770D01*
X228946346Y-70232832D01*
X228896941Y-70183427D01*
X228882089Y-70115154D01*
X228906506Y-70049689D01*
X228962440Y-70007818D01*
X229005773Y-70000000D01*
X231894227Y-70000000D01*
X231961266Y-70019685D01*
X232007021Y-70072489D01*
X232016965Y-70141647D01*
X231987940Y-70205203D01*
X231953654Y-70232832D01*
X231715690Y-70362770D01*
X231715682Y-70362775D01*
X231486612Y-70534254D01*
X231486594Y-70534270D01*
X231284270Y-70736594D01*
X231284254Y-70736612D01*
X231112775Y-70965682D01*
X231112770Y-70965690D01*
X230975635Y-71216833D01*
X230875628Y-71484962D01*
X230814804Y-71764566D01*
X230794390Y-72049998D01*
X230794390Y-72050001D01*
X230814804Y-72335433D01*
X230875628Y-72615037D01*
X230875630Y-72615043D01*
X230875631Y-72615046D01*
X230912765Y-72714605D01*
X230975635Y-72883166D01*
X231112770Y-73134309D01*
X231112775Y-73134317D01*
X231284254Y-73363387D01*
X231284270Y-73363405D01*
X231486594Y-73565729D01*
X231486612Y-73565745D01*
X231715682Y-73737224D01*
X231715690Y-73737229D01*
X231966833Y-73874364D01*
X231966832Y-73874364D01*
X231966836Y-73874365D01*
X231966839Y-73874367D01*
X232234954Y-73974369D01*
X232234960Y-73974370D01*
X232234962Y-73974371D01*
X232514566Y-74035195D01*
X232514568Y-74035195D01*
X232514572Y-74035196D01*
X232768220Y-74053337D01*
X232799999Y-74055610D01*
X232800000Y-74055610D01*
X232800001Y-74055610D01*
X232828595Y-74053564D01*
X233085428Y-74035196D01*
X233287455Y-73991248D01*
X233365037Y-73974371D01*
X233365037Y-73974370D01*
X233365046Y-73974369D01*
X233633161Y-73874367D01*
X233884315Y-73737226D01*
X234113395Y-73565739D01*
X234315739Y-73363395D01*
X234484920Y-73137394D01*
X234540852Y-73095524D01*
X234610544Y-73090540D01*
X234671867Y-73124024D01*
X234705352Y-73185347D01*
X234708135Y-73215247D01*
X234699999Y-73499997D01*
X234700000Y-73500000D01*
X234787539Y-73680227D01*
X234800000Y-73734403D01*
X234800000Y-73999972D01*
X234802409Y-74196391D01*
X234840907Y-74587275D01*
X234917529Y-74972486D01*
X234917532Y-74972497D01*
X235031553Y-75348373D01*
X235181863Y-75711254D01*
X235181865Y-75711259D01*
X235367010Y-76057639D01*
X235367021Y-76057657D01*
X235585236Y-76384239D01*
X235834412Y-76687861D01*
X236112138Y-76965587D01*
X236415760Y-77214763D01*
X236415766Y-77214767D01*
X236742349Y-77432983D01*
X236742358Y-77432988D01*
X236742360Y-77432989D01*
X237088740Y-77618134D01*
X237088742Y-77618134D01*
X237088748Y-77618138D01*
X237451628Y-77768447D01*
X237827493Y-77882465D01*
X237827499Y-77882466D01*
X237827502Y-77882467D01*
X237827513Y-77882470D01*
X238212724Y-77959092D01*
X238603611Y-77997591D01*
X238800000Y-78000000D01*
X238996389Y-77997591D01*
X239387276Y-77959092D01*
X239462265Y-77944175D01*
X239772486Y-77882470D01*
X239772497Y-77882467D01*
X239772497Y-77882466D01*
X239772507Y-77882465D01*
X240148372Y-77768447D01*
X240511252Y-77618138D01*
X240857651Y-77432983D01*
X241184234Y-77214767D01*
X241487856Y-76965592D01*
X241765592Y-76687856D01*
X242014767Y-76384234D01*
X242232983Y-76057651D01*
X242418138Y-75711252D01*
X242568447Y-75348372D01*
X242682465Y-74972507D01*
X242682467Y-74972497D01*
X242682470Y-74972486D01*
X242759092Y-74587275D01*
X242769761Y-74478947D01*
X242797591Y-74196389D01*
X242800000Y-74000000D01*
X242800000Y-73047340D01*
X242819685Y-72980301D01*
X242872489Y-72934546D01*
X242941647Y-72924602D01*
X243005203Y-72953627D01*
X243032832Y-72987913D01*
X243112770Y-73134309D01*
X243112775Y-73134317D01*
X243284254Y-73363387D01*
X243284270Y-73363405D01*
X243486594Y-73565729D01*
X243486612Y-73565745D01*
X243715682Y-73737224D01*
X243715690Y-73737229D01*
X243966833Y-73874364D01*
X243966832Y-73874364D01*
X243966836Y-73874365D01*
X243966839Y-73874367D01*
X244234954Y-73974369D01*
X244234960Y-73974370D01*
X244234962Y-73974371D01*
X244514566Y-74035195D01*
X244514568Y-74035195D01*
X244514572Y-74035196D01*
X244768220Y-74053337D01*
X244799999Y-74055610D01*
X244800000Y-74055610D01*
X244800001Y-74055610D01*
X244828595Y-74053564D01*
X245085428Y-74035196D01*
X245287455Y-73991248D01*
X245365037Y-73974371D01*
X245365037Y-73974370D01*
X245365046Y-73974369D01*
X245633161Y-73874367D01*
X245884315Y-73737226D01*
X246113395Y-73565739D01*
X246315739Y-73363395D01*
X246476733Y-73148331D01*
X246532666Y-73106460D01*
X246602358Y-73101476D01*
X246663681Y-73134961D01*
X246697166Y-73196284D01*
X246700000Y-73222642D01*
X246700000Y-89028402D01*
X246680315Y-89095441D01*
X246627511Y-89141196D01*
X246558353Y-89151140D01*
X246494797Y-89122115D01*
X246457023Y-89063337D01*
X246453634Y-89048463D01*
X246427584Y-88889568D01*
X246427578Y-88889542D01*
X246331852Y-88544767D01*
X246331850Y-88544760D01*
X246199402Y-88212340D01*
X246199393Y-88212322D01*
X246031781Y-87896172D01*
X245830975Y-87600005D01*
X245830964Y-87599991D01*
X245703556Y-87449996D01*
X244494251Y-88659301D01*
X244420412Y-88557670D01*
X244242330Y-88379588D01*
X244140698Y-88305748D01*
X245352742Y-87093704D01*
X245339504Y-87081163D01*
X245054632Y-86864611D01*
X245054629Y-86864609D01*
X244748009Y-86680123D01*
X244423260Y-86529877D01*
X244423255Y-86529876D01*
X244084144Y-86415616D01*
X243734660Y-86338688D01*
X243378924Y-86300000D01*
X243021075Y-86300000D01*
X242665339Y-86338688D01*
X242315855Y-86415616D01*
X241976744Y-86529876D01*
X241976739Y-86529877D01*
X241651990Y-86680123D01*
X241345370Y-86864609D01*
X241345367Y-86864611D01*
X241060486Y-87081170D01*
X241060485Y-87081171D01*
X241047257Y-87093702D01*
X241047256Y-87093703D01*
X242259301Y-88305748D01*
X242157670Y-88379588D01*
X241979588Y-88557670D01*
X241905748Y-88659301D01*
X240696442Y-87449995D01*
X240696441Y-87449996D01*
X240569033Y-87599992D01*
X240368218Y-87896172D01*
X240200606Y-88212322D01*
X240200597Y-88212340D01*
X240068149Y-88544760D01*
X240068147Y-88544767D01*
X239972421Y-88889542D01*
X239972415Y-88889568D01*
X239914527Y-89242668D01*
X239914526Y-89242685D01*
X239895153Y-89599997D01*
X239895153Y-89600002D01*
X239914526Y-89957314D01*
X239914527Y-89957331D01*
X239972415Y-90310431D01*
X239972421Y-90310457D01*
X240068147Y-90655232D01*
X240068149Y-90655239D01*
X240200597Y-90987659D01*
X240200606Y-90987677D01*
X240368218Y-91303827D01*
X240569024Y-91599994D01*
X240569035Y-91600008D01*
X240696441Y-91750002D01*
X240696442Y-91750002D01*
X241905747Y-90540697D01*
X241979588Y-90642330D01*
X242157670Y-90820412D01*
X242259300Y-90894251D01*
X241047257Y-92106294D01*
X241060495Y-92118836D01*
X241345367Y-92335388D01*
X241345370Y-92335390D01*
X241651990Y-92519876D01*
X241976739Y-92670122D01*
X241976744Y-92670123D01*
X242315855Y-92784383D01*
X242636206Y-92854899D01*
X242697446Y-92888535D01*
X242730780Y-92949940D01*
X242725624Y-93019620D01*
X242683615Y-93075450D01*
X242618090Y-93099705D01*
X242609549Y-93100000D01*
X180877263Y-93100000D01*
X180810224Y-93080315D01*
X180764469Y-93027511D01*
X180754525Y-92958353D01*
X180783550Y-92894797D01*
X180795281Y-92884029D01*
X180794792Y-92883486D01*
X180799615Y-92879141D01*
X180799621Y-92879138D01*
X180926283Y-92738466D01*
X181020929Y-92574534D01*
X181079424Y-92394506D01*
X181099210Y-92206250D01*
X181079424Y-92017994D01*
X181020929Y-91837966D01*
X180947914Y-91711500D01*
X180931441Y-91643599D01*
X180954294Y-91577573D01*
X181009215Y-91534382D01*
X181055301Y-91525500D01*
X182161607Y-91525500D01*
X182222029Y-91513481D01*
X182282452Y-91501463D01*
X182328918Y-91482216D01*
X182396286Y-91454312D01*
X182450735Y-91417929D01*
X182498733Y-91385858D01*
X182585858Y-91298733D01*
X182585858Y-91298731D01*
X182596066Y-91288524D01*
X182596067Y-91288521D01*
X183922772Y-89961819D01*
X183984095Y-89928334D01*
X184010453Y-89925500D01*
X184973861Y-89925500D01*
X185040900Y-89945185D01*
X185086655Y-89997989D01*
X185096599Y-90067147D01*
X185095479Y-90073691D01*
X185080000Y-90151511D01*
X185080000Y-90300000D01*
X185780000Y-90300000D01*
X185780000Y-90800000D01*
X185080000Y-90800000D01*
X185080000Y-90948495D01*
X185118427Y-91141681D01*
X185118430Y-91141693D01*
X185193807Y-91323671D01*
X185193814Y-91323684D01*
X185303248Y-91487462D01*
X185303251Y-91487466D01*
X185442533Y-91626748D01*
X185442537Y-91626751D01*
X185606315Y-91736185D01*
X185606328Y-91736192D01*
X185788308Y-91811569D01*
X185830000Y-91819862D01*
X185830000Y-91016988D01*
X185839940Y-91034205D01*
X185895795Y-91090060D01*
X185964204Y-91129556D01*
X186040504Y-91150000D01*
X186119496Y-91150000D01*
X186195796Y-91129556D01*
X186264205Y-91090060D01*
X186320060Y-91034205D01*
X186330000Y-91016988D01*
X186330000Y-91819862D01*
X186371690Y-91811569D01*
X186371692Y-91811569D01*
X186553671Y-91736192D01*
X186553684Y-91736185D01*
X186717462Y-91626751D01*
X186717466Y-91626748D01*
X186856748Y-91487466D01*
X186856751Y-91487462D01*
X186966185Y-91323684D01*
X186966192Y-91323671D01*
X187041569Y-91141693D01*
X187041572Y-91141681D01*
X187079999Y-90948495D01*
X187080000Y-90948492D01*
X187080000Y-90800000D01*
X186380000Y-90800000D01*
X186380000Y-90300000D01*
X187080000Y-90300000D01*
X187080000Y-90151511D01*
X187064521Y-90073691D01*
X187070749Y-90004099D01*
X187113613Y-89948922D01*
X187179503Y-89925678D01*
X187186139Y-89925500D01*
X193613861Y-89925500D01*
X193680900Y-89945185D01*
X193726655Y-89997989D01*
X193736599Y-90067147D01*
X193735479Y-90073691D01*
X193720000Y-90151511D01*
X193720000Y-90300000D01*
X194420000Y-90300000D01*
X194420000Y-90800000D01*
X193720000Y-90800000D01*
X193720000Y-90948495D01*
X193758427Y-91141681D01*
X193758430Y-91141693D01*
X193833807Y-91323671D01*
X193833814Y-91323684D01*
X193943248Y-91487462D01*
X193943251Y-91487466D01*
X194082533Y-91626748D01*
X194082537Y-91626751D01*
X194246315Y-91736185D01*
X194246328Y-91736192D01*
X194428308Y-91811569D01*
X194470000Y-91819862D01*
X194470000Y-91016988D01*
X194479940Y-91034205D01*
X194535795Y-91090060D01*
X194604204Y-91129556D01*
X194680504Y-91150000D01*
X194759496Y-91150000D01*
X194835796Y-91129556D01*
X194904205Y-91090060D01*
X194960060Y-91034205D01*
X194970000Y-91016988D01*
X194970000Y-91819862D01*
X195011690Y-91811569D01*
X195011692Y-91811569D01*
X195193671Y-91736192D01*
X195193684Y-91736185D01*
X195357462Y-91626751D01*
X195357466Y-91626748D01*
X195496748Y-91487466D01*
X195496751Y-91487462D01*
X195606185Y-91323684D01*
X195606192Y-91323671D01*
X195681569Y-91141693D01*
X195681572Y-91141681D01*
X195719999Y-90948495D01*
X195720000Y-90948492D01*
X195720000Y-90800000D01*
X195020000Y-90800000D01*
X195020000Y-90300000D01*
X195720000Y-90300000D01*
X195720000Y-90151511D01*
X195704521Y-90073691D01*
X195710749Y-90004099D01*
X195753613Y-89948922D01*
X195819503Y-89925678D01*
X195826139Y-89925500D01*
X196485570Y-89925500D01*
X196552609Y-89945185D01*
X196598364Y-89997989D01*
X196608889Y-90036534D01*
X196614326Y-90088256D01*
X196614327Y-90088259D01*
X196672818Y-90268277D01*
X196672821Y-90268284D01*
X196767467Y-90432216D01*
X196894129Y-90572888D01*
X197047265Y-90684148D01*
X197047270Y-90684151D01*
X197220192Y-90761142D01*
X197220197Y-90761144D01*
X197405354Y-90800500D01*
X197405355Y-90800500D01*
X197594644Y-90800500D01*
X197594646Y-90800500D01*
X197779803Y-90761144D01*
X197952730Y-90684151D01*
X198105871Y-90572888D01*
X198232533Y-90432216D01*
X198327179Y-90268284D01*
X198385674Y-90088256D01*
X198405460Y-89900000D01*
X198385674Y-89711744D01*
X198361654Y-89637818D01*
X198359659Y-89567977D01*
X198395739Y-89508144D01*
X198458440Y-89477316D01*
X198479585Y-89475500D01*
X202857434Y-89475500D01*
X202924473Y-89495185D01*
X202930319Y-89499182D01*
X203047265Y-89584148D01*
X203047270Y-89584151D01*
X203220192Y-89661142D01*
X203220197Y-89661144D01*
X203405354Y-89700500D01*
X203405355Y-89700500D01*
X203594644Y-89700500D01*
X203594646Y-89700500D01*
X203779803Y-89661144D01*
X203952730Y-89584151D01*
X204105871Y-89472888D01*
X204232533Y-89332216D01*
X204327179Y-89168284D01*
X204385674Y-88988256D01*
X204405460Y-88800000D01*
X204385674Y-88611744D01*
X204327179Y-88431716D01*
X204232533Y-88267784D01*
X204105871Y-88127112D01*
X204105863Y-88127106D01*
X203952734Y-88015851D01*
X203952729Y-88015848D01*
X203779807Y-87938857D01*
X203779802Y-87938855D01*
X203634001Y-87907865D01*
X203594646Y-87899500D01*
X203405354Y-87899500D01*
X203372897Y-87906398D01*
X203220197Y-87938855D01*
X203220192Y-87938857D01*
X203047270Y-88015848D01*
X203047265Y-88015851D01*
X202894135Y-88127106D01*
X202894129Y-88127111D01*
X202843382Y-88183472D01*
X202783895Y-88220121D01*
X202751232Y-88224500D01*
X191955469Y-88224500D01*
X191888430Y-88204815D01*
X191842675Y-88152011D01*
X191832731Y-88082853D01*
X191861756Y-88019297D01*
X191867788Y-88012819D01*
X192038588Y-87842019D01*
X192641696Y-87238909D01*
X192703017Y-87205426D01*
X192772708Y-87210410D01*
X192823440Y-87247915D01*
X192823738Y-87247618D01*
X192825724Y-87249604D01*
X192827746Y-87251099D01*
X192829484Y-87253364D01*
X192829485Y-87253365D01*
X192936635Y-87360515D01*
X193067865Y-87436281D01*
X193214234Y-87475500D01*
X193214236Y-87475500D01*
X193365764Y-87475500D01*
X193365766Y-87475500D01*
X193512135Y-87436281D01*
X193643365Y-87360515D01*
X193643372Y-87360507D01*
X193649811Y-87355568D01*
X193652044Y-87358478D01*
X193698258Y-87332865D01*
X193767980Y-87337411D01*
X193824176Y-87378930D01*
X193830394Y-87388634D01*
X193830426Y-87388613D01*
X193943248Y-87557462D01*
X193943251Y-87557466D01*
X194082533Y-87696748D01*
X194082537Y-87696751D01*
X194246315Y-87806185D01*
X194246328Y-87806192D01*
X194428308Y-87881569D01*
X194470000Y-87889862D01*
X194470000Y-87086988D01*
X194479940Y-87104205D01*
X194535795Y-87160060D01*
X194604204Y-87199556D01*
X194680504Y-87220000D01*
X194759496Y-87220000D01*
X194835796Y-87199556D01*
X194904205Y-87160060D01*
X194960060Y-87104205D01*
X194970000Y-87086988D01*
X194970000Y-87889862D01*
X195011690Y-87881569D01*
X195011692Y-87881569D01*
X195193671Y-87806192D01*
X195193684Y-87806185D01*
X195357462Y-87696751D01*
X195357466Y-87696748D01*
X195496748Y-87557466D01*
X195496751Y-87557462D01*
X195606185Y-87393684D01*
X195606192Y-87393671D01*
X195681569Y-87211693D01*
X195681572Y-87211681D01*
X195719999Y-87018495D01*
X195720000Y-87018492D01*
X195720000Y-86620000D01*
X195020000Y-86620000D01*
X195020000Y-86120000D01*
X195720000Y-86120000D01*
X195720000Y-85721508D01*
X195719999Y-85721504D01*
X195681572Y-85528318D01*
X195681569Y-85528306D01*
X195606192Y-85346328D01*
X195606185Y-85346315D01*
X195496751Y-85182537D01*
X195496748Y-85182533D01*
X195357466Y-85043251D01*
X195357462Y-85043248D01*
X195193684Y-84933814D01*
X195193671Y-84933807D01*
X195011691Y-84858429D01*
X195011683Y-84858427D01*
X194970000Y-84850135D01*
X194970000Y-85653011D01*
X194960060Y-85635795D01*
X194904205Y-85579940D01*
X194835796Y-85540444D01*
X194759496Y-85520000D01*
X194680504Y-85520000D01*
X194604204Y-85540444D01*
X194535795Y-85579940D01*
X194479940Y-85635795D01*
X194470000Y-85653011D01*
X194470000Y-84850136D01*
X194469999Y-84850135D01*
X194428316Y-84858427D01*
X194428308Y-84858429D01*
X194246328Y-84933807D01*
X194246315Y-84933814D01*
X194082537Y-85043248D01*
X194082533Y-85043251D01*
X193943251Y-85182533D01*
X193943248Y-85182537D01*
X193833814Y-85346315D01*
X193833809Y-85346324D01*
X193789061Y-85454358D01*
X193745220Y-85508761D01*
X193678926Y-85530826D01*
X193611227Y-85513547D01*
X193563616Y-85462410D01*
X193550500Y-85406905D01*
X193550500Y-83235928D01*
X193525502Y-83110261D01*
X193525501Y-83110260D01*
X193525501Y-83110256D01*
X193519990Y-83096953D01*
X193512521Y-83027486D01*
X193543794Y-82965006D01*
X193603882Y-82929352D01*
X193634551Y-82925500D01*
X196427847Y-82925500D01*
X196494886Y-82945185D01*
X196515528Y-82961819D01*
X197864562Y-84310855D01*
X197864566Y-84310858D01*
X197967009Y-84379309D01*
X197967010Y-84379309D01*
X197967014Y-84379312D01*
X198033695Y-84406931D01*
X198033697Y-84406933D01*
X198080842Y-84426461D01*
X198080847Y-84426463D01*
X198100896Y-84430451D01*
X198134495Y-84437134D01*
X198201691Y-84450501D01*
X198201693Y-84450501D01*
X198331020Y-84450501D01*
X198331040Y-84450500D01*
X228836607Y-84450500D01*
X228897029Y-84438481D01*
X228957452Y-84426463D01*
X228957455Y-84426461D01*
X228957458Y-84426461D01*
X228990787Y-84412654D01*
X228990786Y-84412654D01*
X228990792Y-84412652D01*
X229071286Y-84379312D01*
X229122509Y-84345084D01*
X229173733Y-84310858D01*
X229260858Y-84223733D01*
X229260859Y-84223731D01*
X229267925Y-84216665D01*
X229267927Y-84216661D01*
X230647771Y-82836819D01*
X230709094Y-82803334D01*
X230735452Y-82800500D01*
X230794644Y-82800500D01*
X230794646Y-82800500D01*
X230979803Y-82761144D01*
X231152730Y-82684151D01*
X231305871Y-82572888D01*
X231432533Y-82432216D01*
X231527179Y-82268284D01*
X231585674Y-82088256D01*
X231605460Y-81900000D01*
X231585674Y-81711744D01*
X231527179Y-81531716D01*
X231432533Y-81367784D01*
X231305871Y-81227112D01*
X231284822Y-81211819D01*
X231152734Y-81115851D01*
X231152729Y-81115848D01*
X230979807Y-81038857D01*
X230979802Y-81038855D01*
X230834001Y-81007865D01*
X230794646Y-80999500D01*
X230605354Y-80999500D01*
X230572897Y-81006398D01*
X230420197Y-81038855D01*
X230420192Y-81038857D01*
X230247270Y-81115848D01*
X230247265Y-81115851D01*
X230094129Y-81227111D01*
X229967466Y-81367785D01*
X229872821Y-81531715D01*
X229872818Y-81531722D01*
X229818304Y-81699500D01*
X229814326Y-81711744D01*
X229806405Y-81787105D01*
X229796678Y-81879651D01*
X229770093Y-81944266D01*
X229761038Y-81954370D01*
X228552229Y-83163181D01*
X228490906Y-83196666D01*
X228464548Y-83199500D01*
X214284451Y-83199500D01*
X214217412Y-83179815D01*
X214171657Y-83127011D01*
X214161713Y-83057853D01*
X214190738Y-82994297D01*
X214196754Y-82987834D01*
X214347772Y-82836816D01*
X214409094Y-82803334D01*
X214435452Y-82800500D01*
X214494644Y-82800500D01*
X214494646Y-82800500D01*
X214679803Y-82761144D01*
X214852730Y-82684151D01*
X215005871Y-82572888D01*
X215132533Y-82432216D01*
X215227179Y-82268284D01*
X215285674Y-82088256D01*
X215305460Y-81900000D01*
X215285674Y-81711744D01*
X215227179Y-81531716D01*
X215132533Y-81367784D01*
X215005871Y-81227112D01*
X214984822Y-81211819D01*
X214852734Y-81115851D01*
X214852729Y-81115848D01*
X214679807Y-81038857D01*
X214679802Y-81038855D01*
X214534001Y-81007865D01*
X214494646Y-80999500D01*
X214305354Y-80999500D01*
X214272897Y-81006398D01*
X214120197Y-81038855D01*
X214120192Y-81038857D01*
X213947270Y-81115848D01*
X213947265Y-81115851D01*
X213794129Y-81227111D01*
X213667466Y-81367785D01*
X213572821Y-81531715D01*
X213572818Y-81531722D01*
X213518304Y-81699500D01*
X213514326Y-81711744D01*
X213502201Y-81827112D01*
X213496679Y-81879650D01*
X213470094Y-81944264D01*
X213461044Y-81954364D01*
X213452233Y-81963176D01*
X213390912Y-81996665D01*
X213364547Y-81999500D01*
X199027568Y-81999500D01*
X198960529Y-81979815D01*
X198914774Y-81927011D01*
X198904247Y-81888462D01*
X198897799Y-81827112D01*
X198885674Y-81711744D01*
X198827179Y-81531716D01*
X198732533Y-81367784D01*
X198605871Y-81227112D01*
X198584822Y-81211819D01*
X198452734Y-81115851D01*
X198452729Y-81115848D01*
X198279807Y-81038857D01*
X198279802Y-81038855D01*
X198134001Y-81007865D01*
X198094646Y-80999500D01*
X198094645Y-80999500D01*
X198035453Y-80999500D01*
X197968414Y-80979815D01*
X197947771Y-80963180D01*
X197898736Y-80914144D01*
X197898733Y-80914141D01*
X197847509Y-80879915D01*
X197796286Y-80845688D01*
X197715768Y-80812337D01*
X197715766Y-80812335D01*
X197682458Y-80798539D01*
X197682454Y-80798537D01*
X197682452Y-80798537D01*
X197682448Y-80798536D01*
X197682444Y-80798535D01*
X197596893Y-80781518D01*
X197596892Y-80781518D01*
X197561611Y-80774500D01*
X197561607Y-80774500D01*
X197561606Y-80774500D01*
X194008549Y-80774500D01*
X193941510Y-80754815D01*
X193920868Y-80738181D01*
X192438295Y-79255608D01*
X192438275Y-79255586D01*
X192346832Y-79164143D01*
X192298301Y-79131716D01*
X192277099Y-79117549D01*
X192277100Y-79117549D01*
X192277098Y-79117547D01*
X192244387Y-79095690D01*
X192244383Y-79095688D01*
X192163889Y-79062347D01*
X192130550Y-79048537D01*
X192120524Y-79046543D01*
X192070126Y-79036518D01*
X192009707Y-79024500D01*
X192009704Y-79024500D01*
X192009703Y-79024500D01*
X187448779Y-79024500D01*
X187381740Y-79004815D01*
X187335985Y-78952011D01*
X187326041Y-78882853D01*
X187355066Y-78819297D01*
X187413844Y-78781523D01*
X187416653Y-78780734D01*
X187584952Y-78735639D01*
X187857507Y-78622743D01*
X188112994Y-78475238D01*
X188347042Y-78295646D01*
X188555646Y-78087042D01*
X188735238Y-77852994D01*
X188882743Y-77597507D01*
X188995639Y-77324952D01*
X189071993Y-77039993D01*
X189110500Y-76747506D01*
X189110500Y-76452494D01*
X189071993Y-76160007D01*
X188995639Y-75875048D01*
X188882743Y-75602493D01*
X188735238Y-75347006D01*
X188700141Y-75301267D01*
X188555647Y-75112959D01*
X188555641Y-75112952D01*
X188347047Y-74904358D01*
X188347040Y-74904352D01*
X188112993Y-74724761D01*
X187857510Y-74577258D01*
X187857500Y-74577254D01*
X187584961Y-74464364D01*
X187584954Y-74464362D01*
X187584952Y-74464361D01*
X187299993Y-74388007D01*
X187251113Y-74381571D01*
X187007513Y-74349500D01*
X187007506Y-74349500D01*
X186712494Y-74349500D01*
X186712486Y-74349500D01*
X186434085Y-74386153D01*
X186420007Y-74388007D01*
X186288485Y-74423248D01*
X186135048Y-74464361D01*
X186135038Y-74464364D01*
X185862499Y-74577254D01*
X185862489Y-74577258D01*
X185607006Y-74724761D01*
X185372959Y-74904352D01*
X185372952Y-74904358D01*
X185164358Y-75112952D01*
X185164352Y-75112959D01*
X184984761Y-75347006D01*
X184837258Y-75602489D01*
X184837254Y-75602499D01*
X184724364Y-75875038D01*
X184724361Y-75875048D01*
X184675432Y-76057657D01*
X184648008Y-76160004D01*
X184648006Y-76160015D01*
X184609500Y-76452486D01*
X184609500Y-76747513D01*
X184638211Y-76965587D01*
X184648007Y-77039993D01*
X184724361Y-77324951D01*
X184724364Y-77324961D01*
X184837254Y-77597500D01*
X184837258Y-77597510D01*
X184984761Y-77852993D01*
X185164352Y-78087040D01*
X185164358Y-78087047D01*
X185372952Y-78295641D01*
X185372959Y-78295647D01*
X185607006Y-78475238D01*
X185862489Y-78622741D01*
X185862490Y-78622741D01*
X185862493Y-78622743D01*
X186016462Y-78686519D01*
X186120987Y-78729815D01*
X186135048Y-78735639D01*
X186303315Y-78780725D01*
X186362975Y-78817090D01*
X186393504Y-78879937D01*
X186385209Y-78949312D01*
X186340724Y-79003190D01*
X186274172Y-79024465D01*
X186271221Y-79024500D01*
X185760452Y-79024500D01*
X185693413Y-79004815D01*
X185672771Y-78988181D01*
X185590198Y-78905608D01*
X185590178Y-78905586D01*
X185498736Y-78814144D01*
X185498732Y-78814141D01*
X185445155Y-78778342D01*
X185408119Y-78753595D01*
X185396286Y-78745688D01*
X185396283Y-78745686D01*
X185396280Y-78745685D01*
X185315792Y-78712347D01*
X185282453Y-78698537D01*
X185272427Y-78696543D01*
X185222029Y-78686518D01*
X185161610Y-78674500D01*
X185161607Y-78674500D01*
X185161606Y-78674500D01*
X184403748Y-78674500D01*
X184336709Y-78654815D01*
X184311600Y-78633474D01*
X184305873Y-78627114D01*
X184305869Y-78627110D01*
X184152734Y-78515851D01*
X184152729Y-78515848D01*
X183979807Y-78438857D01*
X183979802Y-78438855D01*
X183805424Y-78401791D01*
X183794646Y-78399500D01*
X183605354Y-78399500D01*
X183594576Y-78401791D01*
X183420197Y-78438855D01*
X183420192Y-78438857D01*
X183324936Y-78481269D01*
X183255686Y-78490554D01*
X183192409Y-78460926D01*
X183155196Y-78401791D01*
X183150500Y-78367990D01*
X183150500Y-74545986D01*
X183170185Y-74478947D01*
X183222989Y-74433192D01*
X183292147Y-74423248D01*
X183355703Y-74452273D01*
X183381887Y-74483987D01*
X183467463Y-74632211D01*
X183467465Y-74632214D01*
X183594129Y-74772888D01*
X183747265Y-74884148D01*
X183747270Y-74884151D01*
X183920192Y-74961142D01*
X183920197Y-74961144D01*
X184105354Y-75000500D01*
X184105355Y-75000500D01*
X184294644Y-75000500D01*
X184294646Y-75000500D01*
X184479803Y-74961144D01*
X184652730Y-74884151D01*
X184805871Y-74772888D01*
X184932533Y-74632216D01*
X185027179Y-74468284D01*
X185085674Y-74288256D01*
X185093296Y-74215727D01*
X185119879Y-74151114D01*
X185128927Y-74141017D01*
X188037821Y-71232124D01*
X188099142Y-71198641D01*
X188168834Y-71203625D01*
X188224767Y-71245497D01*
X188249184Y-71310961D01*
X188249500Y-71319807D01*
X188249500Y-72073918D01*
X188249500Y-72073920D01*
X188249499Y-72073920D01*
X188278340Y-72218907D01*
X188278343Y-72218917D01*
X188334913Y-72355490D01*
X188334914Y-72355491D01*
X188334916Y-72355495D01*
X188339824Y-72362840D01*
X188355864Y-72386845D01*
X188355865Y-72386847D01*
X188417051Y-72478420D01*
X188417052Y-72478421D01*
X190087228Y-74148595D01*
X190117478Y-74197958D01*
X190172818Y-74368277D01*
X190172821Y-74368284D01*
X190267467Y-74532216D01*
X190357503Y-74632211D01*
X190394129Y-74672888D01*
X190547265Y-74784148D01*
X190547270Y-74784151D01*
X190720191Y-74861142D01*
X190720194Y-74861142D01*
X190720197Y-74861144D01*
X190754221Y-74868375D01*
X190785329Y-74874988D01*
X190846811Y-74908180D01*
X190847230Y-74908597D01*
X191917048Y-75978415D01*
X191917049Y-75978416D01*
X191996272Y-76057639D01*
X192021585Y-76082952D01*
X192144498Y-76165080D01*
X192144511Y-76165087D01*
X192281082Y-76221656D01*
X192281087Y-76221658D01*
X192281091Y-76221658D01*
X192281092Y-76221659D01*
X192426079Y-76250500D01*
X192426082Y-76250500D01*
X195837770Y-76250500D01*
X195904809Y-76270185D01*
X195925451Y-76286819D01*
X199617049Y-79978416D01*
X199670847Y-80032214D01*
X199721585Y-80082952D01*
X199844498Y-80165080D01*
X199844511Y-80165087D01*
X199981082Y-80221656D01*
X199981087Y-80221658D01*
X199981091Y-80221658D01*
X199981092Y-80221659D01*
X200126079Y-80250500D01*
X200126082Y-80250500D01*
X208060663Y-80250500D01*
X208127702Y-80270185D01*
X208133548Y-80274182D01*
X208147265Y-80284148D01*
X208147270Y-80284151D01*
X208320192Y-80361142D01*
X208320197Y-80361144D01*
X208505354Y-80400500D01*
X208505355Y-80400500D01*
X208694644Y-80400500D01*
X208694646Y-80400500D01*
X208879803Y-80361144D01*
X209052730Y-80284151D01*
X209054776Y-80282664D01*
X209066452Y-80274182D01*
X209132258Y-80250702D01*
X209139337Y-80250500D01*
X224460663Y-80250500D01*
X224527702Y-80270185D01*
X224533548Y-80274182D01*
X224547265Y-80284148D01*
X224547270Y-80284151D01*
X224720192Y-80361142D01*
X224720197Y-80361144D01*
X224905354Y-80400500D01*
X224905355Y-80400500D01*
X225094644Y-80400500D01*
X225094646Y-80400500D01*
X225279803Y-80361144D01*
X225452730Y-80284151D01*
X225454776Y-80282664D01*
X225466452Y-80274182D01*
X225532258Y-80250702D01*
X225539337Y-80250500D01*
X240360663Y-80250500D01*
X240427702Y-80270185D01*
X240433548Y-80274182D01*
X240447265Y-80284148D01*
X240447270Y-80284151D01*
X240620192Y-80361142D01*
X240620197Y-80361144D01*
X240805354Y-80400500D01*
X240805355Y-80400500D01*
X240994644Y-80400500D01*
X240994646Y-80400500D01*
X241179803Y-80361144D01*
X241352730Y-80284151D01*
X241505871Y-80172888D01*
X241632533Y-80032216D01*
X241727179Y-79868284D01*
X241785674Y-79688256D01*
X241805460Y-79500000D01*
X241785674Y-79311744D01*
X241727179Y-79131716D01*
X241632533Y-78967784D01*
X241505871Y-78827112D01*
X241488022Y-78814144D01*
X241352734Y-78715851D01*
X241352729Y-78715848D01*
X241179807Y-78638857D01*
X241179802Y-78638855D01*
X241034001Y-78607865D01*
X240994646Y-78599500D01*
X240805354Y-78599500D01*
X240772897Y-78606398D01*
X240620197Y-78638855D01*
X240620192Y-78638857D01*
X240447270Y-78715848D01*
X240447265Y-78715851D01*
X240433548Y-78725818D01*
X240367742Y-78749298D01*
X240360663Y-78749500D01*
X225539337Y-78749500D01*
X225472298Y-78729815D01*
X225466452Y-78725818D01*
X225452734Y-78715851D01*
X225452729Y-78715848D01*
X225279807Y-78638857D01*
X225279802Y-78638855D01*
X225134001Y-78607865D01*
X225094646Y-78599500D01*
X224905354Y-78599500D01*
X224872897Y-78606398D01*
X224720197Y-78638855D01*
X224720192Y-78638857D01*
X224547270Y-78715848D01*
X224547265Y-78715851D01*
X224533548Y-78725818D01*
X224467742Y-78749298D01*
X224460663Y-78749500D01*
X209139337Y-78749500D01*
X209072298Y-78729815D01*
X209066452Y-78725818D01*
X209052734Y-78715851D01*
X209052729Y-78715848D01*
X208879807Y-78638857D01*
X208879802Y-78638855D01*
X208734001Y-78607865D01*
X208694646Y-78599500D01*
X208505354Y-78599500D01*
X208472897Y-78606398D01*
X208320197Y-78638855D01*
X208320192Y-78638857D01*
X208147270Y-78715848D01*
X208147265Y-78715851D01*
X208133548Y-78725818D01*
X208067742Y-78749298D01*
X208060663Y-78749500D01*
X200562229Y-78749500D01*
X200495190Y-78729815D01*
X200474548Y-78713181D01*
X196678421Y-74917052D01*
X196678414Y-74917046D01*
X196594748Y-74861143D01*
X196594747Y-74861143D01*
X196555500Y-74834919D01*
X196555488Y-74834912D01*
X196418917Y-74778343D01*
X196418907Y-74778340D01*
X196273920Y-74749500D01*
X196273918Y-74749500D01*
X192862229Y-74749500D01*
X192795190Y-74729815D01*
X192774548Y-74713181D01*
X191912770Y-73851402D01*
X191882521Y-73802041D01*
X191827179Y-73631716D01*
X191732533Y-73467784D01*
X191605871Y-73327112D01*
X191590369Y-73315849D01*
X191452734Y-73215851D01*
X191452729Y-73215848D01*
X191279807Y-73138857D01*
X191279802Y-73138855D01*
X191214669Y-73125011D01*
X191153187Y-73091818D01*
X191152769Y-73091402D01*
X189786819Y-71725451D01*
X189753334Y-71664128D01*
X189750500Y-71637770D01*
X189750500Y-68534321D01*
X189767113Y-68472321D01*
X189783148Y-68444548D01*
X189827179Y-68368284D01*
X189885674Y-68188256D01*
X189905460Y-68000000D01*
X189885674Y-67811744D01*
X189827179Y-67631716D01*
X189816797Y-67613733D01*
X189767113Y-67527677D01*
X189750500Y-67465677D01*
X189750500Y-67452179D01*
X189770185Y-67385140D01*
X189786819Y-67364498D01*
X191332450Y-65818867D01*
X191332452Y-65818865D01*
X191371667Y-65760175D01*
X191414584Y-65695945D01*
X191469489Y-65563393D01*
X191471159Y-65559362D01*
X191500000Y-65414367D01*
X191500000Y-65266532D01*
X191500000Y-65026082D01*
X191500000Y-48875582D01*
X191500000Y-48875579D01*
X191471159Y-48730592D01*
X191471158Y-48730591D01*
X191471158Y-48730587D01*
X191471156Y-48730582D01*
X191414587Y-48594011D01*
X191414580Y-48593998D01*
X191332452Y-48471085D01*
X191298490Y-48437123D01*
X191227916Y-48366549D01*
X188486819Y-45625451D01*
X188453334Y-45564128D01*
X188450500Y-45537770D01*
X188450500Y-31614896D01*
X188470185Y-31547857D01*
X188520697Y-31503176D01*
X188602775Y-31463651D01*
X188825741Y-31311635D01*
X188979259Y-31169190D01*
X189023557Y-31128089D01*
X189023557Y-31128087D01*
X189023561Y-31128085D01*
X189191815Y-30917102D01*
X189326743Y-30683398D01*
X189425334Y-30432195D01*
X189485383Y-30169103D01*
X189505549Y-29900000D01*
X189485383Y-29630897D01*
X189425334Y-29367805D01*
X189326743Y-29116602D01*
X189191815Y-28882898D01*
X189023561Y-28671915D01*
X189023560Y-28671914D01*
X189023557Y-28671910D01*
X188825741Y-28488365D01*
X188602775Y-28336349D01*
X188602769Y-28336346D01*
X188602768Y-28336345D01*
X188602767Y-28336344D01*
X188359643Y-28219263D01*
X188359645Y-28219263D01*
X188101773Y-28139720D01*
X188101767Y-28139718D01*
X187834936Y-28099500D01*
X187834929Y-28099500D01*
X187565071Y-28099500D01*
X187565063Y-28099500D01*
X187298232Y-28139718D01*
X187298226Y-28139720D01*
X187040358Y-28219262D01*
X186797230Y-28336346D01*
X186574258Y-28488365D01*
X186376442Y-28671910D01*
X186208185Y-28882898D01*
X186073258Y-29116599D01*
X186073256Y-29116603D01*
X185974666Y-29367804D01*
X185974664Y-29367811D01*
X185914616Y-29630898D01*
X185894451Y-29899995D01*
X185894451Y-29900004D01*
X185914616Y-30169101D01*
X185974664Y-30432188D01*
X185974666Y-30432195D01*
X186062202Y-30655232D01*
X186073257Y-30683398D01*
X186208185Y-30917102D01*
X186264453Y-30987659D01*
X186376442Y-31128089D01*
X186563183Y-31301358D01*
X186574259Y-31311635D01*
X186797226Y-31463651D01*
X186797231Y-31463653D01*
X186797232Y-31463654D01*
X186797233Y-31463655D01*
X186879301Y-31503176D01*
X186931161Y-31549998D01*
X186949500Y-31614896D01*
X186949500Y-35654013D01*
X186929815Y-35721052D01*
X186877011Y-35766807D01*
X186807853Y-35776751D01*
X186744297Y-35747726D01*
X186718113Y-35716013D01*
X186666541Y-35626688D01*
X186632533Y-35567784D01*
X186505871Y-35427112D01*
X186505870Y-35427111D01*
X186352734Y-35315851D01*
X186352729Y-35315848D01*
X186179807Y-35238857D01*
X186179802Y-35238855D01*
X186008468Y-35202438D01*
X185994646Y-35199500D01*
X185805354Y-35199500D01*
X185791532Y-35202438D01*
X185620197Y-35238855D01*
X185620192Y-35238857D01*
X185447270Y-35315848D01*
X185447265Y-35315851D01*
X185294129Y-35427111D01*
X185167466Y-35567785D01*
X185072821Y-35731715D01*
X185072818Y-35731722D01*
X185014327Y-35911740D01*
X185014326Y-35911744D01*
X184994540Y-36100000D01*
X185014326Y-36288256D01*
X185014327Y-36288259D01*
X185072818Y-36468277D01*
X185072821Y-36468284D01*
X185167467Y-36632216D01*
X185178997Y-36645021D01*
X185294129Y-36772888D01*
X185447265Y-36884148D01*
X185447270Y-36884151D01*
X185620191Y-36961142D01*
X185620193Y-36961142D01*
X185620197Y-36961144D01*
X185685329Y-36974987D01*
X185746809Y-37008178D01*
X185747228Y-37008596D01*
X185913181Y-37174549D01*
X185946666Y-37235872D01*
X185949500Y-37262230D01*
X185949500Y-45963868D01*
X185949500Y-45963870D01*
X185949499Y-45963870D01*
X185978340Y-46108857D01*
X185978343Y-46108867D01*
X186034914Y-46245442D01*
X186067812Y-46294677D01*
X186067813Y-46294680D01*
X186117046Y-46368364D01*
X186117052Y-46368371D01*
X189113181Y-49364498D01*
X189146666Y-49425821D01*
X189149500Y-49452179D01*
X189149500Y-51352690D01*
X189129815Y-51419729D01*
X189113181Y-51440371D01*
X188301041Y-52252510D01*
X188276022Y-52192110D01*
X188204888Y-52085649D01*
X188114351Y-51995112D01*
X188007890Y-51923978D01*
X187947488Y-51898958D01*
X188785150Y-51061296D01*
X188602517Y-50936779D01*
X188602516Y-50936778D01*
X188359460Y-50819730D01*
X188359462Y-50819730D01*
X188101662Y-50740209D01*
X188101656Y-50740207D01*
X187834898Y-50700000D01*
X187565101Y-50700000D01*
X187298343Y-50740207D01*
X187298337Y-50740209D01*
X187040538Y-50819730D01*
X186797485Y-50936778D01*
X186797476Y-50936783D01*
X186614848Y-51061296D01*
X187452511Y-51898958D01*
X187392110Y-51923978D01*
X187285649Y-51995112D01*
X187195112Y-52085649D01*
X187123978Y-52192110D01*
X187098958Y-52252511D01*
X186262295Y-51415848D01*
X186208600Y-51483180D01*
X186073709Y-51716818D01*
X185975148Y-51967947D01*
X185975142Y-51967966D01*
X185915113Y-52230971D01*
X185915113Y-52230973D01*
X185894953Y-52499995D01*
X185894953Y-52500004D01*
X185915113Y-52769026D01*
X185915113Y-52769028D01*
X185975142Y-53032033D01*
X185975148Y-53032052D01*
X186073709Y-53283181D01*
X186073708Y-53283181D01*
X186208602Y-53516822D01*
X186262294Y-53584151D01*
X187098957Y-52747487D01*
X187123978Y-52807890D01*
X187195112Y-52914351D01*
X187285649Y-53004888D01*
X187392110Y-53076022D01*
X187452510Y-53101041D01*
X186614848Y-53938702D01*
X186797483Y-54063220D01*
X186797485Y-54063221D01*
X187040539Y-54180269D01*
X187040537Y-54180269D01*
X187298337Y-54259790D01*
X187298343Y-54259792D01*
X187565101Y-54299999D01*
X187565110Y-54300000D01*
X187834890Y-54300000D01*
X187834898Y-54299999D01*
X188101656Y-54259792D01*
X188101662Y-54259790D01*
X188359461Y-54180269D01*
X188602521Y-54063218D01*
X188785150Y-53938702D01*
X187947488Y-53101041D01*
X188007890Y-53076022D01*
X188114351Y-53004888D01*
X188204888Y-52914351D01*
X188276022Y-52807890D01*
X188301041Y-52747488D01*
X189113181Y-53559628D01*
X189146666Y-53620951D01*
X189149500Y-53647309D01*
X189149500Y-64837769D01*
X189129815Y-64904808D01*
X189113181Y-64925450D01*
X188422180Y-65616451D01*
X188360857Y-65649936D01*
X188291165Y-65644952D01*
X188235232Y-65603080D01*
X188210815Y-65537616D01*
X188210499Y-65528770D01*
X188210499Y-64202129D01*
X188210498Y-64202123D01*
X188204091Y-64142516D01*
X188153797Y-64007671D01*
X188153793Y-64007664D01*
X188067547Y-63892455D01*
X188067544Y-63892452D01*
X187952335Y-63806206D01*
X187952328Y-63806202D01*
X187817482Y-63755908D01*
X187817483Y-63755908D01*
X187757883Y-63749501D01*
X187757881Y-63749500D01*
X187757873Y-63749500D01*
X187757864Y-63749500D01*
X185962129Y-63749500D01*
X185962123Y-63749501D01*
X185902516Y-63755908D01*
X185767671Y-63806202D01*
X185767664Y-63806206D01*
X185652455Y-63892452D01*
X185652452Y-63892455D01*
X185566206Y-64007664D01*
X185566203Y-64007669D01*
X185517189Y-64139083D01*
X185475317Y-64195016D01*
X185409853Y-64219433D01*
X185341580Y-64204581D01*
X185313326Y-64183430D01*
X185191402Y-64061506D01*
X185191395Y-64061501D01*
X184997834Y-63925967D01*
X184997830Y-63925965D01*
X184966752Y-63911473D01*
X184783663Y-63826097D01*
X184783659Y-63826096D01*
X184783655Y-63826094D01*
X184555413Y-63764938D01*
X184555403Y-63764936D01*
X184320001Y-63744341D01*
X184319998Y-63744341D01*
X184106985Y-63762977D01*
X184038485Y-63749210D01*
X184008497Y-63727130D01*
X182193909Y-61912542D01*
X180881798Y-60600431D01*
X180848315Y-60539110D01*
X180853299Y-60469418D01*
X180895171Y-60413485D01*
X180960635Y-60389068D01*
X181007798Y-60394820D01*
X181153757Y-60442246D01*
X181363713Y-60475500D01*
X181363714Y-60475500D01*
X181576286Y-60475500D01*
X181576287Y-60475500D01*
X181786243Y-60442246D01*
X181988412Y-60376557D01*
X182177816Y-60280051D01*
X182276622Y-60208265D01*
X182349786Y-60155109D01*
X182349788Y-60155106D01*
X182349792Y-60155104D01*
X182500104Y-60004792D01*
X182619683Y-59840204D01*
X182675011Y-59797540D01*
X182744624Y-59791561D01*
X182806420Y-59824166D01*
X182820313Y-59840199D01*
X182929940Y-59991089D01*
X182939896Y-60004792D01*
X183090213Y-60155109D01*
X183262179Y-60280048D01*
X183262181Y-60280049D01*
X183262184Y-60280051D01*
X183451588Y-60376557D01*
X183653757Y-60442246D01*
X183863713Y-60475500D01*
X183863714Y-60475500D01*
X184076286Y-60475500D01*
X184076287Y-60475500D01*
X184286243Y-60442246D01*
X184488412Y-60376557D01*
X184677816Y-60280051D01*
X184776622Y-60208265D01*
X184849786Y-60155109D01*
X184849788Y-60155106D01*
X184849792Y-60155104D01*
X185000104Y-60004792D01*
X185119991Y-59839779D01*
X185175320Y-59797115D01*
X185244933Y-59791136D01*
X185306729Y-59823741D01*
X185320627Y-59839781D01*
X185440272Y-60004459D01*
X185440276Y-60004464D01*
X185590535Y-60154723D01*
X185590540Y-60154727D01*
X185762442Y-60279620D01*
X185951782Y-60376095D01*
X186153871Y-60441757D01*
X186220000Y-60452231D01*
X186220000Y-59404145D01*
X186286657Y-59442630D01*
X186407465Y-59475000D01*
X186532535Y-59475000D01*
X186653343Y-59442630D01*
X186720000Y-59404145D01*
X186720000Y-60452230D01*
X186786126Y-60441757D01*
X186786129Y-60441757D01*
X186988217Y-60376095D01*
X187177557Y-60279620D01*
X187349459Y-60154727D01*
X187349464Y-60154723D01*
X187499723Y-60004464D01*
X187499727Y-60004459D01*
X187624620Y-59832557D01*
X187721095Y-59643217D01*
X187786757Y-59441130D01*
X187786757Y-59441127D01*
X187817030Y-59250000D01*
X186874146Y-59250000D01*
X186912630Y-59183343D01*
X186945000Y-59062535D01*
X186945000Y-58937465D01*
X186912630Y-58816657D01*
X186874146Y-58750000D01*
X187817030Y-58750000D01*
X187786757Y-58558872D01*
X187786757Y-58558869D01*
X187721095Y-58356782D01*
X187624620Y-58167442D01*
X187499727Y-57995540D01*
X187499723Y-57995535D01*
X187349464Y-57845276D01*
X187349459Y-57845272D01*
X187177557Y-57720379D01*
X186988215Y-57623903D01*
X186786124Y-57558241D01*
X186720000Y-57547768D01*
X186720000Y-58595854D01*
X186653343Y-58557370D01*
X186532535Y-58525000D01*
X186407465Y-58525000D01*
X186286657Y-58557370D01*
X186220000Y-58595854D01*
X186220000Y-57547768D01*
X186219999Y-57547768D01*
X186153875Y-57558241D01*
X185951784Y-57623903D01*
X185762442Y-57720379D01*
X185590540Y-57845272D01*
X185590535Y-57845276D01*
X185440276Y-57995535D01*
X185440272Y-57995540D01*
X185320627Y-58160218D01*
X185265297Y-58202884D01*
X185195684Y-58208863D01*
X185133889Y-58176257D01*
X185119991Y-58160218D01*
X185000109Y-57995214D01*
X185000105Y-57995209D01*
X184849786Y-57844890D01*
X184677820Y-57719951D01*
X184488414Y-57623444D01*
X184488413Y-57623443D01*
X184488412Y-57623443D01*
X184286243Y-57557754D01*
X184286241Y-57557753D01*
X184286240Y-57557753D01*
X184108209Y-57529556D01*
X184076287Y-57524500D01*
X183863713Y-57524500D01*
X183831791Y-57529556D01*
X183653760Y-57557753D01*
X183451585Y-57623444D01*
X183262179Y-57719951D01*
X183090213Y-57844890D01*
X182939894Y-57995209D01*
X182939890Y-57995214D01*
X182820318Y-58159793D01*
X182764989Y-58202459D01*
X182695375Y-58208438D01*
X182633580Y-58175833D01*
X182619682Y-58159793D01*
X182500109Y-57995214D01*
X182500105Y-57995209D01*
X182349786Y-57844890D01*
X182177820Y-57719951D01*
X181988414Y-57623444D01*
X181988413Y-57623443D01*
X181988412Y-57623443D01*
X181786243Y-57557754D01*
X181786241Y-57557753D01*
X181786240Y-57557753D01*
X181608209Y-57529556D01*
X181576287Y-57524500D01*
X181363713Y-57524500D01*
X181331791Y-57529556D01*
X181153760Y-57557753D01*
X180951585Y-57623444D01*
X180762179Y-57719951D01*
X180590215Y-57844889D01*
X180451398Y-57983706D01*
X180390075Y-58017190D01*
X180320383Y-58012206D01*
X180264450Y-57970334D01*
X180258178Y-57961120D01*
X180162712Y-57806344D01*
X180038657Y-57682289D01*
X180038656Y-57682288D01*
X179889334Y-57590186D01*
X179722797Y-57535001D01*
X179722795Y-57535000D01*
X179620010Y-57524500D01*
X178319998Y-57524500D01*
X178319981Y-57524501D01*
X178217203Y-57535000D01*
X178217200Y-57535001D01*
X178050668Y-57590185D01*
X178050663Y-57590187D01*
X177901342Y-57682289D01*
X177777289Y-57806342D01*
X177685187Y-57955663D01*
X177685185Y-57955668D01*
X177680325Y-57970334D01*
X177630001Y-58122203D01*
X177630001Y-58122204D01*
X177630000Y-58122204D01*
X177619500Y-58224983D01*
X177619500Y-59335548D01*
X177599815Y-59402587D01*
X177547011Y-59448342D01*
X177477853Y-59458286D01*
X177414297Y-59429261D01*
X177407819Y-59423229D01*
X173361819Y-55377229D01*
X173328334Y-55315906D01*
X173325500Y-55289548D01*
X173325500Y-53097980D01*
X173345185Y-53030941D01*
X173393208Y-52987494D01*
X173407818Y-52980050D01*
X173579786Y-52855109D01*
X173579788Y-52855106D01*
X173579792Y-52855104D01*
X173730104Y-52704792D01*
X173849991Y-52539779D01*
X173905320Y-52497115D01*
X173974933Y-52491136D01*
X174036729Y-52523741D01*
X174050627Y-52539781D01*
X174170272Y-52704459D01*
X174170276Y-52704464D01*
X174320535Y-52854723D01*
X174320540Y-52854727D01*
X174492442Y-52979620D01*
X174681782Y-53076095D01*
X174883871Y-53141757D01*
X174950000Y-53152231D01*
X174950000Y-52104145D01*
X175016657Y-52142630D01*
X175137465Y-52175000D01*
X175262535Y-52175000D01*
X175383343Y-52142630D01*
X175450000Y-52104145D01*
X175450000Y-53152230D01*
X175516126Y-53141757D01*
X175516129Y-53141757D01*
X175718217Y-53076095D01*
X175907557Y-52979620D01*
X176079459Y-52854727D01*
X176079464Y-52854723D01*
X176229723Y-52704464D01*
X176229727Y-52704459D01*
X176354620Y-52532557D01*
X176451095Y-52343217D01*
X176516757Y-52141130D01*
X176516757Y-52141127D01*
X176547030Y-51950000D01*
X175604146Y-51950000D01*
X175642630Y-51883343D01*
X175675000Y-51762535D01*
X175675000Y-51637465D01*
X175642630Y-51516657D01*
X175604146Y-51450000D01*
X176547030Y-51450000D01*
X176516757Y-51258872D01*
X176516757Y-51258869D01*
X176451095Y-51056782D01*
X176354620Y-50867442D01*
X176229727Y-50695540D01*
X176229723Y-50695535D01*
X176079464Y-50545276D01*
X176079459Y-50545272D01*
X175907557Y-50420379D01*
X175718215Y-50323903D01*
X175516124Y-50258241D01*
X175450000Y-50247768D01*
X175450000Y-51295854D01*
X175383343Y-51257370D01*
X175262535Y-51225000D01*
X175137465Y-51225000D01*
X175016657Y-51257370D01*
X174950000Y-51295854D01*
X174950000Y-50247768D01*
X174949999Y-50247768D01*
X174883875Y-50258241D01*
X174681784Y-50323903D01*
X174492442Y-50420379D01*
X174320540Y-50545272D01*
X174320535Y-50545276D01*
X174170276Y-50695535D01*
X174170272Y-50695540D01*
X174050627Y-50860218D01*
X173995297Y-50902884D01*
X173925684Y-50908863D01*
X173863889Y-50876257D01*
X173849991Y-50860218D01*
X173730109Y-50695214D01*
X173730105Y-50695209D01*
X173579786Y-50544890D01*
X173407820Y-50419951D01*
X173218414Y-50323444D01*
X173218413Y-50323443D01*
X173218412Y-50323443D01*
X173016243Y-50257754D01*
X173016241Y-50257753D01*
X173016240Y-50257753D01*
X172854957Y-50232208D01*
X172806287Y-50224500D01*
X172593713Y-50224500D01*
X172545042Y-50232208D01*
X172383760Y-50257753D01*
X172181585Y-50323444D01*
X171992179Y-50419951D01*
X171820213Y-50544890D01*
X171669894Y-50695209D01*
X171669890Y-50695214D01*
X171550318Y-50859793D01*
X171494989Y-50902459D01*
X171425375Y-50908438D01*
X171363580Y-50875833D01*
X171349682Y-50859793D01*
X171230109Y-50695214D01*
X171230105Y-50695209D01*
X171079786Y-50544890D01*
X170907820Y-50419951D01*
X170718414Y-50323444D01*
X170718413Y-50323443D01*
X170718412Y-50323443D01*
X170516243Y-50257754D01*
X170516241Y-50257753D01*
X170516240Y-50257753D01*
X170354957Y-50232208D01*
X170306287Y-50224500D01*
X170093713Y-50224500D01*
X170045042Y-50232208D01*
X169883760Y-50257753D01*
X169681585Y-50323444D01*
X169492179Y-50419951D01*
X169320213Y-50544890D01*
X169169894Y-50695209D01*
X169169890Y-50695214D01*
X169050318Y-50859793D01*
X168994989Y-50902459D01*
X168925375Y-50908438D01*
X168863580Y-50875833D01*
X168849682Y-50859793D01*
X168730109Y-50695214D01*
X168730105Y-50695209D01*
X168579786Y-50544890D01*
X168407820Y-50419951D01*
X168218414Y-50323444D01*
X168218413Y-50323443D01*
X168218412Y-50323443D01*
X168016243Y-50257754D01*
X168016241Y-50257753D01*
X168016240Y-50257753D01*
X167854957Y-50232208D01*
X167806287Y-50224500D01*
X167593713Y-50224500D01*
X167545042Y-50232208D01*
X167383760Y-50257753D01*
X167181585Y-50323444D01*
X166992179Y-50419951D01*
X166820215Y-50544889D01*
X166681398Y-50683706D01*
X166620075Y-50717190D01*
X166550383Y-50712206D01*
X166494450Y-50670334D01*
X166488178Y-50661120D01*
X166392712Y-50506344D01*
X166268657Y-50382289D01*
X166268656Y-50382288D01*
X166119334Y-50290186D01*
X165952797Y-50235001D01*
X165952795Y-50235000D01*
X165850016Y-50224500D01*
X165850009Y-50224500D01*
X164749500Y-50224500D01*
X164682461Y-50204815D01*
X164636706Y-50152011D01*
X164625500Y-50100500D01*
X164625500Y-45199995D01*
X165194732Y-45199995D01*
X165194732Y-45200004D01*
X165213777Y-45454154D01*
X165252874Y-45625451D01*
X165270492Y-45702637D01*
X165363607Y-45939888D01*
X165491041Y-46160612D01*
X165649950Y-46359877D01*
X165836783Y-46533232D01*
X166047366Y-46676805D01*
X166047371Y-46676807D01*
X166047372Y-46676808D01*
X166047373Y-46676809D01*
X166169328Y-46735538D01*
X166276992Y-46787387D01*
X166276993Y-46787387D01*
X166276996Y-46787389D01*
X166520542Y-46862513D01*
X166772565Y-46900500D01*
X167027435Y-46900500D01*
X167279458Y-46862513D01*
X167523004Y-46787389D01*
X167752634Y-46676805D01*
X167963217Y-46533232D01*
X168150050Y-46359877D01*
X168308959Y-46160612D01*
X168436393Y-45939888D01*
X168529508Y-45702637D01*
X168586222Y-45454157D01*
X168601671Y-45248006D01*
X168605268Y-45200004D01*
X168605268Y-45199995D01*
X168586222Y-44945845D01*
X168557475Y-44819898D01*
X168529508Y-44697363D01*
X168436393Y-44460112D01*
X168308959Y-44239388D01*
X168150050Y-44040123D01*
X167963217Y-43866768D01*
X167752634Y-43723195D01*
X167752628Y-43723192D01*
X167752627Y-43723191D01*
X167752625Y-43723190D01*
X167572027Y-43636219D01*
X167520167Y-43589397D01*
X167501854Y-43521970D01*
X167522902Y-43455346D01*
X167576628Y-43410677D01*
X167625826Y-43400499D01*
X168147872Y-43400499D01*
X168207483Y-43394091D01*
X168342331Y-43343796D01*
X168457546Y-43257546D01*
X168543796Y-43142331D01*
X168594091Y-43007483D01*
X168600500Y-42947873D01*
X168600499Y-40452128D01*
X168594091Y-40392517D01*
X168557960Y-40295646D01*
X168543797Y-40257671D01*
X168543793Y-40257664D01*
X168457547Y-40142455D01*
X168457544Y-40142452D01*
X168342335Y-40056206D01*
X168342328Y-40056202D01*
X168207482Y-40005908D01*
X168207483Y-40005908D01*
X168147883Y-39999501D01*
X168147881Y-39999500D01*
X168147873Y-39999500D01*
X168147864Y-39999500D01*
X165652129Y-39999500D01*
X165652123Y-39999501D01*
X165592516Y-40005908D01*
X165457671Y-40056202D01*
X165457664Y-40056206D01*
X165342455Y-40142452D01*
X165342452Y-40142455D01*
X165256206Y-40257664D01*
X165256202Y-40257671D01*
X165205908Y-40392517D01*
X165199501Y-40452116D01*
X165199501Y-40452123D01*
X165199500Y-40452135D01*
X165199500Y-42947870D01*
X165199501Y-42947876D01*
X165205908Y-43007483D01*
X165256202Y-43142328D01*
X165256206Y-43142335D01*
X165342452Y-43257544D01*
X165342455Y-43257547D01*
X165457664Y-43343793D01*
X165457671Y-43343797D01*
X165592517Y-43394091D01*
X165592516Y-43394091D01*
X165599444Y-43394835D01*
X165652127Y-43400500D01*
X166174172Y-43400499D01*
X166241209Y-43420183D01*
X166286964Y-43472987D01*
X166296908Y-43542146D01*
X166267883Y-43605702D01*
X166227972Y-43636219D01*
X166047370Y-43723192D01*
X165836782Y-43866768D01*
X165649952Y-44040121D01*
X165649950Y-44040123D01*
X165491041Y-44239388D01*
X165363608Y-44460109D01*
X165270492Y-44697362D01*
X165270490Y-44697369D01*
X165213777Y-44945845D01*
X165194732Y-45199995D01*
X164625500Y-45199995D01*
X164625500Y-39810451D01*
X164645185Y-39743412D01*
X164661814Y-39722775D01*
X166398729Y-37985860D01*
X166398733Y-37985858D01*
X166485858Y-37898733D01*
X166520084Y-37847509D01*
X166554312Y-37796286D01*
X166601463Y-37682451D01*
X166601464Y-37682444D01*
X166601465Y-37682444D01*
X166604375Y-37667812D01*
X166606705Y-37656100D01*
X166625500Y-37561606D01*
X166625500Y-35626693D01*
X166601463Y-35505847D01*
X166568850Y-35427112D01*
X166554312Y-35392014D01*
X166537256Y-35366489D01*
X166485858Y-35289566D01*
X166485856Y-35289563D01*
X166395637Y-35199344D01*
X166395606Y-35199315D01*
X165763960Y-34567669D01*
X165730475Y-34506346D01*
X165728323Y-34492970D01*
X165710674Y-34325043D01*
X165652179Y-34145015D01*
X165557533Y-33981083D01*
X165430871Y-33840411D01*
X165430870Y-33840410D01*
X165277734Y-33729150D01*
X165277729Y-33729147D01*
X165104807Y-33652156D01*
X165104802Y-33652154D01*
X164959001Y-33621164D01*
X164919646Y-33612799D01*
X164730354Y-33612799D01*
X164697897Y-33619697D01*
X164545197Y-33652154D01*
X164545192Y-33652156D01*
X164372270Y-33729147D01*
X164372265Y-33729150D01*
X164219129Y-33840410D01*
X164092466Y-33981084D01*
X163997821Y-34145014D01*
X163997818Y-34145021D01*
X163939327Y-34325039D01*
X163939326Y-34325043D01*
X163919540Y-34513299D01*
X163939326Y-34701555D01*
X163939327Y-34701558D01*
X163997818Y-34881576D01*
X163997821Y-34881583D01*
X164095716Y-35051143D01*
X164093150Y-35052624D01*
X164112250Y-35106397D01*
X164096327Y-35174428D01*
X164095680Y-35175434D01*
X164095716Y-35175455D01*
X163997821Y-35345014D01*
X163997818Y-35345021D01*
X163939327Y-35525039D01*
X163939326Y-35525043D01*
X163919540Y-35713299D01*
X163939326Y-35901555D01*
X163939327Y-35901558D01*
X163997818Y-36081576D01*
X163997821Y-36081583D01*
X164092467Y-36245515D01*
X164109082Y-36263968D01*
X164123812Y-36280328D01*
X164154041Y-36343320D01*
X164145415Y-36412655D01*
X164123812Y-36446270D01*
X164092466Y-36481084D01*
X163997821Y-36645014D01*
X163997818Y-36645021D01*
X163956272Y-36772888D01*
X163939326Y-36825043D01*
X163933114Y-36884148D01*
X163921678Y-36992950D01*
X163895093Y-37057565D01*
X163886038Y-37067669D01*
X163157422Y-37796286D01*
X162651270Y-38302438D01*
X162651267Y-38302441D01*
X162607703Y-38346004D01*
X162564140Y-38389567D01*
X162536793Y-38430497D01*
X162536791Y-38430500D01*
X162522094Y-38452495D01*
X162495688Y-38492013D01*
X162495686Y-38492015D01*
X162480747Y-38528084D01*
X162448538Y-38605843D01*
X162448535Y-38605855D01*
X162424500Y-38726688D01*
X162424500Y-63441450D01*
X162404815Y-63508489D01*
X162388181Y-63529131D01*
X161911681Y-64005631D01*
X161850358Y-64039116D01*
X161780666Y-64034132D01*
X161724733Y-63992260D01*
X161700316Y-63926796D01*
X161700000Y-63917950D01*
X161700000Y-30171597D01*
X161719685Y-30104558D01*
X161772489Y-30058803D01*
X161841647Y-30048859D01*
X161905203Y-30077884D01*
X161942977Y-30136662D01*
X161946367Y-30151536D01*
X161972419Y-30310449D01*
X161972421Y-30310457D01*
X162068147Y-30655232D01*
X162068149Y-30655239D01*
X162200597Y-30987659D01*
X162200606Y-30987677D01*
X162368218Y-31303827D01*
X162569024Y-31599994D01*
X162569035Y-31600008D01*
X162696441Y-31750002D01*
X162696442Y-31750002D01*
X163905747Y-30540697D01*
X163979588Y-30642330D01*
X164157670Y-30820412D01*
X164259300Y-30894251D01*
X163047257Y-32106294D01*
X163060495Y-32118836D01*
X163345367Y-32335388D01*
X163345370Y-32335390D01*
X163651990Y-32519876D01*
X163976739Y-32670122D01*
X163976744Y-32670123D01*
X164315855Y-32784383D01*
X164665339Y-32861311D01*
X165021075Y-32899999D01*
X165021085Y-32900000D01*
X165378915Y-32900000D01*
X165378924Y-32899999D01*
X165734660Y-32861311D01*
X166084144Y-32784383D01*
X166423255Y-32670123D01*
X166423260Y-32670122D01*
X166748009Y-32519876D01*
X167054629Y-32335390D01*
X167054632Y-32335388D01*
X167339509Y-32118831D01*
X167352742Y-32106295D01*
X167352742Y-32106294D01*
X166140699Y-30894251D01*
X166242330Y-30820412D01*
X166420412Y-30642330D01*
X166494251Y-30540698D01*
X167703556Y-31750002D01*
X167830972Y-31599998D01*
X167830975Y-31599994D01*
X168031781Y-31303827D01*
X168199393Y-30987677D01*
X168199402Y-30987659D01*
X168331850Y-30655239D01*
X168331852Y-30655232D01*
X168427578Y-30310457D01*
X168427584Y-30310431D01*
X168485472Y-29957331D01*
X168485473Y-29957314D01*
X168504847Y-29600002D01*
X168504847Y-29599997D01*
X168485473Y-29242685D01*
X168485472Y-29242668D01*
X168427584Y-28889568D01*
X168427578Y-28889542D01*
X168331852Y-28544767D01*
X168331850Y-28544760D01*
X168199402Y-28212340D01*
X168199393Y-28212322D01*
X168031781Y-27896172D01*
X167830975Y-27600005D01*
X167830964Y-27599991D01*
X167703556Y-27449996D01*
X166494251Y-28659300D01*
X166420412Y-28557670D01*
X166242330Y-28379588D01*
X166140698Y-28305748D01*
X167352742Y-27093704D01*
X167339504Y-27081163D01*
X167054632Y-26864611D01*
X167054629Y-26864609D01*
X166748009Y-26680123D01*
X166423260Y-26529877D01*
X166423255Y-26529876D01*
X166084144Y-26415616D01*
X165763794Y-26345101D01*
X165702554Y-26311465D01*
X165669220Y-26250060D01*
X165674376Y-26180380D01*
X165716385Y-26124550D01*
X165781910Y-26100295D01*
X165790451Y-26100000D01*
X194476000Y-26100000D01*
X194543039Y-26119685D01*
G37*
%TD.AperFunction*%
%TA.AperFunction,Conductor*%
G36*
X190356587Y-81645185D02*
G01*
X190377229Y-81661819D01*
X190861038Y-82145628D01*
X190894523Y-82206951D01*
X190896678Y-82220347D01*
X190897873Y-82231715D01*
X190914326Y-82388256D01*
X190914327Y-82388259D01*
X190972818Y-82568277D01*
X190972821Y-82568284D01*
X191067467Y-82732216D01*
X191161652Y-82836819D01*
X191194129Y-82872888D01*
X191347265Y-82984148D01*
X191347270Y-82984151D01*
X191520192Y-83061142D01*
X191520197Y-83061144D01*
X191705354Y-83100500D01*
X191729192Y-83100500D01*
X191796231Y-83120185D01*
X191816873Y-83136819D01*
X192213181Y-83533127D01*
X192246666Y-83594450D01*
X192249500Y-83620808D01*
X192249500Y-85739853D01*
X192229815Y-85806892D01*
X192213181Y-85827534D01*
X190702534Y-87338181D01*
X190641211Y-87371666D01*
X190614853Y-87374500D01*
X189003748Y-87374500D01*
X188936709Y-87354815D01*
X188911600Y-87333474D01*
X188905873Y-87327114D01*
X188905869Y-87327110D01*
X188752734Y-87215851D01*
X188752729Y-87215848D01*
X188579807Y-87138857D01*
X188579802Y-87138855D01*
X188414471Y-87103714D01*
X188394646Y-87099500D01*
X188209500Y-87099500D01*
X188142461Y-87079815D01*
X188096706Y-87027011D01*
X188085500Y-86975500D01*
X188085500Y-86824236D01*
X188085500Y-86824234D01*
X188046281Y-86677865D01*
X187970515Y-86546635D01*
X187863365Y-86439485D01*
X187753999Y-86376342D01*
X187732136Y-86363719D01*
X187638717Y-86338688D01*
X187585766Y-86324500D01*
X187434234Y-86324500D01*
X187287865Y-86363719D01*
X187287864Y-86363719D01*
X187287862Y-86363720D01*
X187287861Y-86363720D01*
X187266000Y-86376342D01*
X187198099Y-86392815D01*
X187132073Y-86369962D01*
X187088882Y-86315041D01*
X187080000Y-86268955D01*
X187080000Y-85721508D01*
X187079999Y-85721504D01*
X187041572Y-85528318D01*
X187041569Y-85528306D01*
X186966192Y-85346328D01*
X186966185Y-85346315D01*
X186856751Y-85182537D01*
X186856748Y-85182533D01*
X186717466Y-85043251D01*
X186717462Y-85043248D01*
X186553684Y-84933814D01*
X186553671Y-84933807D01*
X186371691Y-84858429D01*
X186371683Y-84858427D01*
X186330000Y-84850135D01*
X186330000Y-85653011D01*
X186320060Y-85635795D01*
X186264205Y-85579940D01*
X186195796Y-85540444D01*
X186119496Y-85520000D01*
X186040504Y-85520000D01*
X185964204Y-85540444D01*
X185895795Y-85579940D01*
X185839940Y-85635795D01*
X185830000Y-85653011D01*
X185830000Y-84850136D01*
X185829999Y-84850135D01*
X185788316Y-84858427D01*
X185788308Y-84858429D01*
X185606328Y-84933807D01*
X185606315Y-84933814D01*
X185442537Y-85043248D01*
X185442533Y-85043251D01*
X185303251Y-85182533D01*
X185303248Y-85182537D01*
X185193814Y-85346315D01*
X185193807Y-85346328D01*
X185118430Y-85528306D01*
X185118427Y-85528318D01*
X185080000Y-85721504D01*
X185080000Y-86120000D01*
X185780000Y-86120000D01*
X185780000Y-86620000D01*
X185080000Y-86620000D01*
X185080000Y-87018495D01*
X185118427Y-87211681D01*
X185118430Y-87211693D01*
X185193807Y-87393671D01*
X185193814Y-87393684D01*
X185303248Y-87557462D01*
X185303251Y-87557466D01*
X185442533Y-87696748D01*
X185442537Y-87696751D01*
X185606315Y-87806185D01*
X185606328Y-87806192D01*
X185788308Y-87881569D01*
X185830000Y-87889862D01*
X185830000Y-87086988D01*
X185839940Y-87104205D01*
X185895795Y-87160060D01*
X185964204Y-87199556D01*
X186040504Y-87220000D01*
X186119496Y-87220000D01*
X186195796Y-87199556D01*
X186264205Y-87160060D01*
X186320060Y-87104205D01*
X186330000Y-87086988D01*
X186330000Y-87889862D01*
X186371690Y-87881569D01*
X186371692Y-87881569D01*
X186553671Y-87806192D01*
X186553684Y-87806185D01*
X186717462Y-87696751D01*
X186717466Y-87696748D01*
X186856748Y-87557466D01*
X186856751Y-87557462D01*
X186969574Y-87388613D01*
X186971007Y-87389570D01*
X187014198Y-87345580D01*
X187082332Y-87330103D01*
X187148018Y-87353919D01*
X187150089Y-87355697D01*
X187150189Y-87355568D01*
X187156630Y-87360510D01*
X187156635Y-87360515D01*
X187287865Y-87436281D01*
X187390609Y-87463811D01*
X187450269Y-87500175D01*
X187480798Y-87563021D01*
X187473380Y-87625064D01*
X187474829Y-87625535D01*
X187450634Y-87700000D01*
X187414326Y-87811744D01*
X187394540Y-88000000D01*
X187403740Y-88087540D01*
X187391172Y-88156268D01*
X187343439Y-88207292D01*
X187280420Y-88224500D01*
X183575210Y-88224500D01*
X183451997Y-88224500D01*
X183394901Y-88235857D01*
X183394900Y-88235856D01*
X183331159Y-88248535D01*
X183331149Y-88248538D01*
X183217320Y-88295687D01*
X183217311Y-88295692D01*
X183114872Y-88364140D01*
X183071309Y-88407703D01*
X183027746Y-88451267D01*
X183027743Y-88451270D01*
X182097151Y-89381863D01*
X182035828Y-89415348D01*
X182009470Y-89418182D01*
X179908420Y-89418182D01*
X179841381Y-89398497D01*
X179795626Y-89345693D01*
X179785099Y-89281221D01*
X179785673Y-89275758D01*
X179785674Y-89275756D01*
X179805460Y-89087500D01*
X179785674Y-88899244D01*
X179778855Y-88878260D01*
X179776859Y-88808422D01*
X179809103Y-88752263D01*
X182982951Y-85578416D01*
X183065084Y-85455495D01*
X183121658Y-85318913D01*
X183133149Y-85261144D01*
X183141824Y-85217531D01*
X183150500Y-85173919D01*
X183150500Y-82732010D01*
X183170185Y-82664971D01*
X183222989Y-82619216D01*
X183292147Y-82609272D01*
X183324936Y-82618731D01*
X183420192Y-82661142D01*
X183420197Y-82661144D01*
X183605354Y-82700500D01*
X183605355Y-82700500D01*
X183794644Y-82700500D01*
X183794646Y-82700500D01*
X183979803Y-82661144D01*
X184152730Y-82584151D01*
X184305871Y-82472888D01*
X184308788Y-82469647D01*
X184311600Y-82466526D01*
X184371087Y-82429879D01*
X184403748Y-82425500D01*
X184761608Y-82425500D01*
X184761608Y-82425499D01*
X184830764Y-82411744D01*
X184830765Y-82411744D01*
X184843774Y-82409156D01*
X184882452Y-82401463D01*
X184932496Y-82380734D01*
X184996286Y-82354312D01*
X185059992Y-82311744D01*
X185059993Y-82311744D01*
X185085641Y-82294605D01*
X185098733Y-82285858D01*
X185185858Y-82198733D01*
X185185860Y-82198729D01*
X185306048Y-82078540D01*
X185367369Y-82045058D01*
X185437061Y-82050042D01*
X185492994Y-82091914D01*
X185517411Y-82157378D01*
X185511658Y-82204542D01*
X185510876Y-82206951D01*
X185476826Y-82311744D01*
X185457040Y-82500000D01*
X185476826Y-82688256D01*
X185476827Y-82688259D01*
X185535318Y-82868277D01*
X185535321Y-82868284D01*
X185629967Y-83032216D01*
X185700777Y-83110858D01*
X185756629Y-83172888D01*
X185909765Y-83284148D01*
X185909770Y-83284151D01*
X186082692Y-83361142D01*
X186082697Y-83361144D01*
X186267854Y-83400500D01*
X186267855Y-83400500D01*
X186457144Y-83400500D01*
X186457146Y-83400500D01*
X186642303Y-83361144D01*
X186815230Y-83284151D01*
X186968371Y-83172888D01*
X187095033Y-83032216D01*
X187189679Y-82868284D01*
X187248174Y-82688256D01*
X187265821Y-82520344D01*
X187292404Y-82455734D01*
X187301451Y-82445639D01*
X188085272Y-81661819D01*
X188146595Y-81628334D01*
X188172953Y-81625500D01*
X190289548Y-81625500D01*
X190356587Y-81645185D01*
G37*
%TD.AperFunction*%
%TA.AperFunction,Conductor*%
G36*
X166790000Y-66430633D02*
G01*
X166933407Y-66392209D01*
X167003257Y-66393872D01*
X167061119Y-66433035D01*
X167088623Y-66497263D01*
X167089500Y-66511984D01*
X167089500Y-67276606D01*
X167113537Y-67397452D01*
X167122571Y-67419262D01*
X167122572Y-67419266D01*
X167122573Y-67419266D01*
X167160688Y-67511286D01*
X167171640Y-67527677D01*
X167189191Y-67553942D01*
X167189192Y-67553944D01*
X167229140Y-67613731D01*
X167229141Y-67613732D01*
X167229142Y-67613733D01*
X167316267Y-67700858D01*
X167316268Y-67700858D01*
X167323335Y-67707925D01*
X167323334Y-67707925D01*
X167323338Y-67707928D01*
X175338181Y-75722771D01*
X175371666Y-75784094D01*
X175374500Y-75810452D01*
X175374500Y-81284601D01*
X175354815Y-81351640D01*
X175302011Y-81397395D01*
X175232853Y-81407339D01*
X175224720Y-81405892D01*
X175194646Y-81399500D01*
X175005354Y-81399500D01*
X174975282Y-81405892D01*
X174820197Y-81438855D01*
X174820192Y-81438857D01*
X174647270Y-81515848D01*
X174647266Y-81515851D01*
X174583924Y-81561871D01*
X174518118Y-81585350D01*
X174460604Y-81574831D01*
X174379807Y-81538857D01*
X174379802Y-81538855D01*
X174234001Y-81507865D01*
X174194646Y-81499500D01*
X174005354Y-81499500D01*
X173972897Y-81506398D01*
X173820197Y-81538855D01*
X173820192Y-81538857D01*
X173647270Y-81615848D01*
X173647265Y-81615851D01*
X173494129Y-81727111D01*
X173367466Y-81867785D01*
X173272821Y-82031715D01*
X173272818Y-82031722D01*
X173218142Y-82200000D01*
X173214326Y-82211744D01*
X173194540Y-82400000D01*
X173214326Y-82588256D01*
X173214327Y-82588259D01*
X173272818Y-82768277D01*
X173272821Y-82768284D01*
X173367467Y-82932216D01*
X173394122Y-82961819D01*
X173442650Y-83015715D01*
X173472880Y-83078706D01*
X173474500Y-83098687D01*
X173474500Y-87510792D01*
X173468432Y-87549108D01*
X173464326Y-87561742D01*
X173464326Y-87561743D01*
X173464326Y-87561744D01*
X173444540Y-87750000D01*
X173464326Y-87938256D01*
X173464327Y-87938259D01*
X173522818Y-88118277D01*
X173522821Y-88118284D01*
X173532434Y-88134935D01*
X173541710Y-88151000D01*
X173558183Y-88218900D01*
X173535331Y-88284927D01*
X173480409Y-88328118D01*
X173434323Y-88337000D01*
X168439337Y-88337000D01*
X168372298Y-88317315D01*
X168366452Y-88313318D01*
X168352734Y-88303351D01*
X168352729Y-88303348D01*
X168179807Y-88226357D01*
X168179802Y-88226355D01*
X168034001Y-88195365D01*
X167994646Y-88187000D01*
X167805354Y-88187000D01*
X167782602Y-88191835D01*
X167712937Y-88186519D01*
X167657204Y-88144381D01*
X167633100Y-88078800D01*
X167638893Y-88032231D01*
X167685674Y-87888256D01*
X167705460Y-87700000D01*
X167685674Y-87511744D01*
X167627179Y-87331716D01*
X167532533Y-87167784D01*
X167405871Y-87027112D01*
X167388021Y-87014143D01*
X167263622Y-86923762D01*
X167220956Y-86868432D01*
X167214977Y-86798819D01*
X167247583Y-86737024D01*
X167248826Y-86735763D01*
X167545103Y-86439487D01*
X167922771Y-86061819D01*
X167984094Y-86028334D01*
X168010452Y-86025500D01*
X172286912Y-86025500D01*
X172347334Y-86013481D01*
X172407757Y-86001463D01*
X172407760Y-86001461D01*
X172407763Y-86001461D01*
X172441092Y-85987654D01*
X172441091Y-85987654D01*
X172441097Y-85987652D01*
X172521591Y-85954312D01*
X172572814Y-85920084D01*
X172624038Y-85885858D01*
X172711163Y-85798733D01*
X172711164Y-85798731D01*
X172718230Y-85791665D01*
X172718233Y-85791661D01*
X172778729Y-85731165D01*
X172778733Y-85731163D01*
X172865858Y-85644038D01*
X172934311Y-85541591D01*
X172934312Y-85541590D01*
X172934313Y-85541587D01*
X172934315Y-85541584D01*
X172958554Y-85483063D01*
X172967442Y-85461606D01*
X172969974Y-85455495D01*
X172981461Y-85427761D01*
X172981463Y-85427757D01*
X173005500Y-85306911D01*
X173005500Y-84018394D01*
X173003323Y-84007451D01*
X172981463Y-83897549D01*
X172980956Y-83896328D01*
X172980951Y-83896279D01*
X172980939Y-83896285D01*
X172959982Y-83845689D01*
X172959982Y-83845688D01*
X172951425Y-83825030D01*
X172934312Y-83783714D01*
X172911058Y-83748912D01*
X172896494Y-83727115D01*
X172896491Y-83727112D01*
X172865858Y-83681267D01*
X172865856Y-83681264D01*
X172775637Y-83591045D01*
X172775606Y-83591016D01*
X171838960Y-82654370D01*
X171805475Y-82593047D01*
X171803323Y-82579671D01*
X171785674Y-82411744D01*
X171727179Y-82231716D01*
X171632533Y-82067784D01*
X171505871Y-81927112D01*
X171505870Y-81927111D01*
X171352734Y-81815851D01*
X171352729Y-81815848D01*
X171179807Y-81738857D01*
X171179802Y-81738855D01*
X171034001Y-81707865D01*
X170994646Y-81699500D01*
X170805354Y-81699500D01*
X170772897Y-81706398D01*
X170620197Y-81738855D01*
X170620192Y-81738857D01*
X170447270Y-81815848D01*
X170447265Y-81815851D01*
X170294130Y-81927110D01*
X170294126Y-81927114D01*
X170288400Y-81933474D01*
X170228913Y-81970121D01*
X170196252Y-81974500D01*
X167883245Y-81974500D01*
X167816206Y-81954815D01*
X167795564Y-81938181D01*
X165861819Y-80004436D01*
X165828334Y-79943113D01*
X165825500Y-79916755D01*
X165825500Y-66451024D01*
X165845185Y-66383985D01*
X165897989Y-66338230D01*
X165967147Y-66328286D01*
X166001905Y-66338642D01*
X166076507Y-66373430D01*
X166076516Y-66373433D01*
X166290000Y-66430634D01*
X166290000Y-65533012D01*
X166347007Y-65565925D01*
X166474174Y-65600000D01*
X166605826Y-65600000D01*
X166732993Y-65565925D01*
X166790000Y-65533012D01*
X166790000Y-66430633D01*
G37*
%TD.AperFunction*%
%TA.AperFunction,Conductor*%
G36*
X179322385Y-78766071D02*
G01*
X179343653Y-78781523D01*
X179347269Y-78784150D01*
X179347270Y-78784151D01*
X179520192Y-78861142D01*
X179520197Y-78861144D01*
X179705354Y-78900500D01*
X179705355Y-78900500D01*
X179894644Y-78900500D01*
X179894646Y-78900500D01*
X180079803Y-78861144D01*
X180100062Y-78852123D01*
X180169311Y-78842837D01*
X180232589Y-78872464D01*
X180269803Y-78931598D01*
X180274500Y-78965402D01*
X180274500Y-83989547D01*
X180254815Y-84056586D01*
X180238181Y-84077228D01*
X179586536Y-84728873D01*
X179525213Y-84762358D01*
X179455521Y-84757374D01*
X179399588Y-84715502D01*
X179375171Y-84650038D01*
X179380925Y-84602872D01*
X179383065Y-84596286D01*
X179385674Y-84588256D01*
X179405460Y-84400000D01*
X179385674Y-84211744D01*
X179327179Y-84031716D01*
X179232533Y-83867784D01*
X179212638Y-83845688D01*
X179157350Y-83784284D01*
X179127120Y-83721292D01*
X179125500Y-83701312D01*
X179125500Y-78866389D01*
X179145185Y-78799350D01*
X179197989Y-78753595D01*
X179267147Y-78743651D01*
X179322385Y-78766071D01*
G37*
%TD.AperFunction*%
%TA.AperFunction,Conductor*%
G36*
X187092150Y-69171730D02*
G01*
X187148083Y-69213602D01*
X187166746Y-69249590D01*
X187172818Y-69268278D01*
X187172821Y-69268284D01*
X187267466Y-69432215D01*
X187317649Y-69487948D01*
X187347880Y-69550940D01*
X187349500Y-69570921D01*
X187349500Y-70029192D01*
X187329815Y-70096231D01*
X187313181Y-70116873D01*
X184266873Y-73163181D01*
X184205550Y-73196666D01*
X184179192Y-73199500D01*
X184105354Y-73199500D01*
X184072897Y-73206398D01*
X183920197Y-73238855D01*
X183920192Y-73238857D01*
X183747270Y-73315848D01*
X183747265Y-73315851D01*
X183594129Y-73427111D01*
X183467466Y-73567785D01*
X183381887Y-73716013D01*
X183331320Y-73764228D01*
X183262713Y-73777452D01*
X183197848Y-73751484D01*
X183157320Y-73694570D01*
X183150500Y-73654013D01*
X183150500Y-73062229D01*
X183170185Y-72995190D01*
X183186819Y-72974548D01*
X185069781Y-71091586D01*
X186961137Y-69200229D01*
X187022458Y-69166746D01*
X187092150Y-69171730D01*
G37*
%TD.AperFunction*%
%TA.AperFunction,Conductor*%
G36*
X164517539Y-64869685D02*
G01*
X164563294Y-64922489D01*
X164574500Y-64974000D01*
X164574500Y-65226000D01*
X164554815Y-65293039D01*
X164502011Y-65338794D01*
X164450500Y-65350000D01*
X164433012Y-65350000D01*
X164465925Y-65292993D01*
X164500000Y-65165826D01*
X164500000Y-65034174D01*
X164465925Y-64907007D01*
X164433012Y-64850000D01*
X164450500Y-64850000D01*
X164517539Y-64869685D01*
G37*
%TD.AperFunction*%
%TA.AperFunction,Conductor*%
G36*
X166074075Y-64907007D02*
G01*
X166040000Y-65034174D01*
X166040000Y-65165826D01*
X166074075Y-65292993D01*
X166106988Y-65350000D01*
X165949500Y-65350000D01*
X165882461Y-65330315D01*
X165836706Y-65277511D01*
X165825500Y-65226000D01*
X165825500Y-64974000D01*
X165845185Y-64906961D01*
X165897989Y-64861206D01*
X165949500Y-64850000D01*
X166106988Y-64850000D01*
X166074075Y-64907007D01*
G37*
%TD.AperFunction*%
%TA.AperFunction,Conductor*%
G36*
X171536420Y-52524166D02*
G01*
X171550313Y-52540199D01*
X171658857Y-52689598D01*
X171669896Y-52704792D01*
X171820213Y-52855109D01*
X171992181Y-52980050D01*
X172006792Y-52987494D01*
X172057589Y-53035467D01*
X172074500Y-53097980D01*
X172074500Y-55661611D01*
X172098535Y-55782444D01*
X172098540Y-55782461D01*
X172145685Y-55896280D01*
X172145690Y-55896289D01*
X172179914Y-55947507D01*
X172179915Y-55947509D01*
X172214141Y-55998733D01*
X172305586Y-56090178D01*
X172305608Y-56090198D01*
X177738181Y-61522771D01*
X177771666Y-61584094D01*
X177774500Y-61610452D01*
X177774500Y-62401312D01*
X177754815Y-62468351D01*
X177742650Y-62484284D01*
X177667466Y-62567784D01*
X177572821Y-62731715D01*
X177572818Y-62731722D01*
X177533882Y-62851557D01*
X177514326Y-62911744D01*
X177494540Y-63100000D01*
X177514326Y-63288256D01*
X177514327Y-63288259D01*
X177572818Y-63468277D01*
X177572821Y-63468284D01*
X177667467Y-63632216D01*
X177760116Y-63735113D01*
X177794129Y-63772888D01*
X177947265Y-63884148D01*
X177947270Y-63884151D01*
X178120192Y-63961142D01*
X178120193Y-63961142D01*
X178120197Y-63961144D01*
X178184436Y-63974798D01*
X178245914Y-64007988D01*
X178279692Y-64069150D01*
X178275040Y-64138865D01*
X178246335Y-64183767D01*
X178201506Y-64228596D01*
X178071575Y-64414158D01*
X178016998Y-64457783D01*
X177947500Y-64464977D01*
X177885145Y-64433454D01*
X177868425Y-64414158D01*
X177738494Y-64228597D01*
X177571402Y-64061506D01*
X177571395Y-64061501D01*
X177377834Y-63925967D01*
X177377830Y-63925965D01*
X177346752Y-63911473D01*
X177163663Y-63826097D01*
X177163659Y-63826096D01*
X177163655Y-63826094D01*
X176935413Y-63764938D01*
X176935403Y-63764936D01*
X176700001Y-63744341D01*
X176699999Y-63744341D01*
X176464596Y-63764936D01*
X176464586Y-63764938D01*
X176236344Y-63826094D01*
X176236335Y-63826098D01*
X176022171Y-63925964D01*
X176022169Y-63925965D01*
X175828593Y-64061508D01*
X175828202Y-64061837D01*
X175827994Y-64061927D01*
X175824164Y-64064610D01*
X175823624Y-64063840D01*
X175764193Y-64089849D01*
X175695202Y-64078808D01*
X175660818Y-64054527D01*
X174411899Y-62805608D01*
X174411879Y-62805586D01*
X174320436Y-62714143D01*
X174287202Y-62691937D01*
X174252683Y-62668872D01*
X174252684Y-62668872D01*
X174252682Y-62668870D01*
X174217991Y-62645690D01*
X174217982Y-62645685D01*
X174121031Y-62605528D01*
X174104153Y-62598537D01*
X174104145Y-62598535D01*
X174038297Y-62585436D01*
X174038288Y-62585436D01*
X173983308Y-62574500D01*
X173983307Y-62574500D01*
X173303748Y-62574500D01*
X173236709Y-62554815D01*
X173211600Y-62533474D01*
X173205873Y-62527114D01*
X173205869Y-62527110D01*
X173052734Y-62415851D01*
X173052729Y-62415848D01*
X172879807Y-62338857D01*
X172879802Y-62338855D01*
X172733770Y-62307816D01*
X172694646Y-62299500D01*
X172505354Y-62299500D01*
X172472897Y-62306398D01*
X172320197Y-62338855D01*
X172320192Y-62338857D01*
X172147270Y-62415848D01*
X172147265Y-62415851D01*
X171994129Y-62527111D01*
X171994128Y-62527112D01*
X171947749Y-62578621D01*
X171888262Y-62615269D01*
X171818405Y-62613938D01*
X171767919Y-62583329D01*
X171738960Y-62554370D01*
X171705475Y-62493047D01*
X171703323Y-62479671D01*
X171685674Y-62311744D01*
X171627179Y-62131716D01*
X171532533Y-61967784D01*
X171405871Y-61827112D01*
X171405870Y-61827111D01*
X171252734Y-61715851D01*
X171252729Y-61715848D01*
X171079807Y-61638857D01*
X171079802Y-61638855D01*
X170934001Y-61607865D01*
X170894646Y-61599500D01*
X170705354Y-61599500D01*
X170672897Y-61606398D01*
X170520197Y-61638855D01*
X170520192Y-61638857D01*
X170347270Y-61715848D01*
X170347265Y-61715851D01*
X170194129Y-61827111D01*
X170067466Y-61967785D01*
X169972821Y-62131715D01*
X169972818Y-62131722D01*
X169921424Y-62289898D01*
X169914326Y-62311744D01*
X169894540Y-62500000D01*
X169914326Y-62688256D01*
X169914327Y-62688259D01*
X169972818Y-62868277D01*
X169972821Y-62868284D01*
X170067467Y-63032216D01*
X170140068Y-63112847D01*
X170194129Y-63172888D01*
X170347265Y-63284148D01*
X170347270Y-63284151D01*
X170520192Y-63361142D01*
X170520197Y-63361144D01*
X170705354Y-63400500D01*
X170764548Y-63400500D01*
X170831587Y-63420185D01*
X170852229Y-63436819D01*
X171089200Y-63673790D01*
X171122685Y-63735113D01*
X171117701Y-63804805D01*
X171075829Y-63860738D01*
X171053924Y-63873853D01*
X170942171Y-63925964D01*
X170942169Y-63925965D01*
X170748594Y-64061508D01*
X170748190Y-64061847D01*
X170747976Y-64061940D01*
X170744164Y-64064610D01*
X170743627Y-64063843D01*
X170684178Y-64089850D01*
X170615187Y-64078800D01*
X170580818Y-64054526D01*
X169536819Y-63010527D01*
X169503334Y-62949204D01*
X169500500Y-62922846D01*
X169500500Y-60486076D01*
X169520185Y-60419037D01*
X169572989Y-60373282D01*
X169642147Y-60363338D01*
X169677190Y-60374448D01*
X169677281Y-60374230D01*
X169679828Y-60375285D01*
X169680799Y-60375593D01*
X169681784Y-60376095D01*
X169883872Y-60441757D01*
X169950000Y-60452231D01*
X169950000Y-59404145D01*
X170016657Y-59442630D01*
X170137465Y-59475000D01*
X170262535Y-59475000D01*
X170383343Y-59442630D01*
X170450000Y-59404145D01*
X170450000Y-60452230D01*
X170516126Y-60441757D01*
X170516129Y-60441757D01*
X170718217Y-60376095D01*
X170907557Y-60279620D01*
X171079459Y-60154727D01*
X171079464Y-60154723D01*
X171229727Y-60004460D01*
X171349682Y-59839355D01*
X171405011Y-59796689D01*
X171474625Y-59790710D01*
X171536420Y-59823315D01*
X171550318Y-59839355D01*
X171670272Y-60004460D01*
X171820535Y-60154723D01*
X171820540Y-60154727D01*
X171992442Y-60279620D01*
X172181782Y-60376095D01*
X172383871Y-60441757D01*
X172450000Y-60452231D01*
X172450000Y-59404145D01*
X172516657Y-59442630D01*
X172637465Y-59475000D01*
X172762535Y-59475000D01*
X172883343Y-59442630D01*
X172950000Y-59404145D01*
X172950000Y-60452230D01*
X173016126Y-60441757D01*
X173016129Y-60441757D01*
X173218217Y-60376095D01*
X173407557Y-60279620D01*
X173579459Y-60154727D01*
X173579464Y-60154723D01*
X173729723Y-60004464D01*
X173729727Y-60004459D01*
X173854620Y-59832557D01*
X173951095Y-59643217D01*
X174016757Y-59441130D01*
X174016757Y-59441127D01*
X174047030Y-59250000D01*
X173104146Y-59250000D01*
X173142630Y-59183343D01*
X173175000Y-59062535D01*
X173175000Y-58937465D01*
X173142630Y-58816657D01*
X173104146Y-58750000D01*
X174047030Y-58750000D01*
X174016757Y-58558872D01*
X174016757Y-58558869D01*
X173951095Y-58356782D01*
X173854620Y-58167442D01*
X173729727Y-57995540D01*
X173729723Y-57995535D01*
X173579464Y-57845276D01*
X173579459Y-57845272D01*
X173407557Y-57720379D01*
X173218215Y-57623903D01*
X173016124Y-57558241D01*
X172950000Y-57547768D01*
X172950000Y-58595854D01*
X172883343Y-58557370D01*
X172762535Y-58525000D01*
X172637465Y-58525000D01*
X172516657Y-58557370D01*
X172450000Y-58595854D01*
X172450000Y-57547768D01*
X172449999Y-57547768D01*
X172383875Y-57558241D01*
X172181784Y-57623903D01*
X171992442Y-57720379D01*
X171820540Y-57845272D01*
X171820535Y-57845276D01*
X171670276Y-57995535D01*
X171670272Y-57995540D01*
X171550318Y-58160644D01*
X171494988Y-58203310D01*
X171425375Y-58209289D01*
X171363580Y-58176684D01*
X171349682Y-58160644D01*
X171229727Y-57995540D01*
X171229723Y-57995535D01*
X171079464Y-57845276D01*
X171079459Y-57845272D01*
X170907557Y-57720379D01*
X170718215Y-57623903D01*
X170516124Y-57558241D01*
X170450000Y-57547768D01*
X170450000Y-58595854D01*
X170383343Y-58557370D01*
X170262535Y-58525000D01*
X170137465Y-58525000D01*
X170016657Y-58557370D01*
X169950000Y-58595854D01*
X169950000Y-57547768D01*
X169949999Y-57547768D01*
X169883875Y-57558241D01*
X169681783Y-57623903D01*
X169681778Y-57623906D01*
X169680783Y-57624413D01*
X169680365Y-57624491D01*
X169677281Y-57625769D01*
X169677012Y-57625120D01*
X169612112Y-57637302D01*
X169547375Y-57611018D01*
X169507124Y-57553907D01*
X169500500Y-57513922D01*
X169500500Y-53335451D01*
X169520185Y-53268412D01*
X169536810Y-53247779D01*
X169647818Y-53136770D01*
X169709137Y-53103288D01*
X169773813Y-53106522D01*
X169883757Y-53142246D01*
X170093713Y-53175500D01*
X170093714Y-53175500D01*
X170306286Y-53175500D01*
X170306287Y-53175500D01*
X170516243Y-53142246D01*
X170718412Y-53076557D01*
X170907816Y-52980051D01*
X170998245Y-52914351D01*
X171079786Y-52855109D01*
X171079788Y-52855106D01*
X171079792Y-52855104D01*
X171230104Y-52704792D01*
X171349683Y-52540204D01*
X171405011Y-52497540D01*
X171474624Y-52491561D01*
X171536420Y-52524166D01*
G37*
%TD.AperFunction*%
%TA.AperFunction,Conductor*%
G36*
X179195974Y-61043590D02*
G01*
X179222295Y-61063663D01*
X181705048Y-63546415D01*
X181738533Y-63607738D01*
X181733549Y-63677430D01*
X181691677Y-63733363D01*
X181628175Y-63757624D01*
X181544596Y-63764936D01*
X181544586Y-63764938D01*
X181316344Y-63826094D01*
X181316335Y-63826098D01*
X181102171Y-63925964D01*
X181102169Y-63925965D01*
X180908597Y-64061505D01*
X180741505Y-64228597D01*
X180611575Y-64414158D01*
X180556998Y-64457783D01*
X180487500Y-64464977D01*
X180425145Y-64433454D01*
X180408425Y-64414158D01*
X180278494Y-64228597D01*
X180111402Y-64061506D01*
X180111395Y-64061501D01*
X179917834Y-63925967D01*
X179917830Y-63925965D01*
X179886752Y-63911473D01*
X179703663Y-63826097D01*
X179703659Y-63826096D01*
X179703655Y-63826094D01*
X179475413Y-63764938D01*
X179475403Y-63764936D01*
X179269977Y-63746963D01*
X179204908Y-63721510D01*
X179163930Y-63664919D01*
X179160052Y-63595157D01*
X179173398Y-63561435D01*
X179191786Y-63529586D01*
X179227179Y-63468284D01*
X179285674Y-63288256D01*
X179305460Y-63100000D01*
X179285674Y-62911744D01*
X179227179Y-62731716D01*
X179132533Y-62567784D01*
X179094421Y-62525456D01*
X179057350Y-62484284D01*
X179027120Y-62421292D01*
X179025500Y-62401312D01*
X179025500Y-61238393D01*
X179025499Y-61238390D01*
X179012997Y-61175535D01*
X179019224Y-61105944D01*
X179062087Y-61050766D01*
X179127977Y-61027522D01*
X179195974Y-61043590D01*
G37*
%TD.AperFunction*%
%TA.AperFunction,Conductor*%
G36*
X172257370Y-58816657D02*
G01*
X172225000Y-58937465D01*
X172225000Y-59062535D01*
X172257370Y-59183343D01*
X172295854Y-59250000D01*
X170604146Y-59250000D01*
X170642630Y-59183343D01*
X170675000Y-59062535D01*
X170675000Y-58937465D01*
X170642630Y-58816657D01*
X170604146Y-58750000D01*
X172295854Y-58750000D01*
X172257370Y-58816657D01*
G37*
%TD.AperFunction*%
%TA.AperFunction,Conductor*%
G36*
X165842539Y-53195184D02*
G01*
X165888294Y-53247988D01*
X165899500Y-53299499D01*
X165899500Y-57400500D01*
X165879815Y-57467539D01*
X165827011Y-57513294D01*
X165775500Y-57524500D01*
X164749500Y-57524500D01*
X164682461Y-57504815D01*
X164636706Y-57452011D01*
X164625500Y-57400500D01*
X164625500Y-53299499D01*
X164645185Y-53232460D01*
X164697989Y-53186705D01*
X164749500Y-53175499D01*
X165775500Y-53175499D01*
X165842539Y-53195184D01*
G37*
%TD.AperFunction*%
%TD*%
M02*
