%TF.GenerationSoftware,KiCad,Pcbnew,8.0.6*%
%TF.CreationDate,2024-11-24T19:54:00+01:00*%
%TF.ProjectId,Gaggimate,47616767-696d-4617-9465-2e6b69636164,1.0*%
%TF.SameCoordinates,Original*%
%TF.FileFunction,Legend,Bot*%
%TF.FilePolarity,Positive*%
%FSLAX46Y46*%
G04 Gerber Fmt 4.6, Leading zero omitted, Abs format (unit mm)*
G04 Created by KiCad (PCBNEW 8.0.6) date 2024-11-24 19:54:00*
%MOMM*%
%LPD*%
G01*
G04 APERTURE LIST*
G04 Aperture macros list*
%AMRoundRect*
0 Rectangle with rounded corners*
0 $1 Rounding radius*
0 $2 $3 $4 $5 $6 $7 $8 $9 X,Y pos of 4 corners*
0 Add a 4 corners polygon primitive as box body*
4,1,4,$2,$3,$4,$5,$6,$7,$8,$9,$2,$3,0*
0 Add four circle primitives for the rounded corners*
1,1,$1+$1,$2,$3*
1,1,$1+$1,$4,$5*
1,1,$1+$1,$6,$7*
1,1,$1+$1,$8,$9*
0 Add four rect primitives between the rounded corners*
20,1,$1+$1,$2,$3,$4,$5,0*
20,1,$1+$1,$4,$5,$6,$7,0*
20,1,$1+$1,$6,$7,$8,$9,0*
20,1,$1+$1,$8,$9,$2,$3,0*%
G04 Aperture macros list end*
%ADD10C,0.150000*%
%ADD11C,0.000000*%
%ADD12C,0.600000*%
%ADD13C,2.500000*%
%ADD14RoundRect,0.250000X-0.750000X0.600000X-0.750000X-0.600000X0.750000X-0.600000X0.750000X0.600000X0*%
%ADD15O,2.000000X1.700000*%
%ADD16C,3.000000*%
%ADD17RoundRect,0.250000X-0.600000X-0.725000X0.600000X-0.725000X0.600000X0.725000X-0.600000X0.725000X0*%
%ADD18O,1.700000X1.950000*%
%ADD19R,3.000000X3.000000*%
%ADD20C,3.600000*%
%ADD21C,5.600000*%
%ADD22R,2.400000X2.400000*%
%ADD23C,2.400000*%
%ADD24C,0.650000*%
%ADD25O,1.000000X2.100000*%
%ADD26O,1.000000X1.600000*%
%ADD27R,2.600000X2.000000*%
%ADD28C,2.600000*%
%ADD29R,1.700000X1.700000*%
%ADD30O,1.700000X1.700000*%
G04 APERTURE END LIST*
D10*
X194600000Y-57500000D02*
X194600000Y-59150000D01*
X194600000Y-59750000D02*
X194600000Y-61400000D01*
X194600000Y-62000000D02*
X194600000Y-63600000D01*
X194600000Y-57500000D02*
X193648463Y-56152010D01*
X194600000Y-70000000D02*
X196250000Y-70000000D01*
X196850000Y-70000000D02*
X198500000Y-70000000D01*
X199100000Y-70000000D02*
X200750000Y-70000000D01*
X201350000Y-70000000D02*
X201400000Y-70000000D01*
X194600000Y-63600000D02*
X194600000Y-65250000D01*
X194600000Y-65850000D02*
X194600000Y-67500000D01*
X194600000Y-68100000D02*
X194600000Y-69750000D01*
X209300000Y-70000000D02*
X210950000Y-70000000D01*
X211550000Y-70000000D02*
X213200000Y-70000000D01*
X213800000Y-70000000D02*
X215450000Y-70000000D01*
X216050000Y-70000000D02*
X217700000Y-70000000D01*
D11*
G36*
X215205847Y-44516492D02*
G01*
X215210747Y-44516658D01*
X215215638Y-44516930D01*
X215220519Y-44517307D01*
X215225389Y-44517790D01*
X215230246Y-44518378D01*
X215235087Y-44519071D01*
X215239912Y-44519869D01*
X215244719Y-44520771D01*
X215249505Y-44521777D01*
X215254269Y-44522886D01*
X215259011Y-44524100D01*
X215263726Y-44525416D01*
X215268415Y-44526835D01*
X215273075Y-44528356D01*
X215277705Y-44529980D01*
X215286755Y-44533514D01*
X215295580Y-44537401D01*
X215304176Y-44541632D01*
X215312534Y-44546196D01*
X215320650Y-44551082D01*
X215328516Y-44556281D01*
X215336127Y-44561781D01*
X215343475Y-44567573D01*
X215350554Y-44573645D01*
X215357359Y-44579989D01*
X215363882Y-44586593D01*
X215370117Y-44593447D01*
X215376057Y-44600540D01*
X215381697Y-44607863D01*
X215387030Y-44615404D01*
X215392048Y-44623154D01*
X215396747Y-44631102D01*
X215401120Y-44639238D01*
X215405159Y-44647551D01*
X215408860Y-44656031D01*
X215412214Y-44664668D01*
X215415217Y-44673451D01*
X215417860Y-44682370D01*
X215420139Y-44691415D01*
X215422047Y-44700575D01*
X215423576Y-44709839D01*
X215424722Y-44719198D01*
X215425477Y-44728641D01*
X215425834Y-44738158D01*
X215425789Y-44747738D01*
X215425333Y-44757371D01*
X215424461Y-44767047D01*
X215250612Y-46367811D01*
X216580443Y-46367811D01*
X216596029Y-46368324D01*
X216611410Y-46369893D01*
X216626543Y-46372490D01*
X216641382Y-46376089D01*
X216655882Y-46380661D01*
X216669998Y-46386182D01*
X216683684Y-46392622D01*
X216696896Y-46399956D01*
X216709589Y-46408156D01*
X216721717Y-46417195D01*
X216733235Y-46427047D01*
X216744099Y-46437683D01*
X216754263Y-46449078D01*
X216763682Y-46461203D01*
X216772311Y-46474033D01*
X216780105Y-46487539D01*
X216786952Y-46501550D01*
X216792770Y-46515875D01*
X216797563Y-46530461D01*
X216801334Y-46545257D01*
X216804085Y-46560210D01*
X216805819Y-46575268D01*
X216806539Y-46590377D01*
X216806248Y-46605485D01*
X216804948Y-46620540D01*
X216802642Y-46635489D01*
X216799333Y-46650280D01*
X216795024Y-46664861D01*
X216789717Y-46679178D01*
X216783415Y-46693179D01*
X216776122Y-46706812D01*
X216767839Y-46720024D01*
X214986452Y-49384202D01*
X214980870Y-49392096D01*
X214975002Y-49399690D01*
X214968858Y-49406982D01*
X214962450Y-49413967D01*
X214955789Y-49420642D01*
X214948887Y-49427003D01*
X214941756Y-49433046D01*
X214934406Y-49438768D01*
X214926850Y-49444164D01*
X214919098Y-49449232D01*
X214911162Y-49453967D01*
X214903054Y-49458366D01*
X214894785Y-49462425D01*
X214886366Y-49466140D01*
X214877809Y-49469508D01*
X214869125Y-49472524D01*
X214860326Y-49475186D01*
X214851424Y-49477489D01*
X214842428Y-49479429D01*
X214833352Y-49481004D01*
X214824207Y-49482209D01*
X214815003Y-49483041D01*
X214805753Y-49483495D01*
X214796468Y-49483568D01*
X214787159Y-49483257D01*
X214777837Y-49482558D01*
X214768515Y-49481466D01*
X214759203Y-49479979D01*
X214749914Y-49478092D01*
X214740658Y-49475802D01*
X214731447Y-49473105D01*
X214722292Y-49469998D01*
X214713640Y-49466583D01*
X214705191Y-49462842D01*
X214696951Y-49458786D01*
X214688927Y-49454422D01*
X214681124Y-49449760D01*
X214673548Y-49444808D01*
X214666205Y-49439577D01*
X214659101Y-49434074D01*
X214652242Y-49428310D01*
X214645633Y-49422292D01*
X214639280Y-49416031D01*
X214633190Y-49409535D01*
X214627368Y-49402813D01*
X214621821Y-49395874D01*
X214616553Y-49388727D01*
X214611571Y-49381382D01*
X214606881Y-49373847D01*
X214602488Y-49366132D01*
X214598399Y-49358245D01*
X214594619Y-49350195D01*
X214591155Y-49341992D01*
X214588012Y-49333645D01*
X214585196Y-49325162D01*
X214582712Y-49316553D01*
X214580568Y-49307827D01*
X214578768Y-49298992D01*
X214577319Y-49290059D01*
X214576226Y-49281035D01*
X214575496Y-49271930D01*
X214575133Y-49262753D01*
X214575145Y-49253514D01*
X214575537Y-49244220D01*
X214749386Y-47632166D01*
X213419554Y-47632166D01*
X213403969Y-47631653D01*
X213388587Y-47630085D01*
X213373454Y-47627488D01*
X213358616Y-47623889D01*
X213344116Y-47619316D01*
X213330000Y-47613796D01*
X213316313Y-47607355D01*
X213303101Y-47600021D01*
X213290409Y-47591821D01*
X213278281Y-47582782D01*
X213266762Y-47572931D01*
X213255898Y-47562294D01*
X213245734Y-47550900D01*
X213236315Y-47538774D01*
X213227686Y-47525945D01*
X213219892Y-47512438D01*
X213213046Y-47498428D01*
X213207227Y-47484103D01*
X213202434Y-47469516D01*
X213198663Y-47454720D01*
X213195912Y-47439767D01*
X213194178Y-47424710D01*
X213193458Y-47409601D01*
X213193750Y-47394493D01*
X213195050Y-47379438D01*
X213197356Y-47364488D01*
X213200665Y-47349697D01*
X213204974Y-47335117D01*
X213210281Y-47320800D01*
X213216582Y-47306798D01*
X213223876Y-47293165D01*
X213232159Y-47279953D01*
X215013546Y-44615775D01*
X215021756Y-44604405D01*
X215030592Y-44593638D01*
X215040021Y-44583493D01*
X215050007Y-44573988D01*
X215060518Y-44565141D01*
X215071518Y-44556971D01*
X215082974Y-44549494D01*
X215094852Y-44542730D01*
X215107116Y-44536696D01*
X215119734Y-44531411D01*
X215132671Y-44526892D01*
X215145892Y-44523158D01*
X215159364Y-44520227D01*
X215173052Y-44518117D01*
X215186923Y-44516847D01*
X215200941Y-44516433D01*
X215205847Y-44516492D01*
G37*
D10*
X193400000Y-55800000D02*
X193400000Y-54150000D01*
X193400000Y-53550000D02*
X193400000Y-51900000D01*
X193400000Y-51300000D02*
X193400000Y-49650000D01*
X193400000Y-49050000D02*
X193400000Y-47400000D01*
X193400000Y-46800000D02*
X193400000Y-45150000D01*
X193400000Y-44550000D02*
X193400000Y-42900000D01*
X193400000Y-42300000D02*
X193400000Y-40650000D01*
X193400000Y-40050000D02*
X193400000Y-38400000D01*
X193400000Y-37800000D02*
X193400000Y-36150000D01*
X193400000Y-35550000D02*
X193400000Y-33900000D01*
X193400000Y-33300000D02*
X193400000Y-31650000D01*
X193400000Y-31050000D02*
X193400000Y-29400000D01*
X193400000Y-28800000D02*
X193400000Y-27150000D01*
X193400000Y-26550000D02*
X193400000Y-26100000D01*
X226100000Y-70000000D02*
X227750000Y-70000000D01*
X228350000Y-70000000D02*
X230000000Y-70000000D01*
X230600000Y-70000000D02*
X232250000Y-70000000D01*
X232850000Y-70000000D02*
X234500000Y-70000000D01*
X242800000Y-70000000D02*
X244450000Y-70000000D01*
X245050000Y-70000000D02*
X246700000Y-70000000D01*
D12*
X202999999Y-39398342D02*
X202999999Y-42398342D01*
X202999999Y-42398342D02*
X203714285Y-42398342D01*
X203714285Y-42398342D02*
X204142856Y-42255485D01*
X204142856Y-42255485D02*
X204428571Y-41969771D01*
X204428571Y-41969771D02*
X204571428Y-41684057D01*
X204571428Y-41684057D02*
X204714285Y-41112628D01*
X204714285Y-41112628D02*
X204714285Y-40684057D01*
X204714285Y-40684057D02*
X204571428Y-40112628D01*
X204571428Y-40112628D02*
X204428571Y-39826914D01*
X204428571Y-39826914D02*
X204142856Y-39541200D01*
X204142856Y-39541200D02*
X203714285Y-39398342D01*
X203714285Y-39398342D02*
X202999999Y-39398342D01*
X205857142Y-40255485D02*
X207285714Y-40255485D01*
X205571428Y-39398342D02*
X206571428Y-42398342D01*
X206571428Y-42398342D02*
X207571428Y-39398342D01*
X208571428Y-39398342D02*
X208571428Y-42398342D01*
X208571428Y-42398342D02*
X210285714Y-39398342D01*
X210285714Y-39398342D02*
X210285714Y-42398342D01*
X213285714Y-42255485D02*
X213000000Y-42398342D01*
X213000000Y-42398342D02*
X212571428Y-42398342D01*
X212571428Y-42398342D02*
X212142857Y-42255485D01*
X212142857Y-42255485D02*
X211857142Y-41969771D01*
X211857142Y-41969771D02*
X211714285Y-41684057D01*
X211714285Y-41684057D02*
X211571428Y-41112628D01*
X211571428Y-41112628D02*
X211571428Y-40684057D01*
X211571428Y-40684057D02*
X211714285Y-40112628D01*
X211714285Y-40112628D02*
X211857142Y-39826914D01*
X211857142Y-39826914D02*
X212142857Y-39541200D01*
X212142857Y-39541200D02*
X212571428Y-39398342D01*
X212571428Y-39398342D02*
X212857142Y-39398342D01*
X212857142Y-39398342D02*
X213285714Y-39541200D01*
X213285714Y-39541200D02*
X213428571Y-39684057D01*
X213428571Y-39684057D02*
X213428571Y-40684057D01*
X213428571Y-40684057D02*
X212857142Y-40684057D01*
X214714285Y-40969771D02*
X215714285Y-40969771D01*
X216142857Y-39398342D02*
X214714285Y-39398342D01*
X214714285Y-39398342D02*
X214714285Y-42398342D01*
X214714285Y-42398342D02*
X216142857Y-42398342D01*
X219142857Y-39398342D02*
X218142857Y-40826914D01*
X217428571Y-39398342D02*
X217428571Y-42398342D01*
X217428571Y-42398342D02*
X218571428Y-42398342D01*
X218571428Y-42398342D02*
X218857143Y-42255485D01*
X218857143Y-42255485D02*
X219000000Y-42112628D01*
X219000000Y-42112628D02*
X219142857Y-41826914D01*
X219142857Y-41826914D02*
X219142857Y-41398342D01*
X219142857Y-41398342D02*
X219000000Y-41112628D01*
X219000000Y-41112628D02*
X218857143Y-40969771D01*
X218857143Y-40969771D02*
X218571428Y-40826914D01*
X218571428Y-40826914D02*
X217428571Y-40826914D01*
X222714285Y-39398342D02*
X222714285Y-42398342D01*
X222714285Y-40969771D02*
X224428571Y-40969771D01*
X224428571Y-39398342D02*
X224428571Y-42398342D01*
X225428571Y-42398342D02*
X226428571Y-39398342D01*
X226428571Y-39398342D02*
X227428571Y-42398342D01*
D11*
%TO.C,kibuzzard-6732266F*%
G36*
X169226111Y-68225792D02*
G01*
X169250646Y-68243664D01*
X169264277Y-68271430D01*
X169268821Y-68307072D01*
X169268417Y-68331709D01*
X169266397Y-68356345D01*
X169104847Y-68356345D01*
X169104847Y-68315958D01*
X169109592Y-68274156D01*
X169123829Y-68244067D01*
X169149576Y-68225893D01*
X169188853Y-68219835D01*
X169226111Y-68225792D01*
G37*
G36*
X169135238Y-67411172D02*
G01*
X169168255Y-67413292D01*
X169223586Y-67424601D01*
X169260743Y-67448429D01*
X169274475Y-67489625D01*
X169260743Y-67530820D01*
X169223183Y-67554649D01*
X169167851Y-67565958D01*
X169135137Y-67568078D01*
X169100000Y-67568785D01*
X169064762Y-67568078D01*
X169031745Y-67565958D01*
X168976414Y-67554649D01*
X168939257Y-67530820D01*
X168925525Y-67489625D01*
X168939257Y-67448833D01*
X168976817Y-67424601D01*
X169032149Y-67413292D01*
X169064863Y-67411172D01*
X169100000Y-67410465D01*
X169135238Y-67411172D01*
G37*
G36*
X169697469Y-66580363D02*
G01*
X169697469Y-66916927D01*
X169697469Y-68881386D01*
X169697469Y-69217950D01*
X168502531Y-69217950D01*
X168502531Y-68881386D01*
X168502531Y-68677024D01*
X168839095Y-68677024D01*
X168843235Y-68721551D01*
X168855654Y-68761434D01*
X168876252Y-68796269D01*
X168904927Y-68825651D01*
X168941680Y-68849278D01*
X168986511Y-68866846D01*
X169039317Y-68877751D01*
X169100000Y-68881386D01*
X169160077Y-68877145D01*
X169212682Y-68864423D01*
X169257613Y-68844431D01*
X169294669Y-68818381D01*
X169323647Y-68786677D01*
X169344346Y-68749722D01*
X169356765Y-68708728D01*
X169360905Y-68664908D01*
X169356462Y-68612807D01*
X169346365Y-68572824D01*
X169334249Y-68544956D01*
X169324556Y-68528397D01*
X169245396Y-68554245D01*
X169265590Y-68597864D01*
X169274475Y-68651176D01*
X169261551Y-68710950D01*
X169225606Y-68750933D01*
X169170679Y-68773551D01*
X169137056Y-68778700D01*
X169100000Y-68780416D01*
X169045477Y-68777275D01*
X169001454Y-68767851D01*
X168967932Y-68752145D01*
X168936127Y-68717210D01*
X168925525Y-68668946D01*
X168926333Y-68649560D01*
X168928756Y-68630174D01*
X169111309Y-68630174D01*
X169111309Y-68530820D01*
X168861712Y-68530820D01*
X168847173Y-68586151D01*
X168841115Y-68627650D01*
X168839095Y-68677024D01*
X168502531Y-68677024D01*
X168502531Y-68455699D01*
X168849596Y-68455699D01*
X169343134Y-68455699D01*
X169348788Y-68422985D01*
X169352423Y-68386232D01*
X169354443Y-68349883D01*
X169355250Y-68318381D01*
X169350898Y-68259594D01*
X169337839Y-68210321D01*
X169316074Y-68170562D01*
X169284437Y-68141393D01*
X169241761Y-68123892D01*
X169188045Y-68118058D01*
X169133791Y-68123936D01*
X169090576Y-68141572D01*
X169058401Y-68170966D01*
X169036187Y-68211129D01*
X169022859Y-68261075D01*
X169018417Y-68320804D01*
X169018417Y-68356345D01*
X168849596Y-68356345D01*
X168849596Y-68455699D01*
X168502531Y-68455699D01*
X168502531Y-68356345D01*
X168502531Y-68051822D01*
X168502531Y-67734374D01*
X168849596Y-67734374D01*
X168849596Y-68051822D01*
X168931987Y-68051822D01*
X168931987Y-67942775D01*
X169267205Y-67942775D01*
X169267205Y-68051822D01*
X169349596Y-68051822D01*
X169349596Y-67734374D01*
X169267205Y-67734374D01*
X169267205Y-67842614D01*
X168931987Y-67842614D01*
X168931987Y-67734374D01*
X168849596Y-67734374D01*
X168502531Y-67734374D01*
X168502531Y-67488817D01*
X168839095Y-67488817D01*
X168846410Y-67542892D01*
X168868354Y-67587722D01*
X168904927Y-67623308D01*
X168941806Y-67643628D01*
X168986611Y-67658143D01*
X169039343Y-67666851D01*
X169100000Y-67669754D01*
X169160657Y-67666775D01*
X169213389Y-67657840D01*
X169258194Y-67642947D01*
X169295073Y-67622097D01*
X169331646Y-67586196D01*
X169353590Y-67542039D01*
X169360905Y-67489625D01*
X169353590Y-67435595D01*
X169331646Y-67390899D01*
X169295073Y-67355538D01*
X169258194Y-67335394D01*
X169213389Y-67321006D01*
X169160657Y-67312373D01*
X169100000Y-67309496D01*
X169039343Y-67312424D01*
X168986611Y-67321208D01*
X168941806Y-67335849D01*
X168904927Y-67356345D01*
X168868354Y-67391887D01*
X168846410Y-67436044D01*
X168839095Y-67488817D01*
X168502531Y-67488817D01*
X168502531Y-67220643D01*
X168849596Y-67220643D01*
X168931987Y-67220643D01*
X168931987Y-67115635D01*
X169211470Y-67115635D01*
X169182795Y-67167331D01*
X169163005Y-67216604D01*
X169245396Y-67248914D01*
X169263974Y-67206911D01*
X169289015Y-67161677D01*
X169318094Y-67118866D01*
X169349596Y-67084132D01*
X169349596Y-67016281D01*
X168931987Y-67016281D01*
X168931987Y-66916927D01*
X168849596Y-66916927D01*
X168849596Y-67220643D01*
X168502531Y-67220643D01*
X168502531Y-66916927D01*
X168502531Y-66580363D01*
X169100000Y-66182050D01*
X169697469Y-66580363D01*
G37*
%TO.C,kibuzzard-67322650*%
G36*
X187491815Y-66675893D02*
G01*
X187491815Y-67012457D01*
X187491815Y-68182086D01*
X187491815Y-68518650D01*
X186308185Y-68518650D01*
X186308185Y-68182086D01*
X186308185Y-68055268D01*
X186685945Y-68055268D01*
X186826494Y-68055268D01*
X186826494Y-68182086D01*
X186908078Y-68182086D01*
X186908078Y-68055268D01*
X187048627Y-68055268D01*
X187048627Y-67969646D01*
X186908078Y-67969646D01*
X186908078Y-67842829D01*
X186826494Y-67842829D01*
X186826494Y-67969646D01*
X186685945Y-67969646D01*
X186685945Y-68055268D01*
X186308185Y-68055268D01*
X186308185Y-67969646D01*
X186308185Y-67647352D01*
X186644750Y-67647352D01*
X186647173Y-67686932D01*
X186653231Y-67725705D01*
X186661712Y-67759226D01*
X186670598Y-67782247D01*
X186752989Y-67762053D01*
X186736834Y-67716819D01*
X186731381Y-67685923D01*
X186729564Y-67648160D01*
X186736026Y-67600099D01*
X186752585Y-67570212D01*
X186775606Y-67555268D01*
X186802262Y-67551230D01*
X186840630Y-67558095D01*
X186870517Y-67585559D01*
X186889903Y-67644121D01*
X186895053Y-67687942D01*
X186896769Y-67743475D01*
X186963914Y-67736205D01*
X187029645Y-67730551D01*
X187093558Y-67726310D01*
X187155250Y-67723281D01*
X187155250Y-67468031D01*
X187072859Y-67468031D01*
X187072859Y-67640083D01*
X187018740Y-67644121D01*
X186972698Y-67648160D01*
X186964441Y-67587040D01*
X186948286Y-67537229D01*
X186924233Y-67498726D01*
X186892461Y-67471352D01*
X186853150Y-67454927D01*
X186806300Y-67449453D01*
X186742084Y-67461569D01*
X186690792Y-67498726D01*
X186671405Y-67526795D01*
X186656866Y-67560923D01*
X186647779Y-67601108D01*
X186644750Y-67647352D01*
X186308185Y-67647352D01*
X186308185Y-67256399D01*
X186308185Y-67153814D01*
X186655250Y-67153814D01*
X186655250Y-67256399D01*
X186714620Y-67276391D01*
X186781260Y-67297595D01*
X186828065Y-67311865D01*
X186874780Y-67325597D01*
X186921405Y-67338790D01*
X186967133Y-67351265D01*
X187011156Y-67362843D01*
X187053473Y-67373524D01*
X187110016Y-67386852D01*
X187155250Y-67396141D01*
X187155250Y-67291133D01*
X187113348Y-67285074D01*
X187065186Y-67276593D01*
X187013086Y-67266395D01*
X186959370Y-67255188D01*
X186905250Y-67243071D01*
X186851939Y-67230147D01*
X186801757Y-67216920D01*
X186757027Y-67203895D01*
X186801151Y-67190971D01*
X186851131Y-67178047D01*
X186904443Y-67165527D01*
X186958562Y-67153814D01*
X187012379Y-67142910D01*
X187064782Y-67132813D01*
X187113247Y-67123927D01*
X187155250Y-67116658D01*
X187155250Y-67012457D01*
X187103958Y-67023261D01*
X187047011Y-67036286D01*
X186985723Y-67051432D01*
X186921405Y-67068596D01*
X186877248Y-67081116D01*
X186832553Y-67094444D01*
X186787318Y-67108580D01*
X186742308Y-67123299D01*
X186698286Y-67138377D01*
X186655250Y-67153814D01*
X186308185Y-67153814D01*
X186308185Y-67012457D01*
X186308185Y-66675893D01*
X186900000Y-66281350D01*
X187491815Y-66675893D01*
G37*
%TO.C,kibuzzard-67322749*%
G36*
X191480008Y-65529544D02*
G01*
X191521567Y-65550323D01*
X191553231Y-65628918D01*
X191544750Y-65676979D01*
X191519305Y-65710339D01*
X191480008Y-65729847D01*
X191429968Y-65736349D01*
X191410743Y-65735784D01*
X191388126Y-65732956D01*
X191388126Y-65522617D01*
X191418659Y-65522617D01*
X191480008Y-65529544D01*
G37*
G36*
X190319467Y-64663543D02*
G01*
X190957270Y-64663543D01*
X191740953Y-64663543D01*
X191824637Y-64663543D01*
X192390065Y-64663543D01*
X193285703Y-64663543D01*
X193397658Y-64663543D01*
X193868848Y-64663543D01*
X194370722Y-66336457D01*
X193868848Y-66336457D01*
X193397658Y-66336457D01*
X190102342Y-66336457D01*
X189631152Y-66336457D01*
X189286580Y-65187884D01*
X190102342Y-65187884D01*
X190143053Y-65300969D01*
X190215994Y-65267044D01*
X190263065Y-65255170D01*
X190319467Y-65251212D01*
X190377706Y-65258562D01*
X190414459Y-65278918D01*
X190433118Y-65308320D01*
X190438207Y-65341680D01*
X190425767Y-65380129D01*
X190394103Y-65410097D01*
X190351131Y-65433845D01*
X190303635Y-65453635D01*
X190238045Y-65479645D01*
X190176414Y-65516963D01*
X190130614Y-65572940D01*
X190112520Y-65656058D01*
X190128494Y-65743700D01*
X190176414Y-65809855D01*
X190224349Y-65840639D01*
X190282965Y-65859110D01*
X190352262Y-65865267D01*
X190412621Y-65861591D01*
X190464782Y-65850565D01*
X190545638Y-65817771D01*
X190504927Y-65710339D01*
X190442165Y-65737480D01*
X190362439Y-65748788D01*
X190300871Y-65739867D01*
X190263929Y-65713104D01*
X190251616Y-65668498D01*
X190262924Y-65632876D01*
X190291761Y-65605735D01*
X190331341Y-65584814D01*
X190374879Y-65567851D01*
X190443296Y-65540145D01*
X190507975Y-65500000D01*
X190653069Y-65500000D01*
X190659006Y-65582270D01*
X190676817Y-65654927D01*
X190705230Y-65717548D01*
X190742973Y-65769709D01*
X190789338Y-65810985D01*
X190843619Y-65840953D01*
X190904544Y-65859188D01*
X190970840Y-65865267D01*
X191038126Y-65859047D01*
X191090711Y-65844911D01*
X191103338Y-65839257D01*
X191249031Y-65839257D01*
X191293700Y-65847738D01*
X191342892Y-65853393D01*
X191390388Y-65856220D01*
X191429968Y-65857351D01*
X191487076Y-65853958D01*
X191509942Y-65849435D01*
X191824637Y-65849435D01*
X192248708Y-65849435D01*
X192390065Y-65849435D01*
X192814136Y-65849435D01*
X192936268Y-65849435D01*
X193048223Y-65849435D01*
X193079887Y-65797557D01*
X193111551Y-65741438D01*
X193142791Y-65683340D01*
X193173183Y-65625525D01*
X193202019Y-65568700D01*
X193228595Y-65513570D01*
X193252201Y-65462682D01*
X193272132Y-65418578D01*
X193272132Y-65849435D01*
X193397658Y-65849435D01*
X193397658Y-65149435D01*
X193285703Y-65149435D01*
X193253096Y-65227024D01*
X193218605Y-65304488D01*
X193182229Y-65381826D01*
X193143969Y-65459164D01*
X193103823Y-65536627D01*
X193061793Y-65614216D01*
X193061793Y-65149435D01*
X192936268Y-65149435D01*
X192936268Y-65849435D01*
X192814136Y-65849435D01*
X192814136Y-65734087D01*
X192529160Y-65734087D01*
X192529160Y-65576898D01*
X192776817Y-65576898D01*
X192776817Y-65461551D01*
X192529160Y-65461551D01*
X192529160Y-65264782D01*
X192839015Y-65264782D01*
X192839015Y-65149435D01*
X192390065Y-65149435D01*
X192390065Y-65849435D01*
X192248708Y-65849435D01*
X192248708Y-65734087D01*
X191963732Y-65734087D01*
X191963732Y-65576898D01*
X192211389Y-65576898D01*
X192211389Y-65461551D01*
X191963732Y-65461551D01*
X191963732Y-65264782D01*
X192273586Y-65264782D01*
X192273586Y-65149435D01*
X191824637Y-65149435D01*
X191824637Y-65849435D01*
X191509942Y-65849435D01*
X191538530Y-65843780D01*
X191583764Y-65826535D01*
X191622213Y-65801939D01*
X191675929Y-65730129D01*
X191689923Y-65682775D01*
X191694588Y-65627787D01*
X191688368Y-65569548D01*
X191669709Y-65516963D01*
X191636632Y-65473142D01*
X191587157Y-65441195D01*
X191627868Y-65376171D01*
X191669709Y-65301535D01*
X191708724Y-65223506D01*
X191740953Y-65149435D01*
X191595073Y-65149435D01*
X191566943Y-65216014D01*
X191534572Y-65280048D01*
X191498809Y-65343235D01*
X191460501Y-65407270D01*
X191388126Y-65407270D01*
X191388126Y-65149435D01*
X191249031Y-65149435D01*
X191249031Y-65839257D01*
X191103338Y-65839257D01*
X191128595Y-65827948D01*
X191151777Y-65814378D01*
X191115590Y-65703554D01*
X191052827Y-65732391D01*
X190968578Y-65744265D01*
X190904685Y-65732391D01*
X190849273Y-65692811D01*
X190809693Y-65618740D01*
X190798243Y-65566721D01*
X190794426Y-65503393D01*
X190799013Y-65429698D01*
X190812771Y-65368444D01*
X190835703Y-65319628D01*
X190890125Y-65271708D01*
X190970840Y-65255735D01*
X191060743Y-65268174D01*
X191117851Y-65293053D01*
X191152908Y-65183360D01*
X191073183Y-65150000D01*
X191019043Y-65138550D01*
X190957270Y-65134733D01*
X190866299Y-65145288D01*
X190790908Y-65176952D01*
X190731099Y-65229725D01*
X190696961Y-65282239D01*
X190672577Y-65344790D01*
X190657946Y-65417377D01*
X190653069Y-65500000D01*
X190507975Y-65500000D01*
X190508885Y-65499435D01*
X190558078Y-65436107D01*
X190572496Y-65393275D01*
X190577302Y-65340549D01*
X190561329Y-65253332D01*
X190513409Y-65188449D01*
X190463463Y-65158607D01*
X190398815Y-65140702D01*
X190319467Y-65134733D01*
X190241155Y-65139398D01*
X190180372Y-65153393D01*
X190102342Y-65187884D01*
X189286580Y-65187884D01*
X189129278Y-64663543D01*
X189631152Y-64663543D01*
X190102342Y-64663543D01*
X190319467Y-64663543D01*
G37*
%TO.C,kibuzzard-67322796*%
G36*
X234814845Y-39950124D02*
G01*
X235409352Y-39950124D01*
X236755609Y-39950124D01*
X238348860Y-42340000D01*
X236755609Y-44729876D01*
X235409352Y-44729876D01*
X233997397Y-44729876D01*
X232651140Y-44729876D01*
X232651140Y-42340000D01*
X233997397Y-42340000D01*
X234014360Y-42580307D01*
X234065249Y-42790727D01*
X234145216Y-42970452D01*
X234249417Y-43118675D01*
X234376234Y-43234588D01*
X234524053Y-43317383D01*
X234688027Y-43367060D01*
X234863310Y-43383619D01*
X235071711Y-43365848D01*
X235231646Y-43325460D01*
X235343116Y-43276995D01*
X235409352Y-43238223D01*
X235305959Y-42921583D01*
X235131484Y-43002359D01*
X234918237Y-43037900D01*
X234679142Y-42986204D01*
X234519207Y-42842423D01*
X234428738Y-42622714D01*
X234408140Y-42488223D01*
X234401274Y-42340000D01*
X234413840Y-42121906D01*
X234451535Y-41945816D01*
X234514360Y-41811729D01*
X234654102Y-41684507D01*
X234847155Y-41642100D01*
X234924699Y-41645331D01*
X235002244Y-41655024D01*
X235002244Y-42385234D01*
X235399659Y-42385234D01*
X235399659Y-41386850D01*
X235178334Y-41328691D01*
X235012341Y-41304459D01*
X234814845Y-41296381D01*
X234636735Y-41312940D01*
X234477203Y-41362617D01*
X234337866Y-41445008D01*
X234220337Y-41559709D01*
X234125830Y-41706721D01*
X234055556Y-41886042D01*
X234011937Y-42097270D01*
X233997397Y-42340000D01*
X232651140Y-42340000D01*
X232651140Y-39950124D01*
X233997397Y-39950124D01*
X234814845Y-39950124D01*
G37*
%TO.C,kibuzzard-6735A9FB*%
G36*
X234857171Y-28293743D02*
G01*
X235177042Y-28293743D01*
X236523299Y-28293743D01*
X238087471Y-30640000D01*
X236523299Y-32986257D01*
X235177042Y-32986257D01*
X233858787Y-32986257D01*
X232512529Y-32986257D01*
X232512529Y-31640000D01*
X233858787Y-31640000D01*
X234178657Y-31640000D01*
X234269126Y-31491777D01*
X234359594Y-31331438D01*
X234448851Y-31165444D01*
X234535685Y-31000258D01*
X234618076Y-30837900D01*
X234694005Y-30680388D01*
X234761452Y-30534992D01*
X234818399Y-30408982D01*
X234818399Y-31640000D01*
X235177042Y-31640000D01*
X235177042Y-29640000D01*
X234857171Y-29640000D01*
X234764010Y-29861684D01*
X234665464Y-30083008D01*
X234561533Y-30303974D01*
X234452217Y-30524940D01*
X234337516Y-30746265D01*
X234217430Y-30967948D01*
X234217430Y-29640000D01*
X233858787Y-29640000D01*
X233858787Y-31640000D01*
X232512529Y-31640000D01*
X232512529Y-28293743D01*
X233858787Y-28293743D01*
X234857171Y-28293743D01*
G37*
%TO.C,kibuzzard-67322681*%
G36*
X171726111Y-68227004D02*
G01*
X171750646Y-68244875D01*
X171764277Y-68272642D01*
X171768821Y-68308284D01*
X171768417Y-68332920D01*
X171766397Y-68357557D01*
X171604847Y-68357557D01*
X171604847Y-68317169D01*
X171609592Y-68275368D01*
X171623829Y-68245279D01*
X171649576Y-68227105D01*
X171688853Y-68221046D01*
X171726111Y-68227004D01*
G37*
G36*
X171635238Y-67412383D02*
G01*
X171668255Y-67414504D01*
X171723586Y-67425812D01*
X171760743Y-67449641D01*
X171774475Y-67490836D01*
X171760743Y-67532032D01*
X171723183Y-67555861D01*
X171667851Y-67567169D01*
X171635137Y-67569290D01*
X171600000Y-67569996D01*
X171564762Y-67569290D01*
X171531745Y-67567169D01*
X171476414Y-67555861D01*
X171439257Y-67532032D01*
X171425525Y-67490836D01*
X171439257Y-67450045D01*
X171476817Y-67425812D01*
X171532149Y-67414504D01*
X171564863Y-67412383D01*
X171600000Y-67411677D01*
X171635238Y-67412383D01*
G37*
G36*
X172197469Y-66579151D02*
G01*
X172197469Y-66915715D01*
X172197469Y-68882597D01*
X172197469Y-69219162D01*
X171002531Y-69219162D01*
X171002531Y-68882597D01*
X171002531Y-68678236D01*
X171339095Y-68678236D01*
X171343235Y-68722763D01*
X171355654Y-68762646D01*
X171376252Y-68797480D01*
X171404927Y-68826862D01*
X171441680Y-68850489D01*
X171486511Y-68868058D01*
X171539317Y-68878962D01*
X171600000Y-68882597D01*
X171660077Y-68878357D01*
X171712682Y-68865635D01*
X171757613Y-68845643D01*
X171794669Y-68819593D01*
X171823647Y-68787888D01*
X171844346Y-68750933D01*
X171856765Y-68709940D01*
X171860905Y-68666119D01*
X171856462Y-68614019D01*
X171846365Y-68574035D01*
X171834249Y-68546168D01*
X171824556Y-68529609D01*
X171745396Y-68555457D01*
X171765590Y-68599076D01*
X171774475Y-68652387D01*
X171761551Y-68712161D01*
X171725606Y-68752145D01*
X171670679Y-68774762D01*
X171637056Y-68779912D01*
X171600000Y-68781628D01*
X171545477Y-68778487D01*
X171501454Y-68769063D01*
X171467932Y-68753357D01*
X171436127Y-68718421D01*
X171425525Y-68670158D01*
X171426333Y-68650772D01*
X171428756Y-68631386D01*
X171611309Y-68631386D01*
X171611309Y-68532032D01*
X171361712Y-68532032D01*
X171347173Y-68587363D01*
X171341115Y-68628862D01*
X171339095Y-68678236D01*
X171002531Y-68678236D01*
X171002531Y-68456911D01*
X171349596Y-68456911D01*
X171843134Y-68456911D01*
X171848788Y-68424197D01*
X171852423Y-68387444D01*
X171854443Y-68351095D01*
X171855250Y-68319593D01*
X171850898Y-68260806D01*
X171837839Y-68211533D01*
X171816074Y-68171773D01*
X171784437Y-68142605D01*
X171741761Y-68125103D01*
X171688045Y-68119269D01*
X171633791Y-68125148D01*
X171590576Y-68142784D01*
X171558401Y-68172177D01*
X171536187Y-68212341D01*
X171522859Y-68262287D01*
X171518417Y-68322016D01*
X171518417Y-68357557D01*
X171349596Y-68357557D01*
X171349596Y-68456911D01*
X171002531Y-68456911D01*
X171002531Y-68357557D01*
X171002531Y-68053034D01*
X171002531Y-67735586D01*
X171349596Y-67735586D01*
X171349596Y-68053034D01*
X171431987Y-68053034D01*
X171431987Y-67943987D01*
X171767205Y-67943987D01*
X171767205Y-68053034D01*
X171849596Y-68053034D01*
X171849596Y-67735586D01*
X171767205Y-67735586D01*
X171767205Y-67843825D01*
X171431987Y-67843825D01*
X171431987Y-67735586D01*
X171349596Y-67735586D01*
X171002531Y-67735586D01*
X171002531Y-67490029D01*
X171339095Y-67490029D01*
X171346410Y-67544103D01*
X171368354Y-67588934D01*
X171404927Y-67624520D01*
X171441806Y-67644840D01*
X171486611Y-67659354D01*
X171539343Y-67668063D01*
X171600000Y-67670966D01*
X171660657Y-67667987D01*
X171713389Y-67659051D01*
X171758194Y-67644158D01*
X171795073Y-67623308D01*
X171831646Y-67587408D01*
X171853590Y-67543251D01*
X171860905Y-67490836D01*
X171853590Y-67436807D01*
X171831646Y-67392111D01*
X171795073Y-67356749D01*
X171758194Y-67336606D01*
X171713389Y-67322218D01*
X171660657Y-67313585D01*
X171600000Y-67310707D01*
X171539343Y-67313635D01*
X171486611Y-67322420D01*
X171441806Y-67337060D01*
X171404927Y-67357557D01*
X171368354Y-67393098D01*
X171346410Y-67437255D01*
X171339095Y-67490029D01*
X171002531Y-67490029D01*
X171002531Y-67242048D01*
X171349596Y-67242048D01*
X171369790Y-67244067D01*
X171386753Y-67243664D01*
X171425525Y-67239928D01*
X171461066Y-67228720D01*
X171493679Y-67211757D01*
X171523667Y-67190756D01*
X171551333Y-67166927D01*
X171576979Y-67141483D01*
X171601111Y-67116038D01*
X171624233Y-67092210D01*
X171667851Y-67054245D01*
X171710662Y-67039302D01*
X171757916Y-67057880D01*
X171774475Y-67104730D01*
X171763166Y-67154003D01*
X171725202Y-67204891D01*
X171794669Y-67254164D01*
X171824152Y-67219330D01*
X171844750Y-67179447D01*
X171856866Y-67137141D01*
X171860905Y-67095037D01*
X171852019Y-67036071D01*
X171825363Y-66985990D01*
X171780533Y-66951257D01*
X171717932Y-66938332D01*
X171668255Y-66948025D01*
X171621809Y-66973874D01*
X171578191Y-67010223D01*
X171537803Y-67051418D01*
X171514782Y-67075651D01*
X171487318Y-67101499D01*
X171458643Y-67122097D01*
X171431987Y-67130578D01*
X171431987Y-66915715D01*
X171349596Y-66915715D01*
X171349596Y-67242048D01*
X171002531Y-67242048D01*
X171002531Y-66915715D01*
X171002531Y-66579151D01*
X171600000Y-66180838D01*
X172197469Y-66579151D01*
G37*
%TO.C,kibuzzard-6732279D*%
G36*
X234765033Y-52768675D02*
G01*
X234885389Y-52825622D01*
X234958087Y-52928611D01*
X234982319Y-53085719D01*
X234958490Y-53234750D01*
X234887004Y-53332892D01*
X234775938Y-53387415D01*
X234633369Y-53405590D01*
X234534823Y-53403974D01*
X234436277Y-53395897D01*
X234436277Y-52749693D01*
X234597828Y-52749693D01*
X234765033Y-52768675D01*
G37*
G36*
X234436277Y-50382434D02*
G01*
X235389427Y-50382434D01*
X236735685Y-50382434D01*
X238307395Y-52740000D01*
X236735685Y-55097566D01*
X235389427Y-55097566D01*
X234038862Y-55097566D01*
X232692605Y-55097566D01*
X232692605Y-51728691D01*
X234038862Y-51728691D01*
X234038862Y-53702843D01*
X234169718Y-53725460D01*
X234316729Y-53740000D01*
X234462125Y-53748078D01*
X234588135Y-53751309D01*
X234823281Y-53733897D01*
X235020373Y-53681662D01*
X235179411Y-53594604D01*
X235296087Y-53468056D01*
X235366092Y-53297351D01*
X235389427Y-53082488D01*
X235365913Y-52865471D01*
X235295369Y-52692612D01*
X235177796Y-52563910D01*
X235017142Y-52475057D01*
X234817358Y-52421745D01*
X234578442Y-52403974D01*
X234436277Y-52403974D01*
X234436277Y-51728691D01*
X234038862Y-51728691D01*
X232692605Y-51728691D01*
X232692605Y-50382434D01*
X234038862Y-50382434D01*
X234436277Y-50382434D01*
G37*
%TO.C,kibuzzard-67322755*%
G36*
X168199919Y-48763543D02*
G01*
X169226737Y-48763543D01*
X169604443Y-48763543D01*
X169800081Y-48763543D01*
X170271271Y-48763543D01*
X170773145Y-50436457D01*
X170271271Y-50436457D01*
X169800081Y-50436457D01*
X168199919Y-50436457D01*
X167728729Y-50436457D01*
X167407227Y-49364782D01*
X168199919Y-49364782D01*
X168352585Y-49364782D01*
X168352585Y-49834087D01*
X168199919Y-49834087D01*
X168199919Y-49949435D01*
X168644346Y-49949435D01*
X168644346Y-49872536D01*
X168752908Y-49872536D01*
X168801676Y-49913813D01*
X168857512Y-49942649D01*
X168916741Y-49959612D01*
X168975687Y-49965267D01*
X169058239Y-49952827D01*
X169128352Y-49915509D01*
X169176979Y-49852746D01*
X169195073Y-49765105D01*
X169181502Y-49695557D01*
X169145315Y-49630533D01*
X169119870Y-49600000D01*
X169300242Y-49600000D01*
X169306179Y-49682270D01*
X169323990Y-49754927D01*
X169352403Y-49817548D01*
X169390145Y-49869709D01*
X169436511Y-49910985D01*
X169490792Y-49940953D01*
X169551716Y-49959188D01*
X169618013Y-49965267D01*
X169685299Y-49959047D01*
X169737884Y-49944911D01*
X169775767Y-49927948D01*
X169798950Y-49914378D01*
X169762763Y-49803554D01*
X169700000Y-49832391D01*
X169615751Y-49844265D01*
X169551858Y-49832391D01*
X169496446Y-49792811D01*
X169456866Y-49718740D01*
X169445416Y-49666721D01*
X169441599Y-49603393D01*
X169446186Y-49529698D01*
X169459944Y-49468444D01*
X169482876Y-49419628D01*
X169537298Y-49371708D01*
X169618013Y-49355735D01*
X169707916Y-49368174D01*
X169765024Y-49393053D01*
X169800081Y-49283360D01*
X169720355Y-49250000D01*
X169666216Y-49238550D01*
X169604443Y-49234733D01*
X169513472Y-49245288D01*
X169438081Y-49276952D01*
X169378271Y-49329725D01*
X169344134Y-49382239D01*
X169319750Y-49444790D01*
X169305119Y-49517377D01*
X169300242Y-49600000D01*
X169119870Y-49600000D01*
X169094426Y-49569467D01*
X169036753Y-49512924D01*
X169002827Y-49480695D01*
X168966640Y-49442246D01*
X168937803Y-49402100D01*
X168925929Y-49364782D01*
X169226737Y-49364782D01*
X169226737Y-49249435D01*
X168769871Y-49249435D01*
X168767044Y-49277706D01*
X168767609Y-49301454D01*
X168772839Y-49355735D01*
X168788530Y-49405493D01*
X168812278Y-49451151D01*
X168841680Y-49493134D01*
X168875040Y-49531866D01*
X168910662Y-49567771D01*
X168946284Y-49601555D01*
X168979645Y-49633926D01*
X169032795Y-49694992D01*
X169053716Y-49754927D01*
X169027706Y-49821082D01*
X168962116Y-49844265D01*
X168893134Y-49828433D01*
X168821890Y-49775283D01*
X168752908Y-49872536D01*
X168644346Y-49872536D01*
X168644346Y-49834087D01*
X168492811Y-49834087D01*
X168492811Y-49364782D01*
X168644346Y-49364782D01*
X168644346Y-49249435D01*
X168199919Y-49249435D01*
X168199919Y-49364782D01*
X167407227Y-49364782D01*
X167226855Y-48763543D01*
X167728729Y-48763543D01*
X168199919Y-48763543D01*
G37*
%TO.C,kibuzzard-6735A9F6*%
G36*
X235246347Y-33393743D02*
G01*
X236592605Y-33393743D01*
X238156776Y-35740000D01*
X236592605Y-38086257D01*
X235246347Y-38086257D01*
X233989481Y-38086257D01*
X232643224Y-38086257D01*
X232643224Y-34740000D01*
X233989481Y-34740000D01*
X233989481Y-36740000D01*
X234390127Y-36740000D01*
X234390127Y-35069564D01*
X235246347Y-35069564D01*
X235246347Y-34740000D01*
X233989481Y-34740000D01*
X232643224Y-34740000D01*
X232643224Y-33393743D01*
X233989481Y-33393743D01*
X235246347Y-33393743D01*
G37*
%TO.C,kibuzzard-673226D2*%
G36*
X190130811Y-61002531D02*
G01*
X190390908Y-61002531D01*
X190977338Y-61002531D01*
X191125965Y-61002531D01*
X191462529Y-61002531D01*
X191860842Y-61600000D01*
X191462529Y-62197469D01*
X191125965Y-62197469D01*
X189975722Y-62197469D01*
X189639158Y-62197469D01*
X189639158Y-61377060D01*
X189975722Y-61377060D01*
X190004802Y-61457835D01*
X190056902Y-61433603D01*
X190090525Y-61425121D01*
X190130811Y-61422294D01*
X190172411Y-61427544D01*
X190198663Y-61442084D01*
X190211991Y-61463086D01*
X190215626Y-61486914D01*
X190206740Y-61514378D01*
X190184123Y-61535784D01*
X190153428Y-61552746D01*
X190119503Y-61566882D01*
X190072653Y-61585460D01*
X190028630Y-61612116D01*
X189995916Y-61652100D01*
X189982992Y-61711470D01*
X189994402Y-61774071D01*
X190028630Y-61821325D01*
X190062870Y-61843314D01*
X190104739Y-61856507D01*
X190154236Y-61860905D01*
X190197350Y-61858279D01*
X190234608Y-61850404D01*
X190292362Y-61826979D01*
X190263283Y-61750242D01*
X190218453Y-61769628D01*
X190161506Y-61777706D01*
X190117528Y-61771334D01*
X190091142Y-61752217D01*
X190082346Y-61720355D01*
X190090424Y-61694911D01*
X190111021Y-61675525D01*
X190139293Y-61660582D01*
X190170391Y-61648465D01*
X190219260Y-61628675D01*
X190266110Y-61599596D01*
X190301248Y-61554362D01*
X190311546Y-61523768D01*
X190314979Y-61486107D01*
X190305068Y-61431987D01*
X190390908Y-61431987D01*
X190499955Y-61431987D01*
X190499955Y-61767205D01*
X190390908Y-61767205D01*
X190390908Y-61849596D01*
X190708356Y-61849596D01*
X190708356Y-61767205D01*
X190600117Y-61767205D01*
X190600117Y-61600000D01*
X190772976Y-61600000D01*
X190777217Y-61660077D01*
X190789939Y-61712682D01*
X190809931Y-61757613D01*
X190835981Y-61794669D01*
X190867685Y-61823647D01*
X190904640Y-61844346D01*
X190945634Y-61856765D01*
X190989454Y-61860905D01*
X191041554Y-61856462D01*
X191081538Y-61846365D01*
X191109406Y-61834249D01*
X191125965Y-61824556D01*
X191100117Y-61745396D01*
X191056498Y-61765590D01*
X191003186Y-61774475D01*
X190943412Y-61761551D01*
X190903428Y-61725606D01*
X190880811Y-61670679D01*
X190875662Y-61637056D01*
X190873945Y-61600000D01*
X190877087Y-61545477D01*
X190886511Y-61501454D01*
X190902217Y-61467932D01*
X190937152Y-61436127D01*
X190985416Y-61425525D01*
X191004802Y-61426333D01*
X191024188Y-61428756D01*
X191024188Y-61611309D01*
X191123542Y-61611309D01*
X191123542Y-61361712D01*
X191068210Y-61347173D01*
X191026712Y-61341115D01*
X190977338Y-61339095D01*
X190932811Y-61343235D01*
X190892928Y-61355654D01*
X190858093Y-61376252D01*
X190828711Y-61404927D01*
X190805084Y-61441680D01*
X190787516Y-61486511D01*
X190776611Y-61539317D01*
X190772976Y-61600000D01*
X190600117Y-61600000D01*
X190600117Y-61431987D01*
X190708356Y-61431987D01*
X190708356Y-61349596D01*
X190390908Y-61349596D01*
X190390908Y-61431987D01*
X190305068Y-61431987D01*
X190303570Y-61423809D01*
X190269341Y-61377464D01*
X190233665Y-61356148D01*
X190187489Y-61343358D01*
X190130811Y-61339095D01*
X190074874Y-61342427D01*
X190031458Y-61352423D01*
X189975722Y-61377060D01*
X189639158Y-61377060D01*
X189639158Y-61002531D01*
X189975722Y-61002531D01*
X190130811Y-61002531D01*
G37*
%TO.C,kibuzzard-67322649*%
G36*
X166563005Y-67020966D02*
G01*
X166617124Y-67037929D01*
X166654685Y-67071046D01*
X166668821Y-67125166D01*
X166668417Y-67139706D01*
X166666397Y-67154245D01*
X166330372Y-67154245D01*
X166329564Y-67145360D01*
X166329564Y-67136475D01*
X166342488Y-67079528D01*
X166378029Y-67042371D01*
X166431745Y-67022177D01*
X166464358Y-67017634D01*
X166500000Y-67016119D01*
X166563005Y-67020966D01*
G37*
G36*
X167097469Y-66578586D02*
G01*
X167097469Y-66915150D01*
X167097469Y-68083163D01*
X167097469Y-68419727D01*
X165902531Y-68419727D01*
X165902531Y-68083163D01*
X165902531Y-67878801D01*
X166239095Y-67878801D01*
X166243235Y-67923328D01*
X166255654Y-67963211D01*
X166276252Y-67998046D01*
X166304927Y-68027428D01*
X166341680Y-68051055D01*
X166386511Y-68068623D01*
X166439317Y-68079528D01*
X166500000Y-68083163D01*
X166560077Y-68078922D01*
X166612682Y-68066200D01*
X166657613Y-68046208D01*
X166694669Y-68020158D01*
X166723647Y-67988454D01*
X166744346Y-67951499D01*
X166756765Y-67910505D01*
X166760905Y-67866685D01*
X166756462Y-67814584D01*
X166746365Y-67774601D01*
X166734249Y-67746733D01*
X166724556Y-67730174D01*
X166645396Y-67756022D01*
X166665590Y-67799641D01*
X166674475Y-67852953D01*
X166661551Y-67912727D01*
X166625606Y-67952710D01*
X166570679Y-67975328D01*
X166537056Y-67980477D01*
X166500000Y-67982194D01*
X166445477Y-67979052D01*
X166401454Y-67969628D01*
X166367932Y-67953922D01*
X166336127Y-67918987D01*
X166325525Y-67870723D01*
X166326333Y-67851337D01*
X166328756Y-67831951D01*
X166511309Y-67831951D01*
X166511309Y-67732597D01*
X166261712Y-67732597D01*
X166247173Y-67787929D01*
X166241115Y-67829427D01*
X166239095Y-67878801D01*
X165902531Y-67878801D01*
X165902531Y-67574278D01*
X166249596Y-67574278D01*
X166249596Y-67663938D01*
X166749596Y-67663938D01*
X166749596Y-67583971D01*
X166712540Y-67561353D01*
X166672456Y-67538736D01*
X166630957Y-67516422D01*
X166589661Y-67494714D01*
X166549071Y-67474116D01*
X166509693Y-67455134D01*
X166473344Y-67438272D01*
X166441842Y-67424035D01*
X166749596Y-67424035D01*
X166749596Y-67334374D01*
X166249596Y-67334374D01*
X166249596Y-67414342D01*
X166305017Y-67437632D01*
X166360348Y-67462269D01*
X166415590Y-67488252D01*
X166470831Y-67515581D01*
X166526162Y-67544256D01*
X166581583Y-67574278D01*
X166249596Y-67574278D01*
X165902531Y-67574278D01*
X165902531Y-67414342D01*
X165902531Y-67146975D01*
X166243134Y-67146975D01*
X166245961Y-67199076D01*
X166255250Y-67253599D01*
X166743134Y-67253599D01*
X166752827Y-67189786D01*
X166755250Y-67134051D01*
X166751616Y-67086899D01*
X166740711Y-67043987D01*
X166722032Y-67006325D01*
X166695073Y-66974924D01*
X166659733Y-66949782D01*
X166615913Y-66930901D01*
X166562904Y-66919088D01*
X166500000Y-66915150D01*
X166435683Y-66919492D01*
X166381664Y-66932517D01*
X166337338Y-66953215D01*
X166302100Y-66980578D01*
X166275545Y-67014201D01*
X166257270Y-67053680D01*
X166246668Y-67098207D01*
X166243134Y-67146975D01*
X165902531Y-67146975D01*
X165902531Y-66915150D01*
X165902531Y-66578586D01*
X166500000Y-66180273D01*
X167097469Y-66578586D01*
G37*
%TO.C,kibuzzard-6732270D*%
G36*
X182086564Y-60769619D02*
G01*
X182086564Y-61106184D01*
X182086564Y-61884859D01*
X182086564Y-62221423D01*
X180913436Y-62221423D01*
X180913436Y-61884859D01*
X180913436Y-61753195D01*
X181250000Y-61753195D01*
X181667609Y-61753195D01*
X181667609Y-61884859D01*
X181750000Y-61884859D01*
X181750000Y-61521370D01*
X181667609Y-61521370D01*
X181667609Y-61653034D01*
X181250000Y-61653034D01*
X181250000Y-61753195D01*
X180913436Y-61753195D01*
X180913436Y-61653034D01*
X180913436Y-61384859D01*
X181250000Y-61384859D01*
X181250000Y-61492290D01*
X181302504Y-61468462D01*
X181334410Y-61451903D01*
X181368740Y-61433728D01*
X181404786Y-61414241D01*
X181441842Y-61393744D01*
X181478695Y-61373147D01*
X181514136Y-61353357D01*
X181750000Y-61484213D01*
X181750000Y-61376782D01*
X181590065Y-61297622D01*
X181750000Y-61214423D01*
X181750000Y-61114261D01*
X181516559Y-61241887D01*
X181481018Y-61220279D01*
X181443861Y-61199076D01*
X181406401Y-61178781D01*
X181369952Y-61159899D01*
X181335218Y-61142836D01*
X181302908Y-61127993D01*
X181250000Y-61106184D01*
X181250000Y-61213615D01*
X181293417Y-61230679D01*
X181341276Y-61251176D01*
X181391357Y-61273894D01*
X181441438Y-61297622D01*
X181392872Y-61321046D01*
X181342488Y-61344471D01*
X181293720Y-61366281D01*
X181250000Y-61384859D01*
X180913436Y-61384859D01*
X180913436Y-61213615D01*
X180913436Y-61106184D01*
X180913436Y-60769619D01*
X181500000Y-60378577D01*
X182086564Y-60769619D01*
G37*
%TO.C,kibuzzard-67322649*%
G36*
X172813005Y-61045966D02*
G01*
X172867124Y-61062929D01*
X172904685Y-61096046D01*
X172918821Y-61150166D01*
X172918417Y-61164706D01*
X172916397Y-61179245D01*
X172580372Y-61179245D01*
X172579564Y-61170360D01*
X172579564Y-61161475D01*
X172592488Y-61104528D01*
X172628029Y-61067371D01*
X172681745Y-61047177D01*
X172714358Y-61042634D01*
X172750000Y-61041119D01*
X172813005Y-61045966D01*
G37*
G36*
X173347469Y-60603586D02*
G01*
X173347469Y-60940150D01*
X173347469Y-62108163D01*
X173347469Y-62444727D01*
X172152531Y-62444727D01*
X172152531Y-62108163D01*
X172152531Y-61903801D01*
X172489095Y-61903801D01*
X172493235Y-61948328D01*
X172505654Y-61988211D01*
X172526252Y-62023046D01*
X172554927Y-62052428D01*
X172591680Y-62076055D01*
X172636511Y-62093623D01*
X172689317Y-62104528D01*
X172750000Y-62108163D01*
X172810077Y-62103922D01*
X172862682Y-62091200D01*
X172907613Y-62071208D01*
X172944669Y-62045158D01*
X172973647Y-62013454D01*
X172994346Y-61976499D01*
X173006765Y-61935505D01*
X173010905Y-61891685D01*
X173006462Y-61839584D01*
X172996365Y-61799601D01*
X172984249Y-61771733D01*
X172974556Y-61755174D01*
X172895396Y-61781022D01*
X172915590Y-61824641D01*
X172924475Y-61877953D01*
X172911551Y-61937727D01*
X172875606Y-61977710D01*
X172820679Y-62000328D01*
X172787056Y-62005477D01*
X172750000Y-62007194D01*
X172695477Y-62004052D01*
X172651454Y-61994628D01*
X172617932Y-61978922D01*
X172586127Y-61943987D01*
X172575525Y-61895723D01*
X172576333Y-61876337D01*
X172578756Y-61856951D01*
X172761309Y-61856951D01*
X172761309Y-61757597D01*
X172511712Y-61757597D01*
X172497173Y-61812929D01*
X172491115Y-61854427D01*
X172489095Y-61903801D01*
X172152531Y-61903801D01*
X172152531Y-61599278D01*
X172499596Y-61599278D01*
X172499596Y-61688938D01*
X172999596Y-61688938D01*
X172999596Y-61608971D01*
X172962540Y-61586353D01*
X172922456Y-61563736D01*
X172880957Y-61541422D01*
X172839661Y-61519714D01*
X172799071Y-61499116D01*
X172759693Y-61480134D01*
X172723344Y-61463272D01*
X172691842Y-61449035D01*
X172999596Y-61449035D01*
X172999596Y-61359374D01*
X172499596Y-61359374D01*
X172499596Y-61439342D01*
X172555017Y-61462632D01*
X172610348Y-61487269D01*
X172665590Y-61513252D01*
X172720831Y-61540581D01*
X172776162Y-61569256D01*
X172831583Y-61599278D01*
X172499596Y-61599278D01*
X172152531Y-61599278D01*
X172152531Y-61439342D01*
X172152531Y-61171975D01*
X172493134Y-61171975D01*
X172495961Y-61224076D01*
X172505250Y-61278599D01*
X172993134Y-61278599D01*
X173002827Y-61214786D01*
X173005250Y-61159051D01*
X173001616Y-61111899D01*
X172990711Y-61068987D01*
X172972032Y-61031325D01*
X172945073Y-60999924D01*
X172909733Y-60974782D01*
X172865913Y-60955901D01*
X172812904Y-60944088D01*
X172750000Y-60940150D01*
X172685683Y-60944492D01*
X172631664Y-60957517D01*
X172587338Y-60978215D01*
X172552100Y-61005578D01*
X172525545Y-61039201D01*
X172507270Y-61078680D01*
X172496668Y-61123207D01*
X172493134Y-61171975D01*
X172152531Y-61171975D01*
X172152531Y-60940150D01*
X172152531Y-60603586D01*
X172750000Y-60205273D01*
X173347469Y-60603586D01*
G37*
%TO.C,kibuzzard-673226BE*%
G36*
X167749192Y-61489181D02*
G01*
X167798869Y-61500085D01*
X167848950Y-61513009D01*
X167902666Y-61527953D01*
X167848950Y-61542896D01*
X167798869Y-61555820D01*
X167749192Y-61567129D01*
X167697496Y-61577226D01*
X167697496Y-61479488D01*
X167749192Y-61489181D01*
G37*
G36*
X168347469Y-60603343D02*
G01*
X168347469Y-60939908D01*
X168347469Y-62908405D01*
X168347469Y-63244969D01*
X167152531Y-63244969D01*
X167152531Y-62908405D01*
X167152531Y-62753316D01*
X167489095Y-62753316D01*
X167492427Y-62809253D01*
X167502423Y-62852670D01*
X167527060Y-62908405D01*
X167607835Y-62879326D01*
X167583603Y-62827226D01*
X167575121Y-62793603D01*
X167572294Y-62753316D01*
X167577544Y-62711717D01*
X167592084Y-62685465D01*
X167613086Y-62672137D01*
X167636914Y-62668502D01*
X167664378Y-62677387D01*
X167685784Y-62700004D01*
X167702746Y-62730699D01*
X167716882Y-62764625D01*
X167735460Y-62811475D01*
X167762116Y-62855497D01*
X167802100Y-62888211D01*
X167861470Y-62901135D01*
X167924071Y-62889726D01*
X167971325Y-62855497D01*
X167993314Y-62821257D01*
X168006507Y-62779389D01*
X168010905Y-62729891D01*
X168008279Y-62686778D01*
X168000404Y-62649520D01*
X167976979Y-62591765D01*
X167900242Y-62620845D01*
X167919628Y-62665675D01*
X167927706Y-62722622D01*
X167921334Y-62766599D01*
X167902217Y-62792986D01*
X167870355Y-62801782D01*
X167844911Y-62793704D01*
X167825525Y-62773106D01*
X167810582Y-62744835D01*
X167798465Y-62713736D01*
X167778675Y-62664867D01*
X167749596Y-62618017D01*
X167704362Y-62582880D01*
X167673768Y-62572581D01*
X167636107Y-62569148D01*
X167573809Y-62580558D01*
X167527464Y-62614786D01*
X167506148Y-62650462D01*
X167493358Y-62696639D01*
X167489095Y-62753316D01*
X167152531Y-62753316D01*
X167152531Y-62384980D01*
X167499596Y-62384980D01*
X167917205Y-62384980D01*
X167917205Y-62516644D01*
X167999596Y-62516644D01*
X167999596Y-62153155D01*
X167917205Y-62153155D01*
X167917205Y-62284819D01*
X167499596Y-62284819D01*
X167499596Y-62384980D01*
X167152531Y-62384980D01*
X167152531Y-62284819D01*
X167152531Y-62082072D01*
X167152531Y-61761394D01*
X167499596Y-61761394D01*
X167499596Y-62082072D01*
X167999596Y-62082072D01*
X167999596Y-61779164D01*
X167917205Y-61779164D01*
X167917205Y-61982719D01*
X167804927Y-61982719D01*
X167804927Y-61805820D01*
X167722536Y-61805820D01*
X167722536Y-61982719D01*
X167581987Y-61982719D01*
X167581987Y-61761394D01*
X167499596Y-61761394D01*
X167152531Y-61761394D01*
X167152531Y-61618421D01*
X167499596Y-61618421D01*
X167499596Y-61721814D01*
X167557674Y-61707565D01*
X167613651Y-61693252D01*
X167667528Y-61678874D01*
X167719305Y-61664431D01*
X167768982Y-61649924D01*
X167828983Y-61631901D01*
X167887419Y-61614181D01*
X167944290Y-61596763D01*
X167999596Y-61579649D01*
X167999596Y-61471410D01*
X167943836Y-61453665D01*
X167886410Y-61435970D01*
X167827317Y-61418325D01*
X167766559Y-61400731D01*
X167716462Y-61386757D01*
X167664717Y-61372945D01*
X167611325Y-61359294D01*
X167556284Y-61345804D01*
X167499596Y-61332476D01*
X167499596Y-61439100D01*
X167615105Y-61462525D01*
X167615105Y-61595804D01*
X167499596Y-61618421D01*
X167152531Y-61618421D01*
X167152531Y-61439100D01*
X167152531Y-61031184D01*
X167499596Y-61031184D01*
X167888126Y-61026337D01*
X167676494Y-61087727D01*
X167676494Y-61160425D01*
X167888126Y-61219391D01*
X167499596Y-61215352D01*
X167499596Y-61306628D01*
X167562197Y-61304104D01*
X167627221Y-61301378D01*
X167693255Y-61298450D01*
X167758885Y-61295320D01*
X167823304Y-61291786D01*
X167885703Y-61287646D01*
X167944871Y-61282900D01*
X167999596Y-61277549D01*
X167999596Y-61195158D01*
X167955977Y-61181022D01*
X167898627Y-61162848D01*
X167836430Y-61143462D01*
X167778271Y-61124883D01*
X167840065Y-61104689D01*
X167901454Y-61084496D01*
X167956785Y-61066725D01*
X167999596Y-61052185D01*
X167999596Y-60969794D01*
X167934976Y-60964241D01*
X167871971Y-60958890D01*
X167810077Y-60954043D01*
X167748788Y-60950004D01*
X167687601Y-60946673D01*
X167626010Y-60943946D01*
X167563510Y-60941725D01*
X167499596Y-60939908D01*
X167499596Y-61031184D01*
X167152531Y-61031184D01*
X167152531Y-60939908D01*
X167152531Y-60603343D01*
X167750000Y-60205031D01*
X168347469Y-60603343D01*
G37*
%TO.C,kibuzzard-67322833*%
G36*
X191508360Y-56929544D02*
G01*
X191549919Y-56950323D01*
X191581583Y-57028918D01*
X191573102Y-57076979D01*
X191547658Y-57110339D01*
X191508360Y-57129847D01*
X191458320Y-57136349D01*
X191439095Y-57135784D01*
X191416478Y-57132956D01*
X191416478Y-56922617D01*
X191447011Y-56922617D01*
X191508360Y-56929544D01*
G37*
G36*
X190347819Y-56063543D02*
G01*
X190913247Y-56063543D01*
X191769305Y-56063543D01*
X192240495Y-56063543D01*
X192742369Y-57736457D01*
X192240495Y-57736457D01*
X191769305Y-57736457D01*
X190130695Y-57736457D01*
X189659505Y-57736457D01*
X189314933Y-56587884D01*
X190130695Y-56587884D01*
X190171405Y-56700969D01*
X190244346Y-56667044D01*
X190291418Y-56655170D01*
X190347819Y-56651212D01*
X190406058Y-56658562D01*
X190442811Y-56678918D01*
X190461470Y-56708320D01*
X190466559Y-56741680D01*
X190454120Y-56780129D01*
X190422456Y-56810097D01*
X190379483Y-56833845D01*
X190331987Y-56853635D01*
X190266397Y-56879645D01*
X190204766Y-56916963D01*
X190158966Y-56972940D01*
X190140872Y-57056058D01*
X190156846Y-57143700D01*
X190204766Y-57209855D01*
X190252701Y-57240639D01*
X190311318Y-57259110D01*
X190380614Y-57265267D01*
X190440973Y-57261591D01*
X190493134Y-57250565D01*
X190573990Y-57217771D01*
X190533279Y-57110339D01*
X190470517Y-57137480D01*
X190390792Y-57148788D01*
X190329223Y-57139867D01*
X190292281Y-57113104D01*
X190279968Y-57068498D01*
X190291276Y-57032876D01*
X190320113Y-57005735D01*
X190359693Y-56984814D01*
X190403231Y-56967851D01*
X190471648Y-56940145D01*
X190537237Y-56899435D01*
X190586430Y-56836107D01*
X190600848Y-56793275D01*
X190605654Y-56740549D01*
X190589681Y-56653332D01*
X190541761Y-56588449D01*
X190540815Y-56587884D01*
X190696123Y-56587884D01*
X190736834Y-56700969D01*
X190809774Y-56667044D01*
X190856846Y-56655170D01*
X190913247Y-56651212D01*
X190971486Y-56658562D01*
X191008239Y-56678918D01*
X191026898Y-56708320D01*
X191031987Y-56741680D01*
X191019548Y-56780129D01*
X190987884Y-56810097D01*
X190944911Y-56833845D01*
X190897415Y-56853635D01*
X190831826Y-56879645D01*
X190770194Y-56916963D01*
X190724394Y-56972940D01*
X190706300Y-57056058D01*
X190722274Y-57143700D01*
X190770194Y-57209855D01*
X190818130Y-57240639D01*
X190876746Y-57259110D01*
X190946042Y-57265267D01*
X191006401Y-57261591D01*
X191058562Y-57250565D01*
X191086443Y-57239257D01*
X191277383Y-57239257D01*
X191322052Y-57247738D01*
X191371244Y-57253393D01*
X191418740Y-57256220D01*
X191458320Y-57257351D01*
X191515428Y-57253958D01*
X191566882Y-57243780D01*
X191612116Y-57226535D01*
X191650565Y-57201939D01*
X191704281Y-57130129D01*
X191718275Y-57082775D01*
X191722940Y-57027787D01*
X191716721Y-56969548D01*
X191698061Y-56916963D01*
X191664984Y-56873142D01*
X191615509Y-56841195D01*
X191656220Y-56776171D01*
X191698061Y-56701535D01*
X191737076Y-56623506D01*
X191769305Y-56549435D01*
X191623425Y-56549435D01*
X191595295Y-56616014D01*
X191562924Y-56680048D01*
X191527161Y-56743235D01*
X191488853Y-56807270D01*
X191416478Y-56807270D01*
X191416478Y-56549435D01*
X191277383Y-56549435D01*
X191277383Y-57239257D01*
X191086443Y-57239257D01*
X191139418Y-57217771D01*
X191098708Y-57110339D01*
X191035945Y-57137480D01*
X190956220Y-57148788D01*
X190894651Y-57139867D01*
X190857710Y-57113104D01*
X190845396Y-57068498D01*
X190856704Y-57032876D01*
X190885541Y-57005735D01*
X190925121Y-56984814D01*
X190968659Y-56967851D01*
X191037076Y-56940145D01*
X191102666Y-56899435D01*
X191151858Y-56836107D01*
X191166276Y-56793275D01*
X191171082Y-56740549D01*
X191155109Y-56653332D01*
X191107189Y-56588449D01*
X191057243Y-56558607D01*
X190992596Y-56540702D01*
X190913247Y-56534733D01*
X190834935Y-56539398D01*
X190774152Y-56553393D01*
X190696123Y-56587884D01*
X190540815Y-56587884D01*
X190491815Y-56558607D01*
X190427167Y-56540702D01*
X190347819Y-56534733D01*
X190269507Y-56539398D01*
X190208724Y-56553393D01*
X190130695Y-56587884D01*
X189314933Y-56587884D01*
X189157631Y-56063543D01*
X189659505Y-56063543D01*
X190130695Y-56063543D01*
X190347819Y-56063543D01*
G37*
%TO.C,kibuzzard-67426AC2*%
G36*
X172699192Y-54160061D02*
G01*
X172748869Y-54170966D01*
X172798950Y-54183890D01*
X172852666Y-54198833D01*
X172798950Y-54213777D01*
X172748869Y-54226701D01*
X172699192Y-54238009D01*
X172647496Y-54248106D01*
X172647496Y-54150368D01*
X172699192Y-54160061D01*
G37*
G36*
X172763005Y-54527589D02*
G01*
X172817124Y-54544552D01*
X172854685Y-54577670D01*
X172868821Y-54631790D01*
X172868417Y-54646329D01*
X172866397Y-54660869D01*
X172530372Y-54660869D01*
X172529564Y-54651983D01*
X172529564Y-54643098D01*
X172542488Y-54586151D01*
X172578029Y-54548995D01*
X172631745Y-54528801D01*
X172664358Y-54524257D01*
X172700000Y-54522743D01*
X172763005Y-54527589D01*
G37*
G36*
X173297469Y-53286340D02*
G01*
X173297469Y-53622904D01*
X173297469Y-55175408D01*
X173297469Y-55511973D01*
X172102531Y-55511973D01*
X172102531Y-55175408D01*
X172102531Y-55020320D01*
X172439095Y-55020320D01*
X172442427Y-55076257D01*
X172452423Y-55119673D01*
X172477060Y-55175408D01*
X172557835Y-55146329D01*
X172533603Y-55094229D01*
X172525121Y-55060606D01*
X172522294Y-55020320D01*
X172527544Y-54978720D01*
X172542084Y-54952468D01*
X172563086Y-54939140D01*
X172586914Y-54935505D01*
X172614378Y-54944391D01*
X172635784Y-54967008D01*
X172652746Y-54997702D01*
X172666882Y-55031628D01*
X172685460Y-55078478D01*
X172712116Y-55122500D01*
X172752100Y-55155215D01*
X172811470Y-55168139D01*
X172874071Y-55156729D01*
X172921325Y-55122500D01*
X172943314Y-55088261D01*
X172956507Y-55046392D01*
X172960905Y-54996895D01*
X172958279Y-54953781D01*
X172950404Y-54916523D01*
X172926979Y-54858769D01*
X172850242Y-54887848D01*
X172869628Y-54932678D01*
X172877706Y-54989625D01*
X172871334Y-55033603D01*
X172852217Y-55059989D01*
X172820355Y-55068785D01*
X172794911Y-55060707D01*
X172775525Y-55040109D01*
X172760582Y-55011838D01*
X172748465Y-54980740D01*
X172728675Y-54931870D01*
X172699596Y-54885021D01*
X172654362Y-54849883D01*
X172623768Y-54839584D01*
X172586107Y-54836151D01*
X172523809Y-54847561D01*
X172477464Y-54881790D01*
X172456148Y-54917465D01*
X172443358Y-54963642D01*
X172439095Y-55020320D01*
X172102531Y-55020320D01*
X172102531Y-54653599D01*
X172443134Y-54653599D01*
X172445961Y-54705699D01*
X172455250Y-54760223D01*
X172943134Y-54760223D01*
X172952827Y-54696410D01*
X172955250Y-54640675D01*
X172951616Y-54593522D01*
X172940711Y-54550610D01*
X172922032Y-54512949D01*
X172895073Y-54481547D01*
X172859733Y-54456406D01*
X172815913Y-54437525D01*
X172762904Y-54425711D01*
X172700000Y-54421773D01*
X172635683Y-54426115D01*
X172581664Y-54439140D01*
X172537338Y-54459839D01*
X172502100Y-54487202D01*
X172475545Y-54520824D01*
X172457270Y-54560303D01*
X172446668Y-54604831D01*
X172443134Y-54653599D01*
X172102531Y-54653599D01*
X172102531Y-54289302D01*
X172449596Y-54289302D01*
X172449596Y-54392694D01*
X172507674Y-54378446D01*
X172563651Y-54364132D01*
X172617528Y-54349754D01*
X172669305Y-54335311D01*
X172718982Y-54320804D01*
X172778983Y-54302781D01*
X172837419Y-54285061D01*
X172894290Y-54267644D01*
X172949596Y-54250530D01*
X172949596Y-54142290D01*
X172893836Y-54124545D01*
X172836410Y-54106850D01*
X172777317Y-54089206D01*
X172716559Y-54071612D01*
X172666462Y-54057638D01*
X172614717Y-54043825D01*
X172561325Y-54030174D01*
X172506284Y-54016685D01*
X172449596Y-54003357D01*
X172449596Y-54109980D01*
X172565105Y-54133405D01*
X172565105Y-54266685D01*
X172449596Y-54289302D01*
X172102531Y-54289302D01*
X172102531Y-54109980D01*
X172102531Y-53949237D01*
X172449596Y-53949237D01*
X172469790Y-53951257D01*
X172486753Y-53950853D01*
X172525525Y-53947117D01*
X172561066Y-53935909D01*
X172593679Y-53918946D01*
X172623667Y-53897945D01*
X172651333Y-53874116D01*
X172676979Y-53848672D01*
X172701111Y-53823227D01*
X172724233Y-53799399D01*
X172767851Y-53761434D01*
X172810662Y-53746491D01*
X172857916Y-53765069D01*
X172874475Y-53811919D01*
X172863166Y-53861192D01*
X172825202Y-53912080D01*
X172894669Y-53961353D01*
X172924152Y-53926519D01*
X172944750Y-53886636D01*
X172956866Y-53844330D01*
X172960905Y-53802226D01*
X172952019Y-53743260D01*
X172925363Y-53693179D01*
X172880533Y-53658446D01*
X172817932Y-53645521D01*
X172768255Y-53655215D01*
X172721809Y-53681063D01*
X172678191Y-53717412D01*
X172637803Y-53758607D01*
X172614782Y-53782840D01*
X172587318Y-53808688D01*
X172558643Y-53829286D01*
X172531987Y-53837767D01*
X172531987Y-53622904D01*
X172449596Y-53622904D01*
X172449596Y-53949237D01*
X172102531Y-53949237D01*
X172102531Y-53622904D01*
X172102531Y-53286340D01*
X172700000Y-52888027D01*
X173297469Y-53286340D01*
G37*
%TO.C,kibuzzard-67322650*%
G36*
X165791815Y-53275893D02*
G01*
X165791815Y-53612457D01*
X165791815Y-54782086D01*
X165791815Y-55118650D01*
X164608185Y-55118650D01*
X164608185Y-54782086D01*
X164608185Y-54655268D01*
X164985945Y-54655268D01*
X165126494Y-54655268D01*
X165126494Y-54782086D01*
X165208078Y-54782086D01*
X165208078Y-54655268D01*
X165348627Y-54655268D01*
X165348627Y-54569646D01*
X165208078Y-54569646D01*
X165208078Y-54442829D01*
X165126494Y-54442829D01*
X165126494Y-54569646D01*
X164985945Y-54569646D01*
X164985945Y-54655268D01*
X164608185Y-54655268D01*
X164608185Y-54569646D01*
X164608185Y-54247352D01*
X164944750Y-54247352D01*
X164947173Y-54286932D01*
X164953231Y-54325705D01*
X164961712Y-54359226D01*
X164970598Y-54382247D01*
X165052989Y-54362053D01*
X165036834Y-54316819D01*
X165031381Y-54285923D01*
X165029564Y-54248160D01*
X165036026Y-54200099D01*
X165052585Y-54170212D01*
X165075606Y-54155268D01*
X165102262Y-54151230D01*
X165140630Y-54158095D01*
X165170517Y-54185559D01*
X165189903Y-54244121D01*
X165195053Y-54287942D01*
X165196769Y-54343475D01*
X165263914Y-54336205D01*
X165329645Y-54330551D01*
X165393558Y-54326310D01*
X165455250Y-54323281D01*
X165455250Y-54068031D01*
X165372859Y-54068031D01*
X165372859Y-54240083D01*
X165318740Y-54244121D01*
X165272698Y-54248160D01*
X165264441Y-54187040D01*
X165248286Y-54137229D01*
X165224233Y-54098726D01*
X165192461Y-54071352D01*
X165153150Y-54054927D01*
X165106300Y-54049453D01*
X165042084Y-54061569D01*
X164990792Y-54098726D01*
X164971405Y-54126795D01*
X164956866Y-54160923D01*
X164947779Y-54201108D01*
X164944750Y-54247352D01*
X164608185Y-54247352D01*
X164608185Y-53856399D01*
X164608185Y-53753814D01*
X164955250Y-53753814D01*
X164955250Y-53856399D01*
X165014620Y-53876391D01*
X165081260Y-53897595D01*
X165128065Y-53911865D01*
X165174780Y-53925597D01*
X165221405Y-53938790D01*
X165267133Y-53951265D01*
X165311156Y-53962843D01*
X165353473Y-53973524D01*
X165410016Y-53986852D01*
X165455250Y-53996141D01*
X165455250Y-53891133D01*
X165413348Y-53885074D01*
X165365186Y-53876593D01*
X165313086Y-53866395D01*
X165259370Y-53855188D01*
X165205250Y-53843071D01*
X165151939Y-53830147D01*
X165101757Y-53816920D01*
X165057027Y-53803895D01*
X165101151Y-53790971D01*
X165151131Y-53778047D01*
X165204443Y-53765527D01*
X165258562Y-53753814D01*
X165312379Y-53742910D01*
X165364782Y-53732813D01*
X165413247Y-53723927D01*
X165455250Y-53716658D01*
X165455250Y-53612457D01*
X165403958Y-53623261D01*
X165347011Y-53636286D01*
X165285723Y-53651432D01*
X165221405Y-53668596D01*
X165177248Y-53681116D01*
X165132553Y-53694444D01*
X165087318Y-53708580D01*
X165042308Y-53723299D01*
X164998286Y-53738377D01*
X164955250Y-53753814D01*
X164608185Y-53753814D01*
X164608185Y-53612457D01*
X164608185Y-53275893D01*
X165200000Y-52881350D01*
X165791815Y-53275893D01*
G37*
G36*
X184891815Y-66675893D02*
G01*
X184891815Y-67012457D01*
X184891815Y-68182086D01*
X184891815Y-68518650D01*
X183708185Y-68518650D01*
X183708185Y-68182086D01*
X183708185Y-68055268D01*
X184085945Y-68055268D01*
X184226494Y-68055268D01*
X184226494Y-68182086D01*
X184308078Y-68182086D01*
X184308078Y-68055268D01*
X184448627Y-68055268D01*
X184448627Y-67969646D01*
X184308078Y-67969646D01*
X184308078Y-67842829D01*
X184226494Y-67842829D01*
X184226494Y-67969646D01*
X184085945Y-67969646D01*
X184085945Y-68055268D01*
X183708185Y-68055268D01*
X183708185Y-67969646D01*
X183708185Y-67647352D01*
X184044750Y-67647352D01*
X184047173Y-67686932D01*
X184053231Y-67725705D01*
X184061712Y-67759226D01*
X184070598Y-67782247D01*
X184152989Y-67762053D01*
X184136834Y-67716819D01*
X184131381Y-67685923D01*
X184129564Y-67648160D01*
X184136026Y-67600099D01*
X184152585Y-67570212D01*
X184175606Y-67555268D01*
X184202262Y-67551230D01*
X184240630Y-67558095D01*
X184270517Y-67585559D01*
X184289903Y-67644121D01*
X184295053Y-67687942D01*
X184296769Y-67743475D01*
X184363914Y-67736205D01*
X184429645Y-67730551D01*
X184493558Y-67726310D01*
X184555250Y-67723281D01*
X184555250Y-67468031D01*
X184472859Y-67468031D01*
X184472859Y-67640083D01*
X184418740Y-67644121D01*
X184372698Y-67648160D01*
X184364441Y-67587040D01*
X184348286Y-67537229D01*
X184324233Y-67498726D01*
X184292461Y-67471352D01*
X184253150Y-67454927D01*
X184206300Y-67449453D01*
X184142084Y-67461569D01*
X184090792Y-67498726D01*
X184071405Y-67526795D01*
X184056866Y-67560923D01*
X184047779Y-67601108D01*
X184044750Y-67647352D01*
X183708185Y-67647352D01*
X183708185Y-67256399D01*
X183708185Y-67153814D01*
X184055250Y-67153814D01*
X184055250Y-67256399D01*
X184114620Y-67276391D01*
X184181260Y-67297595D01*
X184228065Y-67311865D01*
X184274780Y-67325597D01*
X184321405Y-67338790D01*
X184367133Y-67351265D01*
X184411156Y-67362843D01*
X184453473Y-67373524D01*
X184510016Y-67386852D01*
X184555250Y-67396141D01*
X184555250Y-67291133D01*
X184513348Y-67285074D01*
X184465186Y-67276593D01*
X184413086Y-67266395D01*
X184359370Y-67255188D01*
X184305250Y-67243071D01*
X184251939Y-67230147D01*
X184201757Y-67216920D01*
X184157027Y-67203895D01*
X184201151Y-67190971D01*
X184251131Y-67178047D01*
X184304443Y-67165527D01*
X184358562Y-67153814D01*
X184412379Y-67142910D01*
X184464782Y-67132813D01*
X184513247Y-67123927D01*
X184555250Y-67116658D01*
X184555250Y-67012457D01*
X184503958Y-67023261D01*
X184447011Y-67036286D01*
X184385723Y-67051432D01*
X184321405Y-67068596D01*
X184277248Y-67081116D01*
X184232553Y-67094444D01*
X184187318Y-67108580D01*
X184142308Y-67123299D01*
X184098286Y-67138377D01*
X184055250Y-67153814D01*
X183708185Y-67153814D01*
X183708185Y-67012457D01*
X183708185Y-66675893D01*
X184300000Y-66281350D01*
X184891815Y-66675893D01*
G37*
%TO.C,kibuzzard-6732277B*%
G36*
X175702787Y-63110036D02*
G01*
X175744911Y-63129968D01*
X175770355Y-63166014D01*
X175778837Y-63221002D01*
X175770497Y-63273162D01*
X175745477Y-63307512D01*
X175706603Y-63326595D01*
X175656704Y-63332956D01*
X175622213Y-63332391D01*
X175587722Y-63329564D01*
X175587722Y-63103393D01*
X175644265Y-63103393D01*
X175702787Y-63110036D01*
G37*
G36*
X174327948Y-62274852D02*
G01*
X175224717Y-62274852D01*
X175587722Y-62274852D01*
X176472052Y-62274852D01*
X176943242Y-62274852D01*
X177438331Y-63925148D01*
X176943242Y-63925148D01*
X176472052Y-63925148D01*
X174327948Y-63925148D01*
X173856758Y-63925148D01*
X173713026Y-63446042D01*
X174327948Y-63446042D01*
X174752019Y-63446042D01*
X174752019Y-63330695D01*
X174467044Y-63330695D01*
X174467044Y-63173506D01*
X174714701Y-63173506D01*
X174714701Y-63058158D01*
X174467044Y-63058158D01*
X174467044Y-62861389D01*
X174776898Y-62861389D01*
X174776898Y-62746042D01*
X174834572Y-62746042D01*
X174867932Y-62819548D01*
X174891115Y-62864216D01*
X174916559Y-62912278D01*
X174943841Y-62962742D01*
X174972536Y-63014620D01*
X175001373Y-63066216D01*
X175029079Y-63115832D01*
X174845880Y-63446042D01*
X174996284Y-63446042D01*
X175107108Y-63222132D01*
X175223586Y-63446042D01*
X175363813Y-63446042D01*
X175185137Y-63119225D01*
X175215388Y-63069467D01*
X175245073Y-63017447D01*
X175273485Y-62965004D01*
X175299919Y-62913974D01*
X175323809Y-62865347D01*
X175344588Y-62820113D01*
X175375121Y-62746042D01*
X175448627Y-62746042D01*
X175448627Y-63436995D01*
X175494426Y-63444911D01*
X175545880Y-63450000D01*
X175596769Y-63452827D01*
X175640872Y-63453958D01*
X175723174Y-63447864D01*
X175792156Y-63429582D01*
X175847819Y-63399111D01*
X175888656Y-63354820D01*
X175911070Y-63300162D01*
X176007270Y-63300162D01*
X176066074Y-63326171D01*
X176129402Y-63361228D01*
X176189338Y-63401939D01*
X176237964Y-63446042D01*
X176332956Y-63446042D01*
X176332956Y-62861389D01*
X176472052Y-62861389D01*
X176472052Y-62746042D01*
X176046850Y-62746042D01*
X176046850Y-62861389D01*
X176193861Y-62861389D01*
X176193861Y-63252666D01*
X176121486Y-63212520D01*
X176052504Y-63184814D01*
X176007270Y-63300162D01*
X175911070Y-63300162D01*
X175913157Y-63295073D01*
X175921325Y-63219871D01*
X175913095Y-63143915D01*
X175888404Y-63083414D01*
X175847254Y-63038368D01*
X175791025Y-63007270D01*
X175721100Y-62988611D01*
X175637480Y-62982391D01*
X175587722Y-62982391D01*
X175587722Y-62746042D01*
X175448627Y-62746042D01*
X175375121Y-62746042D01*
X175224717Y-62746042D01*
X175200828Y-62806826D01*
X175172132Y-62873829D01*
X175140327Y-62943942D01*
X175107108Y-63014055D01*
X175074313Y-62946062D01*
X175041519Y-62875525D01*
X175010985Y-62807250D01*
X174984976Y-62746042D01*
X174834572Y-62746042D01*
X174776898Y-62746042D01*
X174327948Y-62746042D01*
X174327948Y-63446042D01*
X173713026Y-63446042D01*
X173361669Y-62274852D01*
X173856758Y-62274852D01*
X174327948Y-62274852D01*
G37*
%TO.C,kibuzzard-67322649*%
G36*
X164063005Y-67020966D02*
G01*
X164117124Y-67037929D01*
X164154685Y-67071046D01*
X164168821Y-67125166D01*
X164168417Y-67139706D01*
X164166397Y-67154245D01*
X163830372Y-67154245D01*
X163829564Y-67145360D01*
X163829564Y-67136475D01*
X163842488Y-67079528D01*
X163878029Y-67042371D01*
X163931745Y-67022177D01*
X163964358Y-67017634D01*
X164000000Y-67016119D01*
X164063005Y-67020966D01*
G37*
G36*
X164597469Y-66578586D02*
G01*
X164597469Y-66915150D01*
X164597469Y-68083163D01*
X164597469Y-68419727D01*
X163402531Y-68419727D01*
X163402531Y-68083163D01*
X163402531Y-67878801D01*
X163739095Y-67878801D01*
X163743235Y-67923328D01*
X163755654Y-67963211D01*
X163776252Y-67998046D01*
X163804927Y-68027428D01*
X163841680Y-68051055D01*
X163886511Y-68068623D01*
X163939317Y-68079528D01*
X164000000Y-68083163D01*
X164060077Y-68078922D01*
X164112682Y-68066200D01*
X164157613Y-68046208D01*
X164194669Y-68020158D01*
X164223647Y-67988454D01*
X164244346Y-67951499D01*
X164256765Y-67910505D01*
X164260905Y-67866685D01*
X164256462Y-67814584D01*
X164246365Y-67774601D01*
X164234249Y-67746733D01*
X164224556Y-67730174D01*
X164145396Y-67756022D01*
X164165590Y-67799641D01*
X164174475Y-67852953D01*
X164161551Y-67912727D01*
X164125606Y-67952710D01*
X164070679Y-67975328D01*
X164037056Y-67980477D01*
X164000000Y-67982194D01*
X163945477Y-67979052D01*
X163901454Y-67969628D01*
X163867932Y-67953922D01*
X163836127Y-67918987D01*
X163825525Y-67870723D01*
X163826333Y-67851337D01*
X163828756Y-67831951D01*
X164011309Y-67831951D01*
X164011309Y-67732597D01*
X163761712Y-67732597D01*
X163747173Y-67787929D01*
X163741115Y-67829427D01*
X163739095Y-67878801D01*
X163402531Y-67878801D01*
X163402531Y-67574278D01*
X163749596Y-67574278D01*
X163749596Y-67663938D01*
X164249596Y-67663938D01*
X164249596Y-67583971D01*
X164212540Y-67561353D01*
X164172456Y-67538736D01*
X164130957Y-67516422D01*
X164089661Y-67494714D01*
X164049071Y-67474116D01*
X164009693Y-67455134D01*
X163973344Y-67438272D01*
X163941842Y-67424035D01*
X164249596Y-67424035D01*
X164249596Y-67334374D01*
X163749596Y-67334374D01*
X163749596Y-67414342D01*
X163805017Y-67437632D01*
X163860348Y-67462269D01*
X163915590Y-67488252D01*
X163970831Y-67515581D01*
X164026162Y-67544256D01*
X164081583Y-67574278D01*
X163749596Y-67574278D01*
X163402531Y-67574278D01*
X163402531Y-67414342D01*
X163402531Y-67146975D01*
X163743134Y-67146975D01*
X163745961Y-67199076D01*
X163755250Y-67253599D01*
X164243134Y-67253599D01*
X164252827Y-67189786D01*
X164255250Y-67134051D01*
X164251616Y-67086899D01*
X164240711Y-67043987D01*
X164222032Y-67006325D01*
X164195073Y-66974924D01*
X164159733Y-66949782D01*
X164115913Y-66930901D01*
X164062904Y-66919088D01*
X164000000Y-66915150D01*
X163935683Y-66919492D01*
X163881664Y-66932517D01*
X163837338Y-66953215D01*
X163802100Y-66980578D01*
X163775545Y-67014201D01*
X163757270Y-67053680D01*
X163746668Y-67098207D01*
X163743134Y-67146975D01*
X163402531Y-67146975D01*
X163402531Y-66915150D01*
X163402531Y-66578586D01*
X164000000Y-66180273D01*
X164597469Y-66578586D01*
G37*
%TO.C,kibuzzard-67322783*%
G36*
X177677827Y-43610036D02*
G01*
X177719952Y-43629968D01*
X177745396Y-43666014D01*
X177753877Y-43721002D01*
X177745537Y-43773162D01*
X177720517Y-43807512D01*
X177681644Y-43826595D01*
X177631745Y-43832956D01*
X177597254Y-43832391D01*
X177562763Y-43829564D01*
X177562763Y-43603393D01*
X177619305Y-43603393D01*
X177677827Y-43610036D01*
G37*
G36*
X175496688Y-42774852D02*
G01*
X176103958Y-42774852D01*
X176584572Y-42774852D01*
X177151131Y-42774852D01*
X177562763Y-42774852D01*
X177999273Y-42774852D01*
X178448223Y-42774852D01*
X178919413Y-42774852D01*
X179414502Y-44425148D01*
X178919413Y-44425148D01*
X178448223Y-44425148D01*
X175151777Y-44425148D01*
X174680587Y-44425148D01*
X174536855Y-43946042D01*
X175151777Y-43946042D01*
X175290872Y-43946042D01*
X175290872Y-43655412D01*
X175342892Y-43725525D01*
X175394346Y-43802423D01*
X175439015Y-43878191D01*
X175472940Y-43946042D01*
X175630129Y-43946042D01*
X175592246Y-43876494D01*
X175568639Y-43836632D01*
X175564822Y-43830695D01*
X176260016Y-43830695D01*
X176260016Y-43946042D01*
X176768901Y-43946042D01*
X176811874Y-43946042D01*
X176961147Y-43946042D01*
X176988570Y-43863914D01*
X177018821Y-43780372D01*
X177051050Y-43699657D01*
X177084410Y-43626010D01*
X177113247Y-43691599D01*
X177146042Y-43775283D01*
X177162157Y-43819669D01*
X177177706Y-43864620D01*
X177205412Y-43946042D01*
X177349031Y-43946042D01*
X177327544Y-43889216D01*
X177306058Y-43834087D01*
X177284006Y-43780089D01*
X177260824Y-43726656D01*
X177236228Y-43673647D01*
X177209935Y-43620921D01*
X177181664Y-43567629D01*
X177151131Y-43512924D01*
X177151131Y-43246042D01*
X177423667Y-43246042D01*
X177423667Y-43936995D01*
X177469467Y-43944911D01*
X177520921Y-43950000D01*
X177571809Y-43952827D01*
X177615913Y-43953958D01*
X177698214Y-43947864D01*
X177705089Y-43946042D01*
X177999273Y-43946042D01*
X178423344Y-43946042D01*
X178423344Y-43830695D01*
X178138368Y-43830695D01*
X178138368Y-43673506D01*
X178386026Y-43673506D01*
X178386026Y-43558158D01*
X178138368Y-43558158D01*
X178138368Y-43361389D01*
X178448223Y-43361389D01*
X178448223Y-43246042D01*
X177999273Y-43246042D01*
X177999273Y-43946042D01*
X177705089Y-43946042D01*
X177767196Y-43929582D01*
X177822859Y-43899111D01*
X177863696Y-43854820D01*
X177888198Y-43795073D01*
X177896365Y-43719871D01*
X177888135Y-43643915D01*
X177863445Y-43583414D01*
X177822294Y-43538368D01*
X177766065Y-43507270D01*
X177696141Y-43488611D01*
X177612520Y-43482391D01*
X177562763Y-43482391D01*
X177562763Y-43246042D01*
X177423667Y-43246042D01*
X177151131Y-43246042D01*
X177010905Y-43246042D01*
X177010905Y-43511793D01*
X176971136Y-43584356D01*
X176934760Y-43655789D01*
X176901777Y-43726090D01*
X176870930Y-43797020D01*
X176840962Y-43870337D01*
X176811874Y-43946042D01*
X176768901Y-43946042D01*
X176768901Y-43830695D01*
X176584572Y-43830695D01*
X176584572Y-43246042D01*
X176444346Y-43246042D01*
X176444346Y-43830695D01*
X176260016Y-43830695D01*
X175564822Y-43830695D01*
X175541922Y-43795073D01*
X175512662Y-43752242D01*
X175481422Y-43708562D01*
X175448485Y-43665307D01*
X175414136Y-43623748D01*
X175449475Y-43587278D01*
X175485380Y-43545719D01*
X175520578Y-43500061D01*
X175542627Y-43467690D01*
X175794103Y-43467690D01*
X175794103Y-43604523D01*
X176103958Y-43604523D01*
X176103958Y-43467690D01*
X175794103Y-43467690D01*
X175542627Y-43467690D01*
X175553796Y-43451292D01*
X175584471Y-43400404D01*
X175612036Y-43348384D01*
X175635501Y-43296506D01*
X175653877Y-43246042D01*
X175496688Y-43246042D01*
X175461066Y-43331422D01*
X175436611Y-43376656D01*
X175409612Y-43420759D01*
X175380634Y-43462884D01*
X175350242Y-43502181D01*
X175290872Y-43566074D01*
X175290872Y-43246042D01*
X175151777Y-43246042D01*
X175151777Y-43946042D01*
X174536855Y-43946042D01*
X174185498Y-42774852D01*
X174680587Y-42774852D01*
X175151777Y-42774852D01*
X175496688Y-42774852D01*
G37*
%TO.C,kibuzzard-67322575*%
G36*
X172158410Y-40626871D02*
G01*
X173087327Y-40626871D01*
X173760456Y-40626871D01*
X173760456Y-42973129D01*
X173087327Y-42973129D01*
X171694759Y-42973129D01*
X171021630Y-42973129D01*
X170463023Y-42135218D01*
X171694759Y-42135218D01*
X171694759Y-42300000D01*
X172421738Y-42300000D01*
X172421738Y-42135218D01*
X172158410Y-42135218D01*
X172158410Y-41616640D01*
X172644678Y-41616640D01*
X172644678Y-41812116D01*
X173087327Y-41812116D01*
X173087327Y-41616640D01*
X172644678Y-41616640D01*
X172158410Y-41616640D01*
X172158410Y-41300000D01*
X171958087Y-41300000D01*
X171958087Y-42135218D01*
X171694759Y-42135218D01*
X170463023Y-42135218D01*
X170239544Y-41800000D01*
X171021630Y-40626871D01*
X171694759Y-40626871D01*
X172158410Y-40626871D01*
G37*
%TO.C,kibuzzard-673226A8*%
G36*
X179326111Y-68594838D02*
G01*
X179350646Y-68612709D01*
X179364277Y-68640476D01*
X179368821Y-68676118D01*
X179368417Y-68700754D01*
X179366397Y-68725391D01*
X179204847Y-68725391D01*
X179204847Y-68685003D01*
X179209592Y-68643202D01*
X179223829Y-68613113D01*
X179249576Y-68594939D01*
X179288853Y-68588880D01*
X179326111Y-68594838D01*
G37*
G36*
X179235238Y-67780217D02*
G01*
X179268255Y-67782338D01*
X179323586Y-67793646D01*
X179360743Y-67817475D01*
X179374475Y-67858670D01*
X179360743Y-67899866D01*
X179323183Y-67923695D01*
X179267851Y-67935003D01*
X179235137Y-67937124D01*
X179200000Y-67937830D01*
X179164762Y-67937124D01*
X179131745Y-67935003D01*
X179076414Y-67923695D01*
X179039257Y-67899866D01*
X179025525Y-67858670D01*
X179039257Y-67817879D01*
X179076817Y-67793646D01*
X179132149Y-67782338D01*
X179164863Y-67780217D01*
X179200000Y-67779511D01*
X179235238Y-67780217D01*
G37*
G36*
X179797469Y-66551993D02*
G01*
X179797469Y-66888557D01*
X179797469Y-69250431D01*
X179797469Y-69586996D01*
X178602531Y-69586996D01*
X178602531Y-69250431D01*
X178602531Y-69046069D01*
X178939095Y-69046069D01*
X178943235Y-69090597D01*
X178955654Y-69130480D01*
X178976252Y-69165314D01*
X179004927Y-69194696D01*
X179041680Y-69218323D01*
X179086511Y-69235892D01*
X179139317Y-69246796D01*
X179200000Y-69250431D01*
X179260077Y-69246191D01*
X179312682Y-69233468D01*
X179357613Y-69213477D01*
X179394669Y-69187426D01*
X179423647Y-69155722D01*
X179444346Y-69118767D01*
X179456765Y-69077774D01*
X179460905Y-69033953D01*
X179456462Y-68981853D01*
X179446365Y-68941869D01*
X179434249Y-68914002D01*
X179424556Y-68897443D01*
X179345396Y-68923291D01*
X179365590Y-68966910D01*
X179374475Y-69020221D01*
X179361551Y-69079995D01*
X179325606Y-69119979D01*
X179270679Y-69142596D01*
X179237056Y-69147746D01*
X179200000Y-69149462D01*
X179145477Y-69146321D01*
X179101454Y-69136897D01*
X179067932Y-69121191D01*
X179036127Y-69086255D01*
X179025525Y-69037992D01*
X179026333Y-69018606D01*
X179028756Y-68999220D01*
X179211309Y-68999220D01*
X179211309Y-68899866D01*
X178961712Y-68899866D01*
X178947173Y-68955197D01*
X178941115Y-68996695D01*
X178939095Y-69046069D01*
X178602531Y-69046069D01*
X178602531Y-68824745D01*
X178949596Y-68824745D01*
X179443134Y-68824745D01*
X179448788Y-68792031D01*
X179452423Y-68755278D01*
X179454443Y-68718929D01*
X179455250Y-68687426D01*
X179450898Y-68628640D01*
X179437839Y-68579367D01*
X179416074Y-68539607D01*
X179384437Y-68510439D01*
X179341761Y-68492937D01*
X179288045Y-68487103D01*
X179233791Y-68492982D01*
X179190576Y-68510618D01*
X179158401Y-68540011D01*
X179136187Y-68580175D01*
X179122859Y-68630121D01*
X179118417Y-68689850D01*
X179118417Y-68725391D01*
X178949596Y-68725391D01*
X178949596Y-68824745D01*
X178602531Y-68824745D01*
X178602531Y-68725391D01*
X178602531Y-68420868D01*
X178602531Y-68103420D01*
X178949596Y-68103420D01*
X178949596Y-68420868D01*
X179031987Y-68420868D01*
X179031987Y-68311821D01*
X179367205Y-68311821D01*
X179367205Y-68420868D01*
X179449596Y-68420868D01*
X179449596Y-68103420D01*
X179367205Y-68103420D01*
X179367205Y-68211659D01*
X179031987Y-68211659D01*
X179031987Y-68103420D01*
X178949596Y-68103420D01*
X178602531Y-68103420D01*
X178602531Y-67857863D01*
X178939095Y-67857863D01*
X178946410Y-67911937D01*
X178968354Y-67956768D01*
X179004927Y-67992354D01*
X179041806Y-68012674D01*
X179086611Y-68027188D01*
X179139343Y-68035897D01*
X179200000Y-68038800D01*
X179260657Y-68035821D01*
X179313389Y-68026885D01*
X179358194Y-68011992D01*
X179395073Y-67991142D01*
X179431646Y-67955242D01*
X179453590Y-67911085D01*
X179460905Y-67858670D01*
X179453590Y-67804641D01*
X179431646Y-67759945D01*
X179395073Y-67724583D01*
X179358194Y-67704440D01*
X179313389Y-67690052D01*
X179260657Y-67681419D01*
X179200000Y-67678541D01*
X179139343Y-67681469D01*
X179086611Y-67690254D01*
X179041806Y-67704894D01*
X179004927Y-67725391D01*
X178968354Y-67760932D01*
X178946410Y-67805089D01*
X178939095Y-67857863D01*
X178602531Y-67857863D01*
X178602531Y-67589688D01*
X178949596Y-67589688D01*
X179031987Y-67589688D01*
X179031987Y-67484680D01*
X179311470Y-67484680D01*
X179282795Y-67536376D01*
X179263005Y-67585649D01*
X179345396Y-67617960D01*
X179363974Y-67575956D01*
X179389015Y-67530722D01*
X179418094Y-67487911D01*
X179449596Y-67453178D01*
X179449596Y-67385326D01*
X179031987Y-67385326D01*
X179031987Y-67285973D01*
X178949596Y-67285973D01*
X178949596Y-67589688D01*
X178602531Y-67589688D01*
X178602531Y-67285973D01*
X178602531Y-67080803D01*
X178939095Y-67080803D01*
X178941922Y-67119979D01*
X178948788Y-67159559D01*
X178957674Y-67194696D01*
X178966559Y-67219737D01*
X179049758Y-67200351D01*
X179032795Y-67152289D01*
X179026131Y-67119878D01*
X179023910Y-67081611D01*
X179029362Y-67038295D01*
X179045719Y-67010124D01*
X179099838Y-66989527D01*
X179133461Y-66997402D01*
X179155170Y-67021029D01*
X179166983Y-67056772D01*
X179170921Y-67100997D01*
X179170921Y-67131691D01*
X179253312Y-67131691D01*
X179253312Y-67094535D01*
X179256543Y-67063840D01*
X179267044Y-67036376D01*
X179286430Y-67016586D01*
X179317124Y-67008913D01*
X179360339Y-67025472D01*
X179376090Y-67071110D01*
X179366801Y-67127249D01*
X179343780Y-67175310D01*
X179416478Y-67210851D01*
X179445961Y-67153097D01*
X179457169Y-67114830D01*
X179460905Y-67071918D01*
X179458279Y-67032641D01*
X179450404Y-66998816D01*
X179420921Y-66947523D01*
X179376090Y-66917637D01*
X179320355Y-66907943D01*
X179263005Y-66924906D01*
X179221002Y-66970141D01*
X179201010Y-66935710D01*
X179173344Y-66909963D01*
X179138813Y-66893909D01*
X179098223Y-66888557D01*
X179034410Y-66899866D01*
X178983926Y-66934599D01*
X178964943Y-66961255D01*
X178950808Y-66994373D01*
X178942023Y-67034155D01*
X178939095Y-67080803D01*
X178602531Y-67080803D01*
X178602531Y-66888557D01*
X178602531Y-66551993D01*
X179200000Y-66153680D01*
X179797469Y-66551993D01*
G37*
%TO.C,kibuzzard-67322649*%
G36*
X190970472Y-58942488D02*
G01*
X191007629Y-58978029D01*
X191027823Y-59031745D01*
X191032366Y-59064358D01*
X191033881Y-59100000D01*
X191029034Y-59163005D01*
X191012071Y-59217124D01*
X190978954Y-59254685D01*
X190924834Y-59268821D01*
X190910294Y-59268417D01*
X190895755Y-59266397D01*
X190895755Y-58930372D01*
X190904640Y-58929564D01*
X190913525Y-58929564D01*
X190970472Y-58942488D01*
G37*
G36*
X190171199Y-58502531D02*
G01*
X190635658Y-58502531D01*
X190903025Y-58502531D01*
X191134850Y-58502531D01*
X191471414Y-58502531D01*
X191869727Y-59100000D01*
X191471414Y-59697469D01*
X191134850Y-59697469D01*
X189966837Y-59697469D01*
X189630273Y-59697469D01*
X189630273Y-59100000D01*
X189966837Y-59100000D01*
X189971078Y-59160077D01*
X189983800Y-59212682D01*
X190003792Y-59257613D01*
X190029842Y-59294669D01*
X190061546Y-59323647D01*
X190098501Y-59344346D01*
X190139495Y-59356765D01*
X190183315Y-59360905D01*
X190235416Y-59356462D01*
X190262605Y-59349596D01*
X190386062Y-59349596D01*
X190466029Y-59349596D01*
X190488647Y-59312540D01*
X190511264Y-59272456D01*
X190533578Y-59230957D01*
X190555286Y-59189661D01*
X190575884Y-59149071D01*
X190594866Y-59109693D01*
X190611728Y-59073344D01*
X190625965Y-59041842D01*
X190625965Y-59349596D01*
X190715626Y-59349596D01*
X190715626Y-58855250D01*
X190796401Y-58855250D01*
X190796401Y-59343134D01*
X190860214Y-59352827D01*
X190915949Y-59355250D01*
X190963101Y-59351616D01*
X191006013Y-59340711D01*
X191043675Y-59322032D01*
X191075076Y-59295073D01*
X191100218Y-59259733D01*
X191119099Y-59215913D01*
X191130912Y-59162904D01*
X191134850Y-59100000D01*
X191130508Y-59035683D01*
X191117483Y-58981664D01*
X191096785Y-58937338D01*
X191069422Y-58902100D01*
X191035799Y-58875545D01*
X190996320Y-58857270D01*
X190951793Y-58846668D01*
X190903025Y-58843134D01*
X190850924Y-58845961D01*
X190796401Y-58855250D01*
X190715626Y-58855250D01*
X190715626Y-58849596D01*
X190635658Y-58849596D01*
X190612368Y-58905017D01*
X190587731Y-58960348D01*
X190561748Y-59015590D01*
X190534419Y-59070831D01*
X190505744Y-59126162D01*
X190475722Y-59181583D01*
X190475722Y-58849596D01*
X190386062Y-58849596D01*
X190386062Y-59349596D01*
X190262605Y-59349596D01*
X190275399Y-59346365D01*
X190303267Y-59334249D01*
X190319826Y-59324556D01*
X190293978Y-59245396D01*
X190250359Y-59265590D01*
X190197047Y-59274475D01*
X190137273Y-59261551D01*
X190097290Y-59225606D01*
X190074672Y-59170679D01*
X190069523Y-59137056D01*
X190067806Y-59100000D01*
X190070948Y-59045477D01*
X190080372Y-59001454D01*
X190096078Y-58967932D01*
X190131013Y-58936127D01*
X190179277Y-58925525D01*
X190198663Y-58926333D01*
X190218049Y-58928756D01*
X190218049Y-59111309D01*
X190317403Y-59111309D01*
X190317403Y-58861712D01*
X190262071Y-58847173D01*
X190220573Y-58841115D01*
X190171199Y-58839095D01*
X190126672Y-58843235D01*
X190086789Y-58855654D01*
X190051954Y-58876252D01*
X190022572Y-58904927D01*
X189998945Y-58941680D01*
X189981377Y-58986511D01*
X189970472Y-59039317D01*
X189966837Y-59100000D01*
X189630273Y-59100000D01*
X189630273Y-58502531D01*
X189966837Y-58502531D01*
X190171199Y-58502531D01*
G37*
%TO.C,kibuzzard-67322686*%
G36*
X174364782Y-67041860D02*
G01*
X174378918Y-67087498D01*
X174364378Y-67133136D01*
X174321567Y-67152926D01*
X174275525Y-67134348D01*
X174257351Y-67108701D01*
X174238368Y-67068919D01*
X174279160Y-67033378D01*
X174322375Y-67022877D01*
X174364782Y-67041860D01*
G37*
G36*
X174108320Y-67015204D02*
G01*
X174130533Y-67034590D01*
X174150727Y-67068919D01*
X174172132Y-67119000D01*
X174130533Y-67153734D01*
X174086511Y-67165850D01*
X174037641Y-67142829D01*
X174021082Y-67088306D01*
X174038449Y-67030551D01*
X174080048Y-67009146D01*
X174108320Y-67015204D01*
G37*
G36*
X174325707Y-68227542D02*
G01*
X174350242Y-68245414D01*
X174363873Y-68273180D01*
X174368417Y-68308822D01*
X174368013Y-68333459D01*
X174365994Y-68358095D01*
X174204443Y-68358095D01*
X174204443Y-68317708D01*
X174209188Y-68275906D01*
X174223425Y-68245818D01*
X174249172Y-68227643D01*
X174288449Y-68221585D01*
X174325707Y-68227542D01*
G37*
G36*
X174234834Y-67412922D02*
G01*
X174267851Y-67415042D01*
X174323183Y-67426351D01*
X174360339Y-67450180D01*
X174374071Y-67491375D01*
X174360339Y-67532570D01*
X174322779Y-67556399D01*
X174267447Y-67567708D01*
X174234733Y-67569828D01*
X174199596Y-67570535D01*
X174164358Y-67569828D01*
X174131341Y-67567708D01*
X174076010Y-67556399D01*
X174038853Y-67532570D01*
X174025121Y-67491375D01*
X174038853Y-67450583D01*
X174076414Y-67426351D01*
X174131745Y-67415042D01*
X174164459Y-67412922D01*
X174199596Y-67412215D01*
X174234834Y-67412922D01*
G37*
G36*
X174797873Y-66578882D02*
G01*
X174797873Y-66915446D01*
X174797873Y-68883136D01*
X174797873Y-69219700D01*
X173602127Y-69219700D01*
X173602127Y-68883136D01*
X173602127Y-68678774D01*
X173938691Y-68678774D01*
X173942831Y-68723301D01*
X173955250Y-68763184D01*
X173975848Y-68798019D01*
X174004523Y-68827401D01*
X174041276Y-68851028D01*
X174086107Y-68868596D01*
X174138914Y-68879501D01*
X174199596Y-68883136D01*
X174259673Y-68878895D01*
X174312278Y-68866173D01*
X174357209Y-68846181D01*
X174394265Y-68820131D01*
X174423243Y-68788427D01*
X174443942Y-68751472D01*
X174456361Y-68710478D01*
X174460501Y-68666658D01*
X174456058Y-68614558D01*
X174445961Y-68574574D01*
X174433845Y-68546706D01*
X174424152Y-68530147D01*
X174344992Y-68555995D01*
X174365186Y-68599614D01*
X174374071Y-68652926D01*
X174361147Y-68712700D01*
X174325202Y-68752684D01*
X174270275Y-68775301D01*
X174236652Y-68780450D01*
X174199596Y-68782167D01*
X174145073Y-68779025D01*
X174101050Y-68769602D01*
X174067528Y-68753895D01*
X174035723Y-68718960D01*
X174025121Y-68670696D01*
X174025929Y-68651310D01*
X174028352Y-68631924D01*
X174210905Y-68631924D01*
X174210905Y-68532570D01*
X173961309Y-68532570D01*
X173946769Y-68587902D01*
X173940711Y-68629400D01*
X173938691Y-68678774D01*
X173602127Y-68678774D01*
X173602127Y-68457449D01*
X173949192Y-68457449D01*
X174442730Y-68457449D01*
X174448384Y-68424735D01*
X174452019Y-68387982D01*
X174454039Y-68351633D01*
X174454847Y-68320131D01*
X174450494Y-68261344D01*
X174437435Y-68212071D01*
X174415670Y-68172312D01*
X174384033Y-68143143D01*
X174341357Y-68125642D01*
X174287641Y-68119808D01*
X174233387Y-68125687D01*
X174190172Y-68143323D01*
X174157997Y-68172716D01*
X174135784Y-68212879D01*
X174122456Y-68262825D01*
X174118013Y-68322554D01*
X174118013Y-68358095D01*
X173949192Y-68358095D01*
X173949192Y-68457449D01*
X173602127Y-68457449D01*
X173602127Y-68358095D01*
X173602127Y-68053572D01*
X173602127Y-67736125D01*
X173949192Y-67736125D01*
X173949192Y-68053572D01*
X174031583Y-68053572D01*
X174031583Y-67944525D01*
X174366801Y-67944525D01*
X174366801Y-68053572D01*
X174449192Y-68053572D01*
X174449192Y-67736125D01*
X174366801Y-67736125D01*
X174366801Y-67844364D01*
X174031583Y-67844364D01*
X174031583Y-67736125D01*
X173949192Y-67736125D01*
X173602127Y-67736125D01*
X173602127Y-67490567D01*
X173938691Y-67490567D01*
X173946006Y-67544642D01*
X173967950Y-67589472D01*
X174004523Y-67625058D01*
X174041402Y-67645378D01*
X174086208Y-67659893D01*
X174138939Y-67668601D01*
X174199596Y-67671504D01*
X174260253Y-67668526D01*
X174312985Y-67659590D01*
X174357790Y-67644697D01*
X174394669Y-67623847D01*
X174431242Y-67587947D01*
X174453186Y-67543789D01*
X174460501Y-67491375D01*
X174453186Y-67437345D01*
X174431242Y-67392649D01*
X174394669Y-67357288D01*
X174357790Y-67337144D01*
X174312985Y-67322756D01*
X174260253Y-67314123D01*
X174199596Y-67311246D01*
X174138939Y-67314174D01*
X174086208Y-67322958D01*
X174041402Y-67337599D01*
X174004523Y-67358095D01*
X173967950Y-67393637D01*
X173946006Y-67437794D01*
X173938691Y-67490567D01*
X173602127Y-67490567D01*
X173602127Y-67089921D01*
X173938691Y-67089921D01*
X173941014Y-67126169D01*
X173947981Y-67158984D01*
X173974637Y-67212296D01*
X174017447Y-67246625D01*
X174074394Y-67258742D01*
X174111248Y-67254299D01*
X174145880Y-67240971D01*
X174177484Y-67218152D01*
X174205250Y-67185236D01*
X174230291Y-67215123D01*
X174256947Y-67233701D01*
X174315105Y-67246625D01*
X174365590Y-67238144D01*
X174412843Y-67211084D01*
X174447577Y-67161811D01*
X174457876Y-67127482D01*
X174461309Y-67085882D01*
X174452423Y-67021363D01*
X174425767Y-66971585D01*
X174384168Y-66939780D01*
X174330452Y-66929178D01*
X174296022Y-66933419D01*
X174262197Y-66946141D01*
X174231401Y-66967950D01*
X174206058Y-66999453D01*
X174178191Y-66960175D01*
X174147900Y-66934428D01*
X174114782Y-66920192D01*
X174078433Y-66915446D01*
X174029160Y-66924735D01*
X173984330Y-66954622D01*
X173951616Y-67008338D01*
X173941922Y-67045293D01*
X173938691Y-67089921D01*
X173602127Y-67089921D01*
X173602127Y-66915446D01*
X173602127Y-66578882D01*
X174200000Y-66180300D01*
X174797873Y-66578882D01*
G37*
%TO.C,kibuzzard-67322649*%
G36*
X186563005Y-61220966D02*
G01*
X186617124Y-61237929D01*
X186654685Y-61271046D01*
X186668821Y-61325166D01*
X186668417Y-61339706D01*
X186666397Y-61354245D01*
X186330372Y-61354245D01*
X186329564Y-61345360D01*
X186329564Y-61336475D01*
X186342488Y-61279528D01*
X186378029Y-61242371D01*
X186431745Y-61222177D01*
X186464358Y-61217634D01*
X186500000Y-61216119D01*
X186563005Y-61220966D01*
G37*
G36*
X187097469Y-60778586D02*
G01*
X187097469Y-61115150D01*
X187097469Y-62283163D01*
X187097469Y-62619727D01*
X185902531Y-62619727D01*
X185902531Y-62283163D01*
X185902531Y-62078801D01*
X186239095Y-62078801D01*
X186243235Y-62123328D01*
X186255654Y-62163211D01*
X186276252Y-62198046D01*
X186304927Y-62227428D01*
X186341680Y-62251055D01*
X186386511Y-62268623D01*
X186439317Y-62279528D01*
X186500000Y-62283163D01*
X186560077Y-62278922D01*
X186612682Y-62266200D01*
X186657613Y-62246208D01*
X186694669Y-62220158D01*
X186723647Y-62188454D01*
X186744346Y-62151499D01*
X186756765Y-62110505D01*
X186760905Y-62066685D01*
X186756462Y-62014584D01*
X186746365Y-61974601D01*
X186734249Y-61946733D01*
X186724556Y-61930174D01*
X186645396Y-61956022D01*
X186665590Y-61999641D01*
X186674475Y-62052953D01*
X186661551Y-62112727D01*
X186625606Y-62152710D01*
X186570679Y-62175328D01*
X186537056Y-62180477D01*
X186500000Y-62182194D01*
X186445477Y-62179052D01*
X186401454Y-62169628D01*
X186367932Y-62153922D01*
X186336127Y-62118987D01*
X186325525Y-62070723D01*
X186326333Y-62051337D01*
X186328756Y-62031951D01*
X186511309Y-62031951D01*
X186511309Y-61932597D01*
X186261712Y-61932597D01*
X186247173Y-61987929D01*
X186241115Y-62029427D01*
X186239095Y-62078801D01*
X185902531Y-62078801D01*
X185902531Y-61774278D01*
X186249596Y-61774278D01*
X186249596Y-61863938D01*
X186749596Y-61863938D01*
X186749596Y-61783971D01*
X186712540Y-61761353D01*
X186672456Y-61738736D01*
X186630957Y-61716422D01*
X186589661Y-61694714D01*
X186549071Y-61674116D01*
X186509693Y-61655134D01*
X186473344Y-61638272D01*
X186441842Y-61624035D01*
X186749596Y-61624035D01*
X186749596Y-61534374D01*
X186249596Y-61534374D01*
X186249596Y-61614342D01*
X186305017Y-61637632D01*
X186360348Y-61662269D01*
X186415590Y-61688252D01*
X186470831Y-61715581D01*
X186526162Y-61744256D01*
X186581583Y-61774278D01*
X186249596Y-61774278D01*
X185902531Y-61774278D01*
X185902531Y-61614342D01*
X185902531Y-61346975D01*
X186243134Y-61346975D01*
X186245961Y-61399076D01*
X186255250Y-61453599D01*
X186743134Y-61453599D01*
X186752827Y-61389786D01*
X186755250Y-61334051D01*
X186751616Y-61286899D01*
X186740711Y-61243987D01*
X186722032Y-61206325D01*
X186695073Y-61174924D01*
X186659733Y-61149782D01*
X186615913Y-61130901D01*
X186562904Y-61119088D01*
X186500000Y-61115150D01*
X186435683Y-61119492D01*
X186381664Y-61132517D01*
X186337338Y-61153215D01*
X186302100Y-61180578D01*
X186275545Y-61214201D01*
X186257270Y-61253680D01*
X186246668Y-61298207D01*
X186243134Y-61346975D01*
X185902531Y-61346975D01*
X185902531Y-61115150D01*
X185902531Y-60778586D01*
X186500000Y-60380273D01*
X187097469Y-60778586D01*
G37*
%TO.C,kibuzzard-673226A0*%
G36*
X176826111Y-68599280D02*
G01*
X176850646Y-68617152D01*
X176864277Y-68644918D01*
X176868821Y-68680561D01*
X176868417Y-68705197D01*
X176866397Y-68729834D01*
X176704847Y-68729834D01*
X176704847Y-68689446D01*
X176709592Y-68647645D01*
X176723829Y-68617556D01*
X176749576Y-68599381D01*
X176788853Y-68593323D01*
X176826111Y-68599280D01*
G37*
G36*
X176735238Y-67784660D02*
G01*
X176768255Y-67786780D01*
X176823586Y-67798089D01*
X176860743Y-67821918D01*
X176874475Y-67863113D01*
X176860743Y-67904309D01*
X176823183Y-67928137D01*
X176767851Y-67939446D01*
X176735137Y-67941566D01*
X176700000Y-67942273D01*
X176664762Y-67941566D01*
X176631745Y-67939446D01*
X176576414Y-67928137D01*
X176539257Y-67904309D01*
X176525525Y-67863113D01*
X176539257Y-67822321D01*
X176576817Y-67798089D01*
X176632149Y-67786780D01*
X176664863Y-67784660D01*
X176700000Y-67783953D01*
X176735238Y-67784660D01*
G37*
G36*
X177297469Y-66547550D02*
G01*
X177297469Y-66884115D01*
X177297469Y-69254874D01*
X177297469Y-69591438D01*
X176102531Y-69591438D01*
X176102531Y-69254874D01*
X176102531Y-69050512D01*
X176439095Y-69050512D01*
X176443235Y-69095040D01*
X176455654Y-69134922D01*
X176476252Y-69169757D01*
X176504927Y-69199139D01*
X176541680Y-69222766D01*
X176586511Y-69240334D01*
X176639317Y-69251239D01*
X176700000Y-69254874D01*
X176760077Y-69250633D01*
X176812682Y-69237911D01*
X176857613Y-69217919D01*
X176894669Y-69191869D01*
X176923647Y-69160165D01*
X176944346Y-69123210D01*
X176956765Y-69082216D01*
X176960905Y-69038396D01*
X176956462Y-68986296D01*
X176946365Y-68946312D01*
X176934249Y-68918444D01*
X176924556Y-68901885D01*
X176845396Y-68927733D01*
X176865590Y-68971352D01*
X176874475Y-69024664D01*
X176861551Y-69084438D01*
X176825606Y-69124422D01*
X176770679Y-69147039D01*
X176737056Y-69152188D01*
X176700000Y-69153905D01*
X176645477Y-69150763D01*
X176601454Y-69141340D01*
X176567932Y-69125633D01*
X176536127Y-69090698D01*
X176525525Y-69042435D01*
X176526333Y-69023048D01*
X176528756Y-69003662D01*
X176711309Y-69003662D01*
X176711309Y-68904309D01*
X176461712Y-68904309D01*
X176447173Y-68959640D01*
X176441115Y-69001138D01*
X176439095Y-69050512D01*
X176102531Y-69050512D01*
X176102531Y-68829187D01*
X176449596Y-68829187D01*
X176943134Y-68829187D01*
X176948788Y-68796473D01*
X176952423Y-68759721D01*
X176954443Y-68723372D01*
X176955250Y-68691869D01*
X176950898Y-68633083D01*
X176937839Y-68583810D01*
X176916074Y-68544050D01*
X176884437Y-68514881D01*
X176841761Y-68497380D01*
X176788045Y-68491546D01*
X176733791Y-68497425D01*
X176690576Y-68515061D01*
X176658401Y-68544454D01*
X176636187Y-68584617D01*
X176622859Y-68634563D01*
X176618417Y-68694292D01*
X176618417Y-68729834D01*
X176449596Y-68729834D01*
X176449596Y-68829187D01*
X176102531Y-68829187D01*
X176102531Y-68729834D01*
X176102531Y-68425310D01*
X176102531Y-68107863D01*
X176449596Y-68107863D01*
X176449596Y-68425310D01*
X176531987Y-68425310D01*
X176531987Y-68316263D01*
X176867205Y-68316263D01*
X176867205Y-68425310D01*
X176949596Y-68425310D01*
X176949596Y-68107863D01*
X176867205Y-68107863D01*
X176867205Y-68216102D01*
X176531987Y-68216102D01*
X176531987Y-68107863D01*
X176449596Y-68107863D01*
X176102531Y-68107863D01*
X176102531Y-67862305D01*
X176439095Y-67862305D01*
X176446410Y-67916380D01*
X176468354Y-67961210D01*
X176504927Y-67996796D01*
X176541806Y-68017117D01*
X176586611Y-68031631D01*
X176639343Y-68040339D01*
X176700000Y-68043242D01*
X176760657Y-68040264D01*
X176813389Y-68031328D01*
X176858194Y-68016435D01*
X176895073Y-67995585D01*
X176931646Y-67959685D01*
X176953590Y-67915527D01*
X176960905Y-67863113D01*
X176953590Y-67809083D01*
X176931646Y-67764388D01*
X176895073Y-67729026D01*
X176858194Y-67708882D01*
X176813389Y-67694494D01*
X176760657Y-67685861D01*
X176700000Y-67682984D01*
X176639343Y-67685912D01*
X176586611Y-67694696D01*
X176541806Y-67709337D01*
X176504927Y-67729834D01*
X176468354Y-67765375D01*
X176446410Y-67809532D01*
X176439095Y-67862305D01*
X176102531Y-67862305D01*
X176102531Y-67594131D01*
X176449596Y-67594131D01*
X176531987Y-67594131D01*
X176531987Y-67489123D01*
X176811470Y-67489123D01*
X176782795Y-67540819D01*
X176763005Y-67590092D01*
X176845396Y-67622402D01*
X176863974Y-67580399D01*
X176889015Y-67535165D01*
X176918094Y-67492354D01*
X176949596Y-67457620D01*
X176949596Y-67389769D01*
X176531987Y-67389769D01*
X176531987Y-67290415D01*
X176449596Y-67290415D01*
X176449596Y-67594131D01*
X176102531Y-67594131D01*
X176102531Y-67290415D01*
X176102531Y-67210447D01*
X176449596Y-67210447D01*
X176469790Y-67212467D01*
X176486753Y-67212063D01*
X176525525Y-67208327D01*
X176561066Y-67197120D01*
X176593679Y-67180157D01*
X176623667Y-67159155D01*
X176651333Y-67135326D01*
X176676979Y-67109882D01*
X176701111Y-67084438D01*
X176724233Y-67060609D01*
X176767851Y-67022645D01*
X176810662Y-67007701D01*
X176857916Y-67026279D01*
X176874475Y-67073129D01*
X176863166Y-67122402D01*
X176825202Y-67173291D01*
X176894669Y-67222564D01*
X176924152Y-67187729D01*
X176944750Y-67147847D01*
X176956866Y-67105540D01*
X176960905Y-67063436D01*
X176952019Y-67004470D01*
X176925363Y-66954389D01*
X176880533Y-66919656D01*
X176817932Y-66906732D01*
X176768255Y-66916425D01*
X176721809Y-66942273D01*
X176678191Y-66978622D01*
X176637803Y-67019817D01*
X176614782Y-67044050D01*
X176587318Y-67069898D01*
X176558643Y-67090496D01*
X176531987Y-67098977D01*
X176531987Y-66884115D01*
X176449596Y-66884115D01*
X176449596Y-67210447D01*
X176102531Y-67210447D01*
X176102531Y-66884115D01*
X176102531Y-66547550D01*
X176700000Y-66149238D01*
X177297469Y-66547550D01*
G37*
%TO.C,kibuzzard-67322714*%
G36*
X184123990Y-61662861D02*
G01*
X184147819Y-61681036D01*
X184161753Y-61709105D01*
X184166397Y-61744848D01*
X184165994Y-61758580D01*
X184163974Y-61774735D01*
X184013732Y-61774735D01*
X184013732Y-61752926D01*
X184018679Y-61709105D01*
X184033522Y-61679420D01*
X184089661Y-61656803D01*
X184123990Y-61662861D01*
G37*
G36*
X184589391Y-60782274D02*
G01*
X184589391Y-61118839D01*
X184589391Y-61874089D01*
X184589391Y-62210653D01*
X183410609Y-62210653D01*
X183410609Y-61874089D01*
X183410609Y-61626916D01*
X183747173Y-61626916D01*
X183794729Y-61647009D01*
X183840468Y-61670131D01*
X183885602Y-61695676D01*
X183931341Y-61723039D01*
X183931341Y-61774735D01*
X183747173Y-61774735D01*
X183747173Y-61874089D01*
X184239903Y-61874089D01*
X184245961Y-61842183D01*
X184250000Y-61807045D01*
X184252019Y-61773120D01*
X184252827Y-61744848D01*
X184250404Y-61704057D01*
X184243134Y-61667304D01*
X184230816Y-61634994D01*
X184213247Y-61607530D01*
X184161955Y-61569162D01*
X184128130Y-61559166D01*
X184088853Y-61555834D01*
X184047254Y-61560276D01*
X184009693Y-61573604D01*
X183978393Y-61597231D01*
X183955574Y-61632570D01*
X183909128Y-61603491D01*
X183855816Y-61573604D01*
X183800081Y-61545737D01*
X183747173Y-61522716D01*
X183747173Y-61626916D01*
X183410609Y-61626916D01*
X183410609Y-61522716D01*
X183410609Y-61397514D01*
X183747173Y-61397514D01*
X183747173Y-61504945D01*
X183799677Y-61481116D01*
X183831583Y-61464558D01*
X183865913Y-61446383D01*
X183901959Y-61426896D01*
X183939015Y-61406399D01*
X183975868Y-61385801D01*
X184011309Y-61366011D01*
X184247173Y-61496868D01*
X184247173Y-61389436D01*
X184087237Y-61310276D01*
X184247173Y-61227078D01*
X184247173Y-61126916D01*
X184013732Y-61254541D01*
X183978191Y-61232934D01*
X183941034Y-61211730D01*
X183903574Y-61191436D01*
X183867124Y-61172554D01*
X183832391Y-61155490D01*
X183800081Y-61140648D01*
X183747173Y-61118839D01*
X183747173Y-61226270D01*
X183790590Y-61243334D01*
X183838449Y-61263831D01*
X183888530Y-61286549D01*
X183938611Y-61310276D01*
X183890044Y-61333701D01*
X183839661Y-61357126D01*
X183790893Y-61378936D01*
X183747173Y-61397514D01*
X183410609Y-61397514D01*
X183410609Y-61226270D01*
X183410609Y-61118839D01*
X183410609Y-60782274D01*
X184000000Y-60389347D01*
X184589391Y-60782274D01*
G37*
%TO.C,kibuzzard-67322649*%
G36*
X190970472Y-67542488D02*
G01*
X191007629Y-67578029D01*
X191027823Y-67631745D01*
X191032366Y-67664358D01*
X191033881Y-67700000D01*
X191029034Y-67763005D01*
X191012071Y-67817124D01*
X190978954Y-67854685D01*
X190924834Y-67868821D01*
X190910294Y-67868417D01*
X190895755Y-67866397D01*
X190895755Y-67530372D01*
X190904640Y-67529564D01*
X190913525Y-67529564D01*
X190970472Y-67542488D01*
G37*
G36*
X190171199Y-67102531D02*
G01*
X190635658Y-67102531D01*
X190903025Y-67102531D01*
X191134850Y-67102531D01*
X191471414Y-67102531D01*
X191869727Y-67700000D01*
X191471414Y-68297469D01*
X191134850Y-68297469D01*
X189966837Y-68297469D01*
X189630273Y-68297469D01*
X189630273Y-67700000D01*
X189966837Y-67700000D01*
X189971078Y-67760077D01*
X189983800Y-67812682D01*
X190003792Y-67857613D01*
X190029842Y-67894669D01*
X190061546Y-67923647D01*
X190098501Y-67944346D01*
X190139495Y-67956765D01*
X190183315Y-67960905D01*
X190235416Y-67956462D01*
X190262605Y-67949596D01*
X190386062Y-67949596D01*
X190466029Y-67949596D01*
X190488647Y-67912540D01*
X190511264Y-67872456D01*
X190533578Y-67830957D01*
X190555286Y-67789661D01*
X190575884Y-67749071D01*
X190594866Y-67709693D01*
X190611728Y-67673344D01*
X190625965Y-67641842D01*
X190625965Y-67949596D01*
X190715626Y-67949596D01*
X190715626Y-67455250D01*
X190796401Y-67455250D01*
X190796401Y-67943134D01*
X190860214Y-67952827D01*
X190915949Y-67955250D01*
X190963101Y-67951616D01*
X191006013Y-67940711D01*
X191043675Y-67922032D01*
X191075076Y-67895073D01*
X191100218Y-67859733D01*
X191119099Y-67815913D01*
X191130912Y-67762904D01*
X191134850Y-67700000D01*
X191130508Y-67635683D01*
X191117483Y-67581664D01*
X191096785Y-67537338D01*
X191069422Y-67502100D01*
X191035799Y-67475545D01*
X190996320Y-67457270D01*
X190951793Y-67446668D01*
X190903025Y-67443134D01*
X190850924Y-67445961D01*
X190796401Y-67455250D01*
X190715626Y-67455250D01*
X190715626Y-67449596D01*
X190635658Y-67449596D01*
X190612368Y-67505017D01*
X190587731Y-67560348D01*
X190561748Y-67615590D01*
X190534419Y-67670831D01*
X190505744Y-67726162D01*
X190475722Y-67781583D01*
X190475722Y-67449596D01*
X190386062Y-67449596D01*
X190386062Y-67949596D01*
X190262605Y-67949596D01*
X190275399Y-67946365D01*
X190303267Y-67934249D01*
X190319826Y-67924556D01*
X190293978Y-67845396D01*
X190250359Y-67865590D01*
X190197047Y-67874475D01*
X190137273Y-67861551D01*
X190097290Y-67825606D01*
X190074672Y-67770679D01*
X190069523Y-67737056D01*
X190067806Y-67700000D01*
X190070948Y-67645477D01*
X190080372Y-67601454D01*
X190096078Y-67567932D01*
X190131013Y-67536127D01*
X190179277Y-67525525D01*
X190198663Y-67526333D01*
X190218049Y-67528756D01*
X190218049Y-67711309D01*
X190317403Y-67711309D01*
X190317403Y-67461712D01*
X190262071Y-67447173D01*
X190220573Y-67441115D01*
X190171199Y-67439095D01*
X190126672Y-67443235D01*
X190086789Y-67455654D01*
X190051954Y-67476252D01*
X190022572Y-67504927D01*
X189998945Y-67541680D01*
X189981377Y-67586511D01*
X189970472Y-67639317D01*
X189966837Y-67700000D01*
X189630273Y-67700000D01*
X189630273Y-67102531D01*
X189966837Y-67102531D01*
X190171199Y-67102531D01*
G37*
%TO.C,kibuzzard-67322768*%
G36*
X167276333Y-56890347D02*
G01*
X167316478Y-56905048D01*
X167345315Y-56935582D01*
X167356624Y-56985905D01*
X167324394Y-57058845D01*
X167237884Y-57080897D01*
X167163247Y-57080897D01*
X167163247Y-56890913D01*
X167195477Y-56887520D01*
X167229968Y-56886389D01*
X167276333Y-56890347D01*
G37*
G36*
X167297819Y-57219426D02*
G01*
X167324960Y-57283320D01*
X167317044Y-57323465D01*
X167295557Y-57347213D01*
X167263893Y-57358522D01*
X167226575Y-57361349D01*
X167193780Y-57360218D01*
X167163247Y-57356826D01*
X167163247Y-57196244D01*
X167217528Y-57196244D01*
X167297819Y-57219426D01*
G37*
G36*
X169564620Y-56899960D02*
G01*
X169598546Y-56952544D01*
X169614378Y-57030008D01*
X169617347Y-57075808D01*
X169618336Y-57125000D01*
X169617347Y-57174334D01*
X169614378Y-57220557D01*
X169598546Y-57298021D01*
X169565186Y-57350040D01*
X169507512Y-57369265D01*
X169449838Y-57350040D01*
X169416478Y-57297456D01*
X169400646Y-57219992D01*
X169397678Y-57174192D01*
X169396688Y-57125000D01*
X169397678Y-57075666D01*
X169400646Y-57029443D01*
X169416478Y-56951979D01*
X169449838Y-56899960D01*
X169507512Y-56880735D01*
X169564620Y-56899960D01*
G37*
G36*
X167218659Y-56288543D02*
G01*
X167808966Y-56288543D01*
X168446769Y-56288543D01*
X169012197Y-56288543D01*
X169508643Y-56288543D01*
X170191680Y-56288543D01*
X170618013Y-56288543D01*
X170875848Y-56288543D01*
X171347038Y-56288543D01*
X171848912Y-57961457D01*
X171347038Y-57961457D01*
X170875848Y-57961457D01*
X167024152Y-57961457D01*
X166552962Y-57961457D01*
X166200248Y-56785743D01*
X167024152Y-56785743D01*
X167024152Y-57465388D01*
X167111228Y-57477262D01*
X167205089Y-57482351D01*
X167276898Y-57478251D01*
X167334006Y-57465953D01*
X167412036Y-57422981D01*
X167450485Y-57363611D01*
X167460662Y-57298021D01*
X167454584Y-57251090D01*
X167436349Y-57209814D01*
X167371325Y-57148748D01*
X167431119Y-57118215D01*
X167468013Y-57078635D01*
X167487096Y-57033401D01*
X167487853Y-57027746D01*
X167572617Y-57027746D01*
X167572617Y-57474435D01*
X167712843Y-57474435D01*
X167712843Y-57036793D01*
X167717367Y-56962722D01*
X167732633Y-56914661D01*
X167762601Y-56888651D01*
X167811228Y-56880735D01*
X167859855Y-56888651D01*
X167890388Y-56915226D01*
X167906220Y-56963853D01*
X167910743Y-57037924D01*
X167910743Y-57474435D01*
X168049838Y-57474435D01*
X168049838Y-57359087D01*
X168122213Y-57359087D01*
X168122213Y-57474435D01*
X168631099Y-57474435D01*
X168631099Y-57359087D01*
X168687641Y-57359087D01*
X168687641Y-57474435D01*
X169196527Y-57474435D01*
X169196527Y-57359087D01*
X169012197Y-57359087D01*
X169012197Y-57125000D01*
X169255331Y-57125000D01*
X169259501Y-57209920D01*
X169272011Y-57283744D01*
X169292861Y-57346471D01*
X169322052Y-57398102D01*
X169372312Y-57449304D01*
X169434132Y-57480026D01*
X169507512Y-57490267D01*
X169583154Y-57480026D01*
X169594542Y-57474435D01*
X169842246Y-57474435D01*
X169954200Y-57474435D01*
X169985864Y-57422557D01*
X170017528Y-57366438D01*
X170048768Y-57308340D01*
X170079160Y-57250525D01*
X170107997Y-57193700D01*
X170134572Y-57138570D01*
X170158179Y-57087682D01*
X170178110Y-57043578D01*
X170178110Y-57474435D01*
X170303635Y-57474435D01*
X170303635Y-56812884D01*
X170400889Y-56812884D01*
X170441599Y-56925969D01*
X170514540Y-56892044D01*
X170561611Y-56880170D01*
X170618013Y-56876212D01*
X170676252Y-56883562D01*
X170713005Y-56903918D01*
X170731664Y-56933320D01*
X170736753Y-56966680D01*
X170724313Y-57005129D01*
X170692649Y-57035097D01*
X170649677Y-57058845D01*
X170602181Y-57078635D01*
X170536591Y-57104645D01*
X170474960Y-57141963D01*
X170429160Y-57197940D01*
X170411066Y-57281058D01*
X170427040Y-57368700D01*
X170474960Y-57434855D01*
X170522895Y-57465639D01*
X170581511Y-57484110D01*
X170650808Y-57490267D01*
X170711167Y-57486591D01*
X170763328Y-57475565D01*
X170844184Y-57442771D01*
X170803473Y-57335339D01*
X170740711Y-57362480D01*
X170660985Y-57373788D01*
X170599417Y-57364867D01*
X170562475Y-57338104D01*
X170550162Y-57293498D01*
X170561470Y-57257876D01*
X170590307Y-57230735D01*
X170629887Y-57209814D01*
X170673425Y-57192851D01*
X170741842Y-57165145D01*
X170807431Y-57124435D01*
X170856624Y-57061107D01*
X170871042Y-57018275D01*
X170875848Y-56965549D01*
X170859875Y-56878332D01*
X170811955Y-56813449D01*
X170762009Y-56783607D01*
X170697361Y-56765702D01*
X170618013Y-56759733D01*
X170539701Y-56764398D01*
X170478918Y-56778393D01*
X170400889Y-56812884D01*
X170303635Y-56812884D01*
X170303635Y-56774435D01*
X170191680Y-56774435D01*
X170159074Y-56852024D01*
X170124583Y-56929488D01*
X170088207Y-57006826D01*
X170049946Y-57084164D01*
X170009801Y-57161627D01*
X169967771Y-57239216D01*
X169967771Y-56774435D01*
X169842246Y-56774435D01*
X169842246Y-57474435D01*
X169594542Y-57474435D01*
X169645728Y-57449304D01*
X169695234Y-57398102D01*
X169723435Y-57346471D01*
X169743578Y-57283744D01*
X169755664Y-57209920D01*
X169759693Y-57125000D01*
X169755594Y-57040080D01*
X169743296Y-56966256D01*
X169722799Y-56903529D01*
X169694103Y-56851898D01*
X169644346Y-56800696D01*
X169582526Y-56769974D01*
X169508643Y-56759733D01*
X169432938Y-56769974D01*
X169370176Y-56800696D01*
X169320355Y-56851898D01*
X169291907Y-56903529D01*
X169271587Y-56966256D01*
X169259395Y-57040080D01*
X169255331Y-57125000D01*
X169012197Y-57125000D01*
X169012197Y-56774435D01*
X168871971Y-56774435D01*
X168871971Y-57359087D01*
X168687641Y-57359087D01*
X168631099Y-57359087D01*
X168446769Y-57359087D01*
X168446769Y-56774435D01*
X168306543Y-56774435D01*
X168306543Y-57359087D01*
X168122213Y-57359087D01*
X168049838Y-57359087D01*
X168049838Y-57027746D01*
X168047011Y-56969507D01*
X168038530Y-56916922D01*
X168022981Y-56870840D01*
X167998950Y-56832108D01*
X167966155Y-56801151D01*
X167924313Y-56778393D01*
X167872294Y-56764398D01*
X167808966Y-56759733D01*
X167746628Y-56764398D01*
X167695315Y-56778393D01*
X167622375Y-56832108D01*
X167599192Y-56870840D01*
X167583926Y-56916922D01*
X167575444Y-56969507D01*
X167572617Y-57027746D01*
X167487853Y-57027746D01*
X167493457Y-56985905D01*
X167488086Y-56927807D01*
X167471971Y-56880170D01*
X167413732Y-56812318D01*
X167373586Y-56790549D01*
X167326656Y-56776131D01*
X167274495Y-56768074D01*
X167218659Y-56765388D01*
X167171446Y-56766660D01*
X167122536Y-56770477D01*
X167073061Y-56776838D01*
X167024152Y-56785743D01*
X166200248Y-56785743D01*
X166051088Y-56288543D01*
X166552962Y-56288543D01*
X167024152Y-56288543D01*
X167218659Y-56288543D01*
G37*
%TO.C,kibuzzard-6732257B*%
G36*
X171999444Y-44026871D02*
G01*
X172792658Y-44026871D01*
X173046293Y-44026871D01*
X173719422Y-44026871D01*
X173719422Y-46373129D01*
X173046293Y-46373129D01*
X171535792Y-46373129D01*
X170862664Y-46373129D01*
X170304057Y-45535218D01*
X171535792Y-45535218D01*
X171535792Y-45700000D01*
X172262771Y-45700000D01*
X172262771Y-45535218D01*
X171999444Y-45535218D01*
X171999444Y-45042488D01*
X172367780Y-45042488D01*
X172367780Y-45205654D01*
X172621414Y-45205654D01*
X172621414Y-45486753D01*
X172792658Y-45486753D01*
X172792658Y-45205654D01*
X173046293Y-45205654D01*
X173046293Y-45042488D01*
X172792658Y-45042488D01*
X172792658Y-44761389D01*
X172621414Y-44761389D01*
X172621414Y-45042488D01*
X172367780Y-45042488D01*
X171999444Y-45042488D01*
X171999444Y-44700000D01*
X171799120Y-44700000D01*
X171799120Y-45535218D01*
X171535792Y-45535218D01*
X170304057Y-45535218D01*
X170080578Y-45200000D01*
X170862664Y-44026871D01*
X171535792Y-44026871D01*
X171999444Y-44026871D01*
G37*
%TO.C,kibuzzard-673226B7*%
G36*
X165103554Y-62284738D02*
G01*
X165119305Y-62346531D01*
X165119305Y-62399843D01*
X164983603Y-62399843D01*
X164981179Y-62376822D01*
X164980372Y-62352185D01*
X164983199Y-62319067D01*
X164993700Y-62290392D01*
X165015509Y-62269794D01*
X165051454Y-62261717D01*
X165103554Y-62284738D01*
G37*
G36*
X165292569Y-62289988D02*
G01*
X165309532Y-62305336D01*
X165317609Y-62327953D01*
X165319628Y-62354609D01*
X165318821Y-62378034D01*
X165316397Y-62399843D01*
X165201696Y-62399843D01*
X165201696Y-62361071D01*
X165218255Y-62303720D01*
X165263893Y-62284334D01*
X165292569Y-62289988D01*
G37*
G36*
X165277221Y-61884092D02*
G01*
X165301050Y-61902266D01*
X165314984Y-61930336D01*
X165319628Y-61966079D01*
X165319225Y-61979811D01*
X165317205Y-61995966D01*
X165166963Y-61995966D01*
X165166963Y-61974156D01*
X165171910Y-61930336D01*
X165186753Y-61900651D01*
X165242892Y-61878034D01*
X165277221Y-61884092D01*
G37*
G36*
X165742623Y-60609321D02*
G01*
X165742623Y-60945885D01*
X165742623Y-62499197D01*
X165742623Y-62835761D01*
X164557377Y-62835761D01*
X164557377Y-62499197D01*
X164557377Y-62360263D01*
X164893942Y-62360263D01*
X164894851Y-62393987D01*
X164897577Y-62428922D01*
X164902120Y-62464261D01*
X164908481Y-62499197D01*
X165393942Y-62499197D01*
X165402423Y-62437000D01*
X165406058Y-62369956D01*
X165403130Y-62318664D01*
X165394346Y-62277872D01*
X165363651Y-62222137D01*
X165321244Y-62194673D01*
X165274394Y-62187404D01*
X165240872Y-62191745D01*
X165211389Y-62204770D01*
X165167771Y-62251216D01*
X165145961Y-62208506D01*
X165117690Y-62182153D01*
X165085380Y-62168522D01*
X165051454Y-62163979D01*
X165009956Y-62167815D01*
X164975929Y-62179326D01*
X164927464Y-62220925D01*
X164911914Y-62249601D01*
X164901616Y-62283122D01*
X164895860Y-62320380D01*
X164893942Y-62360263D01*
X164557377Y-62360263D01*
X164557377Y-61848147D01*
X164900404Y-61848147D01*
X164947960Y-61868240D01*
X164993700Y-61891362D01*
X165038833Y-61916907D01*
X165084572Y-61944269D01*
X165084572Y-61995966D01*
X164900404Y-61995966D01*
X164900404Y-62095320D01*
X165393134Y-62095320D01*
X165399192Y-62063413D01*
X165403231Y-62028276D01*
X165405250Y-61994350D01*
X165406058Y-61966079D01*
X165403635Y-61925287D01*
X165396365Y-61888534D01*
X165384047Y-61856224D01*
X165366478Y-61828761D01*
X165315186Y-61790392D01*
X165281361Y-61780396D01*
X165242084Y-61777064D01*
X165200485Y-61781507D01*
X165162924Y-61794835D01*
X165131624Y-61818462D01*
X165108805Y-61853801D01*
X165062359Y-61824722D01*
X165009047Y-61794835D01*
X164953312Y-61766967D01*
X164900404Y-61743946D01*
X164900404Y-61848147D01*
X164557377Y-61848147D01*
X164557377Y-61743946D01*
X164557377Y-61684173D01*
X164557377Y-61363494D01*
X164900404Y-61363494D01*
X164900404Y-61684173D01*
X165400404Y-61684173D01*
X165400404Y-61381265D01*
X165318013Y-61381265D01*
X165318013Y-61584819D01*
X165205735Y-61584819D01*
X165205735Y-61407920D01*
X165123344Y-61407920D01*
X165123344Y-61584819D01*
X164982795Y-61584819D01*
X164982795Y-61363494D01*
X164900404Y-61363494D01*
X164557377Y-61363494D01*
X164557377Y-61056547D01*
X164900404Y-61056547D01*
X164953211Y-61074318D01*
X165009855Y-61092088D01*
X165067104Y-61109859D01*
X165121729Y-61127630D01*
X165068619Y-61145804D01*
X165011066Y-61164786D01*
X164953514Y-61183365D01*
X164900404Y-61200328D01*
X164900404Y-61282719D01*
X164957855Y-61288777D01*
X165018740Y-61294027D01*
X165081745Y-61298571D01*
X165145557Y-61302509D01*
X165209976Y-61305841D01*
X165274798Y-61308567D01*
X165338712Y-61310788D01*
X165400404Y-61312605D01*
X165400404Y-61220521D01*
X165351939Y-61221329D01*
X165301858Y-61222137D01*
X165251070Y-61222945D01*
X165200485Y-61223752D01*
X165150606Y-61224560D01*
X165101939Y-61225368D01*
X165055392Y-61225974D01*
X165011874Y-61226176D01*
X165068417Y-61209617D01*
X165128998Y-61191846D01*
X165183926Y-61176095D01*
X165223506Y-61164786D01*
X165223506Y-61092088D01*
X165185541Y-61082395D01*
X165135460Y-61068260D01*
X165076494Y-61051297D01*
X165011874Y-61033122D01*
X165055392Y-61033324D01*
X165101939Y-61033930D01*
X165150505Y-61034738D01*
X165200081Y-61035546D01*
X165250464Y-61036353D01*
X165301454Y-61037161D01*
X165351838Y-61037767D01*
X165400404Y-61037969D01*
X165400404Y-60945885D01*
X165338106Y-60948308D01*
X165273990Y-60950731D01*
X165209168Y-60953357D01*
X165144750Y-60956386D01*
X165081038Y-60959920D01*
X165018336Y-60964059D01*
X164957754Y-60968805D01*
X164900404Y-60974156D01*
X164900404Y-61056547D01*
X164557377Y-61056547D01*
X164557377Y-60974156D01*
X164557377Y-60945885D01*
X164557377Y-60609321D01*
X165150000Y-60214239D01*
X165742623Y-60609321D01*
G37*
%TO.C,kibuzzard-673226AF*%
G36*
X189374592Y-69602531D02*
G01*
X189705771Y-69602531D01*
X190140343Y-69602531D01*
X190513525Y-69602531D01*
X190895593Y-69602531D01*
X191139535Y-69602531D01*
X191476099Y-69602531D01*
X191874412Y-70200000D01*
X191476099Y-70797469D01*
X191139535Y-70797469D01*
X189162152Y-70797469D01*
X188825588Y-70797469D01*
X188825588Y-70120840D01*
X189162152Y-70120840D01*
X189162152Y-70202423D01*
X189288970Y-70202423D01*
X189288970Y-70342973D01*
X189374592Y-70342973D01*
X189374592Y-70202423D01*
X189501409Y-70202423D01*
X189501409Y-70120840D01*
X189374592Y-70120840D01*
X189374592Y-69980291D01*
X189288970Y-69980291D01*
X189288970Y-70120840D01*
X189162152Y-70120840D01*
X188825588Y-70120840D01*
X188825588Y-69966559D01*
X189566837Y-69966559D01*
X189586223Y-70049758D01*
X189634285Y-70032795D01*
X189666696Y-70026131D01*
X189704963Y-70023910D01*
X189748279Y-70029362D01*
X189776449Y-70045719D01*
X189797047Y-70099838D01*
X189789172Y-70133461D01*
X189765545Y-70155170D01*
X189729802Y-70166983D01*
X189685577Y-70170921D01*
X189654882Y-70170921D01*
X189654882Y-70253312D01*
X189692039Y-70253312D01*
X189722734Y-70256543D01*
X189750197Y-70267044D01*
X189769987Y-70286430D01*
X189777661Y-70317124D01*
X189761102Y-70360339D01*
X189715464Y-70376090D01*
X189659325Y-70366801D01*
X189611264Y-70343780D01*
X189575722Y-70416478D01*
X189633477Y-70445961D01*
X189671744Y-70457169D01*
X189714656Y-70460905D01*
X189753933Y-70458279D01*
X189787758Y-70450404D01*
X189839050Y-70420921D01*
X189868937Y-70376090D01*
X189878630Y-70320355D01*
X189861668Y-70263005D01*
X189816433Y-70221002D01*
X189850864Y-70201010D01*
X189876611Y-70173344D01*
X189892665Y-70138813D01*
X189898017Y-70098223D01*
X189886708Y-70034410D01*
X189872259Y-70013409D01*
X190067645Y-70013409D01*
X190073703Y-70043700D01*
X190089858Y-70065913D01*
X190112879Y-70079645D01*
X190140343Y-70084491D01*
X190190424Y-70065913D01*
X190212233Y-70013409D01*
X190193354Y-69966559D01*
X190374592Y-69966559D01*
X190393978Y-70049758D01*
X190442039Y-70032795D01*
X190474450Y-70026131D01*
X190512718Y-70023910D01*
X190556033Y-70029362D01*
X190584204Y-70045719D01*
X190604802Y-70099838D01*
X190596926Y-70133461D01*
X190573299Y-70155170D01*
X190537556Y-70166983D01*
X190493332Y-70170921D01*
X190462637Y-70170921D01*
X190462637Y-70253312D01*
X190499794Y-70253312D01*
X190530488Y-70256543D01*
X190557952Y-70267044D01*
X190577742Y-70286430D01*
X190585416Y-70317124D01*
X190568857Y-70360339D01*
X190523218Y-70376090D01*
X190467080Y-70366801D01*
X190419018Y-70343780D01*
X190383477Y-70416478D01*
X190441231Y-70445961D01*
X190479499Y-70457169D01*
X190522411Y-70460905D01*
X190561688Y-70458279D01*
X190595512Y-70450404D01*
X190596918Y-70449596D01*
X190755852Y-70449596D01*
X190860860Y-70449596D01*
X190866918Y-70407694D01*
X190875399Y-70359532D01*
X190885597Y-70307431D01*
X190896805Y-70253716D01*
X190908921Y-70199596D01*
X190921845Y-70146284D01*
X190935072Y-70096103D01*
X190948097Y-70051373D01*
X190961021Y-70095497D01*
X190973945Y-70145477D01*
X190986466Y-70198788D01*
X190998178Y-70252908D01*
X191009083Y-70306725D01*
X191019180Y-70359128D01*
X191028065Y-70407593D01*
X191035335Y-70449596D01*
X191139535Y-70449596D01*
X191128731Y-70398304D01*
X191115706Y-70341357D01*
X191100561Y-70280069D01*
X191083396Y-70215751D01*
X191070876Y-70171594D01*
X191057548Y-70126898D01*
X191043412Y-70081664D01*
X191028693Y-70036654D01*
X191013615Y-69992631D01*
X190998178Y-69949596D01*
X190895593Y-69949596D01*
X190875601Y-70008966D01*
X190854398Y-70075606D01*
X190840127Y-70122411D01*
X190826396Y-70169126D01*
X190813202Y-70215751D01*
X190800727Y-70261479D01*
X190789149Y-70305502D01*
X190778469Y-70347819D01*
X190765141Y-70404362D01*
X190755852Y-70449596D01*
X190596918Y-70449596D01*
X190646805Y-70420921D01*
X190676692Y-70376090D01*
X190686385Y-70320355D01*
X190669422Y-70263005D01*
X190624188Y-70221002D01*
X190658618Y-70201010D01*
X190684365Y-70173344D01*
X190700420Y-70138813D01*
X190705771Y-70098223D01*
X190694462Y-70034410D01*
X190659729Y-69983926D01*
X190633073Y-69964943D01*
X190599955Y-69950808D01*
X190560173Y-69942023D01*
X190513525Y-69939095D01*
X190474349Y-69941922D01*
X190434769Y-69948788D01*
X190399632Y-69957674D01*
X190374592Y-69966559D01*
X190193354Y-69966559D01*
X190190424Y-69959289D01*
X190140343Y-69940711D01*
X190112879Y-69945557D01*
X190089858Y-69959693D01*
X190073703Y-69982310D01*
X190067645Y-70013409D01*
X189872259Y-70013409D01*
X189851975Y-69983926D01*
X189825319Y-69964943D01*
X189792201Y-69950808D01*
X189752419Y-69942023D01*
X189705771Y-69939095D01*
X189666595Y-69941922D01*
X189627015Y-69948788D01*
X189591878Y-69957674D01*
X189566837Y-69966559D01*
X188825588Y-69966559D01*
X188825588Y-69602531D01*
X189162152Y-69602531D01*
X189374592Y-69602531D01*
G37*
G36*
X182397469Y-66673901D02*
G01*
X182397469Y-67010465D01*
X182397469Y-68987848D01*
X182397469Y-69324412D01*
X181202531Y-69324412D01*
X181202531Y-68987848D01*
X181202531Y-68861030D01*
X181580291Y-68861030D01*
X181720840Y-68861030D01*
X181720840Y-68987848D01*
X181802423Y-68987848D01*
X181802423Y-68861030D01*
X181942973Y-68861030D01*
X181942973Y-68775408D01*
X181802423Y-68775408D01*
X181802423Y-68648591D01*
X181720840Y-68648591D01*
X181720840Y-68775408D01*
X181580291Y-68775408D01*
X181580291Y-68861030D01*
X181202531Y-68861030D01*
X181202531Y-68775408D01*
X181202531Y-68444229D01*
X181539095Y-68444229D01*
X181541922Y-68483405D01*
X181548788Y-68522985D01*
X181557674Y-68558122D01*
X181566559Y-68583163D01*
X181649758Y-68563777D01*
X181632795Y-68515715D01*
X181626131Y-68483304D01*
X181623910Y-68445037D01*
X181629362Y-68401721D01*
X181645719Y-68373551D01*
X181699838Y-68352953D01*
X181733461Y-68360828D01*
X181755170Y-68384455D01*
X181766983Y-68420198D01*
X181770921Y-68464423D01*
X181770921Y-68495118D01*
X181853312Y-68495118D01*
X181853312Y-68457961D01*
X181856543Y-68427266D01*
X181867044Y-68399803D01*
X181886430Y-68380013D01*
X181917124Y-68372339D01*
X181960339Y-68388898D01*
X181976090Y-68434536D01*
X181966801Y-68490675D01*
X181943780Y-68538736D01*
X182016478Y-68574278D01*
X182045961Y-68516523D01*
X182057169Y-68478256D01*
X182060905Y-68435344D01*
X182058279Y-68396067D01*
X182050404Y-68362242D01*
X182020921Y-68310950D01*
X181976090Y-68281063D01*
X181920355Y-68271370D01*
X181863005Y-68288332D01*
X181821002Y-68333567D01*
X181801010Y-68299136D01*
X181773344Y-68273389D01*
X181738813Y-68257335D01*
X181698223Y-68251983D01*
X181634410Y-68263292D01*
X181583926Y-68298025D01*
X181564943Y-68324681D01*
X181550808Y-68357799D01*
X181542023Y-68397581D01*
X181539095Y-68444229D01*
X181202531Y-68444229D01*
X181202531Y-68009657D01*
X181540711Y-68009657D01*
X181545557Y-68037121D01*
X181559693Y-68060142D01*
X181582310Y-68076297D01*
X181613409Y-68082355D01*
X181643700Y-68076297D01*
X181665913Y-68060142D01*
X181679645Y-68037121D01*
X181684491Y-68009657D01*
X181665913Y-67959576D01*
X181613409Y-67937767D01*
X181559289Y-67959576D01*
X181540711Y-68009657D01*
X181202531Y-68009657D01*
X181202531Y-67636475D01*
X181539095Y-67636475D01*
X181541922Y-67675651D01*
X181548788Y-67715231D01*
X181557674Y-67750368D01*
X181566559Y-67775408D01*
X181649758Y-67756022D01*
X181632795Y-67707961D01*
X181626131Y-67675550D01*
X181623910Y-67637282D01*
X181629362Y-67593967D01*
X181645719Y-67565796D01*
X181699838Y-67545198D01*
X181733461Y-67553074D01*
X181755170Y-67576701D01*
X181766983Y-67612444D01*
X181770921Y-67656668D01*
X181770921Y-67687363D01*
X181853312Y-67687363D01*
X181853312Y-67650206D01*
X181856543Y-67619512D01*
X181867044Y-67592048D01*
X181886430Y-67572258D01*
X181917124Y-67564584D01*
X181960339Y-67581143D01*
X181976090Y-67626782D01*
X181966801Y-67682920D01*
X181943780Y-67730982D01*
X182016478Y-67766523D01*
X182045961Y-67708769D01*
X182057169Y-67670501D01*
X182060905Y-67627589D01*
X182058279Y-67588312D01*
X182050404Y-67554488D01*
X182020921Y-67503195D01*
X181976090Y-67473308D01*
X181920355Y-67463615D01*
X181863005Y-67480578D01*
X181821002Y-67525812D01*
X181801010Y-67491382D01*
X181773344Y-67465635D01*
X181738813Y-67449580D01*
X181698223Y-67444229D01*
X181634410Y-67455538D01*
X181583926Y-67490271D01*
X181564943Y-67516927D01*
X181550808Y-67550045D01*
X181542023Y-67589827D01*
X181539095Y-67636475D01*
X181202531Y-67636475D01*
X181202531Y-67254407D01*
X181202531Y-67151822D01*
X181549596Y-67151822D01*
X181549596Y-67254407D01*
X181608966Y-67274399D01*
X181675606Y-67295602D01*
X181722411Y-67309873D01*
X181769126Y-67323604D01*
X181815751Y-67336798D01*
X181861479Y-67349273D01*
X181905502Y-67360851D01*
X181947819Y-67371531D01*
X182004362Y-67384859D01*
X182049596Y-67394148D01*
X182049596Y-67289140D01*
X182007694Y-67283082D01*
X181959532Y-67274601D01*
X181907431Y-67264403D01*
X181853716Y-67253195D01*
X181799596Y-67241079D01*
X181746284Y-67228155D01*
X181696103Y-67214928D01*
X181651373Y-67201903D01*
X181695497Y-67188979D01*
X181745477Y-67176055D01*
X181798788Y-67163534D01*
X181852908Y-67151822D01*
X181906725Y-67140917D01*
X181959128Y-67130820D01*
X182007593Y-67121935D01*
X182049596Y-67114665D01*
X182049596Y-67010465D01*
X181998304Y-67021269D01*
X181941357Y-67034294D01*
X181880069Y-67049439D01*
X181815751Y-67066604D01*
X181771594Y-67079124D01*
X181726898Y-67092452D01*
X181681664Y-67106588D01*
X181636654Y-67121307D01*
X181592631Y-67136385D01*
X181549596Y-67151822D01*
X181202531Y-67151822D01*
X181202531Y-67010465D01*
X181202531Y-66673901D01*
X181800000Y-66275588D01*
X182397469Y-66673901D01*
G37*
%TO.C,kibuzzard-6732261A*%
G36*
X168297469Y-53289086D02*
G01*
X168297469Y-53625651D01*
X168297469Y-54772662D01*
X168297469Y-55109226D01*
X167102531Y-55109226D01*
X167102531Y-54772662D01*
X167102531Y-54617573D01*
X167439095Y-54617573D01*
X167442427Y-54673510D01*
X167452423Y-54716927D01*
X167477060Y-54772662D01*
X167557835Y-54743583D01*
X167533603Y-54691483D01*
X167525121Y-54657860D01*
X167522294Y-54617573D01*
X167527544Y-54575974D01*
X167542084Y-54549722D01*
X167563086Y-54536394D01*
X167586914Y-54532759D01*
X167614378Y-54541644D01*
X167635784Y-54564261D01*
X167652746Y-54594956D01*
X167666882Y-54628882D01*
X167685460Y-54675731D01*
X167712116Y-54719754D01*
X167752100Y-54752468D01*
X167811470Y-54765392D01*
X167874071Y-54753983D01*
X167921325Y-54719754D01*
X167943314Y-54685514D01*
X167956507Y-54643646D01*
X167960905Y-54594148D01*
X167958279Y-54551034D01*
X167950404Y-54513777D01*
X167926979Y-54456022D01*
X167850242Y-54485101D01*
X167869628Y-54529932D01*
X167877706Y-54586878D01*
X167871334Y-54630856D01*
X167852217Y-54657243D01*
X167820355Y-54666038D01*
X167794911Y-54657961D01*
X167775525Y-54637363D01*
X167760582Y-54609092D01*
X167748465Y-54577993D01*
X167728675Y-54529124D01*
X167699596Y-54482274D01*
X167654362Y-54447137D01*
X167623768Y-54436838D01*
X167586107Y-54433405D01*
X167523809Y-54444815D01*
X167477464Y-54479043D01*
X167456148Y-54514719D01*
X167443358Y-54560896D01*
X167439095Y-54617573D01*
X167102531Y-54617573D01*
X167102531Y-54162000D01*
X167439095Y-54162000D01*
X167446634Y-54226979D01*
X167469251Y-54280829D01*
X167506947Y-54323551D01*
X167544457Y-54347935D01*
X167589136Y-54365352D01*
X167640983Y-54375802D01*
X167700000Y-54379286D01*
X167758764Y-54375045D01*
X167810662Y-54362323D01*
X167855392Y-54342028D01*
X167892649Y-54315069D01*
X167922132Y-54281951D01*
X167943538Y-54243179D01*
X167956563Y-54199661D01*
X167960905Y-54152307D01*
X167956462Y-54104245D01*
X167946365Y-54066685D01*
X167934249Y-54039625D01*
X167924556Y-54023066D01*
X167845396Y-54048914D01*
X167865994Y-54093744D01*
X167874475Y-54153922D01*
X167865994Y-54199560D01*
X167837722Y-54239140D01*
X167784814Y-54267412D01*
X167747658Y-54275590D01*
X167702423Y-54278316D01*
X167649785Y-54275040D01*
X167606031Y-54265213D01*
X167571163Y-54248833D01*
X167536935Y-54209960D01*
X167525525Y-54152307D01*
X167534410Y-54088090D01*
X167552181Y-54047299D01*
X167473829Y-54022258D01*
X167450000Y-54079205D01*
X167441821Y-54117876D01*
X167439095Y-54162000D01*
X167102531Y-54162000D01*
X167102531Y-53939867D01*
X167449596Y-53939867D01*
X167949596Y-53939867D01*
X167949596Y-53839706D01*
X167531987Y-53839706D01*
X167531987Y-53625651D01*
X167449596Y-53625651D01*
X167449596Y-53939867D01*
X167102531Y-53939867D01*
X167102531Y-53625651D01*
X167102531Y-53289086D01*
X167700000Y-52890774D01*
X168297469Y-53289086D01*
G37*
%TO.C,kibuzzard-6732274F*%
G36*
X182562520Y-56902827D02*
G01*
X182547254Y-56972375D01*
X182529160Y-57042488D01*
X182508239Y-57117690D01*
X182487318Y-57042488D01*
X182469225Y-56972375D01*
X182453393Y-56902827D01*
X182439257Y-56830452D01*
X182576090Y-56830452D01*
X182562520Y-56902827D01*
G37*
G36*
X183084128Y-56933502D02*
G01*
X183125687Y-56954281D01*
X183157351Y-57032876D01*
X183148869Y-57080937D01*
X183123425Y-57114297D01*
X183084128Y-57133805D01*
X183034087Y-57140307D01*
X183014863Y-57139742D01*
X182992246Y-57136914D01*
X182992246Y-56926575D01*
X183022779Y-56926575D01*
X183084128Y-56933502D01*
G37*
G36*
X181941680Y-56067501D02*
G01*
X182632633Y-56067501D01*
X183345073Y-56067501D01*
X183710339Y-56067501D01*
X183894669Y-56067501D01*
X184365859Y-56067501D01*
X184865358Y-57732499D01*
X184365859Y-57732499D01*
X183894669Y-57732499D01*
X181705331Y-57732499D01*
X181234141Y-57732499D01*
X180956403Y-56806704D01*
X181705331Y-56806704D01*
X181705331Y-57253393D01*
X181845557Y-57253393D01*
X181845557Y-56815751D01*
X181850081Y-56741680D01*
X181865347Y-56693619D01*
X181895315Y-56667609D01*
X181943942Y-56659693D01*
X181992569Y-56667609D01*
X182023102Y-56694184D01*
X182038934Y-56742811D01*
X182043457Y-56816882D01*
X182043457Y-57253393D01*
X182182553Y-57253393D01*
X182182553Y-56806704D01*
X182179725Y-56748465D01*
X182171244Y-56695880D01*
X182155695Y-56649798D01*
X182131664Y-56611066D01*
X182098869Y-56580109D01*
X182057027Y-56557351D01*
X182042315Y-56553393D01*
X182236834Y-56553393D01*
X182256782Y-56634701D01*
X182276821Y-56713069D01*
X182296950Y-56788498D01*
X182317170Y-56860985D01*
X182337480Y-56930533D01*
X182362712Y-57014535D01*
X182387520Y-57096345D01*
X182411904Y-57175964D01*
X182435864Y-57253393D01*
X182587399Y-57253393D01*
X182590638Y-57243215D01*
X182853150Y-57243215D01*
X182897819Y-57251696D01*
X182947011Y-57257351D01*
X182994507Y-57260178D01*
X183034087Y-57261309D01*
X183091195Y-57257916D01*
X183142649Y-57247738D01*
X183187884Y-57230493D01*
X183226333Y-57205897D01*
X183277087Y-57138045D01*
X183385784Y-57138045D01*
X183385784Y-57253393D01*
X183894669Y-57253393D01*
X183894669Y-57138045D01*
X183710339Y-57138045D01*
X183710339Y-56553393D01*
X183570113Y-56553393D01*
X183570113Y-57138045D01*
X183385784Y-57138045D01*
X183277087Y-57138045D01*
X183280048Y-57134087D01*
X183294043Y-57086733D01*
X183298708Y-57031745D01*
X183292488Y-56973506D01*
X183273829Y-56920921D01*
X183240751Y-56877100D01*
X183191276Y-56845153D01*
X183231987Y-56780129D01*
X183273829Y-56705493D01*
X183312843Y-56627464D01*
X183345073Y-56553393D01*
X183199192Y-56553393D01*
X183171062Y-56619972D01*
X183138691Y-56684006D01*
X183102928Y-56747193D01*
X183064620Y-56811228D01*
X182992246Y-56811228D01*
X182992246Y-56553393D01*
X182853150Y-56553393D01*
X182853150Y-57243215D01*
X182590638Y-57243215D01*
X182612243Y-57175328D01*
X182637015Y-57094931D01*
X182661717Y-57012202D01*
X182686349Y-56927141D01*
X182705913Y-56857005D01*
X182725250Y-56784562D01*
X182744362Y-56709813D01*
X182763247Y-56632756D01*
X182781906Y-56553393D01*
X182632633Y-56553393D01*
X182599838Y-56715105D01*
X182413247Y-56715105D01*
X182381583Y-56553393D01*
X182236834Y-56553393D01*
X182042315Y-56553393D01*
X182005008Y-56543356D01*
X181941680Y-56538691D01*
X181879342Y-56543356D01*
X181828029Y-56557351D01*
X181755089Y-56611066D01*
X181731906Y-56649798D01*
X181716640Y-56695880D01*
X181708158Y-56748465D01*
X181705331Y-56806704D01*
X180956403Y-56806704D01*
X180734642Y-56067501D01*
X181234141Y-56067501D01*
X181705331Y-56067501D01*
X181941680Y-56067501D01*
G37*
%TO.C,kibuzzard-67322655*%
G36*
X170199192Y-53769835D02*
G01*
X170248869Y-53780740D01*
X170298950Y-53793664D01*
X170352666Y-53808607D01*
X170298950Y-53823551D01*
X170248869Y-53836475D01*
X170199192Y-53847783D01*
X170147496Y-53857880D01*
X170147496Y-53760142D01*
X170199192Y-53769835D01*
G37*
G36*
X170263005Y-54137363D02*
G01*
X170317124Y-54154326D01*
X170354685Y-54187444D01*
X170368821Y-54241563D01*
X170368417Y-54256103D01*
X170366397Y-54270643D01*
X170030372Y-54270643D01*
X170029564Y-54261757D01*
X170029564Y-54252872D01*
X170042488Y-54195925D01*
X170078029Y-54158769D01*
X170131745Y-54138575D01*
X170164358Y-54134031D01*
X170200000Y-54132517D01*
X170263005Y-54137363D01*
G37*
G36*
X170797469Y-53276566D02*
G01*
X170797469Y-53613130D01*
X170797469Y-54785182D01*
X170797469Y-55121747D01*
X169602531Y-55121747D01*
X169602531Y-54785182D01*
X169602531Y-54630093D01*
X169939095Y-54630093D01*
X169942427Y-54686030D01*
X169952423Y-54729447D01*
X169977060Y-54785182D01*
X170057835Y-54756103D01*
X170033603Y-54704003D01*
X170025121Y-54670380D01*
X170022294Y-54630093D01*
X170027544Y-54588494D01*
X170042084Y-54562242D01*
X170063086Y-54548914D01*
X170086914Y-54545279D01*
X170114378Y-54554164D01*
X170135784Y-54576782D01*
X170152746Y-54607476D01*
X170166882Y-54641402D01*
X170185460Y-54688252D01*
X170212116Y-54732274D01*
X170252100Y-54764988D01*
X170311470Y-54777912D01*
X170374071Y-54766503D01*
X170421325Y-54732274D01*
X170443314Y-54698034D01*
X170456507Y-54656166D01*
X170460905Y-54606668D01*
X170458279Y-54563555D01*
X170450404Y-54526297D01*
X170426979Y-54468542D01*
X170350242Y-54497622D01*
X170369628Y-54542452D01*
X170377706Y-54599399D01*
X170371334Y-54643376D01*
X170352217Y-54669763D01*
X170320355Y-54678559D01*
X170294911Y-54670481D01*
X170275525Y-54649883D01*
X170260582Y-54621612D01*
X170248465Y-54590513D01*
X170228675Y-54541644D01*
X170199596Y-54494794D01*
X170154362Y-54459657D01*
X170123768Y-54449358D01*
X170086107Y-54445925D01*
X170023809Y-54457335D01*
X169977464Y-54491563D01*
X169956148Y-54527239D01*
X169943358Y-54573416D01*
X169939095Y-54630093D01*
X169602531Y-54630093D01*
X169602531Y-54263373D01*
X169943134Y-54263373D01*
X169945961Y-54315473D01*
X169955250Y-54369996D01*
X170443134Y-54369996D01*
X170452827Y-54306184D01*
X170455250Y-54250449D01*
X170451616Y-54203296D01*
X170440711Y-54160384D01*
X170422032Y-54122723D01*
X170395073Y-54091321D01*
X170359733Y-54066180D01*
X170315913Y-54047299D01*
X170262904Y-54035485D01*
X170200000Y-54031547D01*
X170135683Y-54035889D01*
X170081664Y-54048914D01*
X170037338Y-54069613D01*
X170002100Y-54096975D01*
X169975545Y-54130598D01*
X169957270Y-54170077D01*
X169946668Y-54214605D01*
X169943134Y-54263373D01*
X169602531Y-54263373D01*
X169602531Y-53899076D01*
X169949596Y-53899076D01*
X169949596Y-54002468D01*
X170007674Y-53988219D01*
X170063651Y-53973906D01*
X170117528Y-53959528D01*
X170169305Y-53945085D01*
X170218982Y-53930578D01*
X170278983Y-53912555D01*
X170337419Y-53894835D01*
X170394290Y-53877418D01*
X170449596Y-53860303D01*
X170449596Y-53752064D01*
X170393836Y-53734319D01*
X170336410Y-53716624D01*
X170277317Y-53698980D01*
X170216559Y-53681386D01*
X170166462Y-53667412D01*
X170114717Y-53653599D01*
X170061325Y-53639948D01*
X170006284Y-53626458D01*
X169949596Y-53613130D01*
X169949596Y-53719754D01*
X170065105Y-53743179D01*
X170065105Y-53876458D01*
X169949596Y-53899076D01*
X169602531Y-53899076D01*
X169602531Y-53719754D01*
X169602531Y-53613130D01*
X169602531Y-53276566D01*
X170200000Y-52878253D01*
X170797469Y-53276566D01*
G37*
%TO.C,kibuzzard-67322649*%
G36*
X175263005Y-53720966D02*
G01*
X175317124Y-53737929D01*
X175354685Y-53771046D01*
X175368821Y-53825166D01*
X175368417Y-53839706D01*
X175366397Y-53854245D01*
X175030372Y-53854245D01*
X175029564Y-53845360D01*
X175029564Y-53836475D01*
X175042488Y-53779528D01*
X175078029Y-53742371D01*
X175131745Y-53722177D01*
X175164358Y-53717634D01*
X175200000Y-53716119D01*
X175263005Y-53720966D01*
G37*
G36*
X175797469Y-53278586D02*
G01*
X175797469Y-53615150D01*
X175797469Y-54783163D01*
X175797469Y-55119727D01*
X174602531Y-55119727D01*
X174602531Y-54783163D01*
X174602531Y-54578801D01*
X174939095Y-54578801D01*
X174943235Y-54623328D01*
X174955654Y-54663211D01*
X174976252Y-54698046D01*
X175004927Y-54727428D01*
X175041680Y-54751055D01*
X175086511Y-54768623D01*
X175139317Y-54779528D01*
X175200000Y-54783163D01*
X175260077Y-54778922D01*
X175312682Y-54766200D01*
X175357613Y-54746208D01*
X175394669Y-54720158D01*
X175423647Y-54688454D01*
X175444346Y-54651499D01*
X175456765Y-54610505D01*
X175460905Y-54566685D01*
X175456462Y-54514584D01*
X175446365Y-54474601D01*
X175434249Y-54446733D01*
X175424556Y-54430174D01*
X175345396Y-54456022D01*
X175365590Y-54499641D01*
X175374475Y-54552953D01*
X175361551Y-54612727D01*
X175325606Y-54652710D01*
X175270679Y-54675328D01*
X175237056Y-54680477D01*
X175200000Y-54682194D01*
X175145477Y-54679052D01*
X175101454Y-54669628D01*
X175067932Y-54653922D01*
X175036127Y-54618987D01*
X175025525Y-54570723D01*
X175026333Y-54551337D01*
X175028756Y-54531951D01*
X175211309Y-54531951D01*
X175211309Y-54432597D01*
X174961712Y-54432597D01*
X174947173Y-54487929D01*
X174941115Y-54529427D01*
X174939095Y-54578801D01*
X174602531Y-54578801D01*
X174602531Y-54274278D01*
X174949596Y-54274278D01*
X174949596Y-54363938D01*
X175449596Y-54363938D01*
X175449596Y-54283971D01*
X175412540Y-54261353D01*
X175372456Y-54238736D01*
X175330957Y-54216422D01*
X175289661Y-54194714D01*
X175249071Y-54174116D01*
X175209693Y-54155134D01*
X175173344Y-54138272D01*
X175141842Y-54124035D01*
X175449596Y-54124035D01*
X175449596Y-54034374D01*
X174949596Y-54034374D01*
X174949596Y-54114342D01*
X175005017Y-54137632D01*
X175060348Y-54162269D01*
X175115590Y-54188252D01*
X175170831Y-54215581D01*
X175226162Y-54244256D01*
X175281583Y-54274278D01*
X174949596Y-54274278D01*
X174602531Y-54274278D01*
X174602531Y-54114342D01*
X174602531Y-53846975D01*
X174943134Y-53846975D01*
X174945961Y-53899076D01*
X174955250Y-53953599D01*
X175443134Y-53953599D01*
X175452827Y-53889786D01*
X175455250Y-53834051D01*
X175451616Y-53786899D01*
X175440711Y-53743987D01*
X175422032Y-53706325D01*
X175395073Y-53674924D01*
X175359733Y-53649782D01*
X175315913Y-53630901D01*
X175262904Y-53619088D01*
X175200000Y-53615150D01*
X175135683Y-53619492D01*
X175081664Y-53632517D01*
X175037338Y-53653215D01*
X175002100Y-53680578D01*
X174975545Y-53714201D01*
X174957270Y-53753680D01*
X174946668Y-53798207D01*
X174943134Y-53846975D01*
X174602531Y-53846975D01*
X174602531Y-53615150D01*
X174602531Y-53278586D01*
X175200000Y-52880273D01*
X175797469Y-53278586D01*
G37*
%TO.C,kibuzzard-67322650*%
G36*
X179591815Y-60775893D02*
G01*
X179591815Y-61112457D01*
X179591815Y-62282086D01*
X179591815Y-62618650D01*
X178408185Y-62618650D01*
X178408185Y-62282086D01*
X178408185Y-62155268D01*
X178785945Y-62155268D01*
X178926494Y-62155268D01*
X178926494Y-62282086D01*
X179008078Y-62282086D01*
X179008078Y-62155268D01*
X179148627Y-62155268D01*
X179148627Y-62069646D01*
X179008078Y-62069646D01*
X179008078Y-61942829D01*
X178926494Y-61942829D01*
X178926494Y-62069646D01*
X178785945Y-62069646D01*
X178785945Y-62155268D01*
X178408185Y-62155268D01*
X178408185Y-62069646D01*
X178408185Y-61747352D01*
X178744750Y-61747352D01*
X178747173Y-61786932D01*
X178753231Y-61825705D01*
X178761712Y-61859226D01*
X178770598Y-61882247D01*
X178852989Y-61862053D01*
X178836834Y-61816819D01*
X178831381Y-61785923D01*
X178829564Y-61748160D01*
X178836026Y-61700099D01*
X178852585Y-61670212D01*
X178875606Y-61655268D01*
X178902262Y-61651230D01*
X178940630Y-61658095D01*
X178970517Y-61685559D01*
X178989903Y-61744121D01*
X178995053Y-61787942D01*
X178996769Y-61843475D01*
X179063914Y-61836205D01*
X179129645Y-61830551D01*
X179193558Y-61826310D01*
X179255250Y-61823281D01*
X179255250Y-61568031D01*
X179172859Y-61568031D01*
X179172859Y-61740083D01*
X179118740Y-61744121D01*
X179072698Y-61748160D01*
X179064441Y-61687040D01*
X179048286Y-61637229D01*
X179024233Y-61598726D01*
X178992461Y-61571352D01*
X178953150Y-61554927D01*
X178906300Y-61549453D01*
X178842084Y-61561569D01*
X178790792Y-61598726D01*
X178771405Y-61626795D01*
X178756866Y-61660923D01*
X178747779Y-61701108D01*
X178744750Y-61747352D01*
X178408185Y-61747352D01*
X178408185Y-61356399D01*
X178408185Y-61253814D01*
X178755250Y-61253814D01*
X178755250Y-61356399D01*
X178814620Y-61376391D01*
X178881260Y-61397595D01*
X178928065Y-61411865D01*
X178974780Y-61425597D01*
X179021405Y-61438790D01*
X179067133Y-61451265D01*
X179111156Y-61462843D01*
X179153473Y-61473524D01*
X179210016Y-61486852D01*
X179255250Y-61496141D01*
X179255250Y-61391133D01*
X179213348Y-61385074D01*
X179165186Y-61376593D01*
X179113086Y-61366395D01*
X179059370Y-61355188D01*
X179005250Y-61343071D01*
X178951939Y-61330147D01*
X178901757Y-61316920D01*
X178857027Y-61303895D01*
X178901151Y-61290971D01*
X178951131Y-61278047D01*
X179004443Y-61265527D01*
X179058562Y-61253814D01*
X179112379Y-61242910D01*
X179164782Y-61232813D01*
X179213247Y-61223927D01*
X179255250Y-61216658D01*
X179255250Y-61112457D01*
X179203958Y-61123261D01*
X179147011Y-61136286D01*
X179085723Y-61151432D01*
X179021405Y-61168596D01*
X178977248Y-61181116D01*
X178932553Y-61194444D01*
X178887318Y-61208580D01*
X178842308Y-61223299D01*
X178798286Y-61238377D01*
X178755250Y-61253814D01*
X178408185Y-61253814D01*
X178408185Y-61112457D01*
X178408185Y-60775893D01*
X179000000Y-60381350D01*
X179591815Y-60775893D01*
G37*
%TO.C,kibuzzard-6732278E*%
G36*
X234509514Y-45193743D02*
G01*
X235485281Y-45193743D01*
X236831538Y-45193743D01*
X238395710Y-47540000D01*
X236831538Y-49886257D01*
X235485281Y-49886257D01*
X233950547Y-49886257D01*
X232604290Y-49886257D01*
X232604290Y-48540000D01*
X233950547Y-48540000D01*
X234370580Y-48540000D01*
X234394812Y-48372391D01*
X234428738Y-48179742D01*
X234469530Y-47971341D01*
X234514360Y-47756478D01*
X234562825Y-47540000D01*
X234614522Y-47326753D01*
X234667430Y-47126026D01*
X234719530Y-46947108D01*
X234771226Y-47123603D01*
X234822922Y-47323522D01*
X234873003Y-47536769D01*
X234919853Y-47753247D01*
X234963472Y-47968514D01*
X235003859Y-48178126D01*
X235039400Y-48371987D01*
X235068480Y-48540000D01*
X235485281Y-48540000D01*
X235442066Y-48334830D01*
X235389966Y-48107044D01*
X235329384Y-47861890D01*
X235260725Y-47604620D01*
X235210644Y-47427991D01*
X235157333Y-47249208D01*
X235100790Y-47068271D01*
X235041913Y-46888232D01*
X234981601Y-46712141D01*
X234919853Y-46540000D01*
X234509514Y-46540000D01*
X234429546Y-46777480D01*
X234344732Y-47044039D01*
X234287650Y-47231258D01*
X234232723Y-47418119D01*
X234179950Y-47604620D01*
X234130048Y-47787532D01*
X234083737Y-47963622D01*
X234041016Y-48132892D01*
X233987704Y-48359063D01*
X233950547Y-48540000D01*
X232604290Y-48540000D01*
X232604290Y-45193743D01*
X233950547Y-45193743D01*
X234509514Y-45193743D01*
G37*
%TO.C,kibuzzard-67322649*%
G36*
X170313005Y-61045966D02*
G01*
X170367124Y-61062929D01*
X170404685Y-61096046D01*
X170418821Y-61150166D01*
X170418417Y-61164706D01*
X170416397Y-61179245D01*
X170080372Y-61179245D01*
X170079564Y-61170360D01*
X170079564Y-61161475D01*
X170092488Y-61104528D01*
X170128029Y-61067371D01*
X170181745Y-61047177D01*
X170214358Y-61042634D01*
X170250000Y-61041119D01*
X170313005Y-61045966D01*
G37*
G36*
X170847469Y-60603586D02*
G01*
X170847469Y-60940150D01*
X170847469Y-62108163D01*
X170847469Y-62444727D01*
X169652531Y-62444727D01*
X169652531Y-62108163D01*
X169652531Y-61903801D01*
X169989095Y-61903801D01*
X169993235Y-61948328D01*
X170005654Y-61988211D01*
X170026252Y-62023046D01*
X170054927Y-62052428D01*
X170091680Y-62076055D01*
X170136511Y-62093623D01*
X170189317Y-62104528D01*
X170250000Y-62108163D01*
X170310077Y-62103922D01*
X170362682Y-62091200D01*
X170407613Y-62071208D01*
X170444669Y-62045158D01*
X170473647Y-62013454D01*
X170494346Y-61976499D01*
X170506765Y-61935505D01*
X170510905Y-61891685D01*
X170506462Y-61839584D01*
X170496365Y-61799601D01*
X170484249Y-61771733D01*
X170474556Y-61755174D01*
X170395396Y-61781022D01*
X170415590Y-61824641D01*
X170424475Y-61877953D01*
X170411551Y-61937727D01*
X170375606Y-61977710D01*
X170320679Y-62000328D01*
X170287056Y-62005477D01*
X170250000Y-62007194D01*
X170195477Y-62004052D01*
X170151454Y-61994628D01*
X170117932Y-61978922D01*
X170086127Y-61943987D01*
X170075525Y-61895723D01*
X170076333Y-61876337D01*
X170078756Y-61856951D01*
X170261309Y-61856951D01*
X170261309Y-61757597D01*
X170011712Y-61757597D01*
X169997173Y-61812929D01*
X169991115Y-61854427D01*
X169989095Y-61903801D01*
X169652531Y-61903801D01*
X169652531Y-61599278D01*
X169999596Y-61599278D01*
X169999596Y-61688938D01*
X170499596Y-61688938D01*
X170499596Y-61608971D01*
X170462540Y-61586353D01*
X170422456Y-61563736D01*
X170380957Y-61541422D01*
X170339661Y-61519714D01*
X170299071Y-61499116D01*
X170259693Y-61480134D01*
X170223344Y-61463272D01*
X170191842Y-61449035D01*
X170499596Y-61449035D01*
X170499596Y-61359374D01*
X169999596Y-61359374D01*
X169999596Y-61439342D01*
X170055017Y-61462632D01*
X170110348Y-61487269D01*
X170165590Y-61513252D01*
X170220831Y-61540581D01*
X170276162Y-61569256D01*
X170331583Y-61599278D01*
X169999596Y-61599278D01*
X169652531Y-61599278D01*
X169652531Y-61439342D01*
X169652531Y-61171975D01*
X169993134Y-61171975D01*
X169995961Y-61224076D01*
X170005250Y-61278599D01*
X170493134Y-61278599D01*
X170502827Y-61214786D01*
X170505250Y-61159051D01*
X170501616Y-61111899D01*
X170490711Y-61068987D01*
X170472032Y-61031325D01*
X170445073Y-60999924D01*
X170409733Y-60974782D01*
X170365913Y-60955901D01*
X170312904Y-60944088D01*
X170250000Y-60940150D01*
X170185683Y-60944492D01*
X170131664Y-60957517D01*
X170087338Y-60978215D01*
X170052100Y-61005578D01*
X170025545Y-61039201D01*
X170007270Y-61078680D01*
X169996668Y-61123207D01*
X169993134Y-61171975D01*
X169652531Y-61171975D01*
X169652531Y-60940150D01*
X169652531Y-60603586D01*
X170250000Y-60205273D01*
X170847469Y-60603586D01*
G37*
%TD*%
%LPC*%
D13*
%TO.C,REF\u002A\u002A*%
X186860000Y-76600000D03*
%TD*%
D14*
%TO.C,J10*%
X193400000Y-67650000D03*
D15*
X193400000Y-70150000D03*
%TD*%
D16*
%TO.C,K1*%
X238800000Y-74050000D03*
X232800000Y-59850000D03*
X244800000Y-59850000D03*
X244800000Y-72050000D03*
X232800000Y-72050000D03*
%TD*%
D17*
%TO.C,J9*%
X165200000Y-59000000D03*
D18*
X167700000Y-59000000D03*
X170200000Y-59000000D03*
X172700000Y-59000000D03*
%TD*%
D19*
%TO.C,J3*%
X241700000Y-52540000D03*
D16*
X241700000Y-47460000D03*
X241700000Y-42380000D03*
%TD*%
%TO.C,K3*%
X205300000Y-74050000D03*
X199300000Y-59850000D03*
X211300000Y-59850000D03*
X211300000Y-72050000D03*
X199300000Y-72050000D03*
%TD*%
D17*
%TO.C,J5*%
X165200000Y-51700000D03*
D18*
X167700000Y-51700000D03*
X170200000Y-51700000D03*
X172700000Y-51700000D03*
X175200000Y-51700000D03*
%TD*%
D20*
%TO.C,H1*%
X165200000Y-29600000D03*
D21*
X165200000Y-29600000D03*
%TD*%
D22*
%TO.C,J7*%
X166900000Y-41700000D03*
D23*
X166900000Y-45200000D03*
%TD*%
D17*
%TO.C,J4*%
X178970000Y-59000000D03*
D18*
X181470000Y-59000000D03*
X183970000Y-59000000D03*
X186470000Y-59000000D03*
%TD*%
D20*
%TO.C,H1*%
X243200000Y-89600000D03*
D21*
X243200000Y-89600000D03*
%TD*%
D24*
%TO.C,J1*%
X187510000Y-86900000D03*
X193290000Y-86900000D03*
D25*
X186080000Y-86370000D03*
D26*
X186080000Y-90550000D03*
D25*
X194720000Y-86370000D03*
D26*
X194720000Y-90550000D03*
%TD*%
D27*
%TO.C,PS1*%
X230200000Y-45100000D03*
D28*
X230200000Y-37300000D03*
X187700000Y-52500000D03*
X187700000Y-29900000D03*
%TD*%
D14*
%TO.C,J8*%
X193400000Y-59100000D03*
D15*
X193400000Y-61600000D03*
%TD*%
D29*
%TO.C,J6*%
X186860000Y-65100000D03*
D30*
X184320000Y-65100000D03*
X181780000Y-65100000D03*
X179240000Y-65100000D03*
X176700000Y-65100000D03*
X174160000Y-65100000D03*
X171620000Y-65100000D03*
X169080000Y-65100000D03*
X166540000Y-65100000D03*
X164000000Y-65100000D03*
%TD*%
D19*
%TO.C,J2*%
X241700000Y-35680000D03*
D16*
X241700000Y-30600000D03*
%TD*%
%TO.C,K2*%
X222100000Y-74050000D03*
X216100000Y-59850000D03*
X228100000Y-59850000D03*
X228100000Y-72050000D03*
X216100000Y-72050000D03*
%TD*%
%LPD*%
M02*
