M48
; DRILL file {KiCad 8.0.6} date 2024-11-24T17:48:57+0100
; FORMAT={-:-/ absolute / inch / decimal}
; #@! TF.CreationDate,2024-11-24T17:48:57+01:00
; #@! TF.GenerationSoftware,Kicad,Pcbnew,8.0.6
; #@! TF.FileFunction,Plated,1,2,PTH
FMAT,2
INCH
; #@! TA.AperFunction,Plated,PTH,ViaDrill
T1C0.0157
; #@! TA.AperFunction,Plated,PTH,ComponentDrill
T2C0.0236
; #@! TA.AperFunction,Plated,PTH,ComponentDrill
T3C0.0374
; #@! TA.AperFunction,Plated,PTH,ComponentDrill
T4C0.0394
; #@! TA.AperFunction,Plated,PTH,ComponentDrill
T5C0.0472
; #@! TA.AperFunction,Plated,PTH,ComponentDrill
T6C0.0512
; #@! TA.AperFunction,Plated,PTH,ComponentDrill
T7C0.0598
; #@! TA.AperFunction,Plated,PTH,ComponentDrill
T8C0.1260
%
G90
G05
T1
X6.4055Y-1.4134
X6.4567Y-3.2362
X6.4843Y-3.3031
X6.4892Y-1.3588
X6.4892Y-1.406
X6.4892Y-1.4572
X6.5197Y-2.1969
X6.5669Y-3.4528
X6.5984Y-3.0276
X6.6102Y-3.5074
X6.6299Y-3.3307
X6.6339Y-1.2638
X6.6339Y-3.1772
X6.6575Y-2.8898
X6.689Y-1.4252
X6.6969Y-3.4528
X6.7244Y-2.4606
X6.7283Y-3.252
X6.7441Y-1.0709
X6.7581Y-3.3228
X6.7598Y-1.8504
X6.7756Y-2.8898
X6.7835Y-3.5807
X6.7953Y-2.4882
X6.8543Y-3.2441
X6.8642Y-3.4547
X6.8898Y-1.2638
X6.8898Y-1.3465
X6.8937Y-3.2402
X6.9149Y-2.3912
X6.9218Y-2.8853
X6.9291Y-3.3228
X6.9308Y-2.7559
X6.9395Y-3.4636
X6.9528Y-1.622
X6.9567Y-3.5074
X6.9764Y-3.3228
X6.9961Y-2.9134
X7.0Y-3.5408
X7.0236Y-2.4843
X7.0276Y-3.3228
X7.0354Y-1.2717
X7.0433Y-3.5074
X7.0787Y-3.0197
X7.0787Y-3.0709
X7.0787Y-3.2047
X7.0866Y-2.0039
X7.0906Y-1.374
X7.0942Y-3.6302
X7.1102Y-2.4843
X7.122Y-2.122
X7.122Y-2.7598
X7.2323Y-3.122
X7.2323Y-3.1732
X7.2323Y-3.2205
X7.252Y-2.9173
X7.2638Y-2.8543
X7.3189Y-1.4213
X7.3371Y-3.248
X7.3386Y-1.9291
X7.3661Y-2.1693
X7.3898Y-2.4094
X7.4016Y-2.7126
X7.4094Y-2.8819
X7.4134Y-3.4646
X7.4267Y-3.248
X7.4409Y-2.6772
X7.4803Y-3.0906
X7.4921Y-3.6063
X7.5197Y-2.9134
X7.5512Y-3.2362
X7.5709Y-1.8307
X7.5748Y-1.5984
X7.5787Y-1.3858
X7.5827Y-1.1339
X7.5984Y-2.6811
X7.6063Y-2.0551
X7.6417Y-2.5906
X7.6535Y-3.0236
X7.6732Y-3.3307
X7.7756Y-3.5394
X7.7953Y-3.2244
X7.9094Y-3.0118
X7.964Y-3.1961
X8.0118Y-3.4961
X8.2126Y-3.1299
X8.3583Y-3.2047
X8.3661Y-3.0512
X8.4291Y-3.378
X8.4409Y-3.2244
X8.5591Y-3.6299
X8.5748Y-3.0
X8.6102Y-3.2126
X8.8583Y-3.1299
X9.0039Y-3.1969
X9.0236Y-3.0472
X9.0591Y-3.378
X9.0827Y-3.2244
X9.2351Y-3.0224
X9.4252Y-3.626
X9.4843Y-3.1299
X9.6142Y-3.1181
T3
X6.5039Y-2.0354
X6.5039Y-2.3228
X6.6024Y-2.0354
X6.6024Y-2.3228
X6.7008Y-2.0354
X6.7008Y-2.3228
X6.7992Y-2.0354
X6.7992Y-2.3228
X6.8976Y-2.0354
X7.0461Y-2.3228
X7.1445Y-2.3228
X7.2429Y-2.3228
X7.3413Y-2.3228
T4
X6.4567Y-2.563
X6.5567Y-2.563
X6.6567Y-2.563
X6.7567Y-2.563
X6.8567Y-2.563
X6.9567Y-2.563
X7.0567Y-2.563
X7.1567Y-2.563
X7.2567Y-2.563
X7.3567Y-2.563
X7.6142Y-2.3268
X7.6142Y-2.4252
X7.6142Y-2.6634
X7.6142Y-2.7618
T5
X6.5709Y-1.6417
X6.5709Y-1.7795
T6
X7.3898Y-1.1772
X7.3898Y-2.0669
X7.8465Y-2.3563
X7.8465Y-2.8366
X8.0827Y-2.9154
X8.3189Y-2.3563
X8.3189Y-2.8366
X8.5079Y-2.3563
X8.5079Y-2.8366
X8.7441Y-2.9154
X8.9803Y-2.3563
X8.9803Y-2.8366
X9.063Y-1.4685
X9.063Y-1.7756
X9.1654Y-2.3563
X9.1654Y-2.8366
X9.4016Y-2.9154
X9.6378Y-2.3563
X9.6378Y-2.8366
T7
X9.5157Y-1.2047
X9.5157Y-1.4047
X9.5157Y-1.6685
X9.5157Y-1.8685
X9.5157Y-2.0685
T8
X6.5039Y-1.1654
X9.5748Y-3.5276
T2
G00X7.326Y-3.3787
M15
G01X7.326Y-3.422
M16
G05
G00X7.326Y-3.5531
M15
G01X7.326Y-3.5768
M16
G05
G00X7.6661Y-3.3787
M15
G01X7.6661Y-3.422
M16
G05
G00X7.6661Y-3.5531
M15
G01X7.6661Y-3.5768
M16
G05
M30
