%TF.GenerationSoftware,KiCad,Pcbnew,8.0.6*%
%TF.CreationDate,2024-11-24T17:38:41+01:00*%
%TF.ProjectId,Gaggimate,47616767-696d-4617-9465-2e6b69636164,1.0*%
%TF.SameCoordinates,Original*%
%TF.FileFunction,Soldermask,Top*%
%TF.FilePolarity,Negative*%
%FSLAX46Y46*%
G04 Gerber Fmt 4.6, Leading zero omitted, Abs format (unit mm)*
G04 Created by KiCad (PCBNEW 8.0.6) date 2024-11-24 17:38:41*
%MOMM*%
%LPD*%
G01*
G04 APERTURE LIST*
G04 Aperture macros list*
%AMRoundRect*
0 Rectangle with rounded corners*
0 $1 Rounding radius*
0 $2 $3 $4 $5 $6 $7 $8 $9 X,Y pos of 4 corners*
0 Add a 4 corners polygon primitive as box body*
4,1,4,$2,$3,$4,$5,$6,$7,$8,$9,$2,$3,0*
0 Add four circle primitives for the rounded corners*
1,1,$1+$1,$2,$3*
1,1,$1+$1,$4,$5*
1,1,$1+$1,$6,$7*
1,1,$1+$1,$8,$9*
0 Add four rect primitives between the rounded corners*
20,1,$1+$1,$2,$3,$4,$5,0*
20,1,$1+$1,$4,$5,$6,$7,0*
20,1,$1+$1,$6,$7,$8,$9,0*
20,1,$1+$1,$8,$9,$2,$3,0*%
G04 Aperture macros list end*
%ADD10C,0.125000*%
%ADD11C,0.187500*%
%ADD12C,0.750000*%
%ADD13C,2.500000*%
%ADD14R,1.100000X1.800000*%
%ADD15RoundRect,0.250000X-0.750000X0.600000X-0.750000X-0.600000X0.750000X-0.600000X0.750000X0.600000X0*%
%ADD16O,2.000000X1.700000*%
%ADD17RoundRect,0.250000X0.475000X-0.250000X0.475000X0.250000X-0.475000X0.250000X-0.475000X-0.250000X0*%
%ADD18RoundRect,0.150000X0.587500X0.150000X-0.587500X0.150000X-0.587500X-0.150000X0.587500X-0.150000X0*%
%ADD19R,0.900000X1.500000*%
%ADD20R,1.500000X0.900000*%
%ADD21R,0.900000X0.900000*%
%ADD22C,3.000000*%
%ADD23C,1.500000*%
%ADD24RoundRect,0.250000X-0.450000X0.262500X-0.450000X-0.262500X0.450000X-0.262500X0.450000X0.262500X0*%
%ADD25RoundRect,0.243750X-0.456250X0.243750X-0.456250X-0.243750X0.456250X-0.243750X0.456250X0.243750X0*%
%ADD26RoundRect,0.243750X-0.243750X-0.456250X0.243750X-0.456250X0.243750X0.456250X-0.243750X0.456250X0*%
%ADD27RoundRect,0.250000X-0.600000X-0.725000X0.600000X-0.725000X0.600000X0.725000X-0.600000X0.725000X0*%
%ADD28O,1.700000X1.950000*%
%ADD29RoundRect,0.150000X0.512500X0.150000X-0.512500X0.150000X-0.512500X-0.150000X0.512500X-0.150000X0*%
%ADD30R,3.000000X3.000000*%
%ADD31RoundRect,0.250000X-0.262500X-0.450000X0.262500X-0.450000X0.262500X0.450000X-0.262500X0.450000X0*%
%ADD32C,3.600000*%
%ADD33C,5.600000*%
%ADD34RoundRect,0.225000X-0.375000X0.225000X-0.375000X-0.225000X0.375000X-0.225000X0.375000X0.225000X0*%
%ADD35RoundRect,0.250000X0.262500X0.450000X-0.262500X0.450000X-0.262500X-0.450000X0.262500X-0.450000X0*%
%ADD36R,2.400000X2.400000*%
%ADD37C,2.400000*%
%ADD38RoundRect,0.225000X0.225000X0.375000X-0.225000X0.375000X-0.225000X-0.375000X0.225000X-0.375000X0*%
%ADD39RoundRect,0.150000X0.825000X0.150000X-0.825000X0.150000X-0.825000X-0.150000X0.825000X-0.150000X0*%
%ADD40RoundRect,0.250000X-0.475000X0.250000X-0.475000X-0.250000X0.475000X-0.250000X0.475000X0.250000X0*%
%ADD41C,0.650000*%
%ADD42R,0.600000X1.450000*%
%ADD43R,0.300000X1.450000*%
%ADD44O,1.000000X2.100000*%
%ADD45O,1.000000X1.600000*%
%ADD46R,2.600000X2.000000*%
%ADD47C,2.600000*%
%ADD48RoundRect,0.218750X-0.218750X-0.256250X0.218750X-0.256250X0.218750X0.256250X-0.218750X0.256250X0*%
%ADD49R,1.700000X1.700000*%
%ADD50O,1.700000X1.700000*%
%ADD51R,2.000000X1.500000*%
%ADD52R,2.000000X3.800000*%
%ADD53RoundRect,0.250000X-0.250000X-0.475000X0.250000X-0.475000X0.250000X0.475000X-0.250000X0.475000X0*%
G04 APERTURE END LIST*
D10*
G36*
X233498296Y-90852014D02*
G01*
X233547994Y-90857764D01*
X233600613Y-90869030D01*
X233648775Y-90885303D01*
X233660119Y-90890153D01*
X233707256Y-90915447D01*
X233747823Y-90946267D01*
X233781822Y-90982612D01*
X233797872Y-91005191D01*
X233821249Y-91049765D01*
X233836976Y-91099129D01*
X233845051Y-91153286D01*
X233846232Y-91185443D01*
X233843210Y-91235650D01*
X233832584Y-91287790D01*
X233814307Y-91335332D01*
X233797872Y-91364473D01*
X233767522Y-91403769D01*
X233730604Y-91437579D01*
X233687117Y-91465903D01*
X233660119Y-91479267D01*
X233622128Y-91493417D01*
X233861619Y-91830000D01*
X233748291Y-91830000D01*
X233524465Y-91514521D01*
X233512844Y-91516154D01*
X233460708Y-91519166D01*
X233445185Y-91519323D01*
X233181892Y-91519323D01*
X233181892Y-91830000D01*
X233079310Y-91830000D01*
X233079310Y-91430907D01*
X233181892Y-91430907D01*
X233443231Y-91430907D01*
X233495796Y-91428640D01*
X233550849Y-91420265D01*
X233599146Y-91405719D01*
X233646071Y-91381539D01*
X233666225Y-91366427D01*
X233703180Y-91325943D01*
X233728041Y-91277306D01*
X233739986Y-91227228D01*
X233742673Y-91185443D01*
X233739015Y-91136604D01*
X233725875Y-91087057D01*
X233699671Y-91039309D01*
X233666225Y-91003970D01*
X233623712Y-90975974D01*
X233572375Y-90955976D01*
X233520217Y-90945040D01*
X233470134Y-90940541D01*
X233443231Y-90939979D01*
X233181892Y-90939979D01*
X233181892Y-91430907D01*
X233079310Y-91430907D01*
X233079310Y-90850097D01*
X233445185Y-90850097D01*
X233498296Y-90852014D01*
G37*
G36*
X234382589Y-91836594D02*
G01*
X234333783Y-91834292D01*
X234281210Y-91826022D01*
X234232056Y-91811737D01*
X234186321Y-91791438D01*
X234180845Y-91788478D01*
X234139644Y-91762131D01*
X234099023Y-91727015D01*
X234064468Y-91686104D01*
X234044802Y-91655610D01*
X234023430Y-91611631D01*
X234008165Y-91564691D01*
X233999006Y-91514789D01*
X233995953Y-91461926D01*
X233998853Y-91408787D01*
X234007555Y-91358794D01*
X234022056Y-91311945D01*
X234042359Y-91268241D01*
X234071382Y-91223702D01*
X234105969Y-91184882D01*
X234146120Y-91151780D01*
X234170831Y-91135861D01*
X234218654Y-91112602D01*
X234269801Y-91096955D01*
X234324270Y-91088920D01*
X234355967Y-91087745D01*
X234406098Y-91090692D01*
X234459138Y-91101049D01*
X234508623Y-91118865D01*
X234539638Y-91134884D01*
X234582350Y-91164238D01*
X234619536Y-91199542D01*
X234651198Y-91240797D01*
X234666400Y-91266287D01*
X234688714Y-91315830D01*
X234702418Y-91363469D01*
X234710353Y-91414496D01*
X234712561Y-91461926D01*
X234712073Y-91476336D01*
X234711096Y-91491967D01*
X234071668Y-91491967D01*
X234071668Y-91417718D01*
X234658340Y-91417718D01*
X234618528Y-91447515D01*
X234614905Y-91394991D01*
X234603027Y-91346566D01*
X234585067Y-91306099D01*
X234555918Y-91263314D01*
X234519762Y-91228017D01*
X234491766Y-91208646D01*
X234445077Y-91186916D01*
X234393306Y-91175215D01*
X234355967Y-91172986D01*
X234305511Y-91177200D01*
X234254878Y-91191408D01*
X234219924Y-91208646D01*
X234178868Y-91239020D01*
X234145094Y-91277018D01*
X234126623Y-91306587D01*
X234107572Y-91351628D01*
X234096429Y-91401114D01*
X234093162Y-91449958D01*
X234093162Y-91466566D01*
X234096763Y-91516479D01*
X234109045Y-91567140D01*
X234130042Y-91613356D01*
X234159000Y-91653892D01*
X234194827Y-91687848D01*
X234233357Y-91713007D01*
X234281143Y-91733448D01*
X234333488Y-91745405D01*
X234385032Y-91748911D01*
X234434548Y-91745545D01*
X234485013Y-91734302D01*
X234510817Y-91724975D01*
X234555226Y-91701258D01*
X234593991Y-91669397D01*
X234609979Y-91651946D01*
X234665911Y-91716915D01*
X234629303Y-91753896D01*
X234586980Y-91784239D01*
X234543545Y-91806064D01*
X234496448Y-91822164D01*
X234446440Y-91832301D01*
X234393522Y-91836475D01*
X234382589Y-91836594D01*
G37*
G36*
X235090894Y-91830000D02*
G01*
X234764097Y-91094340D01*
X234868633Y-91094340D01*
X235167830Y-91776266D01*
X235118493Y-91776266D01*
X235421598Y-91094340D01*
X235520517Y-91094340D01*
X235192743Y-91830000D01*
X235090894Y-91830000D01*
G37*
G36*
X236130391Y-91830000D02*
G01*
X236130391Y-90892351D01*
X236175576Y-90939979D01*
X235899826Y-90939979D01*
X235899826Y-90850097D01*
X236232240Y-90850097D01*
X236232240Y-91830000D01*
X236130391Y-91830000D01*
G37*
G36*
X236541208Y-91836594D02*
G01*
X236493951Y-91819951D01*
X236488207Y-91814856D01*
X236466524Y-91770459D01*
X236465981Y-91760635D01*
X236481804Y-91712624D01*
X236488207Y-91705680D01*
X236533701Y-91684763D01*
X236541208Y-91684431D01*
X236588091Y-91700700D01*
X236593720Y-91705680D01*
X236615165Y-91750406D01*
X236615702Y-91760635D01*
X236600053Y-91807737D01*
X236593720Y-91814856D01*
X236548707Y-91836254D01*
X236541208Y-91836594D01*
G37*
G36*
X237192619Y-90844800D02*
G01*
X237244688Y-90856020D01*
X237293613Y-90874720D01*
X237339393Y-90900900D01*
X237381220Y-90933949D01*
X237418284Y-90973501D01*
X237446808Y-91013443D01*
X237471685Y-91058365D01*
X237478123Y-91072114D01*
X237497823Y-91123086D01*
X237510858Y-91170181D01*
X237520337Y-91220419D01*
X237526262Y-91273799D01*
X237528632Y-91330322D01*
X237528682Y-91340048D01*
X237526904Y-91397021D01*
X237521572Y-91450885D01*
X237512685Y-91501641D01*
X237500242Y-91549288D01*
X237481234Y-91600948D01*
X237478123Y-91607983D01*
X237454288Y-91654338D01*
X237426806Y-91695738D01*
X237390932Y-91736985D01*
X237350296Y-91771759D01*
X237339393Y-91779441D01*
X237293613Y-91805514D01*
X237244688Y-91824138D01*
X237192619Y-91835312D01*
X237137404Y-91839036D01*
X237082389Y-91835312D01*
X237030426Y-91824138D01*
X236981516Y-91805514D01*
X236935660Y-91779441D01*
X236893711Y-91746285D01*
X236856525Y-91706657D01*
X236827894Y-91666673D01*
X236802910Y-91621733D01*
X236796441Y-91607983D01*
X236776837Y-91556927D01*
X236763865Y-91509798D01*
X236754431Y-91459560D01*
X236748535Y-91406214D01*
X236746177Y-91349760D01*
X236746127Y-91340048D01*
X236849442Y-91340048D01*
X236851172Y-91395407D01*
X236856361Y-91446931D01*
X236866528Y-91501123D01*
X236881213Y-91550307D01*
X236885590Y-91561821D01*
X236908340Y-91609352D01*
X236935650Y-91650006D01*
X236971342Y-91687110D01*
X236987195Y-91699574D01*
X237029990Y-91724303D01*
X237076554Y-91739874D01*
X237126886Y-91746285D01*
X237137404Y-91746468D01*
X237189168Y-91741889D01*
X237236685Y-91728150D01*
X237279957Y-91705252D01*
X237288102Y-91699574D01*
X237325764Y-91665866D01*
X237357845Y-91623668D01*
X237381946Y-91578429D01*
X237388975Y-91561821D01*
X237404896Y-91513888D01*
X237416269Y-91460949D01*
X237422488Y-91410519D01*
X237425225Y-91356256D01*
X237425367Y-91340048D01*
X237423625Y-91284428D01*
X237418401Y-91232758D01*
X237408166Y-91178544D01*
X237393381Y-91129489D01*
X237388975Y-91118032D01*
X237366381Y-91070618D01*
X237335975Y-91025958D01*
X237299987Y-90989741D01*
X237288102Y-90980523D01*
X237245679Y-90955664D01*
X237199011Y-90940013D01*
X237148097Y-90933568D01*
X237137404Y-90933384D01*
X237086319Y-90937987D01*
X237039001Y-90951798D01*
X236995453Y-90974815D01*
X236987195Y-90980523D01*
X236949252Y-91014206D01*
X236916937Y-91056334D01*
X236892667Y-91101467D01*
X236885590Y-91118032D01*
X236869775Y-91165796D01*
X236858479Y-91218721D01*
X236852302Y-91269262D01*
X236849583Y-91323754D01*
X236849442Y-91340048D01*
X236746127Y-91340048D01*
X236747896Y-91283001D01*
X236753203Y-91229097D01*
X236762047Y-91178336D01*
X236774429Y-91130717D01*
X236793346Y-91079134D01*
X236796441Y-91072114D01*
X236820384Y-91025770D01*
X236847973Y-90984405D01*
X236883968Y-90943227D01*
X236924726Y-90908552D01*
X236935660Y-90900900D01*
X236981516Y-90874720D01*
X237030426Y-90856020D01*
X237082389Y-90844800D01*
X237137404Y-90841060D01*
X237192619Y-90844800D01*
G37*
D11*
G36*
X225027930Y-90439001D02*
G01*
X225027930Y-87205323D01*
X225308419Y-87205323D01*
X226786625Y-89728913D01*
X226637515Y-89728913D01*
X228103632Y-87205323D01*
X228383314Y-87205323D01*
X228385732Y-90439001D01*
X228057690Y-90439001D01*
X228055272Y-87718746D01*
X228136678Y-87718746D01*
X226785819Y-90026328D01*
X226625425Y-90026328D01*
X225264895Y-87718746D01*
X225355973Y-87718746D01*
X225355973Y-90439001D01*
X225027930Y-90439001D01*
G37*
G36*
X228920917Y-90439001D02*
G01*
X230398318Y-87205323D01*
X230734420Y-87205323D01*
X232215045Y-90439001D01*
X231854762Y-90439001D01*
X230495038Y-87401987D01*
X230635282Y-87401987D01*
X229275558Y-90439001D01*
X228920917Y-90439001D01*
G37*
G36*
X229501238Y-89576579D02*
G01*
X229602794Y-89297703D01*
X231484002Y-89297703D01*
X231587976Y-89576579D01*
X229501238Y-89576579D01*
G37*
G36*
X233216905Y-90439001D02*
G01*
X233216905Y-87501931D01*
X232078831Y-87501931D01*
X232078831Y-87205323D01*
X234694305Y-87205323D01*
X234694305Y-87501931D01*
X233555425Y-87501931D01*
X233555425Y-90439001D01*
X233216905Y-90439001D01*
G37*
G36*
X235543025Y-88650483D02*
G01*
X237252554Y-88650483D01*
X237252554Y-88942256D01*
X235543025Y-88942256D01*
X235543025Y-88650483D01*
G37*
G36*
X235576877Y-90141586D02*
G01*
X237522564Y-90141586D01*
X237522564Y-90439001D01*
X235238356Y-90439001D01*
X235238356Y-87205323D01*
X237455666Y-87205323D01*
X237455666Y-87501931D01*
X235576877Y-87501931D01*
X235576877Y-90141586D01*
G37*
D12*
G36*
X210943269Y-90493809D02*
G01*
X210779292Y-90487946D01*
X210598786Y-90466889D01*
X210425634Y-90430519D01*
X210259837Y-90378834D01*
X210239630Y-90371296D01*
X210084122Y-90303643D01*
X209939193Y-90223194D01*
X209804842Y-90129949D01*
X209681071Y-90023910D01*
X209569188Y-89906133D01*
X209470503Y-89778482D01*
X209385016Y-89640958D01*
X209312728Y-89493561D01*
X209255250Y-89337045D01*
X209214194Y-89172974D01*
X209189561Y-89001346D01*
X209181350Y-88822162D01*
X209189561Y-88642978D01*
X209214194Y-88471350D01*
X209255250Y-88307278D01*
X209312728Y-88150763D01*
X209385117Y-88003063D01*
X209470906Y-87865438D01*
X209570094Y-87737888D01*
X209682683Y-87620414D01*
X209807663Y-87514374D01*
X209943223Y-87421130D01*
X210089361Y-87340681D01*
X210246078Y-87273027D01*
X210412064Y-87219428D01*
X210586009Y-87181143D01*
X210767913Y-87158172D01*
X210933609Y-87150634D01*
X210957777Y-87150515D01*
X211141952Y-87157341D01*
X211317874Y-87177821D01*
X211485542Y-87211954D01*
X211644956Y-87259741D01*
X211732344Y-87293177D01*
X211897877Y-87372266D01*
X212049506Y-87467676D01*
X212187231Y-87579408D01*
X212311053Y-87707462D01*
X211833900Y-88151569D01*
X211708010Y-88034899D01*
X211575262Y-87940897D01*
X211448632Y-87875110D01*
X211287608Y-87820100D01*
X211115249Y-87790480D01*
X210994047Y-87784838D01*
X210824673Y-87795379D01*
X210665954Y-87827002D01*
X210566060Y-87859796D01*
X210417014Y-87931208D01*
X210276141Y-88031618D01*
X210230764Y-88073386D01*
X210120238Y-88204012D01*
X210034087Y-88354693D01*
X210013949Y-88401429D01*
X209964895Y-88562242D01*
X209941811Y-88722964D01*
X209938185Y-88822162D01*
X209948839Y-88986057D01*
X209984428Y-89152866D01*
X210013949Y-89238058D01*
X210086671Y-89384229D01*
X210188492Y-89522899D01*
X210230764Y-89567713D01*
X210363748Y-89677688D01*
X210504362Y-89758258D01*
X210562836Y-89783721D01*
X210724826Y-89832776D01*
X210886398Y-89855860D01*
X210985987Y-89859485D01*
X211151394Y-89849398D01*
X211312720Y-89819135D01*
X211418004Y-89787751D01*
X211574041Y-89719292D01*
X211715083Y-89631844D01*
X211829064Y-89542727D01*
X212252215Y-90081942D01*
X212114439Y-90176697D01*
X211966286Y-90259464D01*
X211807756Y-90330241D01*
X211638848Y-90389028D01*
X211464802Y-90434870D01*
X211290857Y-90467614D01*
X211117013Y-90487260D01*
X210943269Y-90493809D01*
G37*
G36*
X211569532Y-89985222D02*
G01*
X211569532Y-88770578D01*
X212252215Y-88770578D01*
X212252215Y-90081942D01*
X211569532Y-89985222D01*
G37*
G36*
X212515778Y-90439001D02*
G01*
X213957714Y-87205323D01*
X214697623Y-87205323D01*
X216141978Y-90439001D01*
X215360963Y-90439001D01*
X214174528Y-87585756D01*
X214471137Y-87585756D01*
X213284703Y-90439001D01*
X212515778Y-90439001D01*
G37*
G36*
X213239567Y-89747451D02*
G01*
X213436231Y-89179220D01*
X215102236Y-89179220D01*
X215301318Y-89747451D01*
X213239567Y-89747451D01*
G37*
G36*
X217994169Y-90493809D02*
G01*
X217830193Y-90487946D01*
X217649686Y-90466889D01*
X217476534Y-90430519D01*
X217310737Y-90378834D01*
X217290530Y-90371296D01*
X217135022Y-90303643D01*
X216990093Y-90223194D01*
X216855742Y-90129949D01*
X216731971Y-90023910D01*
X216620088Y-89906133D01*
X216521403Y-89778482D01*
X216435917Y-89640958D01*
X216363628Y-89493561D01*
X216306150Y-89337045D01*
X216265095Y-89172974D01*
X216240461Y-89001346D01*
X216232250Y-88822162D01*
X216240461Y-88642978D01*
X216265095Y-88471350D01*
X216306150Y-88307278D01*
X216363628Y-88150763D01*
X216436017Y-88003063D01*
X216521806Y-87865438D01*
X216620995Y-87737888D01*
X216733583Y-87620414D01*
X216858563Y-87514374D01*
X216994123Y-87421130D01*
X217140261Y-87340681D01*
X217296978Y-87273027D01*
X217462964Y-87219428D01*
X217636909Y-87181143D01*
X217818813Y-87158172D01*
X217984509Y-87150634D01*
X218008677Y-87150515D01*
X218192852Y-87157341D01*
X218368774Y-87177821D01*
X218536442Y-87211954D01*
X218695856Y-87259741D01*
X218783244Y-87293177D01*
X218948777Y-87372266D01*
X219100406Y-87467676D01*
X219238131Y-87579408D01*
X219361953Y-87707462D01*
X218884801Y-88151569D01*
X218758910Y-88034899D01*
X218626162Y-87940897D01*
X218499532Y-87875110D01*
X218338508Y-87820100D01*
X218166150Y-87790480D01*
X218044947Y-87784838D01*
X217875574Y-87795379D01*
X217716854Y-87827002D01*
X217616960Y-87859796D01*
X217467915Y-87931208D01*
X217327041Y-88031618D01*
X217281664Y-88073386D01*
X217171138Y-88204012D01*
X217084987Y-88354693D01*
X217064849Y-88401429D01*
X217015795Y-88562242D01*
X216992711Y-88722964D01*
X216989085Y-88822162D01*
X216999740Y-88986057D01*
X217035328Y-89152866D01*
X217064849Y-89238058D01*
X217137571Y-89384229D01*
X217239392Y-89522899D01*
X217281664Y-89567713D01*
X217414648Y-89677688D01*
X217555262Y-89758258D01*
X217613736Y-89783721D01*
X217775726Y-89832776D01*
X217937298Y-89855860D01*
X218036887Y-89859485D01*
X218202294Y-89849398D01*
X218363620Y-89819135D01*
X218468904Y-89787751D01*
X218624941Y-89719292D01*
X218765983Y-89631844D01*
X218879965Y-89542727D01*
X219303115Y-90081942D01*
X219165339Y-90176697D01*
X219017186Y-90259464D01*
X218858656Y-90330241D01*
X218689748Y-90389028D01*
X218515702Y-90434870D01*
X218341757Y-90467614D01*
X218167913Y-90487260D01*
X217994169Y-90493809D01*
G37*
G36*
X218620432Y-89985222D02*
G01*
X218620432Y-88770578D01*
X219303115Y-88770578D01*
X219303115Y-90081942D01*
X218620432Y-89985222D01*
G37*
G36*
X221553471Y-90493809D02*
G01*
X221389495Y-90487946D01*
X221208988Y-90466889D01*
X221035837Y-90430519D01*
X220870040Y-90378834D01*
X220849832Y-90371296D01*
X220694324Y-90303643D01*
X220549395Y-90223194D01*
X220415045Y-90129949D01*
X220291273Y-90023910D01*
X220179390Y-89906133D01*
X220080705Y-89778482D01*
X219995219Y-89640958D01*
X219922930Y-89493561D01*
X219865452Y-89337045D01*
X219824397Y-89172974D01*
X219799763Y-89001346D01*
X219791552Y-88822162D01*
X219799763Y-88642978D01*
X219824397Y-88471350D01*
X219865452Y-88307278D01*
X219922930Y-88150763D01*
X219995319Y-88003063D01*
X220081108Y-87865438D01*
X220180297Y-87737888D01*
X220292885Y-87620414D01*
X220417866Y-87514374D01*
X220553425Y-87421130D01*
X220699563Y-87340681D01*
X220856280Y-87273027D01*
X221022266Y-87219428D01*
X221196211Y-87181143D01*
X221378116Y-87158172D01*
X221543811Y-87150634D01*
X221567979Y-87150515D01*
X221752155Y-87157341D01*
X221928076Y-87177821D01*
X222095744Y-87211954D01*
X222255158Y-87259741D01*
X222342547Y-87293177D01*
X222508079Y-87372266D01*
X222659708Y-87467676D01*
X222797434Y-87579408D01*
X222921256Y-87707462D01*
X222444103Y-88151569D01*
X222318212Y-88034899D01*
X222185464Y-87940897D01*
X222058834Y-87875110D01*
X221897810Y-87820100D01*
X221725452Y-87790480D01*
X221604249Y-87784838D01*
X221434876Y-87795379D01*
X221276156Y-87827002D01*
X221176263Y-87859796D01*
X221027217Y-87931208D01*
X220886343Y-88031618D01*
X220840966Y-88073386D01*
X220730440Y-88204012D01*
X220644289Y-88354693D01*
X220624152Y-88401429D01*
X220575097Y-88562242D01*
X220552013Y-88722964D01*
X220548387Y-88822162D01*
X220559042Y-88986057D01*
X220594630Y-89152866D01*
X220624152Y-89238058D01*
X220696874Y-89384229D01*
X220798694Y-89522899D01*
X220840966Y-89567713D01*
X220973950Y-89677688D01*
X221114564Y-89758258D01*
X221173039Y-89783721D01*
X221335028Y-89832776D01*
X221496600Y-89855860D01*
X221596189Y-89859485D01*
X221761596Y-89849398D01*
X221922922Y-89819135D01*
X222028206Y-89787751D01*
X222184243Y-89719292D01*
X222325285Y-89631844D01*
X222439267Y-89542727D01*
X222862418Y-90081942D01*
X222724642Y-90176697D01*
X222576489Y-90259464D01*
X222417958Y-90330241D01*
X222249050Y-90389028D01*
X222075005Y-90434870D01*
X221901059Y-90467614D01*
X221727215Y-90487260D01*
X221553471Y-90493809D01*
G37*
G36*
X222179734Y-89985222D02*
G01*
X222179734Y-88770578D01*
X222862418Y-88770578D01*
X222862418Y-90081942D01*
X222179734Y-89985222D01*
G37*
G36*
X223552355Y-90439001D02*
G01*
X223552355Y-87205323D01*
X224302742Y-87205323D01*
X224302742Y-90439001D01*
X223552355Y-90439001D01*
G37*
D13*
%TO.C,REF\u002A\u002A*%
X186860000Y-76600000D03*
%TD*%
D14*
%TO.C,SW1*%
X207350000Y-85600000D03*
X207350000Y-91800000D03*
X203650000Y-85600000D03*
X203650000Y-91800000D03*
%TD*%
D15*
%TO.C,J10*%
X193650000Y-72050000D03*
D16*
X193650000Y-74550000D03*
%TD*%
D17*
%TO.C,C3*%
X180900000Y-31050000D03*
X180900000Y-29150000D03*
%TD*%
D18*
%TO.C,Q3*%
X200475000Y-80450000D03*
X200475000Y-78550000D03*
X198600000Y-79500000D03*
%TD*%
D19*
%TO.C,U1*%
X164580000Y-86150000D03*
X165850000Y-86150000D03*
X167120000Y-86150000D03*
X168390000Y-86150000D03*
X169660000Y-86150000D03*
X170930000Y-86150000D03*
X172200000Y-86150000D03*
X173470000Y-86150000D03*
X174740000Y-86150000D03*
X176010000Y-86150000D03*
X177280000Y-86150000D03*
X178550000Y-86150000D03*
X179820000Y-86150000D03*
X181090000Y-86150000D03*
D20*
X182340000Y-84385000D03*
X182340000Y-83115000D03*
X182340000Y-81845000D03*
X182340000Y-80575000D03*
X182340000Y-79305000D03*
X182340000Y-78035000D03*
X182340000Y-76765000D03*
X182340000Y-75495000D03*
X182340000Y-74225000D03*
X182340000Y-72955000D03*
X182340000Y-71685000D03*
X182340000Y-70415000D03*
D19*
X181090000Y-68650000D03*
X179820000Y-68650000D03*
X178550000Y-68650000D03*
X177280000Y-68650000D03*
X176010000Y-68650000D03*
X174740000Y-68650000D03*
X173470000Y-68650000D03*
X172200000Y-68650000D03*
X170930000Y-68650000D03*
X169660000Y-68650000D03*
X168390000Y-68650000D03*
X167120000Y-68650000D03*
X165850000Y-68650000D03*
X164580000Y-68650000D03*
D21*
X170900000Y-80300000D03*
X172300000Y-80300000D03*
X173700000Y-80300000D03*
X173700000Y-80300000D03*
X170900000Y-78900000D03*
X170900000Y-78900000D03*
X172300000Y-78900000D03*
X173700000Y-78900000D03*
X170900000Y-77500000D03*
X172300000Y-77500000D03*
X173700000Y-77500000D03*
%TD*%
D22*
%TO.C,K1*%
X238800000Y-74050000D03*
X232800000Y-59850000D03*
X244800000Y-59850000D03*
X244800000Y-72050000D03*
X232800000Y-72050000D03*
%TD*%
D23*
%TO.C,REF\u002A\u002A*%
X245200000Y-77500000D03*
%TD*%
D14*
%TO.C,SW2*%
X201250000Y-85600000D03*
X201250000Y-91800000D03*
X197550000Y-85600000D03*
X197550000Y-91800000D03*
%TD*%
D24*
%TO.C,R10*%
X181600000Y-45987500D03*
X181600000Y-47812500D03*
%TD*%
%TO.C,R12*%
X175300000Y-45987500D03*
X175300000Y-47812500D03*
%TD*%
D25*
%TO.C,D12*%
X176600000Y-29162500D03*
X176600000Y-31037500D03*
%TD*%
D26*
%TO.C,D5*%
X236862500Y-83400000D03*
X238737500Y-83400000D03*
%TD*%
D17*
%TO.C,C11*%
X170200000Y-31050000D03*
X170200000Y-29150000D03*
%TD*%
D27*
%TO.C,J9*%
X165200000Y-59000000D03*
D28*
X167700000Y-59000000D03*
X170200000Y-59000000D03*
X172700000Y-59000000D03*
%TD*%
D29*
%TO.C,U3*%
X188637500Y-83450000D03*
X188637500Y-82500000D03*
X188637500Y-81550000D03*
X186362500Y-81550000D03*
X186362500Y-82500000D03*
X186362500Y-83450000D03*
%TD*%
D30*
%TO.C,J3*%
X241700000Y-52540000D03*
D22*
X241700000Y-47460000D03*
X241700000Y-42380000D03*
%TD*%
%TO.C,K3*%
X205300000Y-74050000D03*
X199300000Y-59850000D03*
X211300000Y-59850000D03*
X211300000Y-72050000D03*
X199300000Y-72050000D03*
%TD*%
D23*
%TO.C,REF\u002A\u002A*%
X179500000Y-40900000D03*
%TD*%
D27*
%TO.C,J5*%
X165200000Y-51700000D03*
D28*
X167700000Y-51700000D03*
X170200000Y-51700000D03*
X172700000Y-51700000D03*
X175200000Y-51700000D03*
%TD*%
D31*
%TO.C,R9*%
X209787500Y-83400000D03*
X211612500Y-83400000D03*
%TD*%
D18*
%TO.C,Q2*%
X216737500Y-80450000D03*
X216737500Y-78550000D03*
X214862500Y-79500000D03*
%TD*%
D32*
%TO.C,H1*%
X165200000Y-29600000D03*
D33*
X165200000Y-29600000D03*
%TD*%
D34*
%TO.C,D1*%
X191700000Y-80150000D03*
X191700000Y-83450000D03*
%TD*%
D17*
%TO.C,C9*%
X174500000Y-90950000D03*
X174500000Y-89050000D03*
%TD*%
D24*
%TO.C,R19*%
X178700000Y-29187500D03*
X178700000Y-31012500D03*
%TD*%
D31*
%TO.C,R7*%
X226387500Y-83400000D03*
X228212500Y-83400000D03*
%TD*%
D23*
%TO.C,REF\u002A\u002A*%
X163000000Y-33600000D03*
%TD*%
D35*
%TO.C,R4*%
X232912500Y-83400000D03*
X231087500Y-83400000D03*
%TD*%
%TO.C,R8*%
X200450000Y-83400000D03*
X198625000Y-83400000D03*
%TD*%
D24*
%TO.C,R15*%
X178900000Y-89087500D03*
X178900000Y-90912500D03*
%TD*%
D36*
%TO.C,J7*%
X166900000Y-41700000D03*
D37*
X166900000Y-45200000D03*
%TD*%
D38*
%TO.C,D8*%
X223550000Y-79500000D03*
X220250000Y-79500000D03*
%TD*%
D39*
%TO.C,U6*%
X172375000Y-38205000D03*
X172375000Y-36935000D03*
X172375000Y-35665000D03*
X172375000Y-34395000D03*
X167425000Y-34395000D03*
X167425000Y-35665000D03*
X167425000Y-36935000D03*
X167425000Y-38205000D03*
%TD*%
D27*
%TO.C,J4*%
X178970000Y-59000000D03*
D28*
X181470000Y-59000000D03*
X183970000Y-59000000D03*
X186470000Y-59000000D03*
%TD*%
D24*
%TO.C,R14*%
X176700000Y-89087500D03*
X176700000Y-90912500D03*
%TD*%
D25*
%TO.C,D11*%
X172400000Y-29162500D03*
X172400000Y-31037500D03*
%TD*%
D17*
%TO.C,C10*%
X172300000Y-90950000D03*
X172300000Y-89050000D03*
%TD*%
D32*
%TO.C,H1*%
X243200000Y-89600000D03*
D33*
X243200000Y-89600000D03*
%TD*%
D18*
%TO.C,Q1*%
X232937500Y-80450000D03*
X232937500Y-78550000D03*
X231062500Y-79500000D03*
%TD*%
D35*
%TO.C,R6*%
X216712500Y-83400000D03*
X214887500Y-83400000D03*
%TD*%
D40*
%TO.C,C1*%
X194000000Y-80550000D03*
X194000000Y-82450000D03*
%TD*%
D38*
%TO.C,D10*%
X206950000Y-79500000D03*
X203650000Y-79500000D03*
%TD*%
D41*
%TO.C,J1*%
X187510000Y-86900000D03*
X193290000Y-86900000D03*
D42*
X187150000Y-85455000D03*
X187950000Y-85455000D03*
D43*
X189150000Y-85455000D03*
X190150000Y-85455000D03*
X190650000Y-85455000D03*
X191650000Y-85455000D03*
D42*
X192850000Y-85455000D03*
X193650000Y-85455000D03*
X193650000Y-85455000D03*
X192850000Y-85455000D03*
D43*
X192150000Y-85455000D03*
X191150000Y-85455000D03*
X189650000Y-85455000D03*
X188650000Y-85455000D03*
D42*
X187950000Y-85455000D03*
X187150000Y-85455000D03*
D44*
X186080000Y-86370000D03*
D45*
X186080000Y-90550000D03*
D44*
X194720000Y-86370000D03*
D45*
X194720000Y-90550000D03*
%TD*%
D40*
%TO.C,C6*%
X163800000Y-89050000D03*
X163800000Y-90950000D03*
%TD*%
D24*
%TO.C,R13*%
X177400000Y-45987500D03*
X177400000Y-47812500D03*
%TD*%
D46*
%TO.C,PS1*%
X230200000Y-45100000D03*
D47*
X230200000Y-37300000D03*
X187700000Y-52500000D03*
X187700000Y-29900000D03*
%TD*%
D40*
%TO.C,C4*%
X183700000Y-40950000D03*
X183700000Y-42850000D03*
%TD*%
D31*
%TO.C,R1*%
X194487500Y-78700000D03*
X196312500Y-78700000D03*
%TD*%
D48*
%TO.C,L2*%
X171312500Y-41900000D03*
X172887500Y-41900000D03*
%TD*%
D24*
%TO.C,R11*%
X183700000Y-45987500D03*
X183700000Y-47812500D03*
%TD*%
%TO.C,R16*%
X179500000Y-45987500D03*
X179500000Y-47812500D03*
%TD*%
D15*
%TO.C,J8*%
X193650000Y-63500000D03*
D16*
X193650000Y-66000000D03*
%TD*%
D24*
%TO.C,R21*%
X181100000Y-89087500D03*
X181100000Y-90912500D03*
%TD*%
%TO.C,R20*%
X183300000Y-89100000D03*
X183300000Y-90925000D03*
%TD*%
%TO.C,R2*%
X196200000Y-80587500D03*
X196200000Y-82412500D03*
%TD*%
D49*
%TO.C,J6*%
X186860000Y-65100000D03*
D50*
X184320000Y-65100000D03*
X181780000Y-65100000D03*
X179240000Y-65100000D03*
X176700000Y-65100000D03*
X174160000Y-65100000D03*
X171620000Y-65100000D03*
X169080000Y-65100000D03*
X166540000Y-65100000D03*
X164000000Y-65100000D03*
%TD*%
D17*
%TO.C,C2*%
X183100000Y-31050000D03*
X183100000Y-29150000D03*
%TD*%
%TO.C,C8*%
X170100000Y-90950000D03*
X170100000Y-89050000D03*
%TD*%
D26*
%TO.C,D7*%
X220962500Y-83400000D03*
X222837500Y-83400000D03*
%TD*%
D30*
%TO.C,J2*%
X241700000Y-35680000D03*
D22*
X241700000Y-30600000D03*
%TD*%
D40*
%TO.C,C5*%
X181490000Y-40950000D03*
X181490000Y-42850000D03*
%TD*%
%TO.C,C7*%
X165890000Y-89050000D03*
X165890000Y-90950000D03*
%TD*%
D51*
%TO.C,U2*%
X183050000Y-38400000D03*
X183050000Y-36100000D03*
D52*
X176750000Y-36100000D03*
D51*
X183050000Y-33800000D03*
%TD*%
D31*
%TO.C,R5*%
X242287500Y-83400000D03*
X244112500Y-83400000D03*
%TD*%
D22*
%TO.C,K2*%
X222100000Y-74050000D03*
X216100000Y-59850000D03*
X228100000Y-59850000D03*
X228100000Y-72050000D03*
X216100000Y-72050000D03*
%TD*%
D26*
%TO.C,D9*%
X204362500Y-83400000D03*
X206237500Y-83400000D03*
%TD*%
D24*
%TO.C,R3*%
X168000000Y-89087500D03*
X168000000Y-90912500D03*
%TD*%
D38*
%TO.C,D6*%
X239450000Y-79500000D03*
X236150000Y-79500000D03*
%TD*%
D48*
%TO.C,L1*%
X171312500Y-40200000D03*
X172887500Y-40200000D03*
%TD*%
D24*
%TO.C,R18*%
X174500000Y-29187500D03*
X174500000Y-31012500D03*
%TD*%
D53*
%TO.C,C14*%
X171350000Y-43800000D03*
X173250000Y-43800000D03*
%TD*%
M02*
