%TF.GenerationSoftware,KiCad,Pcbnew,8.0.6*%
%TF.CreationDate,2024-11-24T19:54:00+01:00*%
%TF.ProjectId,Gaggimate,47616767-696d-4617-9465-2e6b69636164,1.0*%
%TF.SameCoordinates,Original*%
%TF.FileFunction,Soldermask,Bot*%
%TF.FilePolarity,Negative*%
%FSLAX46Y46*%
G04 Gerber Fmt 4.6, Leading zero omitted, Abs format (unit mm)*
G04 Created by KiCad (PCBNEW 8.0.6) date 2024-11-24 19:54:00*
%MOMM*%
%LPD*%
G01*
G04 APERTURE LIST*
G04 Aperture macros list*
%AMRoundRect*
0 Rectangle with rounded corners*
0 $1 Rounding radius*
0 $2 $3 $4 $5 $6 $7 $8 $9 X,Y pos of 4 corners*
0 Add a 4 corners polygon primitive as box body*
4,1,4,$2,$3,$4,$5,$6,$7,$8,$9,$2,$3,0*
0 Add four circle primitives for the rounded corners*
1,1,$1+$1,$2,$3*
1,1,$1+$1,$4,$5*
1,1,$1+$1,$6,$7*
1,1,$1+$1,$8,$9*
0 Add four rect primitives between the rounded corners*
20,1,$1+$1,$2,$3,$4,$5,0*
20,1,$1+$1,$4,$5,$6,$7,0*
20,1,$1+$1,$6,$7,$8,$9,0*
20,1,$1+$1,$8,$9,$2,$3,0*%
G04 Aperture macros list end*
%ADD10C,2.500000*%
%ADD11RoundRect,0.250000X-0.750000X0.600000X-0.750000X-0.600000X0.750000X-0.600000X0.750000X0.600000X0*%
%ADD12O,2.000000X1.700000*%
%ADD13C,3.000000*%
%ADD14RoundRect,0.250000X-0.600000X-0.725000X0.600000X-0.725000X0.600000X0.725000X-0.600000X0.725000X0*%
%ADD15O,1.700000X1.950000*%
%ADD16R,3.000000X3.000000*%
%ADD17C,3.600000*%
%ADD18C,5.600000*%
%ADD19R,2.400000X2.400000*%
%ADD20C,2.400000*%
%ADD21C,0.650000*%
%ADD22O,1.000000X2.100000*%
%ADD23O,1.000000X1.600000*%
%ADD24R,2.600000X2.000000*%
%ADD25C,2.600000*%
%ADD26R,1.700000X1.700000*%
%ADD27O,1.700000X1.700000*%
G04 APERTURE END LIST*
D10*
%TO.C,REF\u002A\u002A*%
X186860000Y-76600000D03*
%TD*%
D11*
%TO.C,J10*%
X193400000Y-67650000D03*
D12*
X193400000Y-70150000D03*
%TD*%
D13*
%TO.C,K1*%
X238800000Y-74050000D03*
X232800000Y-59850000D03*
X244800000Y-59850000D03*
X244800000Y-72050000D03*
X232800000Y-72050000D03*
%TD*%
D14*
%TO.C,J9*%
X165200000Y-59000000D03*
D15*
X167700000Y-59000000D03*
X170200000Y-59000000D03*
X172700000Y-59000000D03*
%TD*%
D16*
%TO.C,J3*%
X241700000Y-52540000D03*
D13*
X241700000Y-47460000D03*
X241700000Y-42380000D03*
%TD*%
%TO.C,K3*%
X205300000Y-74050000D03*
X199300000Y-59850000D03*
X211300000Y-59850000D03*
X211300000Y-72050000D03*
X199300000Y-72050000D03*
%TD*%
D14*
%TO.C,J5*%
X165200000Y-51700000D03*
D15*
X167700000Y-51700000D03*
X170200000Y-51700000D03*
X172700000Y-51700000D03*
X175200000Y-51700000D03*
%TD*%
D17*
%TO.C,H1*%
X165200000Y-29600000D03*
D18*
X165200000Y-29600000D03*
%TD*%
D19*
%TO.C,J7*%
X166900000Y-41700000D03*
D20*
X166900000Y-45200000D03*
%TD*%
D14*
%TO.C,J4*%
X178970000Y-59000000D03*
D15*
X181470000Y-59000000D03*
X183970000Y-59000000D03*
X186470000Y-59000000D03*
%TD*%
D17*
%TO.C,H1*%
X243200000Y-89600000D03*
D18*
X243200000Y-89600000D03*
%TD*%
D21*
%TO.C,J1*%
X187510000Y-86900000D03*
X193290000Y-86900000D03*
D22*
X186080000Y-86370000D03*
D23*
X186080000Y-90550000D03*
D22*
X194720000Y-86370000D03*
D23*
X194720000Y-90550000D03*
%TD*%
D24*
%TO.C,PS1*%
X230200000Y-45100000D03*
D25*
X230200000Y-37300000D03*
X187700000Y-52500000D03*
X187700000Y-29900000D03*
%TD*%
D11*
%TO.C,J8*%
X193400000Y-59100000D03*
D12*
X193400000Y-61600000D03*
%TD*%
D26*
%TO.C,J6*%
X186860000Y-65100000D03*
D27*
X184320000Y-65100000D03*
X181780000Y-65100000D03*
X179240000Y-65100000D03*
X176700000Y-65100000D03*
X174160000Y-65100000D03*
X171620000Y-65100000D03*
X169080000Y-65100000D03*
X166540000Y-65100000D03*
X164000000Y-65100000D03*
%TD*%
D16*
%TO.C,J2*%
X241700000Y-35680000D03*
D13*
X241700000Y-30600000D03*
%TD*%
%TO.C,K2*%
X222100000Y-74050000D03*
X216100000Y-59850000D03*
X228100000Y-59850000D03*
X228100000Y-72050000D03*
X216100000Y-72050000D03*
%TD*%
M02*
