<?xml version="1.0" encoding="UTF-8"?>
<svg xmlns="http://www.w3.org/2000/svg" id="Layer_1" data-name="Layer 1" viewBox="0 0 24 24">
  <path d="M14.392,12l4.645-3.603c.603-.488,.954-1.212,.963-1.987,.009-.775-.325-1.507-.959-2.043L14.268,.616c-.779-.659-1.838-.801-2.766-.373-.927,.43-1.502,1.331-1.502,2.352v5.998l-3.581-2.778c-.654-.509-1.597-.388-2.104,.266-.508,.655-.389,1.597,.266,2.104l4.917,3.815-4.917,3.815c-.655,.508-.773,1.45-.266,2.104,.508,.654,1.45,.773,2.104,.266l3.581-2.778v5.998c0,1.021,.575,1.922,1.502,2.352,.358,.166,.737,.247,1.109,.247,.589,0,1.163-.202,1.615-.585l4.857-3.819c.592-.501,.926-1.233,.917-2.009-.009-.775-.36-1.5-.987-2.005l-4.621-3.585Zm-1.392-8.566l3.746,2.944-3.746,2.906V3.434Zm0,17.134v-5.851l3.745,2.905-3.745,2.945Z"/>
</svg>
