<?xml version="1.0" encoding="UTF-8"?>
<svg xmlns="http://www.w3.org/2000/svg" id="Layer_1" data-name="Layer 1" viewBox="0 0 24 24">
  <path d="M21,0H3C1.343,0,0,1.343,0,3v2c0,1.657,1.343,3,3,3H21c1.657,0,3-1.343,3-3V3c0-1.657-1.343-3-3-3Zm-.735,3.837l-1.858,1.825c-.455,.455-1.177,.455-1.632,0l-1.858-1.825c-.497-.489-.152-1.335,.546-1.335h4.257c.697,0,1.043,.846,.546,1.335Zm1.735,9.163c0,.829-.672,1.5-1.5,1.5H11.5c-.829,0-1.5-.671-1.5-1.5s.671-1.5,1.5-1.5h9c.828,0,1.5,.671,1.5,1.5Zm-14-1v2c0,1.105-.895,2-2,2h-2c-1.105,0-2-.895-2-2v-2c0-1.105,.895-2,2-2h2c1.105,0,2,.895,2,2Zm14,9c0,.829-.672,1.5-1.5,1.5H11.5c-.829,0-1.5-.671-1.5-1.5s.671-1.5,1.5-1.5h9c.828,0,1.5,.671,1.5,1.5Zm-14-1v2c0,1.105-.895,2-2,2h-2c-1.105,0-2-.895-2-2v-2c0-1.105,.895-2,2-2h2c1.105,0,2,.895,2,2Z"/>
</svg>
