<!DOCTYPE svg PUBLIC "-//W3C//DTD SVG 1.1//EN" "http://www.w3.org/Graphics/SVG/1.1/DTD/svg11.dtd">
<svg xmlns="http://www.w3.org/2000/svg" version="1.1" width="8.55mm" height="6.78925mm" viewBox="-4.275 -2.875 8.55 6.78925">
            <title>Picture generated by PcbDraw </title>
            <desc>Picture generated by PcbDraw</desc>
        <g transform="" id="boardContainer"><g id="KiCAD footprint bottom"><g id="substrate-cmt" style="fill:#000000; stroke:#000000;"><g style="stroke-width: 0.03000;stroke-opacity: 1;stroke-linecap: round;stroke-linejoin: round">
<text x="2.50000" y="-0.10000" textLength="2.57381" font-size="0.26667" lengthAdjust="spacingAndGlyphs" text-anchor="middle" opacity="0" stroke-opacity="0">KEEP-OUT ZONE</text>
<g class="stroked-text"><desc>KEEP-OUT ZONE</desc>
<path d="M1.28571 -0.10904 L1.28571 -0.30904 "/>
<path d="M1.40000 -0.10904 L1.31429 -0.22332 "/>
<path d="M1.40000 -0.30904 L1.28571 -0.19475 "/>
<path d="M1.48571 -0.21380 L1.55238 -0.21380 "/>
<path d="M1.58095 -0.10904 L1.48571 -0.10904 "/>
<path d="M1.48571 -0.10904 L1.48571 -0.30904 "/>
<path d="M1.48571 -0.30904 L1.58095 -0.30904 "/>
<path d="M1.66667 -0.21380 L1.73333 -0.21380 "/>
<path d="M1.76190 -0.10904 L1.66667 -0.10904 "/>
<path d="M1.66667 -0.10904 L1.66667 -0.30904 "/>
<path d="M1.66667 -0.30904 L1.76190 -0.30904 "/>
<path d="M1.84762 -0.10904 L1.84762 -0.30904 "/>
<path d="M1.84762 -0.30904 L1.92381 -0.30904 "/>
<path d="M1.92381 -0.30904 L1.94286 -0.29951 "/>
<path d="M1.94286 -0.29951 L1.95238 -0.28999 "/>
<path d="M1.95238 -0.28999 L1.96190 -0.27094 "/>
<path d="M1.96190 -0.27094 L1.96190 -0.24237 "/>
<path d="M1.96190 -0.24237 L1.95238 -0.22332 "/>
<path d="M1.95238 -0.22332 L1.94286 -0.21380 "/>
<path d="M1.94286 -0.21380 L1.92381 -0.20427 "/>
<path d="M1.92381 -0.20427 L1.84762 -0.20427 "/>
<path d="M2.04762 -0.18523 L2.20000 -0.18523 "/>
<path d="M2.33333 -0.30904 L2.37143 -0.30904 "/>
<path d="M2.37143 -0.30904 L2.39048 -0.29951 "/>
<path d="M2.39048 -0.29951 L2.40952 -0.28046 "/>
<path d="M2.40952 -0.28046 L2.41905 -0.24237 "/>
<path d="M2.41905 -0.24237 L2.41905 -0.17570 "/>
<path d="M2.41905 -0.17570 L2.40952 -0.13761 "/>
<path d="M2.40952 -0.13761 L2.39048 -0.11856 "/>
<path d="M2.39048 -0.11856 L2.37143 -0.10904 "/>
<path d="M2.37143 -0.10904 L2.33333 -0.10904 "/>
<path d="M2.33333 -0.10904 L2.31428 -0.11856 "/>
<path d="M2.31428 -0.11856 L2.29524 -0.13761 "/>
<path d="M2.29524 -0.13761 L2.28571 -0.17570 "/>
<path d="M2.28571 -0.17570 L2.28571 -0.24237 "/>
<path d="M2.28571 -0.24237 L2.29524 -0.28046 "/>
<path d="M2.29524 -0.28046 L2.31428 -0.29951 "/>
<path d="M2.31428 -0.29951 L2.33333 -0.30904 "/>
<path d="M2.50476 -0.30904 L2.50476 -0.14713 "/>
<path d="M2.50476 -0.14713 L2.51429 -0.12808 "/>
<path d="M2.51429 -0.12808 L2.52381 -0.11856 "/>
<path d="M2.52381 -0.11856 L2.54286 -0.10904 "/>
<path d="M2.54286 -0.10904 L2.58095 -0.10904 "/>
<path d="M2.58095 -0.10904 L2.60000 -0.11856 "/>
<path d="M2.60000 -0.11856 L2.60952 -0.12808 "/>
<path d="M2.60952 -0.12808 L2.61905 -0.14713 "/>
<path d="M2.61905 -0.14713 L2.61905 -0.30904 "/>
<path d="M2.68571 -0.30904 L2.80000 -0.30904 "/>
<path d="M2.74286 -0.10904 L2.74286 -0.30904 "/>
<path d="M3.00000 -0.30904 L3.13333 -0.30904 "/>
<path d="M3.13333 -0.30904 L3.00000 -0.10904 "/>
<path d="M3.00000 -0.10904 L3.13333 -0.10904 "/>
<path d="M3.24762 -0.30904 L3.28571 -0.30904 "/>
<path d="M3.28571 -0.30904 L3.30476 -0.29951 "/>
<path d="M3.30476 -0.29951 L3.32381 -0.28046 "/>
<path d="M3.32381 -0.28046 L3.33333 -0.24237 "/>
<path d="M3.33333 -0.24237 L3.33333 -0.17570 "/>
<path d="M3.33333 -0.17570 L3.32381 -0.13761 "/>
<path d="M3.32381 -0.13761 L3.30476 -0.11856 "/>
<path d="M3.30476 -0.11856 L3.28571 -0.10904 "/>
<path d="M3.28571 -0.10904 L3.24762 -0.10904 "/>
<path d="M3.24762 -0.10904 L3.22857 -0.11856 "/>
<path d="M3.22857 -0.11856 L3.20952 -0.13761 "/>
<path d="M3.20952 -0.13761 L3.20000 -0.17570 "/>
<path d="M3.20000 -0.17570 L3.20000 -0.24237 "/>
<path d="M3.20000 -0.24237 L3.20952 -0.28046 "/>
<path d="M3.20952 -0.28046 L3.22857 -0.29951 "/>
<path d="M3.22857 -0.29951 L3.24762 -0.30904 "/>
<path d="M3.41905 -0.10904 L3.41905 -0.30904 "/>
<path d="M3.41905 -0.30904 L3.53333 -0.10904 "/>
<path d="M3.53333 -0.10904 L3.53333 -0.30904 "/>
<path d="M3.62857 -0.21380 L3.69524 -0.21380 "/>
<path d="M3.72381 -0.10904 L3.62857 -0.10904 "/>
<path d="M3.62857 -0.10904 L3.62857 -0.30904 "/>
<path d="M3.62857 -0.30904 L3.72381 -0.30904 "/>
</g><text x="-2.50000" y="-0.10000" textLength="2.57381" font-size="0.26667" lengthAdjust="spacingAndGlyphs" text-anchor="middle" opacity="0" stroke-opacity="0">KEEP-OUT ZONE</text>
<g class="stroked-text"><desc>KEEP-OUT ZONE</desc>
<path d="M-3.71428 -0.10904 L-3.71428 -0.30904 "/>
<path d="M-3.60000 -0.10904 L-3.68571 -0.22332 "/>
<path d="M-3.60000 -0.30904 L-3.71428 -0.19475 "/>
<path d="M-3.51428 -0.21380 L-3.44762 -0.21380 "/>
<path d="M-3.41905 -0.10904 L-3.51428 -0.10904 "/>
<path d="M-3.51428 -0.10904 L-3.51428 -0.30904 "/>
<path d="M-3.51428 -0.30904 L-3.41905 -0.30904 "/>
<path d="M-3.33333 -0.21380 L-3.26667 -0.21380 "/>
<path d="M-3.23809 -0.10904 L-3.33333 -0.10904 "/>
<path d="M-3.33333 -0.10904 L-3.33333 -0.30904 "/>
<path d="M-3.33333 -0.30904 L-3.23809 -0.30904 "/>
<path d="M-3.15238 -0.10904 L-3.15238 -0.30904 "/>
<path d="M-3.15238 -0.30904 L-3.07619 -0.30904 "/>
<path d="M-3.07619 -0.30904 L-3.05714 -0.29951 "/>
<path d="M-3.05714 -0.29951 L-3.04762 -0.28999 "/>
<path d="M-3.04762 -0.28999 L-3.03809 -0.27094 "/>
<path d="M-3.03809 -0.27094 L-3.03809 -0.24237 "/>
<path d="M-3.03809 -0.24237 L-3.04762 -0.22332 "/>
<path d="M-3.04762 -0.22332 L-3.05714 -0.21380 "/>
<path d="M-3.05714 -0.21380 L-3.07619 -0.20427 "/>
<path d="M-3.07619 -0.20427 L-3.15238 -0.20427 "/>
<path d="M-2.95238 -0.18523 L-2.80000 -0.18523 "/>
<path d="M-2.66667 -0.30904 L-2.62857 -0.30904 "/>
<path d="M-2.62857 -0.30904 L-2.60952 -0.29951 "/>
<path d="M-2.60952 -0.29951 L-2.59048 -0.28046 "/>
<path d="M-2.59048 -0.28046 L-2.58095 -0.24237 "/>
<path d="M-2.58095 -0.24237 L-2.58095 -0.17570 "/>
<path d="M-2.58095 -0.17570 L-2.59048 -0.13761 "/>
<path d="M-2.59048 -0.13761 L-2.60952 -0.11856 "/>
<path d="M-2.60952 -0.11856 L-2.62857 -0.10904 "/>
<path d="M-2.62857 -0.10904 L-2.66667 -0.10904 "/>
<path d="M-2.66667 -0.10904 L-2.68571 -0.11856 "/>
<path d="M-2.68571 -0.11856 L-2.70476 -0.13761 "/>
<path d="M-2.70476 -0.13761 L-2.71428 -0.17570 "/>
<path d="M-2.71428 -0.17570 L-2.71428 -0.24237 "/>
<path d="M-2.71428 -0.24237 L-2.70476 -0.28046 "/>
<path d="M-2.70476 -0.28046 L-2.68571 -0.29951 "/>
<path d="M-2.68571 -0.29951 L-2.66667 -0.30904 "/>
<path d="M-2.49524 -0.30904 L-2.49524 -0.14713 "/>
<path d="M-2.49524 -0.14713 L-2.48571 -0.12808 "/>
<path d="M-2.48571 -0.12808 L-2.47619 -0.11856 "/>
<path d="M-2.47619 -0.11856 L-2.45714 -0.10904 "/>
<path d="M-2.45714 -0.10904 L-2.41905 -0.10904 "/>
<path d="M-2.41905 -0.10904 L-2.40000 -0.11856 "/>
<path d="M-2.40000 -0.11856 L-2.39048 -0.12808 "/>
<path d="M-2.39048 -0.12808 L-2.38095 -0.14713 "/>
<path d="M-2.38095 -0.14713 L-2.38095 -0.30904 "/>
<path d="M-2.31428 -0.30904 L-2.20000 -0.30904 "/>
<path d="M-2.25714 -0.10904 L-2.25714 -0.30904 "/>
<path d="M-2.00000 -0.30904 L-1.86667 -0.30904 "/>
<path d="M-1.86667 -0.30904 L-2.00000 -0.10904 "/>
<path d="M-2.00000 -0.10904 L-1.86667 -0.10904 "/>
<path d="M-1.75238 -0.30904 L-1.71428 -0.30904 "/>
<path d="M-1.71428 -0.30904 L-1.69524 -0.29951 "/>
<path d="M-1.69524 -0.29951 L-1.67619 -0.28046 "/>
<path d="M-1.67619 -0.28046 L-1.66667 -0.24237 "/>
<path d="M-1.66667 -0.24237 L-1.66667 -0.17570 "/>
<path d="M-1.66667 -0.17570 L-1.67619 -0.13761 "/>
<path d="M-1.67619 -0.13761 L-1.69524 -0.11856 "/>
<path d="M-1.69524 -0.11856 L-1.71428 -0.10904 "/>
<path d="M-1.71428 -0.10904 L-1.75238 -0.10904 "/>
<path d="M-1.75238 -0.10904 L-1.77143 -0.11856 "/>
<path d="M-1.77143 -0.11856 L-1.79047 -0.13761 "/>
<path d="M-1.79047 -0.13761 L-1.80000 -0.17570 "/>
<path d="M-1.80000 -0.17570 L-1.80000 -0.24237 "/>
<path d="M-1.80000 -0.24237 L-1.79047 -0.28046 "/>
<path d="M-1.79047 -0.28046 L-1.77143 -0.29951 "/>
<path d="M-1.77143 -0.29951 L-1.75238 -0.30904 "/>
<path d="M-1.58095 -0.10904 L-1.58095 -0.30904 "/>
<path d="M-1.58095 -0.30904 L-1.46667 -0.10904 "/>
<path d="M-1.46667 -0.10904 L-1.46667 -0.30904 "/>
<path d="M-1.37143 -0.21380 L-1.30476 -0.21380 "/>
<path d="M-1.27619 -0.10904 L-1.37143 -0.10904 "/>
<path d="M-1.37143 -0.10904 L-1.37143 -0.30904 "/>
<path d="M-1.37143 -0.30904 L-1.27619 -0.30904 "/>
</g><text x="2.50000" y="0.30000" textLength="2.30714" font-size="0.26667" lengthAdjust="spacingAndGlyphs" text-anchor="middle" opacity="0" stroke-opacity="0">No F.Cu tracks</text>
<g class="stroked-text"><desc>No F.Cu tracks</desc>
<path d="M1.41905 0.29096 L1.41905 0.09096 "/>
<path d="M1.41905 0.09096 L1.53333 0.29096 "/>
<path d="M1.53333 0.29096 L1.53333 0.09096 "/>
<path d="M1.65714 0.29096 L1.63809 0.28144 "/>
<path d="M1.63809 0.28144 L1.62857 0.27192 "/>
<path d="M1.62857 0.27192 L1.61905 0.25287 "/>
<path d="M1.61905 0.25287 L1.61905 0.19572 "/>
<path d="M1.61905 0.19572 L1.62857 0.17668 "/>
<path d="M1.62857 0.17668 L1.63809 0.16715 "/>
<path d="M1.63809 0.16715 L1.65714 0.15763 "/>
<path d="M1.65714 0.15763 L1.68571 0.15763 "/>
<path d="M1.68571 0.15763 L1.70476 0.16715 "/>
<path d="M1.70476 0.16715 L1.71428 0.17668 "/>
<path d="M1.71428 0.17668 L1.72381 0.19572 "/>
<path d="M1.72381 0.19572 L1.72381 0.25287 "/>
<path d="M1.72381 0.25287 L1.71428 0.27192 "/>
<path d="M1.71428 0.27192 L1.70476 0.28144 "/>
<path d="M1.70476 0.28144 L1.68571 0.29096 "/>
<path d="M1.68571 0.29096 L1.65714 0.29096 "/>
<path d="M2.02857 0.18620 L1.96190 0.18620 "/>
<path d="M1.96190 0.29096 L1.96190 0.09096 "/>
<path d="M1.96190 0.09096 L2.05714 0.09096 "/>
<path d="M2.13333 0.27192 L2.14286 0.28144 "/>
<path d="M2.14286 0.28144 L2.13333 0.29096 "/>
<path d="M2.13333 0.29096 L2.12381 0.28144 "/>
<path d="M2.12381 0.28144 L2.13333 0.27192 "/>
<path d="M2.13333 0.27192 L2.13333 0.29096 "/>
<path d="M2.34286 0.27192 L2.33333 0.28144 "/>
<path d="M2.33333 0.28144 L2.30476 0.29096 "/>
<path d="M2.30476 0.29096 L2.28571 0.29096 "/>
<path d="M2.28571 0.29096 L2.25714 0.28144 "/>
<path d="M2.25714 0.28144 L2.23809 0.26239 "/>
<path d="M2.23809 0.26239 L2.22857 0.24334 "/>
<path d="M2.22857 0.24334 L2.21905 0.20525 "/>
<path d="M2.21905 0.20525 L2.21905 0.17668 "/>
<path d="M2.21905 0.17668 L2.22857 0.13858 "/>
<path d="M2.22857 0.13858 L2.23809 0.11953 "/>
<path d="M2.23809 0.11953 L2.25714 0.10049 "/>
<path d="M2.25714 0.10049 L2.28571 0.09096 "/>
<path d="M2.28571 0.09096 L2.30476 0.09096 "/>
<path d="M2.30476 0.09096 L2.33333 0.10049 "/>
<path d="M2.33333 0.10049 L2.34286 0.11001 "/>
<path d="M2.51429 0.15763 L2.51429 0.29096 "/>
<path d="M2.42857 0.15763 L2.42857 0.26239 "/>
<path d="M2.42857 0.26239 L2.43809 0.28144 "/>
<path d="M2.43809 0.28144 L2.45714 0.29096 "/>
<path d="M2.45714 0.29096 L2.48571 0.29096 "/>
<path d="M2.48571 0.29096 L2.50476 0.28144 "/>
<path d="M2.50476 0.28144 L2.51429 0.27192 "/>
<path d="M2.73333 0.15763 L2.80952 0.15763 "/>
<path d="M2.76190 0.09096 L2.76190 0.26239 "/>
<path d="M2.76190 0.26239 L2.77143 0.28144 "/>
<path d="M2.77143 0.28144 L2.79047 0.29096 "/>
<path d="M2.79047 0.29096 L2.80952 0.29096 "/>
<path d="M2.87619 0.29096 L2.87619 0.15763 "/>
<path d="M2.87619 0.19572 L2.88571 0.17668 "/>
<path d="M2.88571 0.17668 L2.89524 0.16715 "/>
<path d="M2.89524 0.16715 L2.91429 0.15763 "/>
<path d="M2.91429 0.15763 L2.93333 0.15763 "/>
<path d="M3.08571 0.29096 L3.08571 0.18620 "/>
<path d="M3.08571 0.18620 L3.07619 0.16715 "/>
<path d="M3.07619 0.16715 L3.05714 0.15763 "/>
<path d="M3.05714 0.15763 L3.01905 0.15763 "/>
<path d="M3.01905 0.15763 L3.00000 0.16715 "/>
<path d="M3.08571 0.28144 L3.06667 0.29096 "/>
<path d="M3.06667 0.29096 L3.01905 0.29096 "/>
<path d="M3.01905 0.29096 L3.00000 0.28144 "/>
<path d="M3.00000 0.28144 L2.99048 0.26239 "/>
<path d="M2.99048 0.26239 L2.99048 0.24334 "/>
<path d="M2.99048 0.24334 L3.00000 0.22430 "/>
<path d="M3.00000 0.22430 L3.01905 0.21477 "/>
<path d="M3.01905 0.21477 L3.06667 0.21477 "/>
<path d="M3.06667 0.21477 L3.08571 0.20525 "/>
<path d="M3.26667 0.28144 L3.24762 0.29096 "/>
<path d="M3.24762 0.29096 L3.20952 0.29096 "/>
<path d="M3.20952 0.29096 L3.19047 0.28144 "/>
<path d="M3.19047 0.28144 L3.18095 0.27192 "/>
<path d="M3.18095 0.27192 L3.17143 0.25287 "/>
<path d="M3.17143 0.25287 L3.17143 0.19572 "/>
<path d="M3.17143 0.19572 L3.18095 0.17668 "/>
<path d="M3.18095 0.17668 L3.19047 0.16715 "/>
<path d="M3.19047 0.16715 L3.20952 0.15763 "/>
<path d="M3.20952 0.15763 L3.24762 0.15763 "/>
<path d="M3.24762 0.15763 L3.26667 0.16715 "/>
<path d="M3.35238 0.29096 L3.35238 0.09096 "/>
<path d="M3.37143 0.21477 L3.42857 0.29096 "/>
<path d="M3.42857 0.15763 L3.35238 0.23382 "/>
<path d="M3.50476 0.28144 L3.52381 0.29096 "/>
<path d="M3.52381 0.29096 L3.56190 0.29096 "/>
<path d="M3.56190 0.29096 L3.58095 0.28144 "/>
<path d="M3.58095 0.28144 L3.59048 0.26239 "/>
<path d="M3.59048 0.26239 L3.59048 0.25287 "/>
<path d="M3.59048 0.25287 L3.58095 0.23382 "/>
<path d="M3.58095 0.23382 L3.56190 0.22430 "/>
<path d="M3.56190 0.22430 L3.53333 0.22430 "/>
<path d="M3.53333 0.22430 L3.51429 0.21477 "/>
<path d="M3.51429 0.21477 L3.50476 0.19572 "/>
<path d="M3.50476 0.19572 L3.50476 0.18620 "/>
<path d="M3.50476 0.18620 L3.51429 0.16715 "/>
<path d="M3.51429 0.16715 L3.53333 0.15763 "/>
<path d="M3.53333 0.15763 L3.56190 0.15763 "/>
<path d="M3.56190 0.15763 L3.58095 0.16715 "/>
</g><text x="-2.50000" y="0.30000" textLength="2.30714" font-size="0.26667" lengthAdjust="spacingAndGlyphs" text-anchor="middle" opacity="0" stroke-opacity="0">No F.Cu tracks</text>
<g class="stroked-text"><desc>No F.Cu tracks</desc>
<path d="M-3.58095 0.29096 L-3.58095 0.09096 "/>
<path d="M-3.58095 0.09096 L-3.46667 0.29096 "/>
<path d="M-3.46667 0.29096 L-3.46667 0.09096 "/>
<path d="M-3.34286 0.29096 L-3.36190 0.28144 "/>
<path d="M-3.36190 0.28144 L-3.37143 0.27192 "/>
<path d="M-3.37143 0.27192 L-3.38095 0.25287 "/>
<path d="M-3.38095 0.25287 L-3.38095 0.19572 "/>
<path d="M-3.38095 0.19572 L-3.37143 0.17668 "/>
<path d="M-3.37143 0.17668 L-3.36190 0.16715 "/>
<path d="M-3.36190 0.16715 L-3.34286 0.15763 "/>
<path d="M-3.34286 0.15763 L-3.31429 0.15763 "/>
<path d="M-3.31429 0.15763 L-3.29524 0.16715 "/>
<path d="M-3.29524 0.16715 L-3.28571 0.17668 "/>
<path d="M-3.28571 0.17668 L-3.27619 0.19572 "/>
<path d="M-3.27619 0.19572 L-3.27619 0.25287 "/>
<path d="M-3.27619 0.25287 L-3.28571 0.27192 "/>
<path d="M-3.28571 0.27192 L-3.29524 0.28144 "/>
<path d="M-3.29524 0.28144 L-3.31429 0.29096 "/>
<path d="M-3.31429 0.29096 L-3.34286 0.29096 "/>
<path d="M-2.97143 0.18620 L-3.03809 0.18620 "/>
<path d="M-3.03809 0.29096 L-3.03809 0.09096 "/>
<path d="M-3.03809 0.09096 L-2.94286 0.09096 "/>
<path d="M-2.86667 0.27192 L-2.85714 0.28144 "/>
<path d="M-2.85714 0.28144 L-2.86667 0.29096 "/>
<path d="M-2.86667 0.29096 L-2.87619 0.28144 "/>
<path d="M-2.87619 0.28144 L-2.86667 0.27192 "/>
<path d="M-2.86667 0.27192 L-2.86667 0.29096 "/>
<path d="M-2.65714 0.27192 L-2.66667 0.28144 "/>
<path d="M-2.66667 0.28144 L-2.69524 0.29096 "/>
<path d="M-2.69524 0.29096 L-2.71429 0.29096 "/>
<path d="M-2.71429 0.29096 L-2.74286 0.28144 "/>
<path d="M-2.74286 0.28144 L-2.76191 0.26239 "/>
<path d="M-2.76191 0.26239 L-2.77143 0.24334 "/>
<path d="M-2.77143 0.24334 L-2.78095 0.20525 "/>
<path d="M-2.78095 0.20525 L-2.78095 0.17668 "/>
<path d="M-2.78095 0.17668 L-2.77143 0.13858 "/>
<path d="M-2.77143 0.13858 L-2.76191 0.11953 "/>
<path d="M-2.76191 0.11953 L-2.74286 0.10049 "/>
<path d="M-2.74286 0.10049 L-2.71429 0.09096 "/>
<path d="M-2.71429 0.09096 L-2.69524 0.09096 "/>
<path d="M-2.69524 0.09096 L-2.66667 0.10049 "/>
<path d="M-2.66667 0.10049 L-2.65714 0.11001 "/>
<path d="M-2.48571 0.15763 L-2.48571 0.29096 "/>
<path d="M-2.57143 0.15763 L-2.57143 0.26239 "/>
<path d="M-2.57143 0.26239 L-2.56190 0.28144 "/>
<path d="M-2.56190 0.28144 L-2.54286 0.29096 "/>
<path d="M-2.54286 0.29096 L-2.51429 0.29096 "/>
<path d="M-2.51429 0.29096 L-2.49524 0.28144 "/>
<path d="M-2.49524 0.28144 L-2.48571 0.27192 "/>
<path d="M-2.26667 0.15763 L-2.19048 0.15763 "/>
<path d="M-2.23809 0.09096 L-2.23809 0.26239 "/>
<path d="M-2.23809 0.26239 L-2.22857 0.28144 "/>
<path d="M-2.22857 0.28144 L-2.20952 0.29096 "/>
<path d="M-2.20952 0.29096 L-2.19048 0.29096 "/>
<path d="M-2.12381 0.29096 L-2.12381 0.15763 "/>
<path d="M-2.12381 0.19572 L-2.11429 0.17668 "/>
<path d="M-2.11429 0.17668 L-2.10476 0.16715 "/>
<path d="M-2.10476 0.16715 L-2.08571 0.15763 "/>
<path d="M-2.08571 0.15763 L-2.06667 0.15763 "/>
<path d="M-1.91429 0.29096 L-1.91429 0.18620 "/>
<path d="M-1.91429 0.18620 L-1.92381 0.16715 "/>
<path d="M-1.92381 0.16715 L-1.94286 0.15763 "/>
<path d="M-1.94286 0.15763 L-1.98095 0.15763 "/>
<path d="M-1.98095 0.15763 L-2.00000 0.16715 "/>
<path d="M-1.91429 0.28144 L-1.93333 0.29096 "/>
<path d="M-1.93333 0.29096 L-1.98095 0.29096 "/>
<path d="M-1.98095 0.29096 L-2.00000 0.28144 "/>
<path d="M-2.00000 0.28144 L-2.00952 0.26239 "/>
<path d="M-2.00952 0.26239 L-2.00952 0.24334 "/>
<path d="M-2.00952 0.24334 L-2.00000 0.22430 "/>
<path d="M-2.00000 0.22430 L-1.98095 0.21477 "/>
<path d="M-1.98095 0.21477 L-1.93333 0.21477 "/>
<path d="M-1.93333 0.21477 L-1.91429 0.20525 "/>
<path d="M-1.73333 0.28144 L-1.75238 0.29096 "/>
<path d="M-1.75238 0.29096 L-1.79048 0.29096 "/>
<path d="M-1.79048 0.29096 L-1.80952 0.28144 "/>
<path d="M-1.80952 0.28144 L-1.81905 0.27192 "/>
<path d="M-1.81905 0.27192 L-1.82857 0.25287 "/>
<path d="M-1.82857 0.25287 L-1.82857 0.19572 "/>
<path d="M-1.82857 0.19572 L-1.81905 0.17668 "/>
<path d="M-1.81905 0.17668 L-1.80952 0.16715 "/>
<path d="M-1.80952 0.16715 L-1.79048 0.15763 "/>
<path d="M-1.79048 0.15763 L-1.75238 0.15763 "/>
<path d="M-1.75238 0.15763 L-1.73333 0.16715 "/>
<path d="M-1.64762 0.29096 L-1.64762 0.09096 "/>
<path d="M-1.62857 0.21477 L-1.57143 0.29096 "/>
<path d="M-1.57143 0.15763 L-1.64762 0.23382 "/>
<path d="M-1.49524 0.28144 L-1.47619 0.29096 "/>
<path d="M-1.47619 0.29096 L-1.43809 0.29096 "/>
<path d="M-1.43809 0.29096 L-1.41905 0.28144 "/>
<path d="M-1.41905 0.28144 L-1.40952 0.26239 "/>
<path d="M-1.40952 0.26239 L-1.40952 0.25287 "/>
<path d="M-1.40952 0.25287 L-1.41905 0.23382 "/>
<path d="M-1.41905 0.23382 L-1.43809 0.22430 "/>
<path d="M-1.43809 0.22430 L-1.46667 0.22430 "/>
<path d="M-1.46667 0.22430 L-1.48571 0.21477 "/>
<path d="M-1.48571 0.21477 L-1.49524 0.19572 "/>
<path d="M-1.49524 0.19572 L-1.49524 0.18620 "/>
<path d="M-1.49524 0.18620 L-1.48571 0.16715 "/>
<path d="M-1.48571 0.16715 L-1.46667 0.15763 "/>
<path d="M-1.46667 0.15763 L-1.43809 0.15763 "/>
<path d="M-1.43809 0.15763 L-1.41905 0.16715 "/>
</g></g> 
</g></g></g><rect id="origin" fill="red" width="1.0" height="1.0" x="0" y="0"/></svg>