<!DOCTYPE svg PUBLIC "-//W3C//DTD SVG 1.1//EN" "http://www.w3.org/Graphics/SVG/1.1/DTD/svg11.dtd">
<svg xmlns="http://www.w3.org/2000/svg" version="1.1" width="13.45mm" height="7.53925mm" viewBox="-2.975 -3.61425 13.45 7.53925">
            <title>Picture generated by PcbDraw </title>
            <desc>Picture generated by PcbDraw</desc>
        <g transform="" id="boardContainer"><g id="KiCAD footprint bottom"><g id="substrate-copper" style="fill:#666666; stroke:#666666;"><g style="fill-opacity: 1.00000;stroke-opacity: 1.00000;stroke-linecap: round;stroke-linejoin: round" transform="translate(0 0) scale(1 1)">
<path style="fill-opacity: 1.00000;fill-rule: evenodd" d="M -0.85000,-0.72500 -0.83097,-0.82067 -0.77678,-0.90178 -0.69567,-0.95597 -0.60000,-0.97500 0.60000,-0.97500 0.69567,-0.95597 0.77678,-0.90178 0.83097,-0.82067 0.85000,-0.72500 0.85000,0.72500 0.83097,0.82067 0.77678,0.90178 0.69567,0.95597 0.60000,0.97500 -0.60000,0.97500 -0.69567,0.95597 -0.77678,0.90178 -0.83097,0.82067 -0.85000,0.72500 Z"/> 
</g>
<g style="stroke-width: 1.70000;stroke-opacity: 1;stroke-linecap: round;stroke-linejoin: round">
<path d="M2.50000 -0.12500 L2.50000 0.12500 "/>
<path d="M5.00000 -0.12500 L5.00000 0.12500 "/>
<path d="M7.50000 -0.12500 L7.50000 0.12500 "/>
</g> 
</g></g></g><rect id="origin" fill="red" width="1.0" height="1.0" x="0" y="0"/></svg>