<!DOCTYPE svg PUBLIC "-//W3C//DTD SVG 1.1//EN" "http://www.w3.org/Graphics/SVG/1.1/DTD/svg11.dtd">
<svg xmlns="http://www.w3.org/2000/svg" version="1.1" width="8.45mm" height="7.93925mm" viewBox="-2.975 -4.01425 8.45 7.93925">
            <title>Picture generated by PcbDraw </title>
            <desc>Picture generated by PcbDraw</desc>
        <g transform="" id="boardContainer"><g id="KiCAD footprint top"><g id="substrate-copper" style="fill:#666666; stroke:#666666;"><g style="fill-opacity: 1.00000;stroke-opacity: 1.00000;stroke-linecap: round;stroke-linejoin: round" transform="translate(0 0) scale(1 1)">
<path style="fill-opacity: 1.00000;fill-rule: evenodd" d="M -0.85000,-0.75000 -0.83097,-0.84567 -0.77678,-0.92678 -0.69567,-0.98097 -0.60000,-1.00000 0.60000,-1.00000 0.69567,-0.98097 0.77678,-0.92678 0.83097,-0.84567 0.85000,-0.75000 0.85000,0.75000 0.83097,0.84567 0.77678,0.92678 0.69567,0.98097 0.60000,1.00000 -0.60000,1.00000 -0.69567,0.98097 -0.77678,0.92678 -0.83097,0.84567 -0.85000,0.75000 Z"/> 
</g>
<g style="stroke-width: 1.70000;stroke-opacity: 1;stroke-linecap: round;stroke-linejoin: round">
<path d="M2.50000 -0.15000 L2.50000 0.15000 "/>
</g> 
</g><g id="substrate-crt" style="fill:#000000; stroke:#000000;"><g style="stroke-width: 0.05000;stroke-opacity: 1;stroke-linecap: round;stroke-linejoin: round">
<path d="M-2.95000 3.90000 L5.45000 3.90000 "/>
<path d="M5.45000 3.90000 L5.45000 -2.85000 "/>
<path d="M-2.95000 -2.85000 L-2.95000 3.90000 "/>
<path d="M5.45000 -2.85000 L-2.95000 -2.85000 "/>
</g> 
</g><g id="substrate-fab" style="fill:#000000; stroke:#000000;"><g style="stroke-width: 0.10000;stroke-opacity: 1;stroke-linecap: round;stroke-linejoin: round">
<path d="M-2.45000 3.40000 L4.95000 3.40000 "/>
<path d="M4.95000 3.40000 L4.95000 -2.35000 "/>
<path d="M0.00000 -1.35000 L0.62500 -2.35000 "/>
<path d="M-2.45000 -2.35000 L-2.45000 3.40000 "/>
<path d="M-0.62500 -2.35000 L0.00000 -1.35000 "/>
<path d="M4.95000 -2.35000 L-2.45000 -2.35000 "/>
</g> 
</g><g id="substrate-silk" style="fill:#61caff; stroke:#61caff;" mask="url(#pads-mask-silkscreen)"><g style="stroke-width: 0.15000;stroke-opacity: 1;stroke-linecap: round;stroke-linejoin: round">
<text x="1.25000" y="-3.10000" textLength="1.35857" font-size="0.80000" lengthAdjust="spacingAndGlyphs" text-anchor="middle" opacity="0" stroke-opacity="0">J8</text>
<g class="stroked-text"><desc>J8</desc>
<path d="M1.05000 -3.73023 L1.05000 -3.30166 "/>
<path d="M1.05000 -3.30166 L1.02143 -3.21594 "/>
<path d="M1.02143 -3.21594 L0.96428 -3.15880 "/>
<path d="M0.96428 -3.15880 L0.87857 -3.13023 "/>
<path d="M0.87857 -3.13023 L0.82143 -3.13023 "/>
<path d="M1.42143 -3.47308 L1.36428 -3.50166 "/>
<path d="M1.36428 -3.50166 L1.33571 -3.53023 "/>
<path d="M1.33571 -3.53023 L1.30714 -3.58737 "/>
<path d="M1.30714 -3.58737 L1.30714 -3.61594 "/>
<path d="M1.30714 -3.61594 L1.33571 -3.67308 "/>
<path d="M1.33571 -3.67308 L1.36428 -3.70166 "/>
<path d="M1.36428 -3.70166 L1.42143 -3.73023 "/>
<path d="M1.42143 -3.73023 L1.53571 -3.73023 "/>
<path d="M1.53571 -3.73023 L1.59286 -3.70166 "/>
<path d="M1.59286 -3.70166 L1.62143 -3.67308 "/>
<path d="M1.62143 -3.67308 L1.65000 -3.61594 "/>
<path d="M1.65000 -3.61594 L1.65000 -3.58737 "/>
<path d="M1.65000 -3.58737 L1.62143 -3.53023 "/>
<path d="M1.62143 -3.53023 L1.59286 -3.50166 "/>
<path d="M1.59286 -3.50166 L1.53571 -3.47308 "/>
<path d="M1.53571 -3.47308 L1.42143 -3.47308 "/>
<path d="M1.42143 -3.47308 L1.36428 -3.44451 "/>
<path d="M1.36428 -3.44451 L1.33571 -3.41594 "/>
<path d="M1.33571 -3.41594 L1.30714 -3.35880 "/>
<path d="M1.30714 -3.35880 L1.30714 -3.24451 "/>
<path d="M1.30714 -3.24451 L1.33571 -3.18737 "/>
<path d="M1.33571 -3.18737 L1.36428 -3.15880 "/>
<path d="M1.36428 -3.15880 L1.42143 -3.13023 "/>
<path d="M1.42143 -3.13023 L1.53571 -3.13023 "/>
<path d="M1.53571 -3.13023 L1.59286 -3.15880 "/>
<path d="M1.59286 -3.15880 L1.62143 -3.18737 "/>
<path d="M1.62143 -3.18737 L1.65000 -3.24451 "/>
<path d="M1.65000 -3.24451 L1.65000 -3.35880 "/>
<path d="M1.65000 -3.35880 L1.62143 -3.41594 "/>
<path d="M1.62143 -3.41594 L1.59286 -3.44451 "/>
<path d="M1.59286 -3.44451 L1.53571 -3.47308 "/>
</g></g>
<g style="stroke-width: 0.12000;stroke-opacity: 1;stroke-linecap: round;stroke-linejoin: round">
<path d="M-2.56000 3.51000 L5.06000 3.51000 "/>
<path d="M5.06000 3.51000 L5.06000 -2.46000 "/>
<path d="M-1.80000 2.75000 L1.25000 2.75000 "/>
<path d="M4.30000 2.75000 L1.25000 2.75000 "/>
<path d="M-2.55000 -0.20000 L-1.80000 -0.20000 "/>
<path d="M-1.80000 -0.20000 L-1.80000 2.75000 "/>
<path d="M4.30000 -0.20000 L4.30000 2.75000 "/>
<path d="M5.05000 -0.20000 L4.30000 -0.20000 "/>
<path d="M-2.55000 -1.70000 L-0.75000 -1.70000 "/>
<path d="M-0.75000 -1.70000 L-0.75000 -2.45000 "/>
<path d="M0.75000 -1.70000 L1.75000 -1.70000 "/>
<path d="M1.75000 -1.70000 L1.75000 -2.45000 "/>
<path d="M3.25000 -1.70000 L5.05000 -1.70000 "/>
<path d="M5.05000 -1.70000 L5.05000 -2.45000 "/>
<path d="M-2.55000 -2.45000 L-2.55000 -1.70000 "/>
<path d="M-0.75000 -2.45000 L-2.55000 -2.45000 "/>
<path d="M0.75000 -2.45000 L0.75000 -1.70000 "/>
<path d="M1.75000 -2.45000 L0.75000 -2.45000 "/>
<path d="M3.25000 -2.45000 L3.25000 -1.70000 "/>
<path d="M5.05000 -2.45000 L3.25000 -2.45000 "/>
<path d="M-2.56000 -2.46000 L-2.56000 3.51000 "/>
<path d="M5.06000 -2.46000 L-2.56000 -2.46000 "/>
<path d="M-2.85000 -2.75000 L-2.85000 -1.50000 "/>
<path d="M-1.60000 -2.75000 L-2.85000 -2.75000 "/>
</g> 
</g></g></g><rect id="origin" fill="red" width="1.0" height="1.0" x="0" y="0"/></svg>