<!DOCTYPE svg PUBLIC "-//W3C//DTD SVG 1.1//EN" "http://www.w3.org/Graphics/SVG/1.1/DTD/svg11.dtd">
<svg xmlns="http://www.w3.org/2000/svg" version="1.1" width="13.45mm" height="7.53925mm" viewBox="-2.975 -3.61425 13.45 7.53925">
            <title>Picture generated by PcbDraw </title>
            <desc>Picture generated by PcbDraw</desc>
        <g transform="" id="boardContainer"><g id="KiCAD footprint top"><g id="substrate-copper" style="fill:#666666; stroke:#666666;"><g style="fill-opacity: 1.00000;stroke-opacity: 1.00000;stroke-linecap: round;stroke-linejoin: round" transform="translate(0 0) scale(1 1)">
<path style="fill-opacity: 1.00000;fill-rule: evenodd" d="M -0.85000,-0.72500 -0.83097,-0.82067 -0.77678,-0.90178 -0.69567,-0.95597 -0.60000,-0.97500 0.60000,-0.97500 0.69567,-0.95597 0.77678,-0.90178 0.83097,-0.82067 0.85000,-0.72500 0.85000,0.72500 0.83097,0.82067 0.77678,0.90178 0.69567,0.95597 0.60000,0.97500 -0.60000,0.97500 -0.69567,0.95597 -0.77678,0.90178 -0.83097,0.82067 -0.85000,0.72500 Z"/> 
</g>
<g style="stroke-width: 1.70000;stroke-opacity: 1;stroke-linecap: round;stroke-linejoin: round">
<path d="M2.50000 -0.12500 L2.50000 0.12500 "/>
<path d="M5.00000 -0.12500 L5.00000 0.12500 "/>
<path d="M7.50000 -0.12500 L7.50000 0.12500 "/>
</g> 
</g><g id="substrate-crt" style="fill:#000000; stroke:#000000;"><g style="stroke-width: 0.05000;stroke-opacity: 1;stroke-linecap: round;stroke-linejoin: round">
<path d="M-2.95000 -2.85000 L-2.95000 3.90000 "/>
<path d="M-2.95000 3.90000 L10.45000 3.90000 "/>
<path d="M10.45000 -2.85000 L-2.95000 -2.85000 "/>
<path d="M10.45000 3.90000 L10.45000 -2.85000 "/>
</g> 
</g><g id="substrate-fab" style="fill:#000000; stroke:#000000;"><g style="stroke-width: 0.10000;stroke-opacity: 1;stroke-linecap: round;stroke-linejoin: round">
<path d="M-2.45000 -2.35000 L-2.45000 3.40000 "/>
<path d="M-2.45000 3.40000 L9.95000 3.40000 "/>
<path d="M-0.62500 -2.35000 L0.00000 -1.35000 "/>
<path d="M0.00000 -1.35000 L0.62500 -2.35000 "/>
<path d="M9.95000 -2.35000 L-2.45000 -2.35000 "/>
<path d="M9.95000 3.40000 L9.95000 -2.35000 "/>
</g> 
</g><g id="substrate-silk" style="fill:#61caff; stroke:#61caff;" mask="url(#pads-mask-silkscreen)"><g style="stroke-width: 0.15000;stroke-opacity: 1;stroke-linecap: round;stroke-linejoin: round">
<text x="3.88000" y="-2.70000" textLength="1.35857" font-size="0.80000" lengthAdjust="spacingAndGlyphs" text-anchor="middle" opacity="0" stroke-opacity="0">J5</text>
<g class="stroked-text"><desc>J5</desc>
<path d="M3.68000 -3.33023 L3.68000 -2.90166 "/>
<path d="M3.68000 -2.90166 L3.65143 -2.81594 "/>
<path d="M3.65143 -2.81594 L3.59428 -2.75880 "/>
<path d="M3.59428 -2.75880 L3.50857 -2.73023 "/>
<path d="M3.50857 -2.73023 L3.45143 -2.73023 "/>
<path d="M4.25143 -3.33023 L3.96571 -3.33023 "/>
<path d="M3.96571 -3.33023 L3.93714 -3.04451 "/>
<path d="M3.93714 -3.04451 L3.96571 -3.07308 "/>
<path d="M3.96571 -3.07308 L4.02286 -3.10166 "/>
<path d="M4.02286 -3.10166 L4.16571 -3.10166 "/>
<path d="M4.16571 -3.10166 L4.22286 -3.07308 "/>
<path d="M4.22286 -3.07308 L4.25143 -3.04451 "/>
<path d="M4.25143 -3.04451 L4.28000 -2.98737 "/>
<path d="M4.28000 -2.98737 L4.28000 -2.84451 "/>
<path d="M4.28000 -2.84451 L4.25143 -2.78737 "/>
<path d="M4.25143 -2.78737 L4.22286 -2.75880 "/>
<path d="M4.22286 -2.75880 L4.16571 -2.73023 "/>
<path d="M4.16571 -2.73023 L4.02286 -2.73023 "/>
<path d="M4.02286 -2.73023 L3.96571 -2.75880 "/>
<path d="M3.96571 -2.75880 L3.93714 -2.78737 "/>
</g></g>
<g style="stroke-width: 0.12000;stroke-opacity: 1;stroke-linecap: round;stroke-linejoin: round">
<path d="M-2.85000 -2.75000 L-2.85000 -1.50000 "/>
<path d="M-2.56000 -2.46000 L-2.56000 3.51000 "/>
<path d="M-2.56000 3.51000 L10.06000 3.51000 "/>
<path d="M-2.55000 -2.45000 L-2.55000 -1.70000 "/>
<path d="M-2.55000 -1.70000 L-0.75000 -1.70000 "/>
<path d="M-2.55000 -0.20000 L-1.80000 -0.20000 "/>
<path d="M-1.80000 -0.20000 L-1.80000 2.75000 "/>
<path d="M-1.80000 2.75000 L3.75000 2.75000 "/>
<path d="M-1.60000 -2.75000 L-2.85000 -2.75000 "/>
<path d="M-0.75000 -2.45000 L-2.55000 -2.45000 "/>
<path d="M-0.75000 -1.70000 L-0.75000 -2.45000 "/>
<path d="M0.75000 -2.45000 L0.75000 -1.70000 "/>
<path d="M0.75000 -1.70000 L6.75000 -1.70000 "/>
<path d="M6.75000 -2.45000 L0.75000 -2.45000 "/>
<path d="M6.75000 -1.70000 L6.75000 -2.45000 "/>
<path d="M8.25000 -2.45000 L8.25000 -1.70000 "/>
<path d="M8.25000 -1.70000 L10.05000 -1.70000 "/>
<path d="M9.30000 -0.20000 L9.30000 2.75000 "/>
<path d="M9.30000 2.75000 L3.75000 2.75000 "/>
<path d="M10.05000 -2.45000 L8.25000 -2.45000 "/>
<path d="M10.05000 -1.70000 L10.05000 -2.45000 "/>
<path d="M10.05000 -0.20000 L9.30000 -0.20000 "/>
<path d="M10.06000 -2.46000 L-2.56000 -2.46000 "/>
<path d="M10.06000 3.51000 L10.06000 -2.46000 "/>
</g> 
</g></g></g><rect id="origin" fill="red" width="1.0" height="1.0" x="0" y="0"/></svg>