<?xml version="1.0" encoding="UTF-8" standalone="no"?>
<svg
   version="1.1"
   width="21.175714mm"
   height="15.75mm"
   viewBox="-3.300714 -7.875 21.175714 15.75"
   id="svg336"
   sodipodi:docname="Relay_SPDT_Finder_36.11.svg"
   inkscape:version="1.2.2 (b0a8486541, 2022-12-01)"
   xmlns:inkscape="http://www.inkscape.org/namespaces/inkscape"
   xmlns:sodipodi="http://sodipodi.sourceforge.net/DTD/sodipodi-0.dtd"
   xmlns="http://www.w3.org/2000/svg"
   xmlns:svg="http://www.w3.org/2000/svg">
  <defs
     id="defs340" />
  <sodipodi:namedview
     id="namedview338"
     pagecolor="#ffffff"
     bordercolor="#000000"
     borderopacity="0.25"
     inkscape:showpageshadow="2"
     inkscape:pageopacity="0.0"
     inkscape:pagecheckerboard="0"
     inkscape:deskcolor="#d1d1d1"
     inkscape:document-units="mm"
     showgrid="false"
     inkscape:zoom="9.7213376"
     inkscape:cx="33.22588"
     inkscape:cy="32.094349"
     inkscape:window-width="1854"
     inkscape:window-height="1011"
     inkscape:window-x="0"
     inkscape:window-y="0"
     inkscape:window-maximized="1"
     inkscape:current-layer="svg336" />
  <title
     id="title205">Picture generated by PcbDraw </title>
  <desc
     id="desc207">Picture generated by PcbDraw</desc>
  <g
     id="boardContainer"
     transform="">
    <g
       id="KiCAD footprint top">
      <g
         id="substrate-copper"
         style="fill:#666666; stroke:#666666;">
        <path
           style="fill:#0085ff;fill-opacity:1;stroke:none;stroke-width:0.038673;stroke-dasharray:none;stroke-opacity:1"
           d="M 7.4695232,29.77577 V 1.2790279 H 43.128822 78.788121 V 29.77577 58.272513 H 43.128822 7.4695232 Z m 8.7997118,1.892962 V 29.724609 H 14.325113 12.38099 v 1.944123 1.944122 h 1.944123 1.944122 z"
           id="path1423"
           transform="matrix(0.26458333,0,0,0.26458333,-3.300714,-7.875)" />
      </g>
      <g
         id="substrate-crt"
         style="fill:#000000; stroke:#000000;">
        <g
           style="stroke-width: 0.05000;stroke-opacity: 1;stroke-linecap: round;stroke-linejoin: round"
           id="g238">
          <path
             d="M17.85000 -7.85000 L-1.75000 -7.85000 "
             id="path230" />
          <path
             d="M17.85000 -7.85000 L17.85000 7.85000 "
             id="path232" />
          <path
             d="M-1.75000 7.85000 L-1.75000 -7.85000 "
             id="path234" />
          <path
             d="M-1.75000 7.85000 L17.85000 7.85000 "
             id="path236" />
        </g>
      </g>
      <g
         id="substrate-fab"
         style="fill:#000000; stroke:#000000;">
        <g
           style="stroke-width:0.1;stroke-opacity:1;stroke-linecap:round;stroke-linejoin:round;fill:#000000;fill-opacity:1"
           id="g249">
          <path
             d="M17.60000 -7.60000 L17.60000 7.60000 "
             id="path241"
             style="fill:#000000;fill-opacity:1" />
          <path
             d="M-1.40000 -7.60000 L17.60000 -7.60000 "
             id="path243"
             style="fill:#000000;fill-opacity:1" />
          <path
             d="M17.60000 7.60000 L-1.40000 7.60000 "
             id="path245"
             style="fill:#000000;fill-opacity:1" />
          <path
             d="M-1.40000 7.60000 L-1.40000 -7.60000 "
             id="path247"
             style="fill:#000000;fill-opacity:1" />
        </g>
      </g>
    </g>
  </g>
  <path
     style="fill:#0085ff;fill-opacity:1;stroke:none;stroke-width:0.0388787;stroke-dasharray:none;stroke-opacity:1"
     d="m 12.395414,31.682883 v -1.903031 h 1.90303 1.90303 v 1.903031 1.90303 h -1.90303 -1.90303 z"
     id="path4214"
     transform="matrix(0.26458333,0,0,0.26458333,-3.300714,-7.875)" />
  <path
     style="fill:#0085ff;fill-opacity:1;stroke:none;stroke-width:0.0388787;stroke-dasharray:none;stroke-opacity:1"
     d="m 12.395414,31.682883 v -1.903031 h 1.90303 1.90303 v 1.903031 1.90303 h -1.90303 -1.90303 z"
     id="path4216"
     transform="matrix(0.26458333,0,0,0.26458333,-3.300714,-7.875)" />
  <path
     style="fill:#0085ff;fill-opacity:1;stroke:none;stroke-width:0.0388787;stroke-dasharray:none;stroke-opacity:1"
     d="m 12.395414,31.682883 v -1.903031 h 1.90303 1.90303 v 1.903031 1.90303 h -1.90303 -1.90303 z"
     id="path4218"
     transform="matrix(0.26458333,0,0,0.26458333,-3.300714,-7.875)" />
  <path
     style="fill:#0085ff;fill-opacity:1;stroke:none;stroke-width:0.0388787;stroke-dasharray:none;stroke-opacity:1"
     d="m 12.395414,31.682883 v -1.903031 h 1.90303 1.90303 v 1.903031 1.90303 h -1.90303 -1.90303 z"
     id="path4220"
     transform="matrix(0.26458333,0,0,0.26458333,-3.300714,-7.875)" />
  <path
     style="fill:#0085ff;fill-opacity:1;stroke:none;stroke-width:0.0388787;stroke-dasharray:none;stroke-opacity:1"
     d="m 12.395414,31.682883 v -1.903031 h 1.90303 1.90303 v 1.903031 1.90303 h -1.90303 -1.90303 z"
     id="path4222"
     transform="matrix(0.26458333,0,0,0.26458333,-3.300714,-7.875)" />
  <path
     style="fill:#0085ff;fill-opacity:1;stroke:none;stroke-width:0.0388787;stroke-dasharray:none;stroke-opacity:1"
     d="m 12.395414,31.682883 v -1.903031 h 1.90303 1.90303 v 1.903031 1.90303 h -1.90303 -1.90303 z"
     id="path4224"
     transform="matrix(0.26458333,0,0,0.26458333,-3.300714,-7.875)" />
  <path
     style="fill:#0085ff;fill-opacity:1;stroke:none;stroke-width:0.0388787;stroke-dasharray:none;stroke-opacity:1"
     d="m 12.395414,31.682883 v -1.903031 h 1.90303 1.90303 v 1.903031 1.90303 h -1.90303 -1.90303 z"
     id="path4226"
     transform="matrix(0.26458333,0,0,0.26458333,-3.300714,-7.875)" />
  <path
     style="fill:#0085ff;fill-opacity:1;stroke:none;stroke-width:0.0388787;stroke-dasharray:none;stroke-opacity:1"
     d="m 12.395414,31.682883 v -1.903031 h 1.90303 1.90303 v 1.903031 1.90303 h -1.90303 -1.90303 z"
     id="path4228"
     transform="matrix(0.26458333,0,0,0.26458333,-3.300714,-7.875)" />
  <path
     style="fill:#0085ff;fill-opacity:1;stroke:none;stroke-width:0.0388787;stroke-dasharray:none;stroke-opacity:1"
     d="m 12.395414,31.682883 v -1.903031 h 1.90303 1.90303 v 1.903031 1.90303 h -1.90303 -1.90303 z"
     id="path4230"
     transform="matrix(0.26458333,0,0,0.26458333,-3.300714,-7.875)" />
  <path
     style="fill:#0085ff;fill-opacity:1;stroke:none;stroke-width:0.0388787;stroke-dasharray:none;stroke-opacity:1"
     d="m 12.395414,31.682883 v -1.903031 h 1.90303 1.90303 v 1.903031 1.90303 h -1.90303 -1.90303 z"
     id="path4232"
     transform="matrix(0.26458333,0,0,0.26458333,-3.300714,-7.875)" />
  <path
     style="fill:#0085ff;fill-opacity:1;stroke:none;stroke-width:0.0388787;stroke-dasharray:none;stroke-opacity:1"
     d="m 12.395414,31.682883 v -1.903031 h 1.90303 1.90303 v 1.903031 1.90303 h -1.90303 -1.90303 z"
     id="path4234"
     transform="matrix(0.26458333,0,0,0.26458333,-3.300714,-7.875)" />
  <path
     style="fill:#0085ff;fill-opacity:1;stroke:none;stroke-width:0.0388787;stroke-dasharray:none;stroke-opacity:1"
     d="m 12.395414,31.682883 v -1.903031 h 1.90303 1.90303 v 1.903031 1.90303 h -1.90303 -1.90303 z"
     id="path4236"
     transform="matrix(0.26458333,0,0,0.26458333,-3.300714,-7.875)" />
  <path
     style="fill:#0085ff;fill-opacity:1;stroke:none;stroke-width:0.0388787;stroke-dasharray:none;stroke-opacity:1"
     d="m 12.395414,31.682883 v -1.903031 h 1.90303 1.90303 v 1.903031 1.90303 h -1.90303 -1.90303 z"
     id="path4238"
     transform="matrix(0.26458333,0,0,0.26458333,-3.300714,-7.875)" />
  <path
     style="fill:#0085ff;fill-opacity:1;stroke:none;stroke-width:0.0388787;stroke-dasharray:none;stroke-opacity:1"
     d="m 12.395414,31.682883 v -1.903031 h 1.90303 1.90303 v 1.903031 1.90303 h -1.90303 -1.90303 z"
     id="path4240"
     transform="matrix(0.26458333,0,0,0.26458333,-3.300714,-7.875)" />
  <path
     style="fill:#0085ff;fill-opacity:1;stroke:none;stroke-width:0.0388787;stroke-dasharray:none;stroke-opacity:1"
     d="m 12.395414,31.682883 v -1.903031 h 1.90303 1.90303 v 1.903031 1.90303 h -1.90303 -1.90303 z"
     id="path4242"
     transform="matrix(0.26458333,0,0,0.26458333,-3.300714,-7.875)" />
  <path
     style="fill:#0085ff;fill-opacity:1;stroke:none;stroke-width:0.0388787;stroke-dasharray:none;stroke-opacity:1"
     d="m 12.395414,31.682883 v -1.903031 h 1.90303 1.90303 v 1.903031 1.90303 h -1.90303 -1.90303 z"
     id="path4244"
     transform="matrix(0.26458333,0,0,0.26458333,-3.300714,-7.875)" />
  <path
     style="fill:#0085ff;fill-opacity:1;stroke:none;stroke-width:0.0388787;stroke-dasharray:none;stroke-opacity:1"
     d="m 12.395414,31.682883 v -1.903031 h 1.90303 1.90303 v 1.903031 1.90303 h -1.90303 -1.90303 z"
     id="path4246"
     transform="matrix(0.26458333,0,0,0.26458333,-3.300714,-7.875)" />
  <path
     style="fill:#0085ff;fill-opacity:1;stroke:none;stroke-width:0.0388787;stroke-dasharray:none;stroke-opacity:1"
     d="m 12.395414,31.682883 v -1.903031 h 1.90303 1.90303 v 1.903031 1.90303 h -1.90303 -1.90303 z"
     id="path4248"
     transform="matrix(0.26458333,0,0,0.26458333,-3.300714,-7.875)" />
  <path
     style="fill:#0085ff;fill-opacity:1;stroke:none;stroke-width:0.0388787;stroke-dasharray:none;stroke-opacity:1"
     d="m 12.395414,31.682883 v -1.903031 h 1.90303 1.90303 v 1.903031 1.90303 h -1.90303 -1.90303 z"
     id="path4250"
     transform="matrix(0.26458333,0,0,0.26458333,-3.300714,-7.875)" />
  <path
     style="fill:#0085ff;fill-opacity:1;stroke:none;stroke-width:0.0388787;stroke-dasharray:none;stroke-opacity:1"
     d="m 12.395414,31.682883 v -1.903031 h 1.90303 1.90303 v 1.903031 1.90303 h -1.90303 -1.90303 z"
     id="path4252"
     transform="matrix(0.26458333,0,0,0.26458333,-3.300714,-7.875)" />
  <path
     style="fill:#0085ff;fill-opacity:1;stroke:none;stroke-width:0.0388787;stroke-dasharray:none;stroke-opacity:1"
     d="m 12.395414,31.682883 v -1.903031 h 1.90303 1.90303 v 1.903031 1.90303 h -1.90303 -1.90303 z"
     id="path4254"
     transform="matrix(0.26458333,0,0,0.26458333,-3.300714,-7.875)" />
  <path
     style="fill:#0085ff;fill-opacity:1;stroke:none;stroke-width:0.0388787;stroke-dasharray:none;stroke-opacity:1"
     d="m 12.395414,31.682883 v -1.903031 h 1.90303 1.90303 v 1.903031 1.90303 h -1.90303 -1.90303 z"
     id="path4256"
     transform="matrix(0.26458333,0,0,0.26458333,-3.300714,-7.875)" />
  <path
     style="fill:#0085ff;fill-opacity:1;stroke:none;stroke-width:0.0388787;stroke-dasharray:none;stroke-opacity:1"
     d="m 12.395414,31.682883 v -1.903031 h 1.90303 1.90303 v 1.903031 1.90303 h -1.90303 -1.90303 z"
     id="path4258"
     transform="matrix(0.26458333,0,0,0.26458333,-3.300714,-7.875)" />
  <path
     style="fill:#0085ff;fill-opacity:1;stroke:none;stroke-width:0.0388787;stroke-dasharray:none;stroke-opacity:1"
     d="m 12.395414,31.682883 v -1.903031 h 1.90303 1.90303 v 1.903031 1.90303 h -1.90303 -1.90303 z"
     id="path4260"
     transform="matrix(0.26458333,0,0,0.26458333,-3.300714,-7.875)" />
  <path
     style="fill:#0085ff;fill-opacity:1;stroke:none;stroke-width:0.0388787;stroke-dasharray:none;stroke-opacity:1"
     d="m 12.395414,31.682883 v -1.903031 h 1.90303 1.90303 v 1.903031 1.90303 h -1.90303 -1.90303 z"
     id="path4262"
     transform="matrix(0.26458333,0,0,0.26458333,-3.300714,-7.875)" />
  <path
     style="fill:#0085ff;fill-opacity:1;stroke:none;stroke-width:0.0388787;stroke-dasharray:none;stroke-opacity:1"
     d="m 12.395414,31.682883 v -1.903031 h 1.90303 1.90303 v 1.903031 1.90303 h -1.90303 -1.90303 z"
     id="path4264"
     transform="matrix(0.26458333,0,0,0.26458333,-3.300714,-7.875)" />
  <path
     style="fill:#0085ff;fill-opacity:1;stroke:none;stroke-width:0.0388787;stroke-dasharray:none;stroke-opacity:1"
     d="m 12.395414,31.682883 v -1.903031 h 1.90303 1.90303 v 1.903031 1.90303 h -1.90303 -1.90303 z"
     id="path4266"
     transform="matrix(0.26458333,0,0,0.26458333,-3.300714,-7.875)" />
  <path
     style="fill:#0085ff;fill-opacity:1;stroke:none;stroke-width:0.0388787;stroke-dasharray:none;stroke-opacity:1"
     d="M 7.5606879,29.779852 V 1.2858313 H 43.152498 78.744308 V 29.779852 58.273874 H 43.152498 7.5606879 Z m 6.7634721,3.83192 -1.928746,-0.0304 V 31.68061 29.77985 h 1.899431 1.899432 l 0.03334,1.054382 0.03334,1.054382 0.02169,-1.105815 0.0217,-1.105815 H 14.29845 12.292553 v 2.005897 2.005897 l 1.98018,-0.02331 1.98018,-0.02331 z"
     id="path4268"
     transform="matrix(0.26458333,0,0,0.26458333,-3.300714,-7.875)" />
  <path
     style="fill:#0085ff;fill-opacity:1;stroke:none;stroke-width:0.0388787;stroke-dasharray:none;stroke-opacity:1"
     d="M 7.5606879,29.779852 V 1.2858313 H 43.152498 78.744308 V 29.779852 58.273874 H 43.152498 7.5606879 Z m 6.7143011,3.831935 -1.875053,-0.0305 -0.03039,-1.926434 -0.03039,-1.926436 -0.02331,1.98018 -0.0233,1.980181 1.928747,-0.02325 1.928747,-0.02325 z"
     id="path4270"
     transform="matrix(0.26458333,0,0,0.26458333,-3.300714,-7.875)" />
  <rect
     id="origin"
     fill="#ff0000"
     width="1"
     height="1"
     x="0"
     y="0"
     style="display:inline" />
</svg>
