<!DOCTYPE svg PUBLIC "-//W3C//DTD SVG 1.1//EN" "http://www.w3.org/Graphics/SVG/1.1/DTD/svg11.dtd">
<svg xmlns="http://www.w3.org/2000/svg" version="1.1" width="8.85mm" height="7.25mm" viewBox="-4.425 -3.625 8.85 7.25">
            <title>Picture generated by PcbDraw </title>
            <desc>Picture generated by PcbDraw</desc>
        <g transform="" id="boardContainer"><g id="KiCAD footprint top"><g id="substrate-copper" style="fill:#666666; stroke:#666666;"><g style="fill-opacity: 1.00000;stroke-opacity: 1.00000;stroke-linecap: round;stroke-linejoin: round" transform="translate(0 0) scale(1 1)">
<path style="fill-opacity: 1.00000;fill-rule: evenodd" d="M -4.15000,-1.55000 -4.15000,-3.05000 -2.15000,-3.05000 -2.15000,-1.55000 Z"/> 
<path style="fill-opacity: 1.00000;fill-rule: evenodd" d="M -4.15000,0.75000 -4.15000,-0.75000 -2.15000,-0.75000 -2.15000,0.75000 Z"/> 
<path style="fill-opacity: 1.00000;fill-rule: evenodd" d="M 2.15000,1.90000 2.15000,-1.90000 4.15000,-1.90000 4.15000,1.90000 Z"/> 
<path style="fill-opacity: 1.00000;fill-rule: evenodd" d="M -4.15000,3.05000 -4.15000,1.55000 -2.15000,1.55000 -2.15000,3.05000 Z"/> 
</g> 
</g><g id="substrate-crt" style="fill:#000000; stroke:#000000;"><g style="stroke-width: 0.05000;stroke-opacity: 1;stroke-linecap: round;stroke-linejoin: round">
<path d="M4.40000 3.60000 L4.40000 -3.60000 "/>
<path d="M4.40000 -3.60000 L-4.40000 -3.60000 "/>
<path d="M-4.40000 3.60000 L4.40000 3.60000 "/>
<path d="M-4.40000 -3.60000 L-4.40000 3.60000 "/>
</g> 
</g><g id="substrate-fab" style="fill:#000000; stroke:#000000;"><g style="stroke-width: 0.10000;stroke-opacity: 1;stroke-linecap: round;stroke-linejoin: round">
<path d="M1.85000 -3.35000 L1.85000 3.35000 "/>
<path d="M-0.85000 -3.35000 L1.85000 -3.35000 "/>
<path d="M-1.85000 3.35000 L1.85000 3.35000 "/>
<path d="M-1.85000 -2.35000 L-0.85000 -3.35000 "/>
<path d="M-1.85000 -2.35000 L-1.85000 3.35000 "/>
</g> 
</g><g id="substrate-silk" style="fill:#61caff; stroke:#61caff;" mask="url(#pads-mask-silkscreen)"><g style="stroke-width: 0.15000;stroke-opacity: 1;stroke-linecap: round;stroke-linejoin: round">
<text x="2.90000" y="-2.60000" textLength="1.53000" font-size="0.80000" lengthAdjust="spacingAndGlyphs" text-anchor="middle" opacity="0" stroke-opacity="0">U2</text>
<g class="stroked-text"><desc>U2</desc>
<path d="M2.44286 -3.23023 L2.44286 -2.74451 "/>
<path d="M2.44286 -2.74451 L2.47143 -2.68737 "/>
<path d="M2.47143 -2.68737 L2.50000 -2.65880 "/>
<path d="M2.50000 -2.65880 L2.55714 -2.63023 "/>
<path d="M2.55714 -2.63023 L2.67143 -2.63023 "/>
<path d="M2.67143 -2.63023 L2.72857 -2.65880 "/>
<path d="M2.72857 -2.65880 L2.75714 -2.68737 "/>
<path d="M2.75714 -2.68737 L2.78571 -2.74451 "/>
<path d="M2.78571 -2.74451 L2.78571 -3.23023 "/>
<path d="M3.04286 -3.17308 L3.07143 -3.20166 "/>
<path d="M3.07143 -3.20166 L3.12857 -3.23023 "/>
<path d="M3.12857 -3.23023 L3.27143 -3.23023 "/>
<path d="M3.27143 -3.23023 L3.32857 -3.20166 "/>
<path d="M3.32857 -3.20166 L3.35714 -3.17308 "/>
<path d="M3.35714 -3.17308 L3.38571 -3.11594 "/>
<path d="M3.38571 -3.11594 L3.38571 -3.05880 "/>
<path d="M3.38571 -3.05880 L3.35714 -2.97308 "/>
<path d="M3.35714 -2.97308 L3.01428 -2.63023 "/>
<path d="M3.01428 -2.63023 L3.38571 -2.63023 "/>
</g></g>
<g style="stroke-width: 0.12000;stroke-opacity: 1;stroke-linecap: round;stroke-linejoin: round">
<path d="M1.91000 3.41000 L1.91000 2.15000 "/>
<path d="M1.91000 -3.41000 L1.91000 -2.15000 "/>
<path d="M-1.85000 3.41000 L1.91000 3.41000 "/>
<path d="M-4.10000 -3.41000 L1.91000 -3.41000 "/>
</g> 
</g></g></g><rect id="origin" fill="red" width="1.0" height="1.0" x="0" y="0"/></svg>