<!DOCTYPE svg PUBLIC "-//W3C//DTD SVG 1.1//EN" "http://www.w3.org/Graphics/SVG/1.1/DTD/svg11.dtd">
<svg xmlns="http://www.w3.org/2000/svg" version="1.1" width="4.15mm" height="4.68925mm" viewBox="-2.075 -1.725 4.15 4.68925">
            <title>Picture generated by PcbDraw </title>
            <desc>Picture generated by PcbDraw</desc>
        <g transform="" id="boardContainer"><g id="KiCAD footprint top"><g id="substrate-copper" style="fill:#666666; stroke:#666666;"><g style="fill-opacity: 1.00000;stroke-opacity: 1.00000;stroke-linecap: round;stroke-linejoin: round" transform="translate(0 0) scale(1 1)">
<path style="fill-opacity: 1.00000;fill-rule: evenodd" d="M -1.80000,-1.10000 -1.78858,-1.15740 -1.75607,-1.20607 -1.70740,-1.23858 -1.65000,-1.25000 -0.62500,-1.25000 -0.56760,-1.23858 -0.51893,-1.20607 -0.48642,-1.15740 -0.47500,-1.10000 -0.47500,-0.80000 -0.48642,-0.74260 -0.51893,-0.69393 -0.56760,-0.66142 -0.62500,-0.65000 -1.65000,-0.65000 -1.70740,-0.66142 -1.75607,-0.69393 -1.78858,-0.74260 -1.80000,-0.80000 Z"/> 
<path style="fill-opacity: 1.00000;fill-rule: evenodd" d="M -1.80000,0.80000 -1.78858,0.74260 -1.75607,0.69393 -1.70740,0.66142 -1.65000,0.65000 -0.62500,0.65000 -0.56760,0.66142 -0.51893,0.69393 -0.48642,0.74260 -0.47500,0.80000 -0.47500,1.10000 -0.48642,1.15740 -0.51893,1.20607 -0.56760,1.23858 -0.62500,1.25000 -1.65000,1.25000 -1.70740,1.23858 -1.75607,1.20607 -1.78858,1.15740 -1.80000,1.10000 Z"/> 
<path style="fill-opacity: 1.00000;fill-rule: evenodd" d="M 0.47500,-0.15000 0.48642,-0.20740 0.51893,-0.25607 0.56760,-0.28858 0.62500,-0.30000 1.65000,-0.30000 1.70740,-0.28858 1.75607,-0.25607 1.78858,-0.20740 1.80000,-0.15000 1.80000,0.15000 1.78858,0.20740 1.75607,0.25607 1.70740,0.28858 1.65000,0.30000 0.62500,0.30000 0.56760,0.28858 0.51893,0.25607 0.48642,0.20740 0.47500,0.15000 Z"/> 
</g> 
</g><g id="substrate-crt" style="fill:#000000; stroke:#000000;"><g style="stroke-width: 0.05000;stroke-opacity: 1;stroke-linecap: round;stroke-linejoin: round">
<path d="M-2.05000 -1.70000 L-2.05000 1.70000 "/>
<path d="M-2.05000 1.70000 L2.05000 1.70000 "/>
<path d="M2.05000 -1.70000 L-2.05000 -1.70000 "/>
<path d="M2.05000 1.70000 L2.05000 -1.70000 "/>
</g> 
</g><g id="substrate-fab" style="fill:#000000; stroke:#000000;"><g style="stroke-width: 0.06000;stroke-opacity: 1;stroke-linecap: round;stroke-linejoin: round">
<text x="0.00000" y="0.20000" textLength="0.90000" font-size="0.53333" lengthAdjust="spacingAndGlyphs" text-anchor="middle" opacity="0" stroke-opacity="0">Q3</text>
<g class="stroked-text"><desc>Q3</desc>
<path d="M-0.03809 0.22002 L-0.07619 0.20097 "/>
<path d="M-0.07619 0.20097 L-0.11428 0.16288 "/>
<path d="M-0.11428 0.16288 L-0.17143 0.10574 "/>
<path d="M-0.17143 0.10574 L-0.20952 0.08669 "/>
<path d="M-0.20952 0.08669 L-0.24762 0.08669 "/>
<path d="M-0.22857 0.18193 L-0.26667 0.16288 "/>
<path d="M-0.26667 0.16288 L-0.30476 0.12478 "/>
<path d="M-0.30476 0.12478 L-0.32381 0.04859 "/>
<path d="M-0.32381 0.04859 L-0.32381 -0.08474 "/>
<path d="M-0.32381 -0.08474 L-0.30476 -0.16093 "/>
<path d="M-0.30476 -0.16093 L-0.26667 -0.19902 "/>
<path d="M-0.26667 -0.19902 L-0.22857 -0.21807 "/>
<path d="M-0.22857 -0.21807 L-0.15238 -0.21807 "/>
<path d="M-0.15238 -0.21807 L-0.11428 -0.19902 "/>
<path d="M-0.11428 -0.19902 L-0.07619 -0.16093 "/>
<path d="M-0.07619 -0.16093 L-0.05714 -0.08474 "/>
<path d="M-0.05714 -0.08474 L-0.05714 0.04859 "/>
<path d="M-0.05714 0.04859 L-0.07619 0.12478 "/>
<path d="M-0.07619 0.12478 L-0.11428 0.16288 "/>
<path d="M-0.11428 0.16288 L-0.15238 0.18193 "/>
<path d="M-0.15238 0.18193 L-0.22857 0.18193 "/>
<path d="M0.07619 -0.21807 L0.32381 -0.21807 "/>
<path d="M0.32381 -0.21807 L0.19048 -0.06569 "/>
<path d="M0.19048 -0.06569 L0.24762 -0.06569 "/>
<path d="M0.24762 -0.06569 L0.28571 -0.04664 "/>
<path d="M0.28571 -0.04664 L0.30476 -0.02760 "/>
<path d="M0.30476 -0.02760 L0.32381 0.01050 "/>
<path d="M0.32381 0.01050 L0.32381 0.10574 "/>
<path d="M0.32381 0.10574 L0.30476 0.14383 "/>
<path d="M0.30476 0.14383 L0.28571 0.16288 "/>
<path d="M0.28571 0.16288 L0.24762 0.18193 "/>
<path d="M0.24762 0.18193 L0.13333 0.18193 "/>
<path d="M0.13333 0.18193 L0.09524 0.16288 "/>
<path d="M0.09524 0.16288 L0.07619 0.14383 "/>
</g></g>
<g style="stroke-width: 0.10000;stroke-opacity: 1;stroke-linecap: round;stroke-linejoin: round">
<path d="M-0.80000 -1.05000 L-0.40000 -1.45000 "/>
<path d="M-0.80000 1.45000 L-0.80000 -1.05000 "/>
<path d="M-0.40000 -1.45000 L0.80000 -1.45000 "/>
<path d="M0.80000 -1.45000 L0.80000 1.45000 "/>
<path d="M0.80000 1.45000 L-0.80000 1.45000 "/>
</g> 
</g><g id="substrate-silk" style="fill:#61caff; stroke:#61caff;" mask="url(#pads-mask-silkscreen)"><g style="stroke-width: 0.15000;stroke-opacity: 1;stroke-linecap: round;stroke-linejoin: round">
<text x="0.00000" y="2.65000" textLength="1.53000" font-size="0.80000" lengthAdjust="spacingAndGlyphs" text-anchor="middle" opacity="0" stroke-opacity="0">Q3</text>
<g class="stroked-text"><desc>Q3</desc>
<path d="M-0.05714 2.67691 L-0.11428 2.64834 "/>
<path d="M-0.11428 2.64834 L-0.17143 2.59120 "/>
<path d="M-0.17143 2.59120 L-0.25714 2.50548 "/>
<path d="M-0.25714 2.50548 L-0.31428 2.47691 "/>
<path d="M-0.31428 2.47691 L-0.37143 2.47691 "/>
<path d="M-0.34286 2.61977 L-0.40000 2.59120 "/>
<path d="M-0.40000 2.59120 L-0.45714 2.53406 "/>
<path d="M-0.45714 2.53406 L-0.48571 2.41977 "/>
<path d="M-0.48571 2.41977 L-0.48571 2.21977 "/>
<path d="M-0.48571 2.21977 L-0.45714 2.10548 "/>
<path d="M-0.45714 2.10548 L-0.40000 2.04834 "/>
<path d="M-0.40000 2.04834 L-0.34286 2.01977 "/>
<path d="M-0.34286 2.01977 L-0.22857 2.01977 "/>
<path d="M-0.22857 2.01977 L-0.17143 2.04834 "/>
<path d="M-0.17143 2.04834 L-0.11428 2.10548 "/>
<path d="M-0.11428 2.10548 L-0.08571 2.21977 "/>
<path d="M-0.08571 2.21977 L-0.08571 2.41977 "/>
<path d="M-0.08571 2.41977 L-0.11428 2.53406 "/>
<path d="M-0.11428 2.53406 L-0.17143 2.59120 "/>
<path d="M-0.17143 2.59120 L-0.22857 2.61977 "/>
<path d="M-0.22857 2.61977 L-0.34286 2.61977 "/>
<path d="M0.11428 2.01977 L0.48571 2.01977 "/>
<path d="M0.48571 2.01977 L0.28571 2.24834 "/>
<path d="M0.28571 2.24834 L0.37143 2.24834 "/>
<path d="M0.37143 2.24834 L0.42857 2.27691 "/>
<path d="M0.42857 2.27691 L0.45714 2.30549 "/>
<path d="M0.45714 2.30549 L0.48571 2.36263 "/>
<path d="M0.48571 2.36263 L0.48571 2.50548 "/>
<path d="M0.48571 2.50548 L0.45714 2.56263 "/>
<path d="M0.45714 2.56263 L0.42857 2.59120 "/>
<path d="M0.42857 2.59120 L0.37143 2.61977 "/>
<path d="M0.37143 2.61977 L0.20000 2.61977 "/>
<path d="M0.20000 2.61977 L0.14286 2.59120 "/>
<path d="M0.14286 2.59120 L0.11428 2.56263 "/>
</g></g>
<g style="stroke-width: 0.12000;stroke-opacity: 1;stroke-linecap: round;stroke-linejoin: round">
<path d="M0.00000 -1.56000 L-1.80000 -1.56000 "/>
<path d="M0.00000 -1.56000 L0.80000 -1.56000 "/>
<path d="M0.00000 1.56000 L-0.80000 1.56000 "/>
<path d="M0.00000 1.56000 L0.80000 1.56000 "/>
</g> 
</g></g></g><rect id="origin" fill="red" width="1.0" height="1.0" x="0" y="0"/></svg>