<!DOCTYPE svg PUBLIC "-//W3C//DTD SVG 1.1//EN" "http://www.w3.org/Graphics/SVG/1.1/DTD/svg11.dtd">
<svg xmlns="http://www.w3.org/2000/svg" version="1.1" width="10.69mm" height="9.47mm" viewBox="-5.345 -5.295 10.69 9.47">
            <title>Picture generated by PcbDraw </title>
            <desc>Picture generated by PcbDraw</desc>
        <g transform="" id="boardContainer"><g id="KiCAD footprint top"><g id="substrate-copper" style="fill:#666666; stroke:#666666;"><g style="fill-opacity: 1.00000;stroke-opacity: 1.00000;stroke-linecap: round;stroke-linejoin: round" transform="translate(0 0) scale(1 1)">
<path style="fill-opacity: 1.00000;fill-rule: evenodd" d="M -3.55000,-3.32000 -3.55000,-4.77000 -2.95000,-4.77000 -2.95000,-3.32000 Z"/> 
<path style="fill-opacity: 1.00000;fill-rule: evenodd" d="M -2.75000,-3.32000 -2.75000,-4.77000 -2.15000,-4.77000 -2.15000,-3.32000 Z"/> 
<path style="fill-opacity: 1.00000;fill-rule: evenodd" d="M -1.40000,-3.32000 -1.40000,-4.77000 -1.10000,-4.77000 -1.10000,-3.32000 Z"/> 
<path style="fill-opacity: 1.00000;fill-rule: evenodd" d="M -0.40000,-3.32000 -0.40000,-4.77000 -0.10000,-4.77000 -0.10000,-3.32000 Z"/> 
<path style="fill-opacity: 1.00000;fill-rule: evenodd" d="M 0.10000,-3.32000 0.10000,-4.77000 0.40000,-4.77000 0.40000,-3.32000 Z"/> 
<path style="fill-opacity: 1.00000;fill-rule: evenodd" d="M 1.10000,-3.32000 1.10000,-4.77000 1.40000,-4.77000 1.40000,-3.32000 Z"/> 
<path style="fill-opacity: 1.00000;fill-rule: evenodd" d="M 2.15000,-3.32000 2.15000,-4.77000 2.75000,-4.77000 2.75000,-3.32000 Z"/> 
<path style="fill-opacity: 1.00000;fill-rule: evenodd" d="M 2.95000,-3.32000 2.95000,-4.77000 3.55000,-4.77000 3.55000,-3.32000 Z"/> 
<path style="fill-opacity: 1.00000;fill-rule: evenodd" d="M 2.95000,-3.32000 2.95000,-4.77000 3.55000,-4.77000 3.55000,-3.32000 Z"/> 
<path style="fill-opacity: 1.00000;fill-rule: evenodd" d="M 2.15000,-3.32000 2.15000,-4.77000 2.75000,-4.77000 2.75000,-3.32000 Z"/> 
<path style="fill-opacity: 1.00000;fill-rule: evenodd" d="M 1.60000,-3.32000 1.60000,-4.77000 1.90000,-4.77000 1.90000,-3.32000 Z"/> 
<path style="fill-opacity: 1.00000;fill-rule: evenodd" d="M 0.60000,-3.32000 0.60000,-4.77000 0.90000,-4.77000 0.90000,-3.32000 Z"/> 
<path style="fill-opacity: 1.00000;fill-rule: evenodd" d="M -0.90000,-3.32000 -0.90000,-4.77000 -0.60000,-4.77000 -0.60000,-3.32000 Z"/> 
<path style="fill-opacity: 1.00000;fill-rule: evenodd" d="M -1.90000,-3.32000 -1.90000,-4.77000 -1.60000,-4.77000 -1.60000,-3.32000 Z"/> 
<path style="fill-opacity: 1.00000;fill-rule: evenodd" d="M -2.75000,-3.32000 -2.75000,-4.77000 -2.15000,-4.77000 -2.15000,-3.32000 Z"/> 
<path style="fill-opacity: 1.00000;fill-rule: evenodd" d="M -3.55000,-3.32000 -3.55000,-4.77000 -2.95000,-4.77000 -2.95000,-3.32000 Z"/> 
</g>
<g style="stroke-width: 1.00000;stroke-opacity: 1;stroke-linecap: round;stroke-linejoin: round">
<path d="M-4.32000 -3.68000 L-4.32000 -2.58000 "/>
<path d="M-4.32000 0.75000 L-4.32000 1.35000 "/>
<path d="M4.32000 -3.68000 L4.32000 -2.58000 "/>
<path d="M4.32000 0.75000 L4.32000 1.35000 "/>
</g> 
</g><g id="substrate-crt" style="fill:#000000; stroke:#000000;"><g style="stroke-width: 0.05000;stroke-opacity: 1;stroke-linecap: round;stroke-linejoin: round">
<path d="M-5.32000 -5.27000 L-5.32000 4.15000 "/>
<path d="M-5.32000 -5.27000 L5.32000 -5.27000 "/>
<path d="M-5.32000 4.15000 L5.32000 4.15000 "/>
<path d="M5.32000 -5.27000 L5.32000 4.15000 "/>
</g> 
</g><g id="substrate-fab" style="fill:#000000; stroke:#000000;"><g style="stroke-width: 0.10000;stroke-opacity: 1;stroke-linecap: round;stroke-linejoin: round">
<path d="M-4.47000 -3.65000 L-4.47000 3.65000 "/>
<path d="M-4.47000 -3.65000 L4.47000 -3.65000 "/>
<path d="M-4.47000 3.65000 L4.47000 3.65000 "/>
<path d="M4.47000 -3.65000 L4.47000 3.65000 "/>
</g> 
</g><g id="substrate-silk" style="fill:#61caff; stroke:#61caff;" mask="url(#pads-mask-silkscreen)"><g style="stroke-width: 0.12000;stroke-opacity: 1;stroke-linecap: round;stroke-linejoin: round">
<path d="M-4.70000 -1.90000 L-4.70000 0.10000 "/>
<path d="M-4.70000 2.00000 L-4.70000 3.90000 "/>
<path d="M-4.70000 3.90000 L4.70000 3.90000 "/>
<path d="M4.70000 -1.90000 L4.70000 0.10000 "/>
<path d="M4.70000 2.00000 L4.70000 3.90000 "/>
</g> 
</g></g></g><rect id="origin" fill="red" width="1.0" height="1.0" x="0" y="0"/></svg>