<?xml version="1.0" encoding="UTF-8" standalone="no"?>
<!DOCTYPE svg PUBLIC "-//W3C//DTD SVG 1.1//EN"
 "http://www.w3.org/Graphics/SVG/1.1/DTD/svg11.dtd">
<!-- Generated by graphviz version 12.2.0 (20241103.1931)
 -->
<!-- Pages: 1 -->
<svg width="2622pt" height="1002pt"
 viewBox="0.00 0.00 2621.75 1001.50" xmlns="http://www.w3.org/2000/svg" xmlns:xlink="http://www.w3.org/1999/xlink">
<g id="graph0" class="graph" transform="scale(1 1) rotate(0) translate(4 997.5)">
<polygon fill="#ffffff" stroke="none" points="-4,4 -4,-997.5 2617.75,-997.5 2617.75,4 -4,4"/>
<!-- SOCKET -->
<g id="node1" class="node">
<title>SOCKET</title>
<polygon fill="#ffffff" stroke="black" points="69.25,-465.62 0,-465.62 0,-346.88 69.25,-346.88 69.25,-465.62"/>
<polygon fill="none" stroke="black" points="0,-441.88 0,-465.62 69.25,-465.62 69.25,-441.88 0,-441.88"/>
<text text-anchor="start" x="6.5" y="-448.32" font-family="arial" font-size="14.00">SOCKET</text>
<polygon fill="none" stroke="black" points="0,-418.12 0,-441.88 69.25,-441.88 69.25,-418.12 0,-418.12"/>
<text text-anchor="start" x="19.62" y="-424.57" font-family="arial" font-size="14.00">3&#45;pin</text>
<polygon fill="none" stroke="black" points="0,-394.38 0,-418.12 53.75,-418.12 53.75,-394.38 0,-394.38"/>
<text text-anchor="start" x="23.12" y="-400.82" font-family="arial" font-size="14.00">L</text>
<polygon fill="none" stroke="black" points="53.75,-394.38 53.75,-418.12 69.25,-418.12 69.25,-394.38 53.75,-394.38"/>
<text text-anchor="start" x="57.75" y="-400.82" font-family="arial" font-size="14.00">1</text>
<polygon fill="none" stroke="black" points="0,-370.62 0,-394.38 53.75,-394.38 53.75,-370.62 0,-370.62"/>
<text text-anchor="start" x="22" y="-377.07" font-family="arial" font-size="14.00">N</text>
<polygon fill="none" stroke="black" points="53.75,-370.62 53.75,-394.38 69.25,-394.38 69.25,-370.62 53.75,-370.62"/>
<text text-anchor="start" x="57.75" y="-377.07" font-family="arial" font-size="14.00">2</text>
<polygon fill="none" stroke="black" points="0,-346.88 0,-370.62 53.75,-370.62 53.75,-346.88 0,-346.88"/>
<text text-anchor="start" x="4" y="-353.32" font-family="arial" font-size="14.00">EARTH</text>
<polygon fill="none" stroke="black" points="53.75,-346.88 53.75,-370.62 69.25,-370.62 69.25,-346.88 53.75,-346.88"/>
<text text-anchor="start" x="57.75" y="-353.32" font-family="arial" font-size="14.00">3</text>
</g>
<!-- MAIN_POWER -->
<g id="node15" class="node">
<title>MAIN_POWER</title>
<polygon fill="#ffffff" stroke="black" points="510.25,-772.62 213.25,-772.62 213.25,-655.88 510.25,-655.88 510.25,-772.62"/>
<polygon fill="none" stroke="black" points="213.25,-748.88 213.25,-772.62 510.25,-772.62 510.25,-748.88 213.25,-748.88"/>
<text text-anchor="start" x="314.5" y="-755.33" font-family="arial" font-size="14.00">MAIN_POWER</text>
<polygon fill="none" stroke="black" points="213.25,-725.12 213.25,-748.88 343,-748.88 343,-725.12 213.25,-725.12"/>
<text text-anchor="start" x="271" y="-731.58" font-family="arial" font-size="14.00">1x</text>
<polygon fill="none" stroke="black" points="343,-725.12 343,-748.88 510.25,-748.88 510.25,-725.12 343,-725.12"/>
<text text-anchor="start" x="400.75" y="-731.58" font-family="arial" font-size="14.00">18 AWG</text>
<text text-anchor="start" x="252" y="-709.83" font-family="arial" font-size="14.00"> </text>
<text text-anchor="start" x="215.25" y="-690.08" font-family="arial" font-size="14.00">SOCKET:1:L</text>
<text text-anchor="start" x="296.5" y="-690.08" font-family="arial" font-size="14.00"> &#160;&#160;&#160;&#160;1:GY &#160;&#160;&#160;</text>
<text text-anchor="start" x="365.75" y="-690.08" font-family="arial" font-size="14.00">POWER_SWITCH:1:IN</text>
<polygon fill="#000000" stroke="none" points="213.25,-683.62 213.25,-685.62 510.25,-685.62 510.25,-683.62 213.25,-683.62"/>
<polygon fill="#999999" stroke="none" points="213.25,-681.62 213.25,-683.62 510.25,-683.62 510.25,-681.62 213.25,-681.62"/>
<polygon fill="#999999" stroke="none" points="213.25,-679.62 213.25,-681.62 510.25,-681.62 510.25,-679.62 213.25,-679.62"/>
<polygon fill="#999999" stroke="none" points="213.25,-677.62 213.25,-679.62 510.25,-679.62 510.25,-677.62 213.25,-677.62"/>
<polygon fill="#000000" stroke="none" points="213.25,-675.62 213.25,-677.62 510.25,-677.62 510.25,-675.62 213.25,-675.62"/>
<text text-anchor="start" x="252" y="-660.33" font-family="arial" font-size="14.00"> </text>
</g>
<!-- SOCKET&#45;&#45;MAIN_POWER -->
<g id="edge1" class="edge">
<title>SOCKET:e&#45;&#45;MAIN_POWER:w</title>
<path fill="none" stroke="#000000" stroke-width="2" d="M69.25,-402.25C210.58,-407.98 79.14,-682.35 213.25,-676.63"/>
<path fill="none" stroke="#999999" stroke-width="2" d="M69.25,-404.25C208.77,-407.11 77.33,-681.49 213.25,-678.63"/>
<path fill="none" stroke="#999999" stroke-width="2" d="M69.25,-406.25C206.97,-406.25 75.53,-680.62 213.25,-680.62"/>
<path fill="none" stroke="#999999" stroke-width="2" d="M69.25,-408.25C205.17,-405.39 73.73,-679.76 213.25,-682.62"/>
<path fill="none" stroke="#000000" stroke-width="2" d="M69.25,-410.25C203.36,-404.52 71.92,-678.9 213.25,-684.62"/>
</g>
<!-- EARTH -->
<g id="node20" class="node">
<title>EARTH</title>
<polygon fill="#ffffff" stroke="black" points="467.5,-451.62 256,-451.62 256,-334.88 467.5,-334.88 467.5,-451.62"/>
<polygon fill="none" stroke="black" points="256,-427.88 256,-451.62 467.5,-451.62 467.5,-427.88 256,-427.88"/>
<text text-anchor="start" x="338.88" y="-434.32" font-family="arial" font-size="14.00">EARTH</text>
<polygon fill="none" stroke="black" points="256,-404.12 256,-427.88 343,-427.88 343,-404.12 256,-404.12"/>
<text text-anchor="start" x="292.38" y="-410.57" font-family="arial" font-size="14.00">1x</text>
<polygon fill="none" stroke="black" points="343,-404.12 343,-427.88 467.5,-427.88 467.5,-404.12 343,-404.12"/>
<text text-anchor="start" x="379.38" y="-410.57" font-family="arial" font-size="14.00">18 AWG</text>
<text text-anchor="start" x="313.88" y="-388.82" font-family="arial" font-size="14.00"> </text>
<text text-anchor="start" x="258" y="-369.07" font-family="arial" font-size="14.00">SOCKET:3:EARTH</text>
<text text-anchor="start" x="377.5" y="-369.07" font-family="arial" font-size="14.00"> &#160;&#160;&#160;&#160;1:YEGN &#160;&#160;&#160;</text>
<polygon fill="#000000" stroke="none" points="256,-362.62 256,-364.62 467.5,-364.62 467.5,-362.62 256,-362.62"/>
<polygon fill="#ffff00" stroke="none" points="256,-360.62 256,-362.62 467.5,-362.62 467.5,-360.62 256,-360.62"/>
<polygon fill="#00ff00" stroke="none" points="256,-358.62 256,-360.62 467.5,-360.62 467.5,-358.62 256,-358.62"/>
<polygon fill="#ffff00" stroke="none" points="256,-356.62 256,-358.62 467.5,-358.62 467.5,-356.62 256,-356.62"/>
<polygon fill="#000000" stroke="none" points="256,-354.62 256,-356.62 467.5,-356.62 467.5,-354.62 256,-354.62"/>
<text text-anchor="start" x="313.88" y="-339.32" font-family="arial" font-size="14.00"> </text>
</g>
<!-- SOCKET&#45;&#45;EARTH -->
<g id="edge19" class="edge">
<title>SOCKET:e&#45;&#45;EARTH:w</title>
<path fill="none" stroke="#000000" stroke-width="2" d="M68.13,-354.91C151.98,-330.75 172.61,-331.63 256.12,-355.78"/>
<path fill="none" stroke="#ffff00" stroke-width="2" d="M68.69,-356.83C151.89,-332.75 172.53,-333.63 255.56,-357.7"/>
<path fill="none" stroke="#00ff00" stroke-width="2" d="M69.25,-358.75C151.81,-334.75 172.44,-335.62 255,-359.62"/>
<path fill="none" stroke="#ffff00" stroke-width="2" d="M69.81,-360.67C151.72,-336.75 172.36,-337.62 254.44,-361.55"/>
<path fill="none" stroke="#000000" stroke-width="2" d="M70.37,-362.59C151.64,-338.75 172.27,-339.62 253.88,-363.47"/>
</g>
<!-- SOCKET&#45;&#45;EARTH -->
<g id="edge21" class="edge">
<title>SOCKET:e&#45;&#45;EARTH:w</title>
<path fill="none" stroke="#000000" stroke-width="2" d="M69.25,-354.75C151.98,-354.75 172.61,-355.63 255,-355.63"/>
<path fill="none" stroke="#ffff00" stroke-width="2" d="M69.25,-356.75C151.89,-356.75 172.53,-357.63 255,-357.63"/>
<path fill="none" stroke="#00ff00" stroke-width="2" d="M69.25,-358.75C151.81,-358.75 172.44,-359.62 255,-359.62"/>
<path fill="none" stroke="#ffff00" stroke-width="2" d="M69.25,-360.75C151.72,-360.75 172.36,-361.62 255,-361.62"/>
<path fill="none" stroke="#000000" stroke-width="2" d="M69.25,-362.75C151.64,-362.75 172.27,-363.62 255,-363.62"/>
</g>
<!-- SOCKET&#45;&#45;EARTH -->
<g id="edge23" class="edge">
<title>SOCKET:e&#45;&#45;EARTH:w</title>
<path fill="none" stroke="#000000" stroke-width="2" d="M70.37,-354.91C151.98,-378.75 172.61,-379.63 253.88,-355.78"/>
<path fill="none" stroke="#ffff00" stroke-width="2" d="M69.81,-356.83C151.89,-380.75 172.53,-381.63 254.44,-357.7"/>
<path fill="none" stroke="#00ff00" stroke-width="2" d="M69.25,-358.75C151.81,-382.75 172.44,-383.62 255,-359.62"/>
<path fill="none" stroke="#ffff00" stroke-width="2" d="M68.69,-360.67C151.72,-384.75 172.36,-385.62 255.56,-361.55"/>
<path fill="none" stroke="#000000" stroke-width="2" d="M68.13,-362.59C151.64,-386.75 172.27,-387.62 256.12,-363.47"/>
</g>
<!-- NEUTRAL -->
<g id="node21" class="node">
<title>NEUTRAL</title>
<polygon fill="#ffffff" stroke="black" points="508,-618.62 215.5,-618.62 215.5,-501.88 508,-501.88 508,-618.62"/>
<polygon fill="none" stroke="black" points="215.5,-594.88 215.5,-618.62 508,-618.62 508,-594.88 215.5,-594.88"/>
<text text-anchor="start" x="330.25" y="-601.33" font-family="arial" font-size="14.00">NEUTRAL</text>
<polygon fill="none" stroke="black" points="215.5,-571.12 215.5,-594.88 343,-594.88 343,-571.12 215.5,-571.12"/>
<text text-anchor="start" x="272.12" y="-577.58" font-family="arial" font-size="14.00">1x</text>
<polygon fill="none" stroke="black" points="343,-571.12 343,-594.88 508,-594.88 508,-571.12 343,-571.12"/>
<text text-anchor="start" x="399.62" y="-577.58" font-family="arial" font-size="14.00">18 AWG</text>
<text text-anchor="start" x="255.38" y="-555.83" font-family="arial" font-size="14.00"> </text>
<text text-anchor="start" x="217.5" y="-536.08" font-family="arial" font-size="14.00">SOCKET:2:N</text>
<text text-anchor="start" x="301" y="-536.08" font-family="arial" font-size="14.00"> &#160;&#160;&#160;&#160;1:BU &#160;&#160;&#160;</text>
<text text-anchor="start" x="368.75" y="-536.08" font-family="arial" font-size="14.00">THERMAL_FUSE:1:IN</text>
<polygon fill="#000000" stroke="none" points="215.5,-529.62 215.5,-531.62 508,-531.62 508,-529.62 215.5,-529.62"/>
<polygon fill="#0066ff" stroke="none" points="215.5,-527.62 215.5,-529.62 508,-529.62 508,-527.62 215.5,-527.62"/>
<polygon fill="#0066ff" stroke="none" points="215.5,-525.62 215.5,-527.62 508,-527.62 508,-525.62 215.5,-525.62"/>
<polygon fill="#0066ff" stroke="none" points="215.5,-523.62 215.5,-525.62 508,-525.62 508,-523.62 215.5,-523.62"/>
<polygon fill="#000000" stroke="none" points="215.5,-521.62 215.5,-523.62 508,-523.62 508,-521.62 215.5,-521.62"/>
<text text-anchor="start" x="255.38" y="-506.32" font-family="arial" font-size="14.00"> </text>
</g>
<!-- SOCKET&#45;&#45;NEUTRAL -->
<g id="edge25" class="edge">
<title>SOCKET:e&#45;&#45;NEUTRAL:w</title>
<path fill="none" stroke="#000000" stroke-width="2" d="M69.25,-378.5C164.07,-383.49 127.43,-527.61 214.5,-522.63"/>
<path fill="none" stroke="#0066ff" stroke-width="2" d="M69.25,-380.5C162.13,-382.99 125.5,-527.12 214.5,-524.63"/>
<path fill="none" stroke="#0066ff" stroke-width="2" d="M69.25,-382.5C160.19,-382.5 123.56,-526.62 214.5,-526.62"/>
<path fill="none" stroke="#0066ff" stroke-width="2" d="M69.25,-384.5C158.25,-382.01 121.62,-526.13 214.5,-528.62"/>
<path fill="none" stroke="#000000" stroke-width="2" d="M69.25,-386.5C156.32,-381.51 119.68,-525.64 214.5,-530.62"/>
</g>
<!-- POWER_SWITCH -->
<g id="node2" class="node">
<title>POWER_SWITCH</title>
<polygon fill="#ffffff" stroke="black" points="916.25,-747.75 654.25,-747.75 654.25,-652.75 916.25,-652.75 916.25,-747.75"/>
<polygon fill="none" stroke="black" points="654.25,-724 654.25,-747.75 916.25,-747.75 916.25,-724 654.25,-724"/>
<text text-anchor="start" x="728.25" y="-730.45" font-family="arial" font-size="14.00">POWER_SWITCH</text>
<polygon fill="none" stroke="black" points="654.25,-700.25 654.25,-724 878.25,-724 878.25,-700.25 654.25,-700.25"/>
<text text-anchor="start" x="658.25" y="-706.7" font-family="arial" font-size="14.00">6.35mm Female Spade / Piggyback</text>
<polygon fill="none" stroke="black" points="878.25,-700.25 878.25,-724 916.25,-724 916.25,-700.25 878.25,-700.25"/>
<text text-anchor="start" x="882.25" y="-706.7" font-family="arial" font-size="14.00">2&#45;pin</text>
<polygon fill="none" stroke="black" points="654.25,-676.5 654.25,-700.25 734.33,-700.25 734.33,-676.5 654.25,-676.5"/>
<text text-anchor="start" x="690.54" y="-682.95" font-family="arial" font-size="14.00">1</text>
<polygon fill="none" stroke="black" points="734.33,-676.5 734.33,-700.25 836.17,-700.25 836.17,-676.5 734.33,-676.5"/>
<text text-anchor="start" x="778.5" y="-682.95" font-family="arial" font-size="14.00">IN</text>
<polygon fill="none" stroke="black" points="836.17,-676.5 836.17,-700.25 916.25,-700.25 916.25,-676.5 836.17,-676.5"/>
<text text-anchor="start" x="872.46" y="-682.95" font-family="arial" font-size="14.00">1</text>
<polygon fill="none" stroke="black" points="654.25,-652.75 654.25,-676.5 734.33,-676.5 734.33,-652.75 654.25,-652.75"/>
<text text-anchor="start" x="690.54" y="-659.2" font-family="arial" font-size="14.00">2</text>
<polygon fill="none" stroke="black" points="734.33,-652.75 734.33,-676.5 836.17,-676.5 836.17,-652.75 734.33,-652.75"/>
<text text-anchor="start" x="770.62" y="-659.2" font-family="arial" font-size="14.00">OUT</text>
<polygon fill="none" stroke="black" points="836.17,-652.75 836.17,-676.5 916.25,-676.5 916.25,-652.75 836.17,-652.75"/>
<text text-anchor="start" x="872.46" y="-659.2" font-family="arial" font-size="14.00">2</text>
</g>
<!-- SSR_CONN -->
<g id="node17" class="node">
<title>SSR_CONN</title>
<polygon fill="#ffffff" stroke="black" points="2281.5,-684.5 1863,-684.5 1863,-538 2281.5,-538 2281.5,-684.5"/>
<polygon fill="none" stroke="black" points="1863,-660.75 1863,-684.5 2281.5,-684.5 2281.5,-660.75 1863,-660.75"/>
<text text-anchor="start" x="2034.38" y="-667.2" font-family="arial" font-size="14.00">SSR_CONN</text>
<polygon fill="none" stroke="black" points="1863,-637 1863,-660.75 2053.5,-660.75 2053.5,-637 1863,-637"/>
<text text-anchor="start" x="1951.12" y="-643.45" font-family="arial" font-size="14.00">2x</text>
<polygon fill="none" stroke="black" points="2053.5,-637 2053.5,-660.75 2281.5,-660.75 2281.5,-637 2053.5,-637"/>
<text text-anchor="start" x="2141.62" y="-643.45" font-family="arial" font-size="14.00">18 AWG</text>
<text text-anchor="start" x="1942.25" y="-621.7" font-family="arial" font-size="14.00"> </text>
<text text-anchor="start" x="1865" y="-601.95" font-family="arial" font-size="14.00">POWER_SWITCH:2:OUT</text>
<text text-anchor="start" x="2027.25" y="-601.95" font-family="arial" font-size="14.00"> &#160;&#160;&#160;&#160;1:YE &#160;&#160;&#160;</text>
<text text-anchor="start" x="2102.12" y="-601.95" font-family="arial" font-size="14.00">SOLID_STATE_RELAY:3:IN</text>
<polygon fill="#000000" stroke="none" points="1863,-595.5 1863,-597.5 2281.5,-597.5 2281.5,-595.5 1863,-595.5"/>
<polygon fill="#ffff00" stroke="none" points="1863,-593.5 1863,-595.5 2281.5,-595.5 2281.5,-593.5 1863,-593.5"/>
<polygon fill="#ffff00" stroke="none" points="1863,-591.5 1863,-593.5 2281.5,-593.5 2281.5,-591.5 1863,-591.5"/>
<polygon fill="#ffff00" stroke="none" points="1863,-589.5 1863,-591.5 2281.5,-591.5 2281.5,-589.5 1863,-589.5"/>
<polygon fill="#000000" stroke="none" points="1863,-587.5 1863,-589.5 2281.5,-589.5 2281.5,-587.5 1863,-587.5"/>
<text text-anchor="start" x="1899.12" y="-572.2" font-family="arial" font-size="14.00">HEATER:1:IN1</text>
<text text-anchor="start" x="2027.25" y="-572.2" font-family="arial" font-size="14.00"> &#160;&#160;&#160;&#160;2:YE &#160;&#160;&#160;</text>
<text text-anchor="start" x="2094.25" y="-572.2" font-family="arial" font-size="14.00">SOLID_STATE_RELAY:4:OUT</text>
<polygon fill="#000000" stroke="none" points="1863,-565.75 1863,-567.75 2281.5,-567.75 2281.5,-565.75 1863,-565.75"/>
<polygon fill="#ffff00" stroke="none" points="1863,-563.75 1863,-565.75 2281.5,-565.75 2281.5,-563.75 1863,-563.75"/>
<polygon fill="#ffff00" stroke="none" points="1863,-561.75 1863,-563.75 2281.5,-563.75 2281.5,-561.75 1863,-561.75"/>
<polygon fill="#ffff00" stroke="none" points="1863,-559.75 1863,-561.75 2281.5,-561.75 2281.5,-559.75 1863,-559.75"/>
<polygon fill="#000000" stroke="none" points="1863,-557.75 1863,-559.75 2281.5,-559.75 2281.5,-557.75 1863,-557.75"/>
<text text-anchor="start" x="1942.25" y="-542.45" font-family="arial" font-size="14.00"> </text>
</g>
<!-- POWER_SWITCH&#45;&#45;SSR_CONN -->
<g id="edge5" class="edge">
<title>POWER_SWITCH:e&#45;&#45;SSR_CONN:w</title>
<path fill="none" stroke="#000000" stroke-width="2" d="M916.25,-660.63C1142.38,-660.65 1199.14,-653.99 1425.19,-636.26 1618.22,-621.67 1665.12,-589.21 1863,-588.5"/>
<path fill="none" stroke="#ffff00" stroke-width="2" d="M916.25,-662.63C1142.61,-662.64 1199.37,-655.98 1425.34,-638.26 1619.36,-623.31 1666.26,-590.86 1863,-590.5"/>
<path fill="none" stroke="#ffff00" stroke-width="2" d="M916.25,-664.62C1142.84,-664.62 1199.6,-657.97 1425.5,-640.25 1620.5,-624.96 1667.4,-592.5 1863,-592.5"/>
<path fill="none" stroke="#ffff00" stroke-width="2" d="M916.25,-666.62C1143.08,-666.61 1199.83,-659.95 1425.66,-642.24 1621.64,-626.6 1668.54,-594.14 1863,-594.5"/>
<path fill="none" stroke="#000000" stroke-width="2" d="M916.25,-668.62C1143.31,-668.6 1200.07,-661.94 1425.81,-644.24 1622.78,-628.25 1669.68,-595.79 1863,-596.5"/>
</g>
<!-- LINE -->
<g id="node19" class="node">
<title>LINE</title>
<polygon fill="#ffffff" stroke="black" points="1409.38,-874.62 1076.38,-874.62 1076.38,-757.88 1409.38,-757.88 1409.38,-874.62"/>
<polygon fill="none" stroke="black" points="1076.38,-850.88 1076.38,-874.62 1409.38,-874.62 1409.38,-850.88 1076.38,-850.88"/>
<text text-anchor="start" x="1227.88" y="-857.33" font-family="arial" font-size="14.00">LINE</text>
<polygon fill="none" stroke="black" points="1076.38,-827.12 1076.38,-850.88 1224.12,-850.88 1224.12,-827.12 1076.38,-827.12"/>
<text text-anchor="start" x="1143.12" y="-833.58" font-family="arial" font-size="14.00">1x</text>
<polygon fill="none" stroke="black" points="1224.12,-827.12 1224.12,-850.88 1409.38,-850.88 1409.38,-827.12 1224.12,-827.12"/>
<text text-anchor="start" x="1290.88" y="-833.58" font-family="arial" font-size="14.00">18 AWG</text>
<text text-anchor="start" x="1155.62" y="-811.83" font-family="arial" font-size="14.00"> </text>
<text text-anchor="start" x="1078.38" y="-792.08" font-family="arial" font-size="14.00">POWER_SWITCH:2:OUT</text>
<text text-anchor="start" x="1240.62" y="-792.08" font-family="arial" font-size="14.00"> &#160;&#160;&#160;&#160;1:GY &#160;&#160;&#160;</text>
<text text-anchor="start" x="1309.88" y="-792.08" font-family="arial" font-size="14.00">BOARD_HV:4:L</text>
<polygon fill="#000000" stroke="none" points="1076.38,-785.62 1076.38,-787.62 1409.38,-787.62 1409.38,-785.62 1076.38,-785.62"/>
<polygon fill="#999999" stroke="none" points="1076.38,-783.62 1076.38,-785.62 1409.38,-785.62 1409.38,-783.62 1076.38,-783.62"/>
<polygon fill="#999999" stroke="none" points="1076.38,-781.62 1076.38,-783.62 1409.38,-783.62 1409.38,-781.62 1076.38,-781.62"/>
<polygon fill="#999999" stroke="none" points="1076.38,-779.62 1076.38,-781.62 1409.38,-781.62 1409.38,-779.62 1076.38,-779.62"/>
<polygon fill="#000000" stroke="none" points="1076.38,-777.62 1076.38,-779.62 1409.38,-779.62 1409.38,-777.62 1076.38,-777.62"/>
<text text-anchor="start" x="1155.62" y="-762.33" font-family="arial" font-size="14.00"> </text>
</g>
<!-- POWER_SWITCH&#45;&#45;LINE -->
<g id="edge17" class="edge">
<title>POWER_SWITCH:e&#45;&#45;LINE:w</title>
<path fill="none" stroke="#000000" stroke-width="2" d="M916.25,-660.63C1008.26,-665.19 991.29,-783.19 1075.38,-778.63"/>
<path fill="none" stroke="#999999" stroke-width="2" d="M916.25,-662.63C1006.28,-664.91 989.31,-782.91 1075.38,-780.63"/>
<path fill="none" stroke="#999999" stroke-width="2" d="M916.25,-664.62C1004.3,-664.63 987.33,-782.63 1075.38,-782.62"/>
<path fill="none" stroke="#999999" stroke-width="2" d="M916.25,-666.62C1002.32,-664.34 985.35,-782.34 1075.38,-784.62"/>
<path fill="none" stroke="#000000" stroke-width="2" d="M916.25,-668.62C1000.34,-664.06 983.37,-782.06 1075.38,-786.62"/>
</g>
<!-- HEATER -->
<g id="node3" class="node">
<title>HEATER</title>
<polygon fill="#ffffff" stroke="black" points="1719,-581.5 1569.5,-581.5 1569.5,-439 1719,-439 1719,-581.5"/>
<polygon fill="none" stroke="black" points="1569.5,-557.75 1569.5,-581.5 1719,-581.5 1719,-557.75 1569.5,-557.75"/>
<text text-anchor="start" x="1617.25" y="-564.2" font-family="arial" font-size="14.00">HEATER</text>
<polygon fill="none" stroke="black" points="1569.5,-534 1569.5,-557.75 1681,-557.75 1681,-534 1569.5,-534"/>
<text text-anchor="start" x="1573.5" y="-540.45" font-family="arial" font-size="14.00">Bullet connectors</text>
<polygon fill="none" stroke="black" points="1681,-534 1681,-557.75 1719,-557.75 1719,-534 1681,-534"/>
<text text-anchor="start" x="1685" y="-540.45" font-family="arial" font-size="14.00">4&#45;pin</text>
<polygon fill="none" stroke="black" points="1569.5,-510.25 1569.5,-534 1609.58,-534 1609.58,-510.25 1569.5,-510.25"/>
<text text-anchor="start" x="1585.79" y="-516.7" font-family="arial" font-size="14.00">1</text>
<polygon fill="none" stroke="black" points="1609.58,-510.25 1609.58,-534 1678.92,-534 1678.92,-510.25 1609.58,-510.25"/>
<text text-anchor="start" x="1633.75" y="-516.7" font-family="arial" font-size="14.00">IN1</text>
<polygon fill="none" stroke="black" points="1678.92,-510.25 1678.92,-534 1719,-534 1719,-510.25 1678.92,-510.25"/>
<text text-anchor="start" x="1695.21" y="-516.7" font-family="arial" font-size="14.00">1</text>
<polygon fill="none" stroke="black" points="1569.5,-486.5 1569.5,-510.25 1609.58,-510.25 1609.58,-486.5 1569.5,-486.5"/>
<text text-anchor="start" x="1585.79" y="-492.95" font-family="arial" font-size="14.00">2</text>
<polygon fill="none" stroke="black" points="1609.58,-486.5 1609.58,-510.25 1678.92,-510.25 1678.92,-486.5 1609.58,-486.5"/>
<text text-anchor="start" x="1633.75" y="-492.95" font-family="arial" font-size="14.00">IN2</text>
<polygon fill="none" stroke="black" points="1678.92,-486.5 1678.92,-510.25 1719,-510.25 1719,-486.5 1678.92,-486.5"/>
<text text-anchor="start" x="1695.21" y="-492.95" font-family="arial" font-size="14.00">2</text>
<polygon fill="none" stroke="black" points="1569.5,-462.75 1569.5,-486.5 1609.58,-486.5 1609.58,-462.75 1569.5,-462.75"/>
<text text-anchor="start" x="1585.79" y="-469.2" font-family="arial" font-size="14.00">3</text>
<polygon fill="none" stroke="black" points="1609.58,-462.75 1609.58,-486.5 1678.92,-486.5 1678.92,-462.75 1609.58,-462.75"/>
<text text-anchor="start" x="1625.88" y="-469.2" font-family="arial" font-size="14.00">OUT1</text>
<polygon fill="none" stroke="black" points="1678.92,-462.75 1678.92,-486.5 1719,-486.5 1719,-462.75 1678.92,-462.75"/>
<text text-anchor="start" x="1695.21" y="-469.2" font-family="arial" font-size="14.00">3</text>
<polygon fill="none" stroke="black" points="1569.5,-439 1569.5,-462.75 1609.58,-462.75 1609.58,-439 1569.5,-439"/>
<text text-anchor="start" x="1585.79" y="-445.45" font-family="arial" font-size="14.00">4</text>
<polygon fill="none" stroke="black" points="1609.58,-439 1609.58,-462.75 1678.92,-462.75 1678.92,-439 1609.58,-439"/>
<text text-anchor="start" x="1625.88" y="-445.45" font-family="arial" font-size="14.00">OUT2</text>
<polygon fill="none" stroke="black" points="1678.92,-439 1678.92,-462.75 1719,-462.75 1719,-439 1678.92,-439"/>
<text text-anchor="start" x="1695.21" y="-445.45" font-family="arial" font-size="14.00">4</text>
</g>
<!-- HEATER_BRIDGE -->
<g id="node16" class="node">
<title>HEATER_BRIDGE</title>
<polygon fill="#ffffff" stroke="black" points="2208.38,-513.62 1936.12,-513.62 1936.12,-396.88 2208.38,-396.88 2208.38,-513.62"/>
<polygon fill="none" stroke="black" points="1936.12,-489.88 1936.12,-513.62 2208.38,-513.62 2208.38,-489.88 1936.12,-489.88"/>
<text text-anchor="start" x="2015.25" y="-496.32" font-family="arial" font-size="14.00">HEATER_BRIDGE</text>
<polygon fill="none" stroke="black" points="1936.12,-466.12 1936.12,-489.88 2053.5,-489.88 2053.5,-466.12 1936.12,-466.12"/>
<text text-anchor="start" x="1987.69" y="-472.57" font-family="arial" font-size="14.00">1x</text>
<polygon fill="none" stroke="black" points="2053.5,-466.12 2053.5,-489.88 2208.38,-489.88 2208.38,-466.12 2053.5,-466.12"/>
<text text-anchor="start" x="2105.06" y="-472.57" font-family="arial" font-size="14.00">18 AWG</text>
<text text-anchor="start" x="1989.12" y="-450.82" font-family="arial" font-size="14.00"> </text>
<text text-anchor="start" x="1938.12" y="-431.07" font-family="arial" font-size="14.00">HEATER:3:OUT1</text>
<text text-anchor="start" x="2047.88" y="-431.07" font-family="arial" font-size="14.00"> &#160;&#160;&#160;&#160;1:RD &#160;&#160;&#160;</text>
<text text-anchor="start" x="2116.38" y="-431.07" font-family="arial" font-size="14.00">HEATER:2:IN2</text>
<polygon fill="#000000" stroke="none" points="1936.12,-424.62 1936.12,-426.62 2208.38,-426.62 2208.38,-424.62 1936.12,-424.62"/>
<polygon fill="#ff0000" stroke="none" points="1936.12,-422.62 1936.12,-424.62 2208.38,-424.62 2208.38,-422.62 1936.12,-422.62"/>
<polygon fill="#ff0000" stroke="none" points="1936.12,-420.62 1936.12,-422.62 2208.38,-422.62 2208.38,-420.62 1936.12,-420.62"/>
<polygon fill="#ff0000" stroke="none" points="1936.12,-418.62 1936.12,-420.62 2208.38,-420.62 2208.38,-418.62 1936.12,-418.62"/>
<polygon fill="#000000" stroke="none" points="1936.12,-416.62 1936.12,-418.62 2208.38,-418.62 2208.38,-416.62 1936.12,-416.62"/>
<text text-anchor="start" x="1989.12" y="-401.32" font-family="arial" font-size="14.00"> </text>
</g>
<!-- HEATER&#45;&#45;HEATER_BRIDGE -->
<g id="edge3" class="edge">
<title>HEATER:e&#45;&#45;HEATER_BRIDGE:w</title>
<path fill="none" stroke="#000000" stroke-width="2" d="M1719,-470.63C1814.12,-473.32 1832.44,-420.32 1935.12,-417.63"/>
<path fill="none" stroke="#ff0000" stroke-width="2" d="M1719,-472.63C1816.01,-473.97 1834.33,-420.97 1935.12,-419.63"/>
<path fill="none" stroke="#ff0000" stroke-width="2" d="M1719,-474.62C1817.9,-474.62 1836.22,-421.62 1935.12,-421.62"/>
<path fill="none" stroke="#ff0000" stroke-width="2" d="M1719,-476.62C1819.79,-475.28 1838.11,-422.28 1935.12,-423.62"/>
<path fill="none" stroke="#000000" stroke-width="2" d="M1719,-478.62C1821.68,-475.93 1840,-422.93 1935.12,-425.62"/>
</g>
<!-- HEATER&#45;&#45;SSR_CONN -->
<g id="edge7" class="edge">
<title>HEATER:e&#45;&#45;SSR_CONN:w</title>
<path fill="none" stroke="#000000" stroke-width="2" d="M1719,-518.13C1789.36,-521.08 1800.36,-561.7 1863,-558.75"/>
<path fill="none" stroke="#ffff00" stroke-width="2" d="M1719,-520.13C1787.43,-521.6 1798.43,-562.23 1863,-560.75"/>
<path fill="none" stroke="#ffff00" stroke-width="2" d="M1719,-522.13C1785.5,-522.12 1796.5,-562.75 1863,-562.75"/>
<path fill="none" stroke="#ffff00" stroke-width="2" d="M1719,-524.12C1783.57,-522.65 1794.57,-563.27 1863,-564.75"/>
<path fill="none" stroke="#000000" stroke-width="2" d="M1719,-526.12C1781.64,-523.17 1792.64,-563.8 1863,-566.75"/>
</g>
<!-- SOLID_STATE_RELAY -->
<g id="node4" class="node">
<title>SOLID_STATE_RELAY</title>
<polygon fill="#ffffff" stroke="black" points="2594.5,-142.5 2444.75,-142.5 2444.75,0 2594.5,0 2594.5,-142.5"/>
<polygon fill="none" stroke="black" points="2444.75,-118.75 2444.75,-142.5 2594.5,-142.5 2594.5,-118.75 2444.75,-118.75"/>
<text text-anchor="start" x="2448.75" y="-125.2" font-family="arial" font-size="14.00">SOLID_STATE_RELAY</text>
<polygon fill="none" stroke="black" points="2444.75,-95 2444.75,-118.75 2544,-118.75 2544,-95 2444.75,-95"/>
<text text-anchor="start" x="2455" y="-101.45" font-family="arial" font-size="14.00">Crimp ferrule</text>
<polygon fill="none" stroke="black" points="2544,-95 2544,-118.75 2594.5,-118.75 2594.5,-95 2544,-95"/>
<text text-anchor="start" x="2554.25" y="-101.45" font-family="arial" font-size="14.00">4&#45;pin</text>
<polygon fill="none" stroke="black" points="2444.75,-71.25 2444.75,-95 2498.25,-95 2498.25,-71.25 2444.75,-71.25"/>
<text text-anchor="start" x="2467.75" y="-77.7" font-family="arial" font-size="14.00">1</text>
<polygon fill="none" stroke="black" points="2498.25,-71.25 2498.25,-95 2594.5,-95 2594.5,-71.25 2498.25,-71.25"/>
<text text-anchor="start" x="2521.25" y="-77.7" font-family="arial" font-size="14.00">SIGNAL</text>
<polygon fill="none" stroke="black" points="2444.75,-47.5 2444.75,-71.25 2498.25,-71.25 2498.25,-47.5 2444.75,-47.5"/>
<text text-anchor="start" x="2467.75" y="-53.95" font-family="arial" font-size="14.00">2</text>
<polygon fill="none" stroke="black" points="2498.25,-47.5 2498.25,-71.25 2594.5,-71.25 2594.5,-47.5 2498.25,-47.5"/>
<text text-anchor="start" x="2531" y="-53.95" font-family="arial" font-size="14.00">GND</text>
<polygon fill="none" stroke="black" points="2444.75,-23.75 2444.75,-47.5 2498.25,-47.5 2498.25,-23.75 2444.75,-23.75"/>
<text text-anchor="start" x="2467.75" y="-30.2" font-family="arial" font-size="14.00">3</text>
<polygon fill="none" stroke="black" points="2498.25,-23.75 2498.25,-47.5 2594.5,-47.5 2594.5,-23.75 2498.25,-23.75"/>
<text text-anchor="start" x="2539.62" y="-30.2" font-family="arial" font-size="14.00">IN</text>
<polygon fill="none" stroke="black" points="2444.75,0 2444.75,-23.75 2498.25,-23.75 2498.25,0 2444.75,0"/>
<text text-anchor="start" x="2467.75" y="-6.45" font-family="arial" font-size="14.00">4</text>
<polygon fill="none" stroke="black" points="2498.25,0 2498.25,-23.75 2594.5,-23.75 2594.5,0 2498.25,0"/>
<text text-anchor="start" x="2531.75" y="-6.45" font-family="arial" font-size="14.00">OUT</text>
</g>
<!-- THERMAL_FUSE -->
<g id="node5" class="node">
<title>THERMAL_FUSE</title>
<polygon fill="#ffffff" stroke="black" points="843.62,-619.75 726.88,-619.75 726.88,-524.75 843.62,-524.75 843.62,-619.75"/>
<polygon fill="none" stroke="black" points="726.88,-596 726.88,-619.75 843.62,-619.75 843.62,-596 726.88,-596"/>
<text text-anchor="start" x="730.88" y="-602.45" font-family="arial" font-size="14.00">THERMAL_FUSE</text>
<polygon fill="none" stroke="black" points="726.88,-572.25 726.88,-596 843.62,-596 843.62,-572.25 726.88,-572.25"/>
<text text-anchor="start" x="770.25" y="-578.7" font-family="arial" font-size="14.00">2&#45;pin</text>
<polygon fill="none" stroke="black" points="726.88,-548.5 726.88,-572.25 758.54,-572.25 758.54,-548.5 726.88,-548.5"/>
<text text-anchor="start" x="738.96" y="-554.95" font-family="arial" font-size="14.00">1</text>
<polygon fill="none" stroke="black" points="758.54,-548.5 758.54,-572.25 811.96,-572.25 811.96,-548.5 758.54,-548.5"/>
<text text-anchor="start" x="778.5" y="-554.95" font-family="arial" font-size="14.00">IN</text>
<polygon fill="none" stroke="black" points="811.96,-548.5 811.96,-572.25 843.62,-572.25 843.62,-548.5 811.96,-548.5"/>
<text text-anchor="start" x="824.04" y="-554.95" font-family="arial" font-size="14.00">1</text>
<polygon fill="none" stroke="black" points="726.88,-524.75 726.88,-548.5 758.54,-548.5 758.54,-524.75 726.88,-524.75"/>
<text text-anchor="start" x="738.96" y="-531.2" font-family="arial" font-size="14.00">2</text>
<polygon fill="none" stroke="black" points="758.54,-524.75 758.54,-548.5 811.96,-548.5 811.96,-524.75 758.54,-524.75"/>
<text text-anchor="start" x="770.62" y="-531.2" font-family="arial" font-size="14.00">OUT</text>
<polygon fill="none" stroke="black" points="811.96,-524.75 811.96,-548.5 843.62,-548.5 843.62,-524.75 811.96,-524.75"/>
<text text-anchor="start" x="824.04" y="-531.2" font-family="arial" font-size="14.00">2</text>
</g>
<!-- NEUTRAL_FUSED -->
<g id="node18" class="node">
<title>NEUTRAL_FUSED</title>
<polygon fill="#ffffff" stroke="black" points="1410.12,-628.62 1075.62,-628.62 1075.62,-511.88 1410.12,-511.88 1410.12,-628.62"/>
<polygon fill="none" stroke="black" points="1075.62,-604.88 1075.62,-628.62 1410.12,-628.62 1410.12,-604.88 1075.62,-604.88"/>
<text text-anchor="start" x="1184.75" y="-611.33" font-family="arial" font-size="14.00">NEUTRAL_FUSED</text>
<polygon fill="none" stroke="black" points="1075.62,-581.12 1075.62,-604.88 1224.12,-604.88 1224.12,-581.12 1075.62,-581.12"/>
<text text-anchor="start" x="1142.75" y="-587.58" font-family="arial" font-size="14.00">1x</text>
<polygon fill="none" stroke="black" points="1224.12,-581.12 1224.12,-604.88 1410.12,-604.88 1410.12,-581.12 1224.12,-581.12"/>
<text text-anchor="start" x="1291.25" y="-587.58" font-family="arial" font-size="14.00">18 AWG</text>
<text text-anchor="start" x="1152.25" y="-565.83" font-family="arial" font-size="14.00"> </text>
<text text-anchor="start" x="1077.62" y="-546.08" font-family="arial" font-size="14.00">THERMAL_FUSE:2:OUT</text>
<text text-anchor="start" x="1234.62" y="-546.08" font-family="arial" font-size="14.00"> &#160;&#160;&#160;&#160;1:BN &#160;&#160;&#160;</text>
<text text-anchor="start" x="1302.38" y="-546.08" font-family="arial" font-size="14.00">HEATER:4:OUT2</text>
<polygon fill="#000000" stroke="none" points="1075.62,-539.62 1075.62,-541.62 1410.12,-541.62 1410.12,-539.62 1075.62,-539.62"/>
<polygon fill="#895956" stroke="none" points="1075.62,-537.62 1075.62,-539.62 1410.12,-539.62 1410.12,-537.62 1075.62,-537.62"/>
<polygon fill="#895956" stroke="none" points="1075.62,-535.62 1075.62,-537.62 1410.12,-537.62 1410.12,-535.62 1075.62,-535.62"/>
<polygon fill="#895956" stroke="none" points="1075.62,-533.62 1075.62,-535.62 1410.12,-535.62 1410.12,-533.62 1075.62,-533.62"/>
<polygon fill="#000000" stroke="none" points="1075.62,-531.62 1075.62,-533.62 1410.12,-533.62 1410.12,-531.62 1075.62,-531.62"/>
<text text-anchor="start" x="1152.25" y="-516.33" font-family="arial" font-size="14.00"> </text>
</g>
<!-- THERMAL_FUSE&#45;&#45;NEUTRAL_FUSED -->
<g id="edge9" class="edge">
<title>THERMAL_FUSE:e&#45;&#45;NEUTRAL_FUSED:w</title>
<path fill="none" stroke="#000000" stroke-width="2" d="M843.3,-532.85C946.85,-496.62 972.4,-496.62 1075.95,-532.85"/>
<path fill="none" stroke="#895956" stroke-width="2" d="M843.96,-534.74C946.85,-498.62 972.4,-498.62 1075.29,-534.74"/>
<path fill="none" stroke="#895956" stroke-width="2" d="M844.62,-536.62C946.85,-500.62 972.4,-500.62 1074.62,-536.62"/>
<path fill="none" stroke="#895956" stroke-width="2" d="M845.29,-538.51C946.85,-502.62 972.4,-502.62 1073.96,-538.51"/>
<path fill="none" stroke="#000000" stroke-width="2" d="M845.95,-540.4C946.85,-504.62 972.4,-504.62 1073.3,-540.4"/>
</g>
<!-- THERMAL_FUSE&#45;&#45;NEUTRAL_FUSED -->
<g id="edge11" class="edge">
<title>THERMAL_FUSE:e&#45;&#45;NEUTRAL_FUSED:w</title>
<path fill="none" stroke="#000000" stroke-width="2" d="M844.16,-532.65C946.85,-520.62 972.4,-520.62 1075.09,-532.65"/>
<path fill="none" stroke="#895956" stroke-width="2" d="M844.39,-534.64C946.85,-522.62 972.4,-522.62 1074.86,-534.64"/>
<path fill="none" stroke="#895956" stroke-width="2" d="M844.62,-536.62C946.85,-524.62 972.4,-524.62 1074.62,-536.62"/>
<path fill="none" stroke="#895956" stroke-width="2" d="M844.86,-538.61C946.85,-526.62 972.4,-526.62 1074.39,-538.61"/>
<path fill="none" stroke="#000000" stroke-width="2" d="M845.09,-540.6C946.85,-528.62 972.4,-528.62 1074.16,-540.6"/>
</g>
<!-- THERMAL_FUSE&#45;&#45;NEUTRAL_FUSED -->
<g id="edge13" class="edge">
<title>THERMAL_FUSE:e&#45;&#45;NEUTRAL_FUSED:w</title>
<path fill="none" stroke="#000000" stroke-width="2" d="M845.09,-532.65C946.85,-544.62 972.4,-544.62 1074.16,-532.65"/>
<path fill="none" stroke="#895956" stroke-width="2" d="M844.86,-534.64C946.85,-546.62 972.4,-546.62 1074.39,-534.64"/>
<path fill="none" stroke="#895956" stroke-width="2" d="M844.63,-536.62C946.85,-548.62 972.4,-548.62 1074.62,-536.62"/>
<path fill="none" stroke="#895956" stroke-width="2" d="M844.39,-538.61C946.85,-550.62 972.4,-550.62 1074.86,-538.61"/>
<path fill="none" stroke="#000000" stroke-width="2" d="M844.16,-540.6C946.85,-552.62 972.4,-552.62 1075.09,-540.6"/>
</g>
<!-- THERMAL_FUSE&#45;&#45;NEUTRAL_FUSED -->
<g id="edge15" class="edge">
<title>THERMAL_FUSE:e&#45;&#45;NEUTRAL_FUSED:w</title>
<path fill="none" stroke="#000000" stroke-width="2" d="M845.95,-532.85C946.85,-568.62 972.4,-568.62 1073.3,-532.85"/>
<path fill="none" stroke="#895956" stroke-width="2" d="M845.29,-534.74C946.85,-570.62 972.4,-570.62 1073.96,-534.74"/>
<path fill="none" stroke="#895956" stroke-width="2" d="M844.63,-536.62C946.85,-572.62 972.4,-572.62 1074.62,-536.62"/>
<path fill="none" stroke="#895956" stroke-width="2" d="M843.96,-538.51C946.85,-574.62 972.4,-574.62 1075.29,-538.51"/>
<path fill="none" stroke="#000000" stroke-width="2" d="M843.3,-540.4C946.85,-576.62 972.4,-576.62 1075.95,-540.4"/>
</g>
<!-- BOARD_HV -->
<g id="node6" class="node">
<title>BOARD_HV</title>
<polygon fill="#ffffff" stroke="black" points="1706.62,-974.38 1581.88,-974.38 1581.88,-808.12 1706.62,-808.12 1706.62,-974.38"/>
<polygon fill="none" stroke="black" points="1581.88,-950.62 1581.88,-974.38 1706.62,-974.38 1706.62,-950.62 1581.88,-950.62"/>
<text text-anchor="start" x="1606.75" y="-957.08" font-family="arial" font-size="14.00">BOARD_HV</text>
<polygon fill="none" stroke="black" points="1581.88,-926.88 1581.88,-950.62 1668.62,-950.62 1668.62,-926.88 1581.88,-926.88"/>
<text text-anchor="start" x="1585.88" y="-933.33" font-family="arial" font-size="14.00">Crimp ferrule</text>
<polygon fill="none" stroke="black" points="1668.62,-926.88 1668.62,-950.62 1706.62,-950.62 1706.62,-926.88 1668.62,-926.88"/>
<text text-anchor="start" x="1672.62" y="-933.33" font-family="arial" font-size="14.00">5&#45;pin</text>
<polygon fill="none" stroke="black" points="1581.88,-903.12 1581.88,-926.88 1611.46,-926.88 1611.46,-903.12 1581.88,-903.12"/>
<text text-anchor="start" x="1592.92" y="-909.58" font-family="arial" font-size="14.00">1</text>
<polygon fill="none" stroke="black" points="1611.46,-903.12 1611.46,-926.88 1677.04,-926.88 1677.04,-903.12 1611.46,-903.12"/>
<text text-anchor="start" x="1624.38" y="-909.58" font-family="arial" font-size="14.00">PUMP</text>
<polygon fill="none" stroke="black" points="1677.04,-903.12 1677.04,-926.88 1706.62,-926.88 1706.62,-903.12 1677.04,-903.12"/>
<text text-anchor="start" x="1688.08" y="-909.58" font-family="arial" font-size="14.00">1</text>
<polygon fill="none" stroke="black" points="1581.88,-879.38 1581.88,-903.12 1611.46,-903.12 1611.46,-879.38 1581.88,-879.38"/>
<text text-anchor="start" x="1592.92" y="-885.83" font-family="arial" font-size="14.00">2</text>
<polygon fill="none" stroke="black" points="1611.46,-879.38 1611.46,-903.12 1677.04,-903.12 1677.04,-879.38 1611.46,-879.38"/>
<text text-anchor="start" x="1622.5" y="-885.83" font-family="arial" font-size="14.00">RELAY</text>
<polygon fill="none" stroke="black" points="1677.04,-879.38 1677.04,-903.12 1706.62,-903.12 1706.62,-879.38 1677.04,-879.38"/>
<text text-anchor="start" x="1688.08" y="-885.83" font-family="arial" font-size="14.00">2</text>
<polygon fill="none" stroke="black" points="1581.88,-855.62 1581.88,-879.38 1611.46,-879.38 1611.46,-855.62 1581.88,-855.62"/>
<text text-anchor="start" x="1592.92" y="-862.08" font-family="arial" font-size="14.00">3</text>
<polygon fill="none" stroke="black" points="1611.46,-855.62 1611.46,-879.38 1677.04,-879.38 1677.04,-855.62 1611.46,-855.62"/>
<text text-anchor="start" x="1632.25" y="-862.08" font-family="arial" font-size="14.00">ALT</text>
<polygon fill="none" stroke="black" points="1677.04,-855.62 1677.04,-879.38 1706.62,-879.38 1706.62,-855.62 1677.04,-855.62"/>
<text text-anchor="start" x="1688.08" y="-862.08" font-family="arial" font-size="14.00">3</text>
<polygon fill="none" stroke="black" points="1581.88,-831.88 1581.88,-855.62 1611.46,-855.62 1611.46,-831.88 1581.88,-831.88"/>
<text text-anchor="start" x="1592.92" y="-838.33" font-family="arial" font-size="14.00">4</text>
<polygon fill="none" stroke="black" points="1611.46,-831.88 1611.46,-855.62 1677.04,-855.62 1677.04,-831.88 1611.46,-831.88"/>
<text text-anchor="start" x="1640.5" y="-838.33" font-family="arial" font-size="14.00">L</text>
<polygon fill="none" stroke="black" points="1677.04,-831.88 1677.04,-855.62 1706.62,-855.62 1706.62,-831.88 1677.04,-831.88"/>
<text text-anchor="start" x="1688.08" y="-838.33" font-family="arial" font-size="14.00">4</text>
<polygon fill="none" stroke="black" points="1581.88,-808.12 1581.88,-831.88 1611.46,-831.88 1611.46,-808.12 1581.88,-808.12"/>
<text text-anchor="start" x="1592.92" y="-814.58" font-family="arial" font-size="14.00">5</text>
<polygon fill="none" stroke="black" points="1611.46,-808.12 1611.46,-831.88 1677.04,-831.88 1677.04,-808.12 1611.46,-808.12"/>
<text text-anchor="start" x="1639.38" y="-814.58" font-family="arial" font-size="14.00">N</text>
<polygon fill="none" stroke="black" points="1677.04,-808.12 1677.04,-831.88 1706.62,-831.88 1706.62,-808.12 1677.04,-808.12"/>
<text text-anchor="start" x="1688.08" y="-814.58" font-family="arial" font-size="14.00">5</text>
</g>
<!-- SWITCHED -->
<g id="node22" class="node">
<title>SWITCHED</title>
<polygon fill="#ffffff" stroke="black" points="2223.38,-993.5 1921.12,-993.5 1921.12,-847 2223.38,-847 2223.38,-993.5"/>
<polygon fill="none" stroke="black" points="1921.12,-969.75 1921.12,-993.5 2223.38,-993.5 2223.38,-969.75 1921.12,-969.75"/>
<text text-anchor="start" x="2035.88" y="-976.2" font-family="arial" font-size="14.00">SWITCHED</text>
<polygon fill="none" stroke="black" points="1921.12,-946 1921.12,-969.75 2053.5,-969.75 2053.5,-946 1921.12,-946"/>
<text text-anchor="start" x="1980.19" y="-952.45" font-family="arial" font-size="14.00">2x</text>
<polygon fill="none" stroke="black" points="2053.5,-946 2053.5,-969.75 2223.38,-969.75 2223.38,-946 2053.5,-946"/>
<text text-anchor="start" x="2112.56" y="-952.45" font-family="arial" font-size="14.00">18 AWG</text>
<text text-anchor="start" x="1988" y="-930.7" font-family="arial" font-size="14.00"> </text>
<text text-anchor="start" x="1925" y="-910.95" font-family="arial" font-size="14.00">BOARD_HV:1:PUMP</text>
<text text-anchor="start" x="2060.62" y="-910.95" font-family="arial" font-size="14.00"> &#160;&#160;&#160;&#160;1:BK &#160;&#160;&#160;</text>
<text text-anchor="start" x="2143.38" y="-910.95" font-family="arial" font-size="14.00">PUMP:1:L</text>
<polygon fill="#000000" stroke="none" points="1921.12,-904.5 1921.12,-906.5 2223.38,-906.5 2223.38,-904.5 1921.12,-904.5"/>
<polygon fill="#000000" stroke="none" points="1921.12,-902.5 1921.12,-904.5 2223.38,-904.5 2223.38,-902.5 1921.12,-902.5"/>
<polygon fill="#000000" stroke="none" points="1921.12,-900.5 1921.12,-902.5 2223.38,-902.5 2223.38,-900.5 1921.12,-900.5"/>
<polygon fill="#000000" stroke="none" points="1921.12,-898.5 1921.12,-900.5 2223.38,-900.5 2223.38,-898.5 1921.12,-898.5"/>
<polygon fill="#000000" stroke="none" points="1921.12,-896.5 1921.12,-898.5 2223.38,-898.5 2223.38,-896.5 1921.12,-896.5"/>
<text text-anchor="start" x="1923.12" y="-881.2" font-family="arial" font-size="14.00">BOARD_HV:2:RELAY</text>
<text text-anchor="start" x="2060.62" y="-881.2" font-family="arial" font-size="14.00"> &#160;&#160;&#160;&#160;2:BK &#160;&#160;&#160;</text>
<text text-anchor="start" x="2127.62" y="-881.2" font-family="arial" font-size="14.00">SOLENOID:1:L</text>
<polygon fill="#000000" stroke="none" points="1921.12,-874.75 1921.12,-876.75 2223.38,-876.75 2223.38,-874.75 1921.12,-874.75"/>
<polygon fill="#000000" stroke="none" points="1921.12,-872.75 1921.12,-874.75 2223.38,-874.75 2223.38,-872.75 1921.12,-872.75"/>
<polygon fill="#000000" stroke="none" points="1921.12,-870.75 1921.12,-872.75 2223.38,-872.75 2223.38,-870.75 1921.12,-870.75"/>
<polygon fill="#000000" stroke="none" points="1921.12,-868.75 1921.12,-870.75 2223.38,-870.75 2223.38,-868.75 1921.12,-868.75"/>
<polygon fill="#000000" stroke="none" points="1921.12,-866.75 1921.12,-868.75 2223.38,-868.75 2223.38,-866.75 1921.12,-866.75"/>
<text text-anchor="start" x="1988" y="-851.45" font-family="arial" font-size="14.00"> </text>
</g>
<!-- BOARD_HV&#45;&#45;SWITCHED -->
<g id="edge27" class="edge">
<title>BOARD_HV:e&#45;&#45;SWITCHED:w</title>
<path fill="none" stroke="#000000" stroke-width="2" d="M1707.62,-911C1800.25,-911.54 1823.48,-898.04 1920.12,-897.5"/>
<path fill="none" stroke="#000000" stroke-width="2" d="M1707.62,-913C1801.25,-913.27 1824.49,-899.77 1920.12,-899.5"/>
<path fill="none" stroke="#000000" stroke-width="2" d="M1707.62,-915C1802.26,-915 1825.49,-901.5 1920.12,-901.5"/>
<path fill="none" stroke="#000000" stroke-width="2" d="M1707.62,-917C1803.26,-916.73 1826.5,-903.23 1920.12,-903.5"/>
<path fill="none" stroke="#000000" stroke-width="2" d="M1707.62,-919C1804.27,-918.46 1827.5,-904.96 1920.12,-905.5"/>
</g>
<!-- BOARD_HV&#45;&#45;SWITCHED -->
<g id="edge29" class="edge">
<title>BOARD_HV:e&#45;&#45;SWITCHED:w</title>
<path fill="none" stroke="#000000" stroke-width="2" d="M1707.62,-887.25C1799.87,-888.21 1822.69,-868.71 1920.12,-867.75"/>
<path fill="none" stroke="#000000" stroke-width="2" d="M1707.62,-889.25C1801.17,-889.73 1823.98,-870.23 1920.12,-869.75"/>
<path fill="none" stroke="#000000" stroke-width="2" d="M1707.62,-891.25C1802.47,-891.25 1825.28,-871.75 1920.12,-871.75"/>
<path fill="none" stroke="#000000" stroke-width="2" d="M1707.62,-893.25C1803.77,-892.77 1826.58,-873.27 1920.12,-873.75"/>
<path fill="none" stroke="#000000" stroke-width="2" d="M1707.62,-895.25C1805.06,-894.29 1827.88,-874.79 1920.12,-875.75"/>
</g>
<!-- CASE -->
<g id="node7" class="node">
<title>CASE</title>
<polygon fill="#ffffff" stroke="black" points="836.88,-323.12 733.62,-323.12 733.62,-299.38 836.88,-299.38 836.88,-323.12"/>
<polygon fill="none" stroke="black" points="733.62,-299.38 733.62,-323.12 836.88,-323.12 836.88,-299.38 733.62,-299.38"/>
<text text-anchor="start" x="737.62" y="-305.82" font-family="arial" font-size="14.00">Case grounding</text>
</g>
<!-- BOILER -->
<g id="node8" class="node">
<title>BOILER</title>
<polygon fill="#ffffff" stroke="black" points="838.38,-275.12 732.12,-275.12 732.12,-251.38 838.38,-251.38 838.38,-275.12"/>
<polygon fill="none" stroke="black" points="732.12,-251.38 732.12,-275.12 838.38,-275.12 838.38,-251.38 732.12,-251.38"/>
<text text-anchor="start" x="736.12" y="-257.82" font-family="arial" font-size="14.00">Boiler grounding</text>
</g>
<!-- SOLENOID -->
<g id="node9" class="node">
<title>SOLENOID</title>
<polygon fill="#ffffff" stroke="black" points="2613.75,-803.62 2425.5,-803.62 2425.5,-684.88 2613.75,-684.88 2613.75,-803.62"/>
<polygon fill="none" stroke="black" points="2425.5,-779.88 2425.5,-803.62 2613.75,-803.62 2613.75,-779.88 2425.5,-779.88"/>
<text text-anchor="start" x="2484" y="-786.33" font-family="arial" font-size="14.00">SOLENOID</text>
<polygon fill="none" stroke="black" points="2425.5,-756.12 2425.5,-779.88 2526.5,-779.88 2526.5,-756.12 2425.5,-756.12"/>
<text text-anchor="start" x="2429.5" y="-762.58" font-family="arial" font-size="14.00">6.35mm Spade</text>
<polygon fill="none" stroke="black" points="2526.5,-756.12 2526.5,-779.88 2575.75,-779.88 2575.75,-756.12 2526.5,-756.12"/>
<text text-anchor="start" x="2530.5" y="-762.58" font-family="arial" font-size="14.00">female</text>
<polygon fill="none" stroke="black" points="2575.75,-756.12 2575.75,-779.88 2613.75,-779.88 2613.75,-756.12 2575.75,-756.12"/>
<text text-anchor="start" x="2579.75" y="-762.58" font-family="arial" font-size="14.00">3&#45;pin</text>
<polygon fill="none" stroke="black" points="2425.5,-732.38 2425.5,-756.12 2500.5,-756.12 2500.5,-732.38 2425.5,-732.38"/>
<text text-anchor="start" x="2459.25" y="-738.83" font-family="arial" font-size="14.00">1</text>
<polygon fill="none" stroke="black" points="2500.5,-732.38 2500.5,-756.12 2613.75,-756.12 2613.75,-732.38 2500.5,-732.38"/>
<text text-anchor="start" x="2553.38" y="-738.83" font-family="arial" font-size="14.00">L</text>
<polygon fill="none" stroke="black" points="2425.5,-708.62 2425.5,-732.38 2500.5,-732.38 2500.5,-708.62 2425.5,-708.62"/>
<text text-anchor="start" x="2459.25" y="-715.08" font-family="arial" font-size="14.00">2</text>
<polygon fill="none" stroke="black" points="2500.5,-708.62 2500.5,-732.38 2613.75,-732.38 2613.75,-708.62 2500.5,-708.62"/>
<text text-anchor="start" x="2552.25" y="-715.08" font-family="arial" font-size="14.00">N</text>
<polygon fill="none" stroke="black" points="2425.5,-684.88 2425.5,-708.62 2500.5,-708.62 2500.5,-684.88 2425.5,-684.88"/>
<text text-anchor="start" x="2459.25" y="-691.33" font-family="arial" font-size="14.00">3</text>
<polygon fill="none" stroke="black" points="2500.5,-684.88 2500.5,-708.62 2613.75,-708.62 2613.75,-684.88 2500.5,-684.88"/>
<text text-anchor="start" x="2534.25" y="-691.33" font-family="arial" font-size="14.00">EARTH</text>
</g>
<!-- PUMP -->
<g id="node10" class="node">
<title>PUMP</title>
<polygon fill="#ffffff" stroke="black" points="2613.75,-948.75 2425.5,-948.75 2425.5,-853.75 2613.75,-853.75 2613.75,-948.75"/>
<polygon fill="none" stroke="black" points="2425.5,-925 2425.5,-948.75 2613.75,-948.75 2613.75,-925 2425.5,-925"/>
<text text-anchor="start" x="2499.75" y="-931.45" font-family="arial" font-size="14.00">PUMP</text>
<polygon fill="none" stroke="black" points="2425.5,-901.25 2425.5,-925 2526.5,-925 2526.5,-901.25 2425.5,-901.25"/>
<text text-anchor="start" x="2429.5" y="-907.7" font-family="arial" font-size="14.00">6.35mm Spade</text>
<polygon fill="none" stroke="black" points="2526.5,-901.25 2526.5,-925 2575.75,-925 2575.75,-901.25 2526.5,-901.25"/>
<text text-anchor="start" x="2530.5" y="-907.7" font-family="arial" font-size="14.00">female</text>
<polygon fill="none" stroke="black" points="2575.75,-901.25 2575.75,-925 2613.75,-925 2613.75,-901.25 2575.75,-901.25"/>
<text text-anchor="start" x="2579.75" y="-907.7" font-family="arial" font-size="14.00">2&#45;pin</text>
<polygon fill="none" stroke="black" points="2425.5,-877.5 2425.5,-901.25 2518.5,-901.25 2518.5,-877.5 2425.5,-877.5"/>
<text text-anchor="start" x="2468.25" y="-883.95" font-family="arial" font-size="14.00">1</text>
<polygon fill="none" stroke="black" points="2518.5,-877.5 2518.5,-901.25 2613.75,-901.25 2613.75,-877.5 2518.5,-877.5"/>
<text text-anchor="start" x="2562.38" y="-883.95" font-family="arial" font-size="14.00">L</text>
<polygon fill="none" stroke="black" points="2425.5,-853.75 2425.5,-877.5 2518.5,-877.5 2518.5,-853.75 2425.5,-853.75"/>
<text text-anchor="start" x="2468.25" y="-860.2" font-family="arial" font-size="14.00">2</text>
<polygon fill="none" stroke="black" points="2518.5,-853.75 2518.5,-877.5 2613.75,-877.5 2613.75,-853.75 2518.5,-853.75"/>
<text text-anchor="start" x="2561.25" y="-860.2" font-family="arial" font-size="14.00">N</text>
</g>
<!-- BOARD_LV -->
<g id="node11" class="node">
<title>BOARD_LV</title>
<polygon fill="#ffffff" stroke="black" points="1715.12,-266 1573.38,-266 1573.38,-28.5 1715.12,-28.5 1715.12,-266"/>
<polygon fill="none" stroke="black" points="1573.38,-242.25 1573.38,-266 1715.12,-266 1715.12,-242.25 1573.38,-242.25"/>
<text text-anchor="start" x="1608.25" y="-248.7" font-family="arial" font-size="14.00">BOARD_LV</text>
<polygon fill="none" stroke="black" points="1573.38,-218.5 1573.38,-242.25 1627.88,-242.25 1627.88,-218.5 1573.38,-218.5"/>
<text text-anchor="start" x="1577.38" y="-224.95" font-family="arial" font-size="14.00">JST XH</text>
<polygon fill="none" stroke="black" points="1627.88,-218.5 1627.88,-242.25 1677.12,-242.25 1677.12,-218.5 1627.88,-218.5"/>
<text text-anchor="start" x="1631.88" y="-224.95" font-family="arial" font-size="14.00">female</text>
<polygon fill="none" stroke="black" points="1677.12,-218.5 1677.12,-242.25 1715.12,-242.25 1715.12,-218.5 1677.12,-218.5"/>
<text text-anchor="start" x="1681.12" y="-224.95" font-family="arial" font-size="14.00">8&#45;pin</text>
<polygon fill="none" stroke="black" points="1573.38,-194.75 1573.38,-218.5 1607.38,-218.5 1607.38,-194.75 1573.38,-194.75"/>
<text text-anchor="start" x="1586.62" y="-201.2" font-family="arial" font-size="14.00">1</text>
<polygon fill="none" stroke="black" points="1607.38,-194.75 1607.38,-218.5 1681.12,-218.5 1681.12,-194.75 1607.38,-194.75"/>
<text text-anchor="start" x="1626.25" y="-201.2" font-family="arial" font-size="14.00">+3.3V</text>
<polygon fill="none" stroke="black" points="1681.12,-194.75 1681.12,-218.5 1715.12,-218.5 1715.12,-194.75 1681.12,-194.75"/>
<text text-anchor="start" x="1694.38" y="-201.2" font-family="arial" font-size="14.00">1</text>
<polygon fill="none" stroke="black" points="1573.38,-171 1573.38,-194.75 1607.38,-194.75 1607.38,-171 1573.38,-171"/>
<text text-anchor="start" x="1586.62" y="-177.45" font-family="arial" font-size="14.00">2</text>
<polygon fill="none" stroke="black" points="1607.38,-171 1607.38,-194.75 1681.12,-194.75 1681.12,-171 1607.38,-171"/>
<text text-anchor="start" x="1628.88" y="-177.45" font-family="arial" font-size="14.00">GND</text>
<polygon fill="none" stroke="black" points="1681.12,-171 1681.12,-194.75 1715.12,-194.75 1715.12,-171 1681.12,-171"/>
<text text-anchor="start" x="1694.38" y="-177.45" font-family="arial" font-size="14.00">2</text>
<polygon fill="none" stroke="black" points="1573.38,-147.25 1573.38,-171 1607.38,-171 1607.38,-147.25 1573.38,-147.25"/>
<text text-anchor="start" x="1586.62" y="-153.7" font-family="arial" font-size="14.00">3</text>
<polygon fill="none" stroke="black" points="1607.38,-147.25 1607.38,-171 1681.12,-171 1681.12,-147.25 1607.38,-147.25"/>
<text text-anchor="start" x="1630.38" y="-153.7" font-family="arial" font-size="14.00">SSR</text>
<polygon fill="none" stroke="black" points="1681.12,-147.25 1681.12,-171 1715.12,-171 1715.12,-147.25 1681.12,-147.25"/>
<text text-anchor="start" x="1694.38" y="-153.7" font-family="arial" font-size="14.00">3</text>
<polygon fill="none" stroke="black" points="1573.38,-123.5 1573.38,-147.25 1607.38,-147.25 1607.38,-123.5 1573.38,-123.5"/>
<text text-anchor="start" x="1586.62" y="-129.95" font-family="arial" font-size="14.00">4</text>
<polygon fill="none" stroke="black" points="1607.38,-123.5 1607.38,-147.25 1681.12,-147.25 1681.12,-123.5 1607.38,-123.5"/>
<text text-anchor="start" x="1628.88" y="-129.95" font-family="arial" font-size="14.00">GND</text>
<polygon fill="none" stroke="black" points="1681.12,-123.5 1681.12,-147.25 1715.12,-147.25 1715.12,-123.5 1681.12,-123.5"/>
<text text-anchor="start" x="1694.38" y="-129.95" font-family="arial" font-size="14.00">4</text>
<polygon fill="none" stroke="black" points="1573.38,-99.75 1573.38,-123.5 1607.38,-123.5 1607.38,-99.75 1573.38,-99.75"/>
<text text-anchor="start" x="1586.62" y="-106.2" font-family="arial" font-size="14.00">5</text>
<polygon fill="none" stroke="black" points="1607.38,-99.75 1607.38,-123.5 1681.12,-123.5 1681.12,-99.75 1607.38,-99.75"/>
<text text-anchor="start" x="1623.62" y="-106.2" font-family="arial" font-size="14.00">BREW</text>
<polygon fill="none" stroke="black" points="1681.12,-99.75 1681.12,-123.5 1715.12,-123.5 1715.12,-99.75 1681.12,-99.75"/>
<text text-anchor="start" x="1694.38" y="-106.2" font-family="arial" font-size="14.00">5</text>
<polygon fill="none" stroke="black" points="1573.38,-76 1573.38,-99.75 1607.38,-99.75 1607.38,-76 1573.38,-76"/>
<text text-anchor="start" x="1586.62" y="-82.45" font-family="arial" font-size="14.00">6</text>
<polygon fill="none" stroke="black" points="1607.38,-76 1607.38,-99.75 1681.12,-99.75 1681.12,-76 1607.38,-76"/>
<text text-anchor="start" x="1628.88" y="-82.45" font-family="arial" font-size="14.00">GND</text>
<polygon fill="none" stroke="black" points="1681.12,-76 1681.12,-99.75 1715.12,-99.75 1715.12,-76 1681.12,-76"/>
<text text-anchor="start" x="1694.38" y="-82.45" font-family="arial" font-size="14.00">6</text>
<polygon fill="none" stroke="black" points="1573.38,-52.25 1573.38,-76 1607.38,-76 1607.38,-52.25 1573.38,-52.25"/>
<text text-anchor="start" x="1586.62" y="-58.7" font-family="arial" font-size="14.00">7</text>
<polygon fill="none" stroke="black" points="1607.38,-52.25 1607.38,-76 1681.12,-76 1681.12,-52.25 1607.38,-52.25"/>
<text text-anchor="start" x="1620.62" y="-58.7" font-family="arial" font-size="14.00">STEAM</text>
<polygon fill="none" stroke="black" points="1681.12,-52.25 1681.12,-76 1715.12,-76 1715.12,-52.25 1681.12,-52.25"/>
<text text-anchor="start" x="1694.38" y="-58.7" font-family="arial" font-size="14.00">7</text>
<polygon fill="none" stroke="black" points="1573.38,-28.5 1573.38,-52.25 1607.38,-52.25 1607.38,-28.5 1573.38,-28.5"/>
<text text-anchor="start" x="1586.62" y="-34.95" font-family="arial" font-size="14.00">8</text>
<polygon fill="none" stroke="black" points="1607.38,-28.5 1607.38,-52.25 1681.12,-52.25 1681.12,-28.5 1607.38,-28.5"/>
<text text-anchor="start" x="1628.88" y="-34.95" font-family="arial" font-size="14.00">GND</text>
<polygon fill="none" stroke="black" points="1681.12,-28.5 1681.12,-52.25 1715.12,-52.25 1715.12,-28.5 1681.12,-28.5"/>
<text text-anchor="start" x="1694.38" y="-34.95" font-family="arial" font-size="14.00">8</text>
</g>
<!-- DISPLAY_PWR -->
<g id="node23" class="node">
<title>DISPLAY_PWR</title>
<polygon fill="#ffffff" stroke="black" points="2225.25,-323.5 1919.25,-323.5 1919.25,-177 2225.25,-177 2225.25,-323.5"/>
<polygon fill="none" stroke="black" points="1919.25,-299.75 1919.25,-323.5 2225.25,-323.5 2225.25,-299.75 1919.25,-299.75"/>
<text text-anchor="start" x="2024.25" y="-306.2" font-family="arial" font-size="14.00">DISPLAY_PWR</text>
<polygon fill="none" stroke="black" points="1919.25,-276 1919.25,-299.75 2053.5,-299.75 2053.5,-276 1919.25,-276"/>
<text text-anchor="start" x="1979.25" y="-282.45" font-family="arial" font-size="14.00">2x</text>
<polygon fill="none" stroke="black" points="2053.5,-276 2053.5,-299.75 2225.25,-299.75 2225.25,-276 2053.5,-276"/>
<text text-anchor="start" x="2113.5" y="-282.45" font-family="arial" font-size="14.00">22 AWG</text>
<text text-anchor="start" x="1980.88" y="-260.7" font-family="arial" font-size="14.00"> </text>
<text text-anchor="start" x="1921.25" y="-240.95" font-family="arial" font-size="14.00">BOARD_LV:1:+3.3V</text>
<text text-anchor="start" x="2048.25" y="-240.95" font-family="arial" font-size="14.00"> &#160;&#160;&#160;&#160;1:RD &#160;&#160;&#160;</text>
<text text-anchor="start" x="2116.75" y="-240.95" font-family="arial" font-size="14.00">DISPLAY:1:+3.3V</text>
<polygon fill="#000000" stroke="none" points="1919.25,-234.5 1919.25,-236.5 2225.25,-236.5 2225.25,-234.5 1919.25,-234.5"/>
<polygon fill="#ff0000" stroke="none" points="1919.25,-232.5 1919.25,-234.5 2225.25,-234.5 2225.25,-232.5 1919.25,-232.5"/>
<polygon fill="#ff0000" stroke="none" points="1919.25,-230.5 1919.25,-232.5 2225.25,-232.5 2225.25,-230.5 1919.25,-230.5"/>
<polygon fill="#ff0000" stroke="none" points="1919.25,-228.5 1919.25,-230.5 2225.25,-230.5 2225.25,-228.5 1919.25,-228.5"/>
<polygon fill="#000000" stroke="none" points="1919.25,-226.5 1919.25,-228.5 2225.25,-228.5 2225.25,-226.5 1919.25,-226.5"/>
<text text-anchor="start" x="1923.88" y="-211.2" font-family="arial" font-size="14.00">BOARD_LV:2:GND</text>
<text text-anchor="start" x="2049" y="-211.2" font-family="arial" font-size="14.00"> &#160;&#160;&#160;&#160;2:BK &#160;&#160;&#160;</text>
<text text-anchor="start" x="2119.38" y="-211.2" font-family="arial" font-size="14.00">DISPLAY:4:GND</text>
<polygon fill="#000000" stroke="none" points="1919.25,-204.75 1919.25,-206.75 2225.25,-206.75 2225.25,-204.75 1919.25,-204.75"/>
<polygon fill="#000000" stroke="none" points="1919.25,-202.75 1919.25,-204.75 2225.25,-204.75 2225.25,-202.75 1919.25,-202.75"/>
<polygon fill="#000000" stroke="none" points="1919.25,-200.75 1919.25,-202.75 2225.25,-202.75 2225.25,-200.75 1919.25,-200.75"/>
<polygon fill="#000000" stroke="none" points="1919.25,-198.75 1919.25,-200.75 2225.25,-200.75 2225.25,-198.75 1919.25,-198.75"/>
<polygon fill="#000000" stroke="none" points="1919.25,-196.75 1919.25,-198.75 2225.25,-198.75 2225.25,-196.75 1919.25,-196.75"/>
<text text-anchor="start" x="1980.88" y="-181.45" font-family="arial" font-size="14.00"> </text>
</g>
<!-- BOARD_LV&#45;&#45;DISPLAY_PWR -->
<g id="edge31" class="edge">
<title>BOARD_LV:e&#45;&#45;DISPLAY_PWR:w</title>
<path fill="none" stroke="#000000" stroke-width="2" d="M1716.12,-202.63C1809.69,-204.04 1830.79,-228.91 1918.25,-227.5"/>
<path fill="none" stroke="#ff0000" stroke-width="2" d="M1716.12,-204.63C1808.16,-205.33 1829.26,-230.21 1918.25,-229.5"/>
<path fill="none" stroke="#ff0000" stroke-width="2" d="M1716.12,-206.63C1806.64,-206.62 1827.74,-231.5 1918.25,-231.5"/>
<path fill="none" stroke="#ff0000" stroke-width="2" d="M1716.12,-208.62C1805.11,-207.92 1826.21,-232.79 1918.25,-233.5"/>
<path fill="none" stroke="#000000" stroke-width="2" d="M1716.12,-210.62C1803.59,-209.21 1824.69,-234.09 1918.25,-235.5"/>
</g>
<!-- BOARD_LV&#45;&#45;DISPLAY_PWR -->
<g id="edge33" class="edge">
<title>BOARD_LV:e&#45;&#45;DISPLAY_PWR:w</title>
<path fill="none" stroke="#000000" stroke-width="2" d="M1716.12,-178.88C1808.98,-179.86 1830.65,-198.73 1918.25,-197.75"/>
<path fill="none" stroke="#000000" stroke-width="2" d="M1716.12,-180.88C1807.66,-181.37 1829.34,-200.24 1918.25,-199.75"/>
<path fill="none" stroke="#000000" stroke-width="2" d="M1716.12,-182.88C1806.35,-182.87 1828.03,-201.75 1918.25,-201.75"/>
<path fill="none" stroke="#000000" stroke-width="2" d="M1716.12,-184.87C1805.04,-184.38 1826.71,-203.26 1918.25,-203.75"/>
<path fill="none" stroke="#000000" stroke-width="2" d="M1716.12,-186.87C1803.72,-185.89 1825.4,-204.77 1918.25,-205.75"/>
</g>
<!-- SSR_SIGNAL -->
<g id="node24" class="node">
<title>SSR_SIGNAL</title>
<polygon fill="#ffffff" stroke="black" points="2271.75,-152.5 1872.75,-152.5 1872.75,-6 2271.75,-6 2271.75,-152.5"/>
<polygon fill="none" stroke="black" points="1872.75,-128.75 1872.75,-152.5 2271.75,-152.5 2271.75,-128.75 1872.75,-128.75"/>
<text text-anchor="start" x="2029.5" y="-135.2" font-family="arial" font-size="14.00">SSR_SIGNAL</text>
<polygon fill="none" stroke="black" points="1872.75,-105 1872.75,-128.75 2053.5,-128.75 2053.5,-105 1872.75,-105"/>
<text text-anchor="start" x="1956" y="-111.45" font-family="arial" font-size="14.00">2x</text>
<polygon fill="none" stroke="black" points="2053.5,-105 2053.5,-128.75 2271.75,-128.75 2271.75,-105 2053.5,-105"/>
<text text-anchor="start" x="2136.75" y="-111.45" font-family="arial" font-size="14.00">22 AWG</text>
<text text-anchor="start" x="1931.75" y="-89.7" font-family="arial" font-size="14.00"> </text>
<text text-anchor="start" x="1876.25" y="-69.95" font-family="arial" font-size="14.00">BOARD_LV:3:SSR</text>
<text text-anchor="start" x="1996.5" y="-69.95" font-family="arial" font-size="14.00"> &#160;&#160;&#160;&#160;1:YE &#160;&#160;&#160;</text>
<text text-anchor="start" x="2063.5" y="-69.95" font-family="arial" font-size="14.00">SOLID_STATE_RELAY:1:SIGNAL</text>
<polygon fill="#000000" stroke="none" points="1872.75,-63.5 1872.75,-65.5 2271.75,-65.5 2271.75,-63.5 1872.75,-63.5"/>
<polygon fill="#ffff00" stroke="none" points="1872.75,-61.5 1872.75,-63.5 2271.75,-63.5 2271.75,-61.5 1872.75,-61.5"/>
<polygon fill="#ffff00" stroke="none" points="1872.75,-59.5 1872.75,-61.5 2271.75,-61.5 2271.75,-59.5 1872.75,-59.5"/>
<polygon fill="#ffff00" stroke="none" points="1872.75,-57.5 1872.75,-59.5 2271.75,-59.5 2271.75,-57.5 1872.75,-57.5"/>
<polygon fill="#000000" stroke="none" points="1872.75,-55.5 1872.75,-57.5 2271.75,-57.5 2271.75,-55.5 1872.75,-55.5"/>
<text text-anchor="start" x="1874.75" y="-40.2" font-family="arial" font-size="14.00">BOARD_LV:4:GND</text>
<text text-anchor="start" x="1996.5" y="-40.2" font-family="arial" font-size="14.00"> &#160;&#160;&#160;&#160;2:BK &#160;&#160;&#160;</text>
<text text-anchor="start" x="2073.25" y="-40.2" font-family="arial" font-size="14.00">SOLID_STATE_RELAY:2:GND</text>
<polygon fill="#000000" stroke="none" points="1872.75,-33.75 1872.75,-35.75 2271.75,-35.75 2271.75,-33.75 1872.75,-33.75"/>
<polygon fill="#000000" stroke="none" points="1872.75,-31.75 1872.75,-33.75 2271.75,-33.75 2271.75,-31.75 1872.75,-31.75"/>
<polygon fill="#000000" stroke="none" points="1872.75,-29.75 1872.75,-31.75 2271.75,-31.75 2271.75,-29.75 1872.75,-29.75"/>
<polygon fill="#000000" stroke="none" points="1872.75,-27.75 1872.75,-29.75 2271.75,-29.75 2271.75,-27.75 1872.75,-27.75"/>
<polygon fill="#000000" stroke="none" points="1872.75,-25.75 1872.75,-27.75 2271.75,-27.75 2271.75,-25.75 1872.75,-25.75"/>
<text text-anchor="start" x="1931.75" y="-10.45" font-family="arial" font-size="14.00"> </text>
</g>
<!-- BOARD_LV&#45;&#45;SSR_SIGNAL -->
<g id="edge35" class="edge">
<title>BOARD_LV:e&#45;&#45;SSR_SIGNAL:w</title>
<path fill="none" stroke="#000000" stroke-width="2" d="M1716.12,-155.13C1794.03,-159.45 1785.88,-60.83 1871.75,-56.5"/>
<path fill="none" stroke="#ffff00" stroke-width="2" d="M1716.12,-157.13C1796.02,-159.29 1787.87,-60.66 1871.75,-58.5"/>
<path fill="none" stroke="#ffff00" stroke-width="2" d="M1716.12,-159.12C1798.01,-159.13 1789.86,-60.5 1871.75,-60.5"/>
<path fill="none" stroke="#ffff00" stroke-width="2" d="M1716.12,-161.12C1800,-158.96 1791.86,-60.34 1871.75,-62.5"/>
<path fill="none" stroke="#000000" stroke-width="2" d="M1716.12,-163.12C1802,-158.8 1793.85,-60.17 1871.75,-64.5"/>
</g>
<!-- BOARD_LV&#45;&#45;SSR_SIGNAL -->
<g id="edge37" class="edge">
<title>BOARD_LV:e&#45;&#45;SSR_SIGNAL:w</title>
<path fill="none" stroke="#000000" stroke-width="2" d="M1716.12,-131.38C1795.49,-135.8 1784.43,-31.17 1871.75,-26.75"/>
<path fill="none" stroke="#000000" stroke-width="2" d="M1716.12,-133.38C1797.48,-135.59 1786.42,-30.96 1871.75,-28.75"/>
<path fill="none" stroke="#000000" stroke-width="2" d="M1716.12,-135.38C1799.47,-135.37 1788.41,-30.75 1871.75,-30.75"/>
<path fill="none" stroke="#000000" stroke-width="2" d="M1716.12,-137.37C1801.46,-135.16 1790.39,-30.54 1871.75,-32.75"/>
<path fill="none" stroke="#000000" stroke-width="2" d="M1716.12,-139.37C1803.45,-134.95 1792.38,-30.33 1871.75,-34.75"/>
</g>
<!-- DISPLAY -->
<g id="node12" class="node">
<title>DISPLAY</title>
<polygon fill="#ffffff" stroke="black" points="2594.38,-311.5 2444.88,-311.5 2444.88,-169 2594.38,-169 2594.38,-311.5"/>
<polygon fill="none" stroke="black" points="2444.88,-287.75 2444.88,-311.5 2594.38,-311.5 2594.38,-287.75 2444.88,-287.75"/>
<text text-anchor="start" x="2491.5" y="-294.2" font-family="arial" font-size="14.00">DISPLAY</text>
<polygon fill="none" stroke="black" points="2444.88,-264 2444.88,-287.75 2556.38,-287.75 2556.38,-264 2444.88,-264"/>
<text text-anchor="start" x="2448.88" y="-270.45" font-family="arial" font-size="14.00">Grove Connector</text>
<polygon fill="none" stroke="black" points="2556.38,-264 2556.38,-287.75 2594.38,-287.75 2594.38,-264 2556.38,-264"/>
<text text-anchor="start" x="2560.38" y="-270.45" font-family="arial" font-size="14.00">4&#45;pin</text>
<polygon fill="none" stroke="black" points="2444.88,-240.25 2444.88,-264 2505.38,-264 2505.38,-240.25 2444.88,-240.25"/>
<text text-anchor="start" x="2471.38" y="-246.7" font-family="arial" font-size="14.00">1</text>
<polygon fill="none" stroke="black" points="2505.38,-240.25 2505.38,-264 2594.38,-264 2594.38,-240.25 2505.38,-240.25"/>
<text text-anchor="start" x="2531.88" y="-246.7" font-family="arial" font-size="14.00">+3.3V</text>
<polygon fill="none" stroke="black" points="2444.88,-216.5 2444.88,-240.25 2505.38,-240.25 2505.38,-216.5 2444.88,-216.5"/>
<text text-anchor="start" x="2471.38" y="-222.95" font-family="arial" font-size="14.00">2</text>
<polygon fill="none" stroke="black" points="2505.38,-216.5 2505.38,-240.25 2594.38,-240.25 2594.38,-216.5 2505.38,-216.5"/>
<text text-anchor="start" x="2536" y="-222.95" font-family="arial" font-size="14.00">SDA</text>
<polygon fill="none" stroke="black" points="2444.88,-192.75 2444.88,-216.5 2505.38,-216.5 2505.38,-192.75 2444.88,-192.75"/>
<text text-anchor="start" x="2471.38" y="-199.2" font-family="arial" font-size="14.00">3</text>
<polygon fill="none" stroke="black" points="2505.38,-192.75 2505.38,-216.5 2594.38,-216.5 2594.38,-192.75 2505.38,-192.75"/>
<text text-anchor="start" x="2536.75" y="-199.2" font-family="arial" font-size="14.00">SCL</text>
<polygon fill="none" stroke="black" points="2444.88,-169 2444.88,-192.75 2505.38,-192.75 2505.38,-169 2444.88,-169"/>
<text text-anchor="start" x="2471.38" y="-175.45" font-family="arial" font-size="14.00">4</text>
<polygon fill="none" stroke="black" points="2505.38,-169 2505.38,-192.75 2594.38,-192.75 2594.38,-169 2505.38,-169"/>
<text text-anchor="start" x="2534.5" y="-175.45" font-family="arial" font-size="14.00">GND</text>
</g>
<!-- BREW_SWITCH -->
<g id="node13" class="node">
<title>BREW_SWITCH</title>
<polygon fill="#ffffff" stroke="black" points="879.38,-214.75 691.12,-214.75 691.12,-119.75 879.38,-119.75 879.38,-214.75"/>
<polygon fill="none" stroke="black" points="691.12,-191 691.12,-214.75 879.38,-214.75 879.38,-191 691.12,-191"/>
<text text-anchor="start" x="733.88" y="-197.45" font-family="arial" font-size="14.00">BREW_SWITCH</text>
<polygon fill="none" stroke="black" points="691.12,-167.25 691.12,-191 792.12,-191 792.12,-167.25 691.12,-167.25"/>
<text text-anchor="start" x="695.12" y="-173.7" font-family="arial" font-size="14.00">6.35mm Spade</text>
<polygon fill="none" stroke="black" points="792.12,-167.25 792.12,-191 841.38,-191 841.38,-167.25 792.12,-167.25"/>
<text text-anchor="start" x="796.12" y="-173.7" font-family="arial" font-size="14.00">female</text>
<polygon fill="none" stroke="black" points="841.38,-167.25 841.38,-191 879.38,-191 879.38,-167.25 841.38,-167.25"/>
<text text-anchor="start" x="845.38" y="-173.7" font-family="arial" font-size="14.00">2&#45;pin</text>
<polygon fill="none" stroke="black" points="691.12,-143.5 691.12,-167.25 796.12,-167.25 796.12,-143.5 691.12,-143.5"/>
<text text-anchor="start" x="736.88" y="-149.95" font-family="arial" font-size="14.00">IN</text>
<polygon fill="none" stroke="black" points="796.12,-143.5 796.12,-167.25 879.38,-167.25 879.38,-143.5 796.12,-143.5"/>
<text text-anchor="start" x="834" y="-149.95" font-family="arial" font-size="14.00">1</text>
<polygon fill="none" stroke="black" points="691.12,-119.75 691.12,-143.5 796.12,-143.5 796.12,-119.75 691.12,-119.75"/>
<text text-anchor="start" x="729" y="-126.2" font-family="arial" font-size="14.00">OUT</text>
<polygon fill="none" stroke="black" points="796.12,-119.75 796.12,-143.5 879.38,-143.5 879.38,-119.75 796.12,-119.75"/>
<text text-anchor="start" x="834" y="-126.2" font-family="arial" font-size="14.00">2</text>
</g>
<!-- BUTTONS -->
<g id="node25" class="node">
<title>BUTTONS</title>
<polygon fill="#ffffff" stroke="black" points="1425.5,-213.25 1060.25,-213.25 1060.25,-7.25 1425.5,-7.25 1425.5,-213.25"/>
<polygon fill="none" stroke="black" points="1060.25,-189.5 1060.25,-213.25 1425.5,-213.25 1425.5,-189.5 1060.25,-189.5"/>
<text text-anchor="start" x="1210.25" y="-195.95" font-family="arial" font-size="14.00">BUTTONS</text>
<polygon fill="none" stroke="black" points="1060.25,-165.75 1060.25,-189.5 1224.12,-189.5 1224.12,-165.75 1060.25,-165.75"/>
<text text-anchor="start" x="1135.06" y="-172.2" font-family="arial" font-size="14.00">4x</text>
<polygon fill="none" stroke="black" points="1224.12,-165.75 1224.12,-189.5 1425.5,-189.5 1425.5,-165.75 1224.12,-165.75"/>
<text text-anchor="start" x="1298.94" y="-172.2" font-family="arial" font-size="14.00">22 AWG</text>
<text text-anchor="start" x="1136.88" y="-150.45" font-family="arial" font-size="14.00"> </text>
<text text-anchor="start" x="1073.12" y="-130.7" font-family="arial" font-size="14.00">BREW_SWITCH:1:IN</text>
<text text-anchor="start" x="1219.25" y="-130.7" font-family="arial" font-size="14.00"> &#160;&#160;&#160;&#160;1:GN &#160;&#160;&#160;</text>
<text text-anchor="start" x="1292.25" y="-130.7" font-family="arial" font-size="14.00">BOARD_LV:5:BREW</text>
<polygon fill="#000000" stroke="none" points="1060.25,-124.25 1060.25,-126.25 1425.5,-126.25 1425.5,-124.25 1060.25,-124.25"/>
<polygon fill="#00ff00" stroke="none" points="1060.25,-122.25 1060.25,-124.25 1425.5,-124.25 1425.5,-122.25 1060.25,-122.25"/>
<polygon fill="#00ff00" stroke="none" points="1060.25,-120.25 1060.25,-122.25 1425.5,-122.25 1425.5,-120.25 1060.25,-120.25"/>
<polygon fill="#00ff00" stroke="none" points="1060.25,-118.25 1060.25,-120.25 1425.5,-120.25 1425.5,-118.25 1060.25,-118.25"/>
<polygon fill="#000000" stroke="none" points="1060.25,-116.25 1060.25,-118.25 1425.5,-118.25 1425.5,-116.25 1060.25,-116.25"/>
<text text-anchor="start" x="1065.25" y="-100.95" font-family="arial" font-size="14.00">BREW_SWITCH:2:OUT</text>
<text text-anchor="start" x="1220.75" y="-100.95" font-family="arial" font-size="14.00"> &#160;&#160;&#160;&#160;2:BK &#160;&#160;&#160;</text>
<text text-anchor="start" x="1297.5" y="-100.95" font-family="arial" font-size="14.00">BOARD_LV:6:GND</text>
<polygon fill="#000000" stroke="none" points="1060.25,-94.5 1060.25,-96.5 1425.5,-96.5 1425.5,-94.5 1060.25,-94.5"/>
<polygon fill="#000000" stroke="none" points="1060.25,-92.5 1060.25,-94.5 1425.5,-94.5 1425.5,-92.5 1060.25,-92.5"/>
<polygon fill="#000000" stroke="none" points="1060.25,-90.5 1060.25,-92.5 1425.5,-92.5 1425.5,-90.5 1060.25,-90.5"/>
<polygon fill="#000000" stroke="none" points="1060.25,-88.5 1060.25,-90.5 1425.5,-90.5 1425.5,-88.5 1060.25,-88.5"/>
<polygon fill="#000000" stroke="none" points="1060.25,-86.5 1060.25,-88.5 1425.5,-88.5 1425.5,-86.5 1060.25,-86.5"/>
<text text-anchor="start" x="1070.12" y="-71.2" font-family="arial" font-size="14.00">STEAM_SWITCH:1:IN</text>
<text text-anchor="start" x="1219.25" y="-71.2" font-family="arial" font-size="14.00"> &#160;&#160;&#160;&#160;3:GN &#160;&#160;&#160;</text>
<text text-anchor="start" x="1289.25" y="-71.2" font-family="arial" font-size="14.00">BOARD_LV:7:STEAM</text>
<polygon fill="#000000" stroke="none" points="1060.25,-64.75 1060.25,-66.75 1425.5,-66.75 1425.5,-64.75 1060.25,-64.75"/>
<polygon fill="#00ff00" stroke="none" points="1060.25,-62.75 1060.25,-64.75 1425.5,-64.75 1425.5,-62.75 1060.25,-62.75"/>
<polygon fill="#00ff00" stroke="none" points="1060.25,-60.75 1060.25,-62.75 1425.5,-62.75 1425.5,-60.75 1060.25,-60.75"/>
<polygon fill="#00ff00" stroke="none" points="1060.25,-58.75 1060.25,-60.75 1425.5,-60.75 1425.5,-58.75 1060.25,-58.75"/>
<polygon fill="#000000" stroke="none" points="1060.25,-56.75 1060.25,-58.75 1425.5,-58.75 1425.5,-56.75 1060.25,-56.75"/>
<text text-anchor="start" x="1062.25" y="-41.45" font-family="arial" font-size="14.00">STEAM_SWITCH:2:OUT</text>
<text text-anchor="start" x="1220.75" y="-41.45" font-family="arial" font-size="14.00"> &#160;&#160;&#160;&#160;4:BK &#160;&#160;&#160;</text>
<text text-anchor="start" x="1297.5" y="-41.45" font-family="arial" font-size="14.00">BOARD_LV:8:GND</text>
<polygon fill="#000000" stroke="none" points="1060.25,-35 1060.25,-37 1425.5,-37 1425.5,-35 1060.25,-35"/>
<polygon fill="#000000" stroke="none" points="1060.25,-33 1060.25,-35 1425.5,-35 1425.5,-33 1060.25,-33"/>
<polygon fill="#000000" stroke="none" points="1060.25,-31 1060.25,-33 1425.5,-33 1425.5,-31 1060.25,-31"/>
<polygon fill="#000000" stroke="none" points="1060.25,-29 1060.25,-31 1425.5,-31 1425.5,-29 1060.25,-29"/>
<polygon fill="#000000" stroke="none" points="1060.25,-27 1060.25,-29 1425.5,-29 1425.5,-27 1060.25,-27"/>
<text text-anchor="start" x="1136.88" y="-11.7" font-family="arial" font-size="14.00"> </text>
</g>
<!-- BREW_SWITCH&#45;&#45;BUTTONS -->
<g id="edge39" class="edge">
<title>BREW_SWITCH:e&#45;&#45;BUTTONS:w</title>
<path fill="none" stroke="#000000" stroke-width="2" d="M880.38,-151.38C958.17,-153.58 975.3,-119.46 1060.25,-117.25"/>
<path fill="none" stroke="#00ff00" stroke-width="2" d="M880.38,-153.38C959.96,-154.48 977.09,-120.35 1060.25,-119.25"/>
<path fill="none" stroke="#00ff00" stroke-width="2" d="M880.38,-155.38C961.75,-155.37 978.88,-121.25 1060.25,-121.25"/>
<path fill="none" stroke="#00ff00" stroke-width="2" d="M880.38,-157.37C963.53,-156.27 980.67,-122.15 1060.25,-123.25"/>
<path fill="none" stroke="#000000" stroke-width="2" d="M880.38,-159.37C965.32,-157.17 982.45,-123.04 1060.25,-125.25"/>
</g>
<!-- BREW_SWITCH&#45;&#45;BUTTONS -->
<g id="edge41" class="edge">
<title>BREW_SWITCH:e&#45;&#45;BUTTONS:w</title>
<path fill="none" stroke="#000000" stroke-width="2" d="M880.38,-127.63C958.57,-130.14 974.63,-90.01 1060.25,-87.5"/>
<path fill="none" stroke="#000000" stroke-width="2" d="M880.38,-129.63C960.43,-130.88 976.48,-90.76 1060.25,-89.5"/>
<path fill="none" stroke="#000000" stroke-width="2" d="M880.38,-131.62C962.28,-131.63 978.34,-91.5 1060.25,-91.5"/>
<path fill="none" stroke="#000000" stroke-width="2" d="M880.38,-133.62C964.14,-132.37 980.2,-92.24 1060.25,-93.5"/>
<path fill="none" stroke="#000000" stroke-width="2" d="M880.38,-135.62C966,-133.11 982.05,-92.99 1060.25,-95.5"/>
</g>
<!-- STEAM_SWITCH -->
<g id="node14" class="node">
<title>STEAM_SWITCH</title>
<polygon fill="#ffffff" stroke="black" points="879.38,-95.75 691.12,-95.75 691.12,-0.75 879.38,-0.75 879.38,-95.75"/>
<polygon fill="none" stroke="black" points="691.12,-72 691.12,-95.75 879.38,-95.75 879.38,-72 691.12,-72"/>
<text text-anchor="start" x="730.88" y="-78.45" font-family="arial" font-size="14.00">STEAM_SWITCH</text>
<polygon fill="none" stroke="black" points="691.12,-48.25 691.12,-72 792.12,-72 792.12,-48.25 691.12,-48.25"/>
<text text-anchor="start" x="695.12" y="-54.7" font-family="arial" font-size="14.00">6.35mm Spade</text>
<polygon fill="none" stroke="black" points="792.12,-48.25 792.12,-72 841.38,-72 841.38,-48.25 792.12,-48.25"/>
<text text-anchor="start" x="796.12" y="-54.7" font-family="arial" font-size="14.00">female</text>
<polygon fill="none" stroke="black" points="841.38,-48.25 841.38,-72 879.38,-72 879.38,-48.25 841.38,-48.25"/>
<text text-anchor="start" x="845.38" y="-54.7" font-family="arial" font-size="14.00">2&#45;pin</text>
<polygon fill="none" stroke="black" points="691.12,-24.5 691.12,-48.25 796.12,-48.25 796.12,-24.5 691.12,-24.5"/>
<text text-anchor="start" x="736.88" y="-30.95" font-family="arial" font-size="14.00">IN</text>
<polygon fill="none" stroke="black" points="796.12,-24.5 796.12,-48.25 879.38,-48.25 879.38,-24.5 796.12,-24.5"/>
<text text-anchor="start" x="834" y="-30.95" font-family="arial" font-size="14.00">1</text>
<polygon fill="none" stroke="black" points="691.12,-0.75 691.12,-24.5 796.12,-24.5 796.12,-0.75 691.12,-0.75"/>
<text text-anchor="start" x="729" y="-7.2" font-family="arial" font-size="14.00">OUT</text>
<polygon fill="none" stroke="black" points="796.12,-0.75 796.12,-24.5 879.38,-24.5 879.38,-0.75 796.12,-0.75"/>
<text text-anchor="start" x="834" y="-7.2" font-family="arial" font-size="14.00">2</text>
</g>
<!-- STEAM_SWITCH&#45;&#45;BUTTONS -->
<g id="edge43" class="edge">
<title>STEAM_SWITCH:e&#45;&#45;BUTTONS:w</title>
<path fill="none" stroke="#000000" stroke-width="2" d="M880.38,-32.38C964.35,-34.03 982.75,-59.4 1060.25,-57.75"/>
<path fill="none" stroke="#00ff00" stroke-width="2" d="M880.38,-34.38C962.73,-35.2 981.13,-60.58 1060.25,-59.75"/>
<path fill="none" stroke="#00ff00" stroke-width="2" d="M880.38,-36.37C961.11,-36.38 979.51,-61.75 1060.25,-61.75"/>
<path fill="none" stroke="#00ff00" stroke-width="2" d="M880.38,-38.37C959.49,-37.55 977.89,-62.92 1060.25,-63.75"/>
<path fill="none" stroke="#000000" stroke-width="2" d="M880.38,-40.37C957.87,-38.72 976.28,-64.1 1060.25,-65.75"/>
</g>
<!-- STEAM_SWITCH&#45;&#45;BUTTONS -->
<g id="edge45" class="edge">
<title>STEAM_SWITCH:e&#45;&#45;BUTTONS:w</title>
<path fill="none" stroke="#000000" stroke-width="2" d="M880.38,-8.63C963.63,-9.82 982.69,-29.19 1060.25,-28"/>
<path fill="none" stroke="#000000" stroke-width="2" d="M880.38,-10.63C962.21,-11.22 981.27,-30.6 1060.25,-30"/>
<path fill="none" stroke="#000000" stroke-width="2" d="M880.38,-12.63C960.78,-12.62 979.84,-32 1060.25,-32"/>
<path fill="none" stroke="#000000" stroke-width="2" d="M880.38,-14.62C959.36,-14.03 978.42,-33.4 1060.25,-34"/>
<path fill="none" stroke="#000000" stroke-width="2" d="M880.38,-16.62C957.93,-15.43 976.99,-34.81 1060.25,-36"/>
</g>
<!-- MAIN_POWER&#45;&#45;POWER_SWITCH -->
<g id="edge2" class="edge">
<title>MAIN_POWER:e&#45;&#45;POWER_SWITCH:w</title>
<path fill="none" stroke="#000000" stroke-width="2" d="M510.25,-676.63C576.1,-677.03 591.92,-684.78 654.25,-684.38"/>
<path fill="none" stroke="#999999" stroke-width="2" d="M510.25,-678.63C575.22,-678.83 591.04,-686.58 654.25,-686.38"/>
<path fill="none" stroke="#999999" stroke-width="2" d="M510.25,-680.62C574.34,-680.63 590.16,-688.38 654.25,-688.38"/>
<path fill="none" stroke="#999999" stroke-width="2" d="M510.25,-682.62C573.46,-682.42 589.28,-690.17 654.25,-690.37"/>
<path fill="none" stroke="#000000" stroke-width="2" d="M510.25,-684.62C572.58,-684.22 588.4,-691.97 654.25,-692.37"/>
</g>
<!-- HEATER_BRIDGE&#45;&#45;HEATER -->
<g id="edge4" class="edge">
<title>HEATER_BRIDGE:e&#45;&#45;HEATER:w</title>
<path fill="none" stroke="#000000" stroke-width="2" d="M2209.38,-417.63C2216.49,-422.55 2212.42,-405.43 2205.6,-399.76 2186.91,-379.91 1966.67,-399.13 1936.35,-400.87 1853.85,-405.54 1624.19,-382.23 1572.46,-441.69 1555.66,-459.49 1545.99,-499.32 1568.5,-494.38"/>
<path fill="none" stroke="#ff0000" stroke-width="2" d="M2209.38,-419.63C2218.44,-422.09 2214.37,-404.96 2206.99,-398.32 2186.73,-377.91 1966.5,-397.14 1936.24,-398.87 1854.05,-403.55 1624.39,-380.24 1570.98,-440.34 1553.71,-459.02 1544.05,-498.85 1568.5,-496.38"/>
<path fill="none" stroke="#ff0000" stroke-width="2" d="M2209.38,-421.62C2220.38,-421.63 2216.32,-404.5 2208.38,-396.88 2186.56,-375.92 1966.33,-395.15 1936.13,-396.88 1854.25,-401.56 1624.59,-378.25 1569.5,-439 1551.77,-458.55 1542.11,-498.38 1568.5,-498.37"/>
<path fill="none" stroke="#ff0000" stroke-width="2" d="M2209.38,-423.62C2222.33,-421.16 2218.26,-404.04 2209.76,-395.43 2186.38,-373.93 1966.15,-393.15 1936.01,-394.88 1854.45,-399.57 1624.79,-376.26 1568.02,-437.66 1549.83,-458.08 1540.16,-497.9 1568.5,-500.37"/>
<path fill="none" stroke="#000000" stroke-width="2" d="M2209.38,-425.62C2224.28,-420.7 2220.21,-403.58 2211.15,-393.99 2186.21,-371.94 1965.98,-391.16 1935.9,-392.88 1854.65,-397.58 1625,-374.27 1566.54,-436.31 1547.88,-457.61 1538.22,-497.43 1568.5,-502.37"/>
</g>
<!-- SSR_CONN&#45;&#45;SOLID_STATE_RELAY -->
<g id="edge6" class="edge">
<title>SSR_CONN:e&#45;&#45;SOLID_STATE_RELAY:w</title>
<path fill="none" stroke="#000000" stroke-width="2" d="M2281.5,-588.5C2535.91,-594.64 2182.58,-37.77 2443.75,-31.63"/>
<path fill="none" stroke="#ffff00" stroke-width="2" d="M2281.5,-590.5C2537.6,-593.57 2184.27,-36.7 2443.75,-33.63"/>
<path fill="none" stroke="#ffff00" stroke-width="2" d="M2281.5,-592.5C2539.29,-592.5 2185.96,-35.63 2443.75,-35.62"/>
<path fill="none" stroke="#ffff00" stroke-width="2" d="M2281.5,-594.5C2540.98,-591.43 2187.65,-34.55 2443.75,-37.62"/>
<path fill="none" stroke="#000000" stroke-width="2" d="M2281.5,-596.5C2542.67,-590.36 2189.34,-33.48 2443.75,-39.62"/>
</g>
<!-- SSR_CONN&#45;&#45;SOLID_STATE_RELAY -->
<g id="edge8" class="edge">
<title>SSR_CONN:e&#45;&#45;SOLID_STATE_RELAY:w</title>
<path fill="none" stroke="#000000" stroke-width="2" d="M2281.5,-558.75C2533.35,-564.89 2185.14,-14.01 2443.75,-7.88"/>
<path fill="none" stroke="#ffff00" stroke-width="2" d="M2281.5,-560.75C2535.04,-563.82 2186.83,-12.94 2443.75,-9.88"/>
<path fill="none" stroke="#ffff00" stroke-width="2" d="M2281.5,-562.75C2536.73,-562.75 2188.52,-11.88 2443.75,-11.88"/>
<path fill="none" stroke="#ffff00" stroke-width="2" d="M2281.5,-564.75C2538.42,-561.68 2190.21,-10.81 2443.75,-13.87"/>
<path fill="none" stroke="#000000" stroke-width="2" d="M2281.5,-566.75C2540.11,-560.61 2191.9,-9.74 2443.75,-15.87"/>
</g>
<!-- NEUTRAL_FUSED&#45;&#45;HEATER -->
<g id="edge10" class="edge">
<title>NEUTRAL_FUSED:e&#45;&#45;HEATER:w</title>
<path fill="none" stroke="#000000" stroke-width="2" d="M1411.12,-532.63C1487.17,-536.7 1485.46,-450.95 1569.5,-446.88"/>
<path fill="none" stroke="#895956" stroke-width="2" d="M1411.12,-534.63C1489.17,-536.66 1487.46,-450.91 1569.5,-448.88"/>
<path fill="none" stroke="#895956" stroke-width="2" d="M1411.12,-536.62C1491.17,-536.62 1489.46,-450.88 1569.5,-450.88"/>
<path fill="none" stroke="#895956" stroke-width="2" d="M1411.12,-538.62C1493.17,-536.59 1491.46,-450.84 1569.5,-452.87"/>
<path fill="none" stroke="#000000" stroke-width="2" d="M1411.12,-540.62C1495.17,-536.55 1493.46,-450.8 1569.5,-454.87"/>
</g>
<!-- NEUTRAL_FUSED&#45;&#45;BOARD_HV -->
<g id="edge12" class="edge">
<title>NEUTRAL_FUSED:e&#45;&#45;BOARD_HV:w</title>
<path fill="none" stroke="#000000" stroke-width="2" d="M1411.12,-532.63C1561.6,-538.23 1437.73,-821.6 1580.88,-816"/>
<path fill="none" stroke="#895956" stroke-width="2" d="M1411.12,-534.63C1559.77,-537.43 1435.9,-820.8 1580.88,-818"/>
<path fill="none" stroke="#895956" stroke-width="2" d="M1411.12,-536.62C1557.94,-536.63 1434.06,-820 1580.88,-820"/>
<path fill="none" stroke="#895956" stroke-width="2" d="M1411.12,-538.62C1556.1,-535.82 1432.23,-819.2 1580.88,-822"/>
<path fill="none" stroke="#000000" stroke-width="2" d="M1411.12,-540.62C1554.27,-535.02 1430.4,-818.4 1580.88,-824"/>
</g>
<!-- NEUTRAL_FUSED&#45;&#45;SOLENOID -->
<g id="edge16" class="edge">
<title>NEUTRAL_FUSED:e&#45;&#45;SOLENOID:w</title>
<path fill="none" stroke="#000000" stroke-width="2" d="M1411.12,-532.63C1489.57,-535.09 1502.73,-566.75 1570.84,-589.48 1702.79,-636.74 1730.23,-667.43 1863.76,-692.32 2107.4,-739.8 2173.96,-716.72 2425.5,-716.5"/>
<path fill="none" stroke="#895956" stroke-width="2" d="M1411.12,-534.63C1487.72,-535.86 1500.88,-567.52 1570.17,-591.36 1701.3,-638.08 1728.74,-668.77 1863.38,-694.29 2108.06,-741.69 2174.61,-718.61 2425.5,-718.5"/>
<path fill="none" stroke="#895956" stroke-width="2" d="M1411.12,-536.62C1485.88,-536.63 1499.04,-568.29 1569.5,-593.25 1699.81,-639.41 1727.25,-670.1 1863,-696.25 2108.72,-743.58 2175.27,-720.5 2425.5,-720.5"/>
<path fill="none" stroke="#895956" stroke-width="2" d="M1411.12,-538.62C1484.03,-537.39 1497.19,-569.06 1568.83,-595.14 1698.32,-640.74 1725.76,-671.43 1862.62,-698.21 2109.37,-745.47 2175.92,-722.39 2425.5,-722.5"/>
<path fill="none" stroke="#000000" stroke-width="2" d="M1411.12,-540.62C1482.18,-538.16 1495.34,-569.82 1568.16,-597.02 1696.83,-642.08 1724.27,-672.77 1862.24,-700.18 2110.03,-747.36 2176.58,-724.28 2425.5,-724.5"/>
</g>
<!-- NEUTRAL_FUSED&#45;&#45;PUMP -->
<g id="edge14" class="edge">
<title>NEUTRAL_FUSED:e&#45;&#45;PUMP:w</title>
<path fill="none" stroke="#000000" stroke-width="2" d="M1411.12,-532.63C1499.73,-536.79 1496.94,-606.39 1571.2,-638.63 1737.64,-717.05 2420.66,-861.71 2425.5,-861.63"/>
<path fill="none" stroke="#895956" stroke-width="2" d="M1411.12,-534.63C1497.73,-536.71 1494.94,-606.31 1570.35,-640.44 1737.22,-719.01 2420.24,-863.67 2425.5,-863.63"/>
<path fill="none" stroke="#895956" stroke-width="2" d="M1411.12,-536.63C1495.73,-536.63 1492.94,-606.23 1569.5,-642.25 1736.81,-720.96 2419.83,-865.63 2425.5,-865.62"/>
<path fill="none" stroke="#895956" stroke-width="2" d="M1411.12,-538.62C1493.73,-536.54 1490.94,-606.15 1568.65,-644.06 1736.4,-722.92 2419.41,-867.58 2425.5,-867.62"/>
<path fill="none" stroke="#000000" stroke-width="2" d="M1411.12,-540.62C1491.74,-536.46 1488.95,-606.07 1567.8,-645.87 1735.98,-724.88 2419,-869.54 2425.5,-869.62"/>
</g>
<!-- LINE&#45;&#45;BOARD_HV -->
<g id="edge18" class="edge">
<title>LINE:e&#45;&#45;BOARD_HV:w</title>
<path fill="none" stroke="#000000" stroke-width="2" d="M1410.38,-778.63C1494.83,-782.01 1504.33,-843.14 1580.88,-839.75"/>
<path fill="none" stroke="#999999" stroke-width="2" d="M1410.38,-780.63C1492.85,-782.32 1502.35,-843.44 1580.88,-841.75"/>
<path fill="none" stroke="#999999" stroke-width="2" d="M1410.38,-782.62C1490.88,-782.63 1500.37,-843.75 1580.88,-843.75"/>
<path fill="none" stroke="#999999" stroke-width="2" d="M1410.38,-784.62C1488.9,-782.93 1498.4,-844.06 1580.88,-845.75"/>
<path fill="none" stroke="#000000" stroke-width="2" d="M1410.38,-786.62C1486.92,-783.24 1496.42,-844.36 1580.88,-847.75"/>
</g>
<!-- EARTH&#45;&#45;CASE -->
<g id="edge20" class="edge">
<title>EARTH:e&#45;&#45;CASE:w</title>
<path fill="none" stroke="#000000" stroke-width="2" d="M468.5,-355.63C584.3,-357.76 609.74,-309.39 732.62,-307.25"/>
<path fill="none" stroke="#ffff00" stroke-width="2" d="M468.5,-357.63C586.07,-358.69 611.51,-310.32 732.62,-309.25"/>
<path fill="none" stroke="#00ff00" stroke-width="2" d="M468.5,-359.62C587.84,-359.62 613.28,-311.25 732.62,-311.25"/>
<path fill="none" stroke="#ffff00" stroke-width="2" d="M468.5,-361.62C589.61,-360.56 615.05,-312.18 732.62,-313.25"/>
<path fill="none" stroke="#000000" stroke-width="2" d="M468.5,-363.62C591.38,-361.49 616.82,-313.11 732.62,-315.25"/>
</g>
<!-- EARTH&#45;&#45;BOILER -->
<g id="edge22" class="edge">
<title>EARTH:e&#45;&#45;BOILER:w</title>
<path fill="none" stroke="#000000" stroke-width="2" d="M468.5,-355.63C588.87,-359.05 602.83,-262.68 731.12,-259.25"/>
<path fill="none" stroke="#ffff00" stroke-width="2" d="M468.5,-357.63C590.85,-359.34 604.81,-262.96 731.12,-261.25"/>
<path fill="none" stroke="#00ff00" stroke-width="2" d="M468.5,-359.62C592.83,-359.63 606.79,-263.25 731.12,-263.25"/>
<path fill="none" stroke="#ffff00" stroke-width="2" d="M468.5,-361.62C594.81,-359.91 608.77,-263.54 731.12,-265.25"/>
<path fill="none" stroke="#000000" stroke-width="2" d="M468.5,-363.62C596.79,-360.2 610.75,-263.82 731.12,-267.25"/>
</g>
<!-- EARTH&#45;&#45;SOLENOID -->
<g id="edge24" class="edge">
<title>EARTH:e&#45;&#45;SOLENOID:w</title>
<path fill="none" stroke="#000000" stroke-width="2" d="M468.5,-355.63C812.25,-355.63 898.18,-356.25 1241.88,-356.25 1241.88,-356.25 1241.88,-356.25 1645.25,-356.25 1786.19,-356.29 2163.25,-302.74 2283.72,-381.92 2411.8,-471.97 2276.41,-698.8 2425.5,-692.75"/>
<path fill="none" stroke="#ffff00" stroke-width="2" d="M468.5,-357.63C812.24,-357.63 898.17,-358.25 1241.88,-358.25 1241.88,-358.25 1241.88,-358.25 1645.25,-358.25 1786.47,-358.27 2163.53,-304.72 2282.61,-383.59 2410.08,-470.95 2274.7,-697.78 2425.5,-694.75"/>
<path fill="none" stroke="#00ff00" stroke-width="2" d="M468.5,-359.63C812.22,-359.62 898.15,-360.25 1241.88,-360.25 1241.88,-360.25 1241.88,-360.25 1645.25,-360.25 1786.75,-360.25 2163.81,-306.7 2281.5,-385.25 2408.36,-469.92 2272.98,-696.75 2425.5,-696.75"/>
<path fill="none" stroke="#ffff00" stroke-width="2" d="M468.5,-361.62C812.21,-361.62 898.14,-362.25 1241.88,-362.25 1241.88,-362.25 1241.88,-362.25 1645.25,-362.25 1787.03,-362.23 2164.09,-308.68 2280.39,-386.91 2406.64,-468.9 2271.26,-695.72 2425.5,-698.75"/>
<path fill="none" stroke="#000000" stroke-width="2" d="M468.5,-363.62C812.19,-363.62 898.12,-364.25 1241.88,-364.25 1241.88,-364.25 1241.88,-364.25 1645.25,-364.25 1787.31,-364.21 2164.37,-310.66 2279.28,-388.58 2404.93,-467.87 2269.54,-694.7 2425.5,-700.75"/>
</g>
<!-- NEUTRAL&#45;&#45;THERMAL_FUSE -->
<g id="edge26" class="edge">
<title>NEUTRAL:e&#45;&#45;THERMAL_FUSE:w</title>
<path fill="none" stroke="#000000" stroke-width="2" d="M509,-522.63C609.91,-524.46 631.69,-558.21 725.88,-556.38"/>
<path fill="none" stroke="#0066ff" stroke-width="2" d="M509,-524.63C608.23,-525.54 630.01,-559.29 725.88,-558.38"/>
<path fill="none" stroke="#0066ff" stroke-width="2" d="M509,-526.62C606.55,-526.62 628.33,-560.38 725.88,-560.37"/>
<path fill="none" stroke="#0066ff" stroke-width="2" d="M509,-528.62C604.87,-527.71 626.65,-561.46 725.88,-562.37"/>
<path fill="none" stroke="#000000" stroke-width="2" d="M509,-530.62C603.19,-528.79 624.96,-562.54 725.88,-564.37"/>
</g>
<!-- SWITCHED&#45;&#45;SOLENOID -->
<g id="edge30" class="edge">
<title>SWITCHED:e&#45;&#45;SOLENOID:w</title>
<path fill="none" stroke="#000000" stroke-width="2" d="M2224.38,-867.75C2326.23,-872.08 2315.68,-744.58 2425.5,-740.25"/>
<path fill="none" stroke="#000000" stroke-width="2" d="M2224.38,-869.75C2328.22,-871.91 2317.67,-744.41 2425.5,-742.25"/>
<path fill="none" stroke="#000000" stroke-width="2" d="M2224.38,-871.75C2330.21,-871.75 2319.66,-744.25 2425.5,-744.25"/>
<path fill="none" stroke="#000000" stroke-width="2" d="M2224.38,-873.75C2332.21,-871.59 2321.66,-744.09 2425.5,-746.25"/>
<path fill="none" stroke="#000000" stroke-width="2" d="M2224.38,-875.75C2334.2,-871.42 2323.65,-743.92 2425.5,-748.25"/>
</g>
<!-- SWITCHED&#45;&#45;PUMP -->
<g id="edge28" class="edge">
<title>SWITCHED:e&#45;&#45;PUMP:w</title>
<path fill="none" stroke="#000000" stroke-width="2" d="M2224.38,-897.5C2312,-898 2334.02,-885.87 2425.5,-885.38"/>
<path fill="none" stroke="#000000" stroke-width="2" d="M2224.38,-899.5C2312.96,-899.75 2334.98,-887.62 2425.5,-887.38"/>
<path fill="none" stroke="#000000" stroke-width="2" d="M2224.38,-901.5C2313.93,-901.5 2335.95,-889.38 2425.5,-889.38"/>
<path fill="none" stroke="#000000" stroke-width="2" d="M2224.38,-903.5C2314.89,-903.25 2336.91,-891.13 2425.5,-891.37"/>
<path fill="none" stroke="#000000" stroke-width="2" d="M2224.38,-905.5C2315.86,-905 2337.88,-892.88 2425.5,-893.37"/>
</g>
<!-- DISPLAY_PWR&#45;&#45;DISPLAY -->
<g id="edge32" class="edge">
<title>DISPLAY_PWR:e&#45;&#45;DISPLAY:w</title>
<path fill="none" stroke="#000000" stroke-width="2" d="M2226.25,-227.5C2326.06,-228.5 2349.37,-249.13 2443.88,-248.13"/>
<path fill="none" stroke="#ff0000" stroke-width="2" d="M2226.25,-229.5C2324.73,-230 2348.04,-250.63 2443.88,-250.13"/>
<path fill="none" stroke="#ff0000" stroke-width="2" d="M2226.25,-231.5C2323.41,-231.5 2346.72,-252.12 2443.88,-252.12"/>
<path fill="none" stroke="#ff0000" stroke-width="2" d="M2226.25,-233.5C2322.08,-233 2345.39,-253.62 2443.88,-254.12"/>
<path fill="none" stroke="#000000" stroke-width="2" d="M2226.25,-235.5C2320.76,-234.5 2344.07,-255.12 2443.88,-256.12"/>
</g>
<!-- DISPLAY_PWR&#45;&#45;DISPLAY -->
<g id="edge34" class="edge">
<title>DISPLAY_PWR:e&#45;&#45;DISPLAY:w</title>
<path fill="none" stroke="#000000" stroke-width="2" d="M2226.25,-197.75C2320.75,-198.77 2344.04,-177.9 2443.88,-176.88"/>
<path fill="none" stroke="#000000" stroke-width="2" d="M2226.25,-199.75C2322.08,-200.26 2345.37,-179.39 2443.88,-178.88"/>
<path fill="none" stroke="#000000" stroke-width="2" d="M2226.25,-201.75C2323.42,-201.75 2346.71,-180.87 2443.88,-180.88"/>
<path fill="none" stroke="#000000" stroke-width="2" d="M2226.25,-203.75C2324.75,-203.24 2348.04,-182.36 2443.88,-182.87"/>
<path fill="none" stroke="#000000" stroke-width="2" d="M2226.25,-205.75C2326.09,-204.73 2349.38,-183.85 2443.88,-184.87"/>
</g>
<!-- SSR_SIGNAL&#45;&#45;SOLID_STATE_RELAY -->
<g id="edge36" class="edge">
<title>SSR_SIGNAL:e&#45;&#45;SOLID_STATE_RELAY:w</title>
<path fill="none" stroke="#000000" stroke-width="2" d="M2272.75,-56.5C2352.56,-58.04 2370.24,-80.66 2443.75,-79.13"/>
<path fill="none" stroke="#ffff00" stroke-width="2" d="M2272.75,-58.5C2350.99,-59.27 2368.66,-81.89 2443.75,-81.13"/>
<path fill="none" stroke="#ffff00" stroke-width="2" d="M2272.75,-60.5C2349.41,-60.5 2367.09,-83.13 2443.75,-83.12"/>
<path fill="none" stroke="#ffff00" stroke-width="2" d="M2272.75,-62.5C2347.84,-61.73 2365.51,-84.36 2443.75,-85.12"/>
<path fill="none" stroke="#000000" stroke-width="2" d="M2272.75,-64.5C2346.26,-62.96 2363.94,-85.59 2443.75,-87.12"/>
</g>
<!-- SSR_SIGNAL&#45;&#45;SOLID_STATE_RELAY -->
<g id="edge38" class="edge">
<title>SSR_SIGNAL:e&#45;&#45;SOLID_STATE_RELAY:w</title>
<path fill="none" stroke="#000000" stroke-width="2" d="M2272.75,-26.75C2353.25,-28.72 2370.14,-57.34 2443.75,-55.38"/>
<path fill="none" stroke="#000000" stroke-width="2" d="M2272.75,-28.75C2351.53,-29.73 2368.42,-58.36 2443.75,-57.38"/>
<path fill="none" stroke="#000000" stroke-width="2" d="M2272.75,-30.75C2349.81,-30.75 2366.69,-59.38 2443.75,-59.38"/>
<path fill="none" stroke="#000000" stroke-width="2" d="M2272.75,-32.75C2348.08,-31.77 2364.97,-60.39 2443.75,-61.37"/>
<path fill="none" stroke="#000000" stroke-width="2" d="M2272.75,-34.75C2346.36,-32.78 2363.25,-61.41 2443.75,-63.37"/>
</g>
<!-- BUTTONS&#45;&#45;BOARD_LV -->
<g id="edge40" class="edge">
<title>BUTTONS:e&#45;&#45;BOARD_LV:w</title>
<path fill="none" stroke="#000000" stroke-width="2" d="M1425.5,-117.25C1488.86,-117.82 1504.9,-108.2 1572.38,-107.63"/>
<path fill="none" stroke="#00ff00" stroke-width="2" d="M1425.5,-119.25C1489.89,-119.54 1505.93,-109.91 1572.38,-109.63"/>
<path fill="none" stroke="#00ff00" stroke-width="2" d="M1425.5,-121.25C1490.92,-121.25 1506.96,-111.62 1572.38,-111.63"/>
<path fill="none" stroke="#00ff00" stroke-width="2" d="M1425.5,-123.25C1491.95,-122.96 1507.99,-113.34 1572.38,-113.62"/>
<path fill="none" stroke="#000000" stroke-width="2" d="M1425.5,-125.25C1492.98,-124.68 1509.02,-115.05 1572.38,-115.62"/>
</g>
<!-- BUTTONS&#45;&#45;BOARD_LV -->
<g id="edge42" class="edge">
<title>BUTTONS:e&#45;&#45;BOARD_LV:w</title>
<path fill="none" stroke="#000000" stroke-width="2" d="M1425.5,-87.5C1489.93,-87.6 1506.21,-83.97 1572.38,-83.88"/>
<path fill="none" stroke="#000000" stroke-width="2" d="M1425.5,-89.5C1490.36,-89.55 1506.64,-85.92 1572.38,-85.88"/>
<path fill="none" stroke="#000000" stroke-width="2" d="M1425.5,-91.5C1490.8,-91.5 1507.08,-87.88 1572.38,-87.88"/>
<path fill="none" stroke="#000000" stroke-width="2" d="M1425.5,-93.5C1491.23,-93.45 1507.51,-89.83 1572.38,-89.87"/>
<path fill="none" stroke="#000000" stroke-width="2" d="M1425.5,-95.5C1491.67,-95.4 1507.95,-91.78 1572.38,-91.87"/>
</g>
<!-- BUTTONS&#45;&#45;BOARD_LV -->
<g id="edge44" class="edge">
<title>BUTTONS:e&#45;&#45;BOARD_LV:w</title>
<path fill="none" stroke="#000000" stroke-width="2" d="M1425.5,-57.75C1491.36,-57.79 1507.67,-60.17 1572.38,-60.13"/>
<path fill="none" stroke="#00ff00" stroke-width="2" d="M1425.5,-59.75C1491.07,-59.77 1507.38,-62.15 1572.38,-62.13"/>
<path fill="none" stroke="#00ff00" stroke-width="2" d="M1425.5,-61.75C1490.79,-61.75 1507.09,-64.12 1572.38,-64.12"/>
<path fill="none" stroke="#00ff00" stroke-width="2" d="M1425.5,-63.75C1490.5,-63.73 1506.8,-66.1 1572.38,-66.12"/>
<path fill="none" stroke="#000000" stroke-width="2" d="M1425.5,-65.75C1490.21,-65.71 1506.51,-68.08 1572.38,-68.12"/>
</g>
<!-- BUTTONS&#45;&#45;BOARD_LV -->
<g id="edge46" class="edge">
<title>BUTTONS:e&#45;&#45;BOARD_LV:w</title>
<path fill="none" stroke="#000000" stroke-width="2" d="M1425.5,-28C1492.73,-28.45 1508.84,-36.83 1572.38,-36.38"/>
<path fill="none" stroke="#000000" stroke-width="2" d="M1425.5,-30C1491.81,-30.23 1507.91,-38.6 1572.38,-38.38"/>
<path fill="none" stroke="#000000" stroke-width="2" d="M1425.5,-32C1490.88,-32 1506.99,-40.38 1572.38,-40.37"/>
<path fill="none" stroke="#000000" stroke-width="2" d="M1425.5,-34C1489.96,-33.77 1506.07,-42.15 1572.38,-42.37"/>
<path fill="none" stroke="#000000" stroke-width="2" d="M1425.5,-36C1489.04,-35.55 1505.15,-43.92 1572.38,-44.37"/>
</g>
</g>
</svg>
