<!DOCTYPE svg PUBLIC "-//W3C//DTD SVG 1.1//EN" "http://www.w3.org/Graphics/SVG/1.1/DTD/svg11.dtd">
<svg xmlns="http://www.w3.org/2000/svg" version="1.1" width="7.45mm" height="6.552549mm" viewBox="-3.725 -2.725 7.45 6.552549">
            <title>Picture generated by PcbDraw </title>
            <desc>Picture generated by PcbDraw</desc>
        <g transform="" id="boardContainer"><g id="KiCAD footprint top"><g id="substrate-copper" style="fill:#666666; stroke:#666666;"><g style="fill-opacity: 1.00000;stroke-opacity: 1.00000;stroke-linecap: round;stroke-linejoin: round" transform="translate(0 0) scale(1 1)">
<path style="fill-opacity: 1.00000;fill-rule: evenodd" d="M -3.45000,-2.05500 -3.43858,-2.11240 -3.40607,-2.16107 -3.35740,-2.19358 -3.30000,-2.20500 -1.65000,-2.20500 -1.59260,-2.19358 -1.54393,-2.16107 -1.51142,-2.11240 -1.50000,-2.05500 -1.50000,-1.75500 -1.51142,-1.69760 -1.54393,-1.64893 -1.59260,-1.61642 -1.65000,-1.60500 -3.30000,-1.60500 -3.35740,-1.61642 -3.40607,-1.64893 -3.43858,-1.69760 -3.45000,-1.75500 Z"/> 
<path style="fill-opacity: 1.00000;fill-rule: evenodd" d="M -3.45000,-0.78500 -3.43858,-0.84240 -3.40607,-0.89107 -3.35740,-0.92358 -3.30000,-0.93500 -1.65000,-0.93500 -1.59260,-0.92358 -1.54393,-0.89107 -1.51142,-0.84240 -1.50000,-0.78500 -1.50000,-0.48500 -1.51142,-0.42760 -1.54393,-0.37893 -1.59260,-0.34642 -1.65000,-0.33500 -3.30000,-0.33500 -3.35740,-0.34642 -3.40607,-0.37893 -3.43858,-0.42760 -3.45000,-0.48500 Z"/> 
<path style="fill-opacity: 1.00000;fill-rule: evenodd" d="M -3.45000,0.48500 -3.43858,0.42760 -3.40607,0.37893 -3.35740,0.34642 -3.30000,0.33500 -1.65000,0.33500 -1.59260,0.34642 -1.54393,0.37893 -1.51142,0.42760 -1.50000,0.48500 -1.50000,0.78500 -1.51142,0.84240 -1.54393,0.89107 -1.59260,0.92358 -1.65000,0.93500 -3.30000,0.93500 -3.35740,0.92358 -3.40607,0.89107 -3.43858,0.84240 -3.45000,0.78500 Z"/> 
<path style="fill-opacity: 1.00000;fill-rule: evenodd" d="M -3.45000,1.75500 -3.43858,1.69760 -3.40607,1.64893 -3.35740,1.61642 -3.30000,1.60500 -1.65000,1.60500 -1.59260,1.61642 -1.54393,1.64893 -1.51142,1.69760 -1.50000,1.75500 -1.50000,2.05500 -1.51142,2.11240 -1.54393,2.16107 -1.59260,2.19358 -1.65000,2.20500 -3.30000,2.20500 -3.35740,2.19358 -3.40607,2.16107 -3.43858,2.11240 -3.45000,2.05500 Z"/> 
<path style="fill-opacity: 1.00000;fill-rule: evenodd" d="M 1.50000,1.75500 1.51142,1.69760 1.54393,1.64893 1.59260,1.61642 1.65000,1.60500 3.30000,1.60500 3.35740,1.61642 3.40607,1.64893 3.43858,1.69760 3.45000,1.75500 3.45000,2.05500 3.43858,2.11240 3.40607,2.16107 3.35740,2.19358 3.30000,2.20500 1.65000,2.20500 1.59260,2.19358 1.54393,2.16107 1.51142,2.11240 1.50000,2.05500 Z"/> 
<path style="fill-opacity: 1.00000;fill-rule: evenodd" d="M 1.50000,0.48500 1.51142,0.42760 1.54393,0.37893 1.59260,0.34642 1.65000,0.33500 3.30000,0.33500 3.35740,0.34642 3.40607,0.37893 3.43858,0.42760 3.45000,0.48500 3.45000,0.78500 3.43858,0.84240 3.40607,0.89107 3.35740,0.92358 3.30000,0.93500 1.65000,0.93500 1.59260,0.92358 1.54393,0.89107 1.51142,0.84240 1.50000,0.78500 Z"/> 
<path style="fill-opacity: 1.00000;fill-rule: evenodd" d="M 1.50000,-0.78500 1.51142,-0.84240 1.54393,-0.89107 1.59260,-0.92358 1.65000,-0.93500 3.30000,-0.93500 3.35740,-0.92358 3.40607,-0.89107 3.43858,-0.84240 3.45000,-0.78500 3.45000,-0.48500 3.43858,-0.42760 3.40607,-0.37893 3.35740,-0.34642 3.30000,-0.33500 1.65000,-0.33500 1.59260,-0.34642 1.54393,-0.37893 1.51142,-0.42760 1.50000,-0.48500 Z"/> 
<path style="fill-opacity: 1.00000;fill-rule: evenodd" d="M 1.50000,-2.05500 1.51142,-2.11240 1.54393,-2.16107 1.59260,-2.19358 1.65000,-2.20500 3.30000,-2.20500 3.35740,-2.19358 3.40607,-2.16107 3.43858,-2.11240 3.45000,-2.05500 3.45000,-1.75500 3.43858,-1.69760 3.40607,-1.64893 3.35740,-1.61642 3.30000,-1.60500 1.65000,-1.60500 1.59260,-1.61642 1.54393,-1.64893 1.51142,-1.69760 1.50000,-1.75500 Z"/> 
</g> 
</g><g id="substrate-crt" style="fill:#000000; stroke:#000000;"><g style="stroke-width: 0.05000;stroke-opacity: 1;stroke-linecap: round;stroke-linejoin: round">
<path d="M3.70000 2.70000 L3.70000 -2.70000 "/>
<path d="M3.70000 -2.70000 L-3.70000 -2.70000 "/>
<path d="M-3.70000 2.70000 L3.70000 2.70000 "/>
<path d="M-3.70000 -2.70000 L-3.70000 2.70000 "/>
</g> 
</g><g id="substrate-fab" style="fill:#000000; stroke:#000000;"><g style="stroke-width: 0.10000;stroke-opacity: 1;stroke-linecap: round;stroke-linejoin: round">
<path d="M1.95000 2.45000 L-1.95000 2.45000 "/>
<path d="M1.95000 -2.45000 L1.95000 2.45000 "/>
<path d="M-0.97500 -2.45000 L1.95000 -2.45000 "/>
<path d="M-1.95000 2.45000 L-1.95000 -1.47500 "/>
<path d="M-1.95000 -1.47500 L-0.97500 -2.45000 "/>
</g> 
</g><g id="substrate-silk" style="fill:#61caff; stroke:#61caff;" mask="url(#pads-mask-silkscreen)"><g style="stroke-width: 0.15000;stroke-opacity: 1;stroke-linecap: round;stroke-linejoin: round">
<text x="-2.87500" y="3.51330" textLength="1.53000" font-size="0.80000" lengthAdjust="spacingAndGlyphs" text-anchor="middle" opacity="0" stroke-opacity="0">U6</text>
<g class="stroked-text"><desc>U6</desc>
<path d="M-3.33214 2.88307 L-3.33214 3.36878 "/>
<path d="M-3.33214 3.36878 L-3.30357 3.42593 "/>
<path d="M-3.30357 3.42593 L-3.27500 3.45450 "/>
<path d="M-3.27500 3.45450 L-3.21786 3.48307 "/>
<path d="M-3.21786 3.48307 L-3.10357 3.48307 "/>
<path d="M-3.10357 3.48307 L-3.04643 3.45450 "/>
<path d="M-3.04643 3.45450 L-3.01786 3.42593 "/>
<path d="M-3.01786 3.42593 L-2.98928 3.36878 "/>
<path d="M-2.98928 3.36878 L-2.98928 2.88307 "/>
<path d="M-2.44643 2.88307 L-2.56071 2.88307 "/>
<path d="M-2.56071 2.88307 L-2.61786 2.91164 "/>
<path d="M-2.61786 2.91164 L-2.64643 2.94021 "/>
<path d="M-2.64643 2.94021 L-2.70357 3.02593 "/>
<path d="M-2.70357 3.02593 L-2.73214 3.14021 "/>
<path d="M-2.73214 3.14021 L-2.73214 3.36878 "/>
<path d="M-2.73214 3.36878 L-2.70357 3.42593 "/>
<path d="M-2.70357 3.42593 L-2.67500 3.45450 "/>
<path d="M-2.67500 3.45450 L-2.61786 3.48307 "/>
<path d="M-2.61786 3.48307 L-2.50357 3.48307 "/>
<path d="M-2.50357 3.48307 L-2.44643 3.45450 "/>
<path d="M-2.44643 3.45450 L-2.41786 3.42593 "/>
<path d="M-2.41786 3.42593 L-2.38929 3.36878 "/>
<path d="M-2.38929 3.36878 L-2.38929 3.22593 "/>
<path d="M-2.38929 3.22593 L-2.41786 3.16878 "/>
<path d="M-2.41786 3.16878 L-2.44643 3.14021 "/>
<path d="M-2.44643 3.14021 L-2.50357 3.11164 "/>
<path d="M-2.50357 3.11164 L-2.61786 3.11164 "/>
<path d="M-2.61786 3.11164 L-2.67500 3.14021 "/>
<path d="M-2.67500 3.14021 L-2.70357 3.16878 "/>
<path d="M-2.70357 3.16878 L-2.73214 3.22593 "/>
</g></g>
<g style="stroke-width: 0.12000;stroke-opacity: 1;stroke-linecap: round;stroke-linejoin: round">
<path d="M0.00000 2.56000 L1.95000 2.56000 "/>
<path d="M0.00000 2.56000 L-1.95000 2.56000 "/>
<path d="M0.00000 -2.56000 L1.95000 -2.56000 "/>
<path d="M0.00000 -2.56000 L-3.45000 -2.56000 "/>
</g> 
</g></g></g><rect id="origin" fill="red" width="1.0" height="1.0" x="0" y="0"/></svg>