<!DOCTYPE svg PUBLIC "-//W3C//DTD SVG 1.1//EN" "http://www.w3.org/Graphics/SVG/1.1/DTD/svg11.dtd">
<svg xmlns="http://www.w3.org/2000/svg" version="1.1" width="5.441429mm" height="1.95mm" viewBox="-1.705 -0.975 5.441429 1.95">
            <title>Picture generated by PcbDraw </title>
            <desc>Picture generated by PcbDraw</desc>
        <g transform="" id="boardContainer"><g id="KiCAD footprint top"><g id="substrate-copper" style="fill:#666666; stroke:#666666;"><g style="fill-opacity: 1.00000;stroke-opacity: 1.00000;stroke-linecap: round;stroke-linejoin: round" transform="translate(0 0) scale(1 1)">
<path style="fill-opacity: 1.00000;fill-rule: evenodd" d="M -1.42500,-0.45000 -1.40597,-0.54567 -1.35178,-0.62678 -1.27067,-0.68097 -1.17500,-0.70000 -0.65000,-0.70000 -0.55433,-0.68097 -0.47322,-0.62678 -0.41903,-0.54567 -0.40000,-0.45000 -0.40000,0.45000 -0.41903,0.54567 -0.47322,0.62678 -0.55433,0.68097 -0.65000,0.70000 -1.17500,0.70000 -1.27067,0.68097 -1.35178,0.62678 -1.40597,0.54567 -1.42500,0.45000 Z"/> 
<path style="fill-opacity: 1.00000;fill-rule: evenodd" d="M 0.40000,-0.45000 0.41903,-0.54567 0.47322,-0.62678 0.55433,-0.68097 0.65000,-0.70000 1.17500,-0.70000 1.27067,-0.68097 1.35178,-0.62678 1.40597,-0.54567 1.42500,-0.45000 1.42500,0.45000 1.40597,0.54567 1.35178,0.62678 1.27067,0.68097 1.17500,0.70000 0.65000,0.70000 0.55433,0.68097 0.47322,0.62678 0.41903,0.54567 0.40000,0.45000 Z"/> 
</g> 
</g><g id="substrate-crt" style="fill:#000000; stroke:#000000;"><g style="stroke-width: 0.05000;stroke-opacity: 1;stroke-linecap: round;stroke-linejoin: round">
<path d="M-1.68000 -0.95000 L1.68000 -0.95000 "/>
<path d="M-1.68000 0.95000 L-1.68000 -0.95000 "/>
<path d="M1.68000 -0.95000 L1.68000 0.95000 "/>
<path d="M1.68000 0.95000 L-1.68000 0.95000 "/>
</g> 
</g><g id="substrate-fab" style="fill:#000000; stroke:#000000;"><g style="stroke-width: 0.10000;stroke-opacity: 1;stroke-linecap: round;stroke-linejoin: round">
<path d="M-1.00000 -0.62500 L1.00000 -0.62500 "/>
<path d="M-1.00000 0.62500 L-1.00000 -0.62500 "/>
<path d="M1.00000 -0.62500 L1.00000 0.62500 "/>
<path d="M1.00000 0.62500 L-1.00000 0.62500 "/>
</g> 
</g><g id="substrate-silk" style="fill:#61caff; stroke:#61caff;" mask="url(#pads-mask-silkscreen)"><g style="stroke-width: 0.15000;stroke-opacity: 1;stroke-linecap: round;stroke-linejoin: round">
<text x="2.70000" y="0.30000" textLength="2.07286" font-size="0.80000" lengthAdjust="spacingAndGlyphs" text-anchor="middle" opacity="0" stroke-opacity="0">R17</text>
<g class="stroked-text"><desc>R17</desc>
<path d="M2.31428 0.26977 L2.11428 -0.01594 "/>
<path d="M1.97143 0.26977 L1.97143 -0.33023 "/>
<path d="M1.97143 -0.33023 L2.20000 -0.33023 "/>
<path d="M2.20000 -0.33023 L2.25714 -0.30166 "/>
<path d="M2.25714 -0.30166 L2.28571 -0.27308 "/>
<path d="M2.28571 -0.27308 L2.31428 -0.21594 "/>
<path d="M2.31428 -0.21594 L2.31428 -0.13023 "/>
<path d="M2.31428 -0.13023 L2.28571 -0.07308 "/>
<path d="M2.28571 -0.07308 L2.25714 -0.04451 "/>
<path d="M2.25714 -0.04451 L2.20000 -0.01594 "/>
<path d="M2.20000 -0.01594 L1.97143 -0.01594 "/>
<path d="M2.88571 0.26977 L2.54286 0.26977 "/>
<path d="M2.71428 0.26977 L2.71428 -0.33023 "/>
<path d="M2.71428 -0.33023 L2.65714 -0.24451 "/>
<path d="M2.65714 -0.24451 L2.60000 -0.18737 "/>
<path d="M2.60000 -0.18737 L2.54286 -0.15880 "/>
<path d="M3.08571 -0.33023 L3.48571 -0.33023 "/>
<path d="M3.48571 -0.33023 L3.22857 0.26977 "/>
</g></g>
<g style="stroke-width: 0.12000;stroke-opacity: 1;stroke-linecap: round;stroke-linejoin: round">
<path d="M-0.22706 -0.73500 L0.22706 -0.73500 "/>
<path d="M-0.22706 0.73500 L0.22706 0.73500 "/>
</g> 
</g></g></g><rect id="origin" fill="red" width="1.0" height="1.0" x="0" y="0"/></svg>