<!DOCTYPE svg PUBLIC "-//W3C//DTD SVG 1.1//EN" "http://www.w3.org/Graphics/SVG/1.1/DTD/svg11.dtd">
<svg xmlns="http://www.w3.org/2000/svg" version="1.1" width="10.55mm" height="9.53925mm" viewBox="-2.735 -5.51425 10.55 9.53925">
            <title>Picture generated by PcbDraw </title>
            <desc>Picture generated by PcbDraw</desc>
        <g transform="" id="boardContainer"><g id="KiCAD footprint top"><g id="substrate-copper" style="fill:#666666; stroke:#666666;"><g style="fill-opacity: 1.00000;stroke-opacity: 1.00000;stroke-linecap: round;stroke-linejoin: round" transform="translate(0 0) scale(1 1)">
<path style="fill-opacity: 1.00000;fill-rule: evenodd" d="M -1.50000,1.50000 -1.50000,-1.50000 1.50000,-1.50000 1.50000,1.50000 Z"/> 
</g>
<g style="fill-opacity: 1.00000">
<circle cx="5.08000" cy="0.00000" r="1.50000"/> 
</g> 
</g><g id="substrate-crt" style="fill:#000000; stroke:#000000;"><g style="stroke-width: 0.05000;stroke-opacity: 1;stroke-linecap: round;stroke-linejoin: round">
<path d="M-2.71000 -4.00000 L7.79000 -4.00000 "/>
<path d="M-2.71000 -4.00000 L-2.71000 4.00000 "/>
<path d="M7.79000 4.00000 L7.79000 -4.00000 "/>
<path d="M7.79000 4.00000 L-2.71000 4.00000 "/>
</g> 
</g><g id="substrate-fab" style="fill:#000000; stroke:#000000;"><g style="stroke-width: 0.15000;stroke-opacity: 1;stroke-linecap: round;stroke-linejoin: round">
<text x="2.54000" y="0.50000" textLength="1.96429" font-size="1.33333" lengthAdjust="spacingAndGlyphs" text-anchor="middle" opacity="0" stroke-opacity="0">J2</text>
<g class="stroked-text"><desc>J2</desc>
<path d="M2.20667 -0.54518 L2.20667 0.16910 "/>
<path d="M2.20667 0.16910 L2.15905 0.31196 "/>
<path d="M2.15905 0.31196 L2.06381 0.40720 "/>
<path d="M2.06381 0.40720 L1.92095 0.45482 "/>
<path d="M1.92095 0.45482 L1.82571 0.45482 "/>
<path d="M2.63524 -0.44994 L2.68286 -0.49756 "/>
<path d="M2.68286 -0.49756 L2.77809 -0.54518 "/>
<path d="M2.77809 -0.54518 L3.01619 -0.54518 "/>
<path d="M3.01619 -0.54518 L3.11143 -0.49756 "/>
<path d="M3.11143 -0.49756 L3.15905 -0.44994 "/>
<path d="M3.15905 -0.44994 L3.20667 -0.35470 "/>
<path d="M3.20667 -0.35470 L3.20667 -0.25947 "/>
<path d="M3.20667 -0.25947 L3.15905 -0.11661 "/>
<path d="M3.15905 -0.11661 L2.58762 0.45482 "/>
<path d="M2.58762 0.45482 L3.20667 0.45482 "/>
</g></g>
<g style="stroke-width: 0.10000;stroke-opacity: 1;stroke-linecap: round;stroke-linejoin: round">
<path d="M7.54000 -3.75000 L-2.46000 -3.75000 "/>
<path d="M-2.46000 -3.75000 L-2.46000 3.75000 "/>
<path d="M-2.41000 2.55000 L7.49000 2.55000 "/>
<path d="M7.54000 3.75000 L7.54000 -3.75000 "/>
<path d="M-2.46000 3.75000 L7.54000 3.75000 "/>
</g> 
</g><g id="substrate-silk" style="fill:#61caff; stroke:#61caff;" mask="url(#pads-mask-silkscreen)"><g style="stroke-width: 0.15000;stroke-opacity: 1;stroke-linecap: round;stroke-linejoin: round">
<text x="2.38000" y="-4.60000" textLength="1.35857" font-size="0.80000" lengthAdjust="spacingAndGlyphs" text-anchor="middle" opacity="0" stroke-opacity="0">J2</text>
<g class="stroked-text"><desc>J2</desc>
<path d="M2.18000 -5.23023 L2.18000 -4.80166 "/>
<path d="M2.18000 -4.80166 L2.15143 -4.71594 "/>
<path d="M2.15143 -4.71594 L2.09428 -4.65880 "/>
<path d="M2.09428 -4.65880 L2.00857 -4.63023 "/>
<path d="M2.00857 -4.63023 L1.95143 -4.63023 "/>
<path d="M2.43714 -5.17308 L2.46571 -5.20166 "/>
<path d="M2.46571 -5.20166 L2.52286 -5.23023 "/>
<path d="M2.52286 -5.23023 L2.66571 -5.23023 "/>
<path d="M2.66571 -5.23023 L2.72286 -5.20166 "/>
<path d="M2.72286 -5.20166 L2.75143 -5.17308 "/>
<path d="M2.75143 -5.17308 L2.78000 -5.11594 "/>
<path d="M2.78000 -5.11594 L2.78000 -5.05880 "/>
<path d="M2.78000 -5.05880 L2.75143 -4.97309 "/>
<path d="M2.75143 -4.97309 L2.40857 -4.63023 "/>
<path d="M2.40857 -4.63023 L2.78000 -4.63023 "/>
</g></g>
<g style="stroke-width: 0.12000;stroke-opacity: 1;stroke-linecap: round;stroke-linejoin: round">
<path d="M7.62000 -3.81000 L-2.54000 -3.81000 "/>
<path d="M-2.54000 -3.81000 L-2.54000 3.81000 "/>
<path d="M7.62000 2.54000 L-2.54000 2.54000 "/>
<path d="M7.62000 3.81000 L7.62000 -3.81000 "/>
<path d="M-2.54000 3.81000 L7.62000 3.81000 "/>
</g> 
</g></g></g><rect id="origin" fill="red" width="1.0" height="1.0" x="0" y="0"/></svg>