<!DOCTYPE svg PUBLIC "-//W3C//DTD SVG 1.1//EN" "http://www.w3.org/Graphics/SVG/1.1/DTD/svg11.dtd">
<svg xmlns="http://www.w3.org/2000/svg" version="1.1" width="15.65mm" height="9.63925mm" viewBox="-2.745 -5.61425 15.65 9.63925">
            <title>Picture generated by PcbDraw </title>
            <desc>Picture generated by PcbDraw</desc>
        <g transform="" id="boardContainer"><g id="KiCAD footprint top"><g id="substrate-copper" style="fill:#666666; stroke:#666666;"><g style="fill-opacity: 1.00000;stroke-opacity: 1.00000;stroke-linecap: round;stroke-linejoin: round" transform="translate(0 0) scale(1 1)">
<path style="fill-opacity: 1.00000;fill-rule: evenodd" d="M -1.50000,1.50000 -1.50000,-1.50000 1.50000,-1.50000 1.50000,1.50000 Z"/> 
</g>
<g style="fill-opacity: 1.00000">
<circle cx="5.08000" cy="0.00000" r="1.50000"/> 
</g>
<g style="fill-opacity: 1.00000">
<circle cx="10.16000" cy="0.00000" r="1.50000"/> 
</g> 
</g><g id="substrate-crt" style="fill:#000000; stroke:#000000;"><g style="stroke-width: 0.05000;stroke-opacity: 1;stroke-linecap: round;stroke-linejoin: round">
<path d="M-2.72000 -4.00000 L12.88000 -4.00000 "/>
<path d="M-2.72000 -4.00000 L-2.72000 4.00000 "/>
<path d="M12.88000 4.00000 L12.88000 -4.00000 "/>
<path d="M12.88000 4.00000 L-2.72000 4.00000 "/>
</g> 
</g><g id="substrate-fab" style="fill:#000000; stroke:#000000;"><g style="stroke-width: 0.15000;stroke-opacity: 1;stroke-linecap: round;stroke-linejoin: round">
<text x="5.08000" y="0.50000" textLength="1.96429" font-size="1.33333" lengthAdjust="spacingAndGlyphs" text-anchor="middle" opacity="0" stroke-opacity="0">J3</text>
<g class="stroked-text"><desc>J3</desc>
<path d="M4.74667 -0.54518 L4.74667 0.16910 "/>
<path d="M4.74667 0.16910 L4.69905 0.31196 "/>
<path d="M4.69905 0.31196 L4.60381 0.40720 "/>
<path d="M4.60381 0.40720 L4.46095 0.45482 "/>
<path d="M4.46095 0.45482 L4.36571 0.45482 "/>
<path d="M5.12762 -0.54518 L5.74667 -0.54518 "/>
<path d="M5.74667 -0.54518 L5.41333 -0.16423 "/>
<path d="M5.41333 -0.16423 L5.55619 -0.16423 "/>
<path d="M5.55619 -0.16423 L5.65143 -0.11661 "/>
<path d="M5.65143 -0.11661 L5.69905 -0.06899 "/>
<path d="M5.69905 -0.06899 L5.74667 0.02625 "/>
<path d="M5.74667 0.02625 L5.74667 0.26434 "/>
<path d="M5.74667 0.26434 L5.69905 0.35958 "/>
<path d="M5.69905 0.35958 L5.65143 0.40720 "/>
<path d="M5.65143 0.40720 L5.55619 0.45482 "/>
<path d="M5.55619 0.45482 L5.27048 0.45482 "/>
<path d="M5.27048 0.45482 L5.17524 0.40720 "/>
<path d="M5.17524 0.40720 L5.12762 0.35958 "/>
</g></g>
<g style="stroke-width: 0.10000;stroke-opacity: 1;stroke-linecap: round;stroke-linejoin: round">
<path d="M12.63000 -3.75000 L12.63000 3.75000 "/>
<path d="M-2.47000 -3.75000 L12.63000 -3.75000 "/>
<path d="M-2.47000 2.55000 L12.63000 2.55000 "/>
<path d="M12.63000 3.75000 L-2.47000 3.75000 "/>
<path d="M-2.47000 3.75000 L-2.47000 -3.75000 "/>
</g> 
</g><g id="substrate-silk" style="fill:#61caff; stroke:#61caff;" mask="url(#pads-mask-silkscreen)"><g style="stroke-width: 0.15000;stroke-opacity: 1;stroke-linecap: round;stroke-linejoin: round">
<text x="5.04000" y="-4.70000" textLength="1.35857" font-size="0.80000" lengthAdjust="spacingAndGlyphs" text-anchor="middle" opacity="0" stroke-opacity="0">J3</text>
<g class="stroked-text"><desc>J3</desc>
<path d="M4.84000 -5.33023 L4.84000 -4.90166 "/>
<path d="M4.84000 -4.90166 L4.81143 -4.81594 "/>
<path d="M4.81143 -4.81594 L4.75428 -4.75880 "/>
<path d="M4.75428 -4.75880 L4.66857 -4.73023 "/>
<path d="M4.66857 -4.73023 L4.61143 -4.73023 "/>
<path d="M5.06857 -5.33023 L5.44000 -5.33023 "/>
<path d="M5.44000 -5.33023 L5.24000 -5.10166 "/>
<path d="M5.24000 -5.10166 L5.32571 -5.10166 "/>
<path d="M5.32571 -5.10166 L5.38286 -5.07308 "/>
<path d="M5.38286 -5.07308 L5.41143 -5.04451 "/>
<path d="M5.41143 -5.04451 L5.44000 -4.98737 "/>
<path d="M5.44000 -4.98737 L5.44000 -4.84451 "/>
<path d="M5.44000 -4.84451 L5.41143 -4.78737 "/>
<path d="M5.41143 -4.78737 L5.38286 -4.75880 "/>
<path d="M5.38286 -4.75880 L5.32571 -4.73023 "/>
<path d="M5.32571 -4.73023 L5.15428 -4.73023 "/>
<path d="M5.15428 -4.73023 L5.09714 -4.75880 "/>
<path d="M5.09714 -4.75880 L5.06857 -4.78737 "/>
</g></g>
<g style="stroke-width: 0.12000;stroke-opacity: 1;stroke-linecap: round;stroke-linejoin: round">
<path d="M-2.54000 -3.81000 L12.70000 -3.81000 "/>
<path d="M-2.54000 2.54000 L12.70000 2.54000 "/>
<path d="M12.70000 3.81000 L12.70000 -3.81000 "/>
<path d="M-2.54000 3.81000 L-2.54000 -3.81000 "/>
<path d="M-2.54000 3.81000 L12.70000 3.81000 "/>
</g> 
</g></g></g><rect id="origin" fill="red" width="1.0" height="1.0" x="0" y="0"/></svg>